<?xml version="1.0" encoding="utf-8"?>
<!-- Generator: Adobe Illustrator 16.0.0, SVG Export Plug-In . SVG Version: 6.00 Build 0)  -->
<!DOCTYPE svg PUBLIC "-//W3C//DTD SVG 1.1//EN" "http://www.w3.org/Graphics/SVG/1.1/DTD/svg11.dtd">
<svg version="1.1" id="Layer_1" xmlns="http://www.w3.org/2000/svg" xmlns:xlink="http://www.w3.org/1999/xlink" x="0px" y="0px"
	 width="889.188px" height="120.708px" viewBox="55.808 257.525 889.188 120.708"
	 enable-background="new 55.808 257.525 889.188 120.708" xml:space="preserve">
<path fill="#5D92CA" d="M55.808,257.525H71.97v93.562H55.808V257.525z"/>
<g>
	<path fill="#5D92CA" d="M148.106,285.43h15.657v65.908h-15.404l-0.757-9.597c-3.788,7.702-14.015,11.49-21.465,11.616
		c-19.571,0.126-33.964-11.868-33.964-35.101c0-22.729,15.15-34.597,34.343-34.471c8.838,0,17.298,4.167,20.959,10.731
		L148.106,285.43L148.106,285.43z M108.586,318.385c0,12.626,8.712,20.076,19.57,20.076c25.632,0,25.632-40.025,0-40.025
		C117.298,298.435,108.586,305.758,108.586,318.385"/>
	<path fill="#5D92CA" d="M203.03,285.43v34.47c0,9.975,5.557,17.677,15.909,17.677c9.976,0,16.793-8.46,16.793-18.435V285.43h16.162
		v66.035h-14.521l-1.011-8.966c-6.817,6.692-13.131,9.85-22.349,9.85c-15.783,0-27.272-11.869-27.272-32.323V285.43H203.03
		L203.03,285.43z M323.864,351.466v-34.471c0-9.975-5.556-17.677-15.908-17.677c-9.976,0-16.919,8.459-16.919,18.436v33.712h-16.162
		V285.43h14.521l1.01,8.965c6.692-6.566,13.385-9.851,21.718-9.851c15.529,0,27.903,11.617,27.903,32.324v34.597H323.864
		L323.864,351.466z M421.086,343.006c-7.576,7.448-15.656,10.479-25.379,10.479c-19.065,0-35.102-11.489-35.102-34.975
		c0-23.358,15.909-34.849,35.102-34.849c9.344,0,16.539,2.65,23.862,9.722l-10.354,10.858c-3.914-3.408-8.712-5.177-13.257-5.177
		c-10.985,0-18.939,8.081-18.939,19.571c0,12.626,8.586,19.316,18.688,19.316c5.177,0,10.479-1.515,14.521-5.429L421.086,343.006
		L421.086,343.006z M455.556,257.778v36.617c5.935-7.576,13.131-9.851,20.581-9.851c18.687,0,27.02,12.753,27.02,32.071v34.85
		h-16.287v-34.597c0-11.996-6.313-17.172-15.024-17.172c-9.598,0-16.288,8.207-16.288,18.057v33.712h-16.288v-93.688H455.556
		L455.556,257.778z M520.832,363.966h99.495v14.268h-99.495V363.966z M689.142,343.006c-7.576,7.448-15.657,10.479-25.379,10.479
		c-19.192,0-35.102-11.489-35.102-34.975c0-23.358,15.908-34.849,35.102-34.849c9.344,0,16.54,2.65,23.862,9.722l-10.354,10.858
		c-3.914-3.408-8.712-5.177-13.257-5.177c-10.985,0-18.939,8.081-18.939,19.571c0,12.626,8.586,19.316,18.688,19.316
		c5.177,0,10.479-1.515,14.394-5.429L689.142,343.006L689.142,343.006z M770.327,318.51c0,19.065-13.005,34.344-34.344,34.344
		c-21.338,0-34.217-15.404-34.217-34.344c0-18.813,13.132-34.345,34.091-34.345C756.818,284.166,770.327,299.697,770.327,318.51
		 M717.93,318.51c0,9.975,6.061,19.443,17.929,19.443c11.869,0,17.931-9.343,17.931-19.443c0-9.849-6.944-19.57-17.931-19.57
		C724.115,298.939,717.93,308.662,717.93,318.51 M857.701,257.904v93.562h-15.277l-1.01-9.092
		c-5.052,7.828-13.259,10.605-21.213,10.605c-19.443,0-33.965-12.879-33.965-34.47c0-22.728,14.269-34.47,33.586-34.47
		c6.944,0,17.803,3.787,21.717,10.605v-36.49C841.414,257.904,857.701,257.904,857.701,257.904z M802.525,318.385
		c0,11.49,8.333,19.443,18.688,19.443c10.354,0,19.064-7.448,19.064-19.443c0-11.49-8.838-19.318-19.064-19.318
		C810.732,299.065,802.525,306.516,802.525,318.385"/>
	<path fill="#5D92CA" d="M893.056,324.318c1.137,8.207,8.207,14.016,19.697,14.016c6.061,0,13.889-2.272,17.677-6.188l10.479,10.354
		c-6.943,7.197-18.309,10.732-28.408,10.732c-22.729,0-36.237-14.016-36.237-35.228c0-20.075,13.636-34.471,35.101-34.471
		c22.097,0,35.859,13.637,33.334,40.783L893.056,324.318L893.056,324.318z M928.914,310.808
		c-1.011-8.585-7.703-12.878-17.173-12.878c-8.838,0-16.034,4.293-18.434,12.878H928.914L928.914,310.808z"/>
</g>
</svg>
