<?xml version="1.0" encoding="utf-8"?>
<!-- Generator: Adobe Illustrator 16.0.0, SVG Export Plug-In . SVG Version: 6.00 Build 0)  -->
<!DOCTYPE svg PUBLIC "-//W3C//DTD SVG 1.1//EN" "http://www.w3.org/Graphics/SVG/1.1/DTD/svg11.dtd">
<svg version="1.1" id="Layer_1" xmlns="http://www.w3.org/2000/svg" xmlns:xlink="http://www.w3.org/1999/xlink" x="0px" y="0px"
	 width="83.379px" height="150.507px" viewBox="528.614 180.632 83.379 150.507"
	 enable-background="new 528.614 180.632 83.379 150.507" xml:space="preserve">
<g>
	<path fill="#5D92CA" d="M570.075,223.308c-6.565,0-11.869,5.303-11.869,11.869c0,6.565,5.304,11.868,11.869,11.868
		c6.439,0,11.868-5.303,11.868-11.868C581.944,228.611,576.642,223.308,570.075,223.308 M570.075,240.606
		c-3.029,0-5.556-2.399-5.556-5.429c0-3.03,2.525-5.43,5.556-5.43c3.031,0,5.43,2.399,5.43,5.43
		C575.631,238.207,573.106,240.606,570.075,240.606"/>
	<path fill="#5D92CA" d="M611.363,261.061l-11.742-17.424c1.264-15.656-1.01-36.742-27.02-62.121
		c-0.632-0.631-1.517-0.885-2.399-0.885l0,0c-0.884,0-1.768,0.38-2.398,0.885c-26.01,25.379-28.282,46.465-27.021,62.121
		l-11.743,17.424c-0.378,0.631-0.505,1.263-0.378,2.021l9.092,33.333c0.252,1.138,1.389,1.896,2.65,2.021c0.126,0,0.252,0,0.505,0
		c1.138,0,2.146-0.505,2.778-1.391l9.091-13.889l14.646,46.086c0.378,1.138,1.515,1.896,2.902,1.896
		c1.264,0,2.399-0.758,2.904-1.896l14.646-46.086l9.091,13.889c0.632,0.886,1.642,1.391,2.777,1.391c0.126,0,0.253,0,0.506,0
		c1.263-0.126,2.397-1.011,2.65-2.021l9.091-33.333C611.868,262.323,611.741,261.565,611.363,261.061L611.363,261.061z
		 M550.125,275.833l-8.206,12.374l-6.944-25.505l7.955-11.743l7.449,24.495C550.379,275.581,550.253,275.707,550.125,275.833
		L550.125,275.833z M570.075,318.763L560.1,286.44h4.925l5.051,16.414l5.05-16.414h4.926L570.075,318.763L570.075,318.763z
		 M587.5,261.439l-2.021,6.438l0,0l-3.661,11.995l-0.379,1.136h-22.854l-0.379-1.136l-3.66-11.995l0,0l-2.021-6.438l-5.682-18.436
		c0,0,0,0,0-0.126c-1.012-14.142,1.01-32.829,23.104-55.556l0,0l0,0c22.097,22.727,24.116,41.414,23.106,55.556c0,0,0,0,0,0.126
		L587.5,261.439L587.5,261.439z M598.232,288.334l-8.207-12.375c-0.126-0.126-0.126-0.252-0.253-0.252l7.45-24.495l7.954,11.743
		L598.232,288.334L598.232,288.334z"/>
</g>
</svg>
