<?xml version="1.0" encoding="utf-8"?>
<!-- Generator: Adobe Illustrator 16.0.0, SVG Export Plug-In . SVG Version: 6.00 Build 0)  -->
<!DOCTYPE svg PUBLIC "-//W3C//DTD SVG 1.1//EN" "http://www.w3.org/Graphics/SVG/1.1/DTD/svg11.dtd">
<svg version="1.1" xmlns="http://www.w3.org/2000/svg" xmlns:xlink="http://www.w3.org/1999/xlink" x="0px" y="0px"
	 width="1619.797px" height="1079.865px" viewBox="0 0 1619.797 1079.865" enable-background="new 0 0 1619.797 1079.865"
	 xml:space="preserve">
<g id="Layer_1" display="none">
</g>
<g id="Layer_2">
	<g>
		<path fill="#5D92CA" d="M824.893,528.781c-9.425-9.422-24.642-9.426-34.059-0.002c-9.421,9.421-9.422,24.636,0,34.056
			c9.241,9.244,24.637,9.421,34.057,0.003C834.312,553.418,834.313,538.196,824.893,528.781 M800.076,553.595
			c-4.35-4.347-4.533-11.409-0.186-15.757c4.346-4.352,11.412-4.168,15.76,0.183c4.348,4.343,4.351,11.227,0.002,15.577
			C811.485,558.124,804.424,557.944,800.076,553.595"/>
		<path fill="#5D92CA" d="M758.357,643.404l6.205-3.212l-6.88,32.967c-0.363,2.178,0.361,4.353,1.992,5.986
			c0.181,0.176,0.358,0.357,0.724,0.72c1.994,1.63,4.89,1.993,6.701,0.905l60.871-34.781c0.907-1.269,1.813-2.538,1.992-3.808l0,0
			l8.153-41.845c24.273-20.654,51.266-54.168,50.36-127.897c0.001-1.815-0.905-3.442-2.174-4.711l0,0
			c-1.267-1.264-3.08-1.994-4.71-2.175c-73.73-0.905-107.243,26.089-127.897,50.362l-41.849,8.152
			c-1.447,0.364-2.533,1.087-3.438,2.357l-34.785,60.868c-1.271,1.993-0.725,4.711,0.907,6.705c0.179,0.179,0.36,0.363,0.724,0.723
			c1.634,1.634,3.803,2.354,5.979,1.991l32.971-6.88l-3.212,6.204 M720.903,575.521l-29.527,5.974l26.631-46.557l28.265-5.435
			l-24.458,45.832C721.632,575.519,721.269,575.519,720.903,575.521L720.903,575.521z M720,605.045l7.063,7.068 M741.556,626.604
			l7.068,7.068 M795.182,608.483l-12.141,6.346l0,0l-22.459,11.955l-2.178,1.087l-32.786-32.789l1.086-2.177l11.959-22.46l0,0
			l6.339-12.142l18.295-34.598c0,0,0,0,0.181-0.179c18.839-21.742,48.552-45.652,112.86-46.561l0,0l0,0
			c-0.907,64.311-24.816,94.021-46.557,112.861c0,0,0,0-0.181,0.182L795.182,608.483L795.182,608.483z M771.992,662.475
			l5.979-29.529c-0.003-0.359,0.184-0.543-0.001-0.726l45.834-24.454l-5.437,28.261L771.992,662.475L771.992,662.475z"/>
	</g>
</g>
</svg>
