<?xml version="1.0" encoding="utf-8"?>
<!-- Generator: Adobe Illustrator 16.0.0, SVG Export Plug-In . SVG Version: 6.00 Build 0)  -->
<!DOCTYPE svg PUBLIC "-//W3C//DTD SVG 1.1//EN" "http://www.w3.org/Graphics/SVG/1.1/DTD/svg11.dtd">
<svg version="1.1" xmlns="http://www.w3.org/2000/svg" xmlns:xlink="http://www.w3.org/1999/xlink" x="0px" y="0px"
	 width="1619.797px" height="1079.865px" viewBox="0 0 1619.797 1079.865" enable-background="new 0 0 1619.797 1079.865"
	 xml:space="preserve">
<g id="Layer_1" display="none">
</g>
<g id="Layer_2">
	<g>
		<path fill="#5D92CA" d="M864.112,241.015c-6.66-0.231-12.227,4.956-12.456,11.614c-0.232,6.657,4.956,12.221,11.612,12.454
			c6.532,0.229,12.223-4.956,12.456-11.612C875.958,246.813,870.767,241.246,864.112,241.015 M863.499,258.553
			c-3.073-0.107-5.55-2.627-5.442-5.699c0.105-3.073,2.752-5.416,5.825-5.307c3.071,0.104,5.42,2.622,5.313,5.695
			C869.215,256.318,866.571,258.66,863.499,258.553"/>
		<path fill="#5D92CA" d="M879.446,305.324l1.116-3.311l8.976,14.245c0.625,0.911,1.643,1.44,2.797,1.462
			c0.126,0,0.253,0.004,0.51,0.007c1.283-0.106,2.45-0.981,2.725-2.001l9.813-33.653c-0.115-0.771-0.23-1.542-0.606-2.062l0,0
			l-11.601-17.881c1.557-15.859-0.376-37.289-26.31-63.492c-0.629-0.652-1.52-0.924-2.417-0.939l0,0
			c-0.895-0.016-1.801,0.353-2.45,0.854c-26.833,25.283-29.509,46.631-28.507,62.536l-12.221,17.468
			c-0.394,0.633-0.533,1.27-0.417,2.041l8.631,33.975c0.235,1.157,1.375,1.946,2.654,2.096c0.126,0.003,0.256,0.006,0.511,0.01
			c1.155,0.02,2.186-0.475,2.843-1.361l9.468-13.927l0.999,3.347 M842.397,293.916l-8.545,12.404l-6.592-25.993l8.28-11.772
			l7.121,24.978C842.66,293.661,842.528,293.787,842.397,293.916L842.397,293.916z M852.327,304.85l4.996,0.088 M867.569,305.117
			l4.997,0.086 M880.561,279.973l-2.162,6.498l0,0l-3.926,12.102l-0.404,1.148l-23.181-0.406l-0.366-1.161l-3.5-12.232l0,0
			l-1.936-6.567l-5.438-18.797c0,0,0,0,0.003-0.127c-0.777-14.363,1.604-33.284,24.42-55.947l0,0l0,0
			c22.01,23.446,23.729,42.438,22.455,56.764c0,0,0,0-0.003,0.129L880.561,279.973L880.561,279.973z M890.975,307.445l-8.106-12.696
			c-0.126-0.128-0.123-0.261-0.254-0.261l7.991-24.714l7.86,12.051L890.975,307.445L890.975,307.445z"/>
	</g>
	<path fill="#5D92CA" d="M858.473,304.824l3.567,12.586l4.125-12.414 M858.473,304.824l7.692,0.172 M869.917,305.08l5.177,0.082
		l-11.102,32.398c-0.404,0.857-1.282,1.416-2.245,1.395c-1.056-0.023-1.909-0.62-2.178-1.494l-9.618-32.756l4.77,0.035l7.045,24.785
		l0,0L869.917,305.08"/>
</g>
</svg>
