<?xml version="1.0" encoding="utf-8"?>
<!-- Generator: Adobe Illustrator 16.0.0, SVG Export Plug-In . SVG Version: 6.00 Build 0)  -->
<!DOCTYPE svg PUBLIC "-//W3C//DTD SVG 1.1//EN" "http://www.w3.org/Graphics/SVG/1.1/DTD/svg11.dtd">
<svg version="1.1" xmlns="http://www.w3.org/2000/svg" xmlns:xlink="http://www.w3.org/1999/xlink" x="0px" y="0px"
	 width="1619.797px" height="1079.865px" viewBox="0 0 1619.797 1079.865" enable-background="new 0 0 1619.797 1079.865"
	 xml:space="preserve">
<g id="Layer_1" display="none">
</g>
<g id="Layer_2">
	<g>
		<path fill="#5D92CA" d="M833.246,537.179c-7.452-11.047-22.39-13.954-33.433-6.501c-11.046,7.451-13.948,22.386-6.497,33.433
			c7.308,10.835,22.387,13.948,33.431,6.501C837.791,563.161,840.696,548.221,833.246,537.179 M804.15,556.803
			c-3.44-5.097-2.271-12.065,2.825-15.502c5.098-3.442,11.999-1.914,15.436,3.185c3.439,5.094,2.128,11.853-2.971,15.292
			C814.486,563.427,807.589,561.902,804.15,556.803"/>
		<path fill="#5D92CA" d="M746.063,637.001l6.705-1.969l-13.044,31.049c-0.772,2.069-0.477,4.341,0.814,6.254
			c0.143,0.209,0.285,0.42,0.572,0.845c1.646,1.981,4.419,2.889,6.406,2.168l66.388-22.526c1.133-1.075,2.265-2.146,2.683-3.358l0,0
			l15.988-39.52c27.768-15.645,60.661-43.39,73.839-115.938c0.347-1.78-0.231-3.553-1.235-5.04l0,0
			c-1.003-1.483-2.643-2.544-4.209-3.035c-72.202-14.956-110.251,5.148-135.156,25.035l-42.637,0.016
			c-1.487,0.082-2.693,0.585-3.823,1.659l-45.76,53.113c-1.626,1.711-1.61,4.485-0.39,6.754c0.144,0.209,0.285,0.423,0.573,0.848
			c1.292,1.913,3.284,3.037,5.488,3.095l33.68-0.464l-4.339,5.478 M722.25,563.22l-30.126,0.229l35.025-40.621l28.782,0.06
			l-32.754,40.324C722.965,563.356,722.608,563.288,722.25,563.22L722.25,563.22z M715.73,592.028l5.584,8.286 M732.775,617.306
			l5.589,8.287 M788.874,609.748l-13.127,3.914l0,0l-24.33,7.45l-2.343,0.652l-25.929-38.442l1.48-1.93l16.024-19.765l0,0
			l8.541-10.71l24.56-30.469c0,0,0,0,0.213-0.145c22.641-17.745,56.368-35.548,119.669-24.168l0,0l0,0
			c-13.16,62.955-42.301,87.557-67.234,101.903c0,0,0,0-0.212,0.145L788.874,609.748L788.874,609.748z M755.808,658.324
			l11.504-27.847c0.067-0.354,0.283-0.499,0.139-0.712l49.658-15.26l-10.729,26.703L755.808,658.324L755.808,658.324z"/>
	</g>
</g>
</svg>
