<?xml version="1.0" encoding="utf-8"?>
<!-- Generator: Adobe Illustrator 16.0.0, SVG Export Plug-In . SVG Version: 6.00 Build 0)  -->
<!DOCTYPE svg PUBLIC "-//W3C//DTD SVG 1.1//EN" "http://www.w3.org/Graphics/SVG/1.1/DTD/svg11.dtd">
<svg version="1.1" xmlns="http://www.w3.org/2000/svg" xmlns:xlink="http://www.w3.org/1999/xlink" x="0px" y="0px"
	 width="1619.797px" height="1079.865px" viewBox="0 0 1619.797 1079.865" enable-background="new 0 0 1619.797 1079.865"
	 xml:space="preserve">
<g id="Layer_1" display="none">
</g>
<g id="Layer_2">
	<g>
		<path fill="#5D92CA" d="M802.246,539.971c-5.251-4.102-12.804-3.176-16.902,2.074c-4.102,5.25-3.175,12.801,2.074,16.901
			c5.15,4.024,12.801,3.174,16.902-2.074C808.422,551.624,807.494,544.069,802.246,539.971 M791.443,553.797
			c-2.424-1.892-2.946-5.386-1.053-7.808c1.892-2.425,5.409-2.764,7.832-0.87c2.423,1.891,2.844,5.307,0.95,7.73
			C797.38,555.351,793.865,555.691,791.443,553.797"/>
		<path fill="#5D92CA" d="M776.852,601.011l2.85-2.022l-1.112,16.802c-0.029,1.104,0.482,2.131,1.404,2.825
			c0.102,0.075,0.201,0.151,0.408,0.306c1.101,0.669,2.559,0.647,3.38-0.018l27.72-21.457c0.36-0.691,0.72-1.383,0.721-2.023l0,0
			l1.126-21.286c10.581-11.916,21.613-30.388,16.035-66.831c-0.127-0.898-0.688-1.642-1.404-2.182l0,0
			c-0.715-0.538-1.664-0.772-2.484-0.749c-36.568,4.683-51.283,20.38-59.821,33.836l-20.154,6.949
			c-0.691,0.279-1.177,0.714-1.538,1.406l-12.987,32.558c-0.49,1.075-0.031,2.383,0.916,3.257c0.101,0.077,0.204,0.155,0.408,0.308
			c0.922,0.695,2.047,0.901,3.1,0.57l15.845-5.701l-1.158,3.295 M753.584,570.006l-14.204,5.013l9.945-24.905l13.618-4.657
			l-8.921,24.395C753.945,569.954,753.766,569.979,753.584,570.006L753.584,570.006z M755.191,584.687l3.989,3.009 M767.364,593.861
			l3.992,3.008 M792.656,581.157l-5.57,3.987l0,0l-10.288,7.481l-1.002,0.69l-18.515-13.953l0.386-1.154l4.359-11.953l0,0
			l2.294-6.453l6.649-18.403c0,0,0,0,0.078-0.102c7.814-12.077,20.863-25.983,52.641-30.908l0,0l0,0
			c4.025,31.906-5.746,48.279-15.198,59.122c0,0,0,0-0.077,0.103L792.656,581.157L792.656,581.157z M784.932,609.505l0.904-15.038
			c-0.026-0.177,0.054-0.281-0.051-0.358l20.992-15.298l-0.725,14.371L784.932,609.505L784.932,609.505z"/>
	</g>
	<g>
		<polygon fill="#5D92CA" points="764.804,587.989 764.412,589.113 765.369,588.403 		"/>
		<path fill="#5D92CA" d="M766.98,589.583l-6.397,4.737l2.611-7.509l-2.019-1.479l-3.982,11.779
			c-0.15,0.464,0.039,0.985,0.493,1.319c0.414,0.305,0.968,0.33,1.407,0.079l10.07-7.328L766.98,589.583z"/>
	</g>
</g>
</svg>
