<?xml version="1.0" encoding="utf-8"?>
<!-- Generator: Adobe Illustrator 16.0.0, SVG Export Plug-In . SVG Version: 6.00 Build 0)  -->
<!DOCTYPE svg PUBLIC "-//W3C//DTD SVG 1.1//EN" "http://www.w3.org/Graphics/SVG/1.1/DTD/svg11.dtd">
<svg version="1.1" xmlns="http://www.w3.org/2000/svg" xmlns:xlink="http://www.w3.org/1999/xlink" x="0px" y="0px"
	 width="1619.797px" height="1079.865px" viewBox="0 0 1619.797 1079.865" enable-background="new 0 0 1619.797 1079.865"
	 xml:space="preserve">
<g id="Layer_1" display="none">
</g>
<g id="Layer_2">
	<g>
		<path fill="#5D92CA" d="M851.73,84.844c-6.598,0.928-11.18,7.004-10.248,13.6c0.928,6.598,7.002,11.176,13.598,10.249
			c6.473-0.909,11.176-7.003,10.25-13.599C864.404,88.496,858.325,83.916,851.73,84.844 M854.172,102.221
			c-3.045,0.43-5.92-1.623-6.348-4.668c-0.43-3.044,1.77-5.811,4.814-6.237c3.043-0.431,5.793,1.642,6.222,4.687
			C859.414,99.029,857.217,101.794,854.172,102.221"/>
		<path fill="#5D92CA" d="M878,145.513l0.523-3.454l11.313,12.471c0.774,0.788,1.868,1.133,3.009,0.953
			c0.124-0.021,0.249-0.039,0.503-0.081c1.245-0.327,2.242-1.393,2.336-2.444l3.819-34.846c-0.247-0.739-0.494-1.478-0.955-1.924
			l0,0l-14.529-15.595c-1.221-15.89-6.846-36.657-36.936-57.96c-0.734-0.533-1.658-0.646-2.545-0.505l0,0
			c-0.883,0.14-1.711,0.659-2.264,1.266c-22.035,29.56-20.964,51.047-17.215,66.536l-9.002,19.325
			c-0.279,0.69-0.305,1.343-0.057,2.082l14.398,31.96c0.433,1.099,1.691,1.678,2.979,1.603c0.125-0.019,0.253-0.038,0.505-0.079
			c1.141-0.182,2.07-0.848,2.563-1.834l6.906-15.359l1.564,3.123 M839.533,140.711l-6.262,13.699l-11.006-24.453l6.11-13.031
			l11.35,23.361C839.747,140.415,839.639,140.563,839.533,140.711L839.533,140.711z M851.211,149.755l4.935-0.78 M866.268,147.371
			l4.936-0.782 M874.695,120.353l-1,6.775l0,0l-1.766,12.599l-0.199,1.201l-22.898,3.626l-0.563-1.08l-5.57-11.438l0,0l-3.047-6.132
			l-8.619-17.567c0,0,0,0-0.02-0.126c-3.259-14.011-4.198-33.057,14.334-59.337l0,0l0,0c25.748,19.268,30.738,37.672,31.972,52.002
			c0,0,0,0,0.02,0.127L874.695,120.353L874.695,120.353z M889.722,145.601l-10.188-11.097c-0.146-0.104-0.166-0.235-0.294-0.213
			l3.578-25.726l9.833,10.503L889.722,145.601L889.722,145.601z"/>
	</g>
	<path fill="#5D92CA" d="M856.139,148.814l7.65,15.676l2.484-17.264 M856.139,148.814l10.135-1.588 M871.218,146.451l6.813-1.112
		l-6.928,45.133c-0.328,1.223-1.349,2.162-2.617,2.36c-1.392,0.219-2.652-0.363-3.211-1.446l-20.346-40.718l6.269-1.08
		l15.091,30.865l0,0L871.218,146.451"/>
</g>
</svg>
