<?xml version="1.0" encoding="utf-8"?>
<!-- Generator: Adobe Illustrator 16.0.0, SVG Export Plug-In . SVG Version: 6.00 Build 0)  -->
<!DOCTYPE svg PUBLIC "-//W3C//DTD SVG 1.1//EN" "http://www.w3.org/Graphics/SVG/1.1/DTD/svg11.dtd">
<svg version="1.1" xmlns="http://www.w3.org/2000/svg" xmlns:xlink="http://www.w3.org/1999/xlink" x="0px" y="0px"
	 width="1619.797px" height="1079.865px" viewBox="0 0 1619.797 1079.865" enable-background="new 0 0 1619.797 1079.865"
	 xml:space="preserve">
<g id="Layer_1" display="none">
</g>
<g id="Layer_2">
	<g>
		<path fill="#5D92CA" d="M823.318,527.254c-9.747-9.087-24.956-8.56-34.038,1.187c-9.086,9.745-8.556,24.949,1.188,34.035
			c9.558,8.916,24.95,8.556,34.036-1.185C833.592,551.548,833.062,536.335,823.318,527.254 M799.384,552.919
			c-4.499-4.192-4.929-11.245-0.736-15.741c4.191-4.501,11.26-4.563,15.756-0.367c4.498,4.188,4.741,11.069,0.547,15.567
			C810.942,557.048,803.88,557.115,799.384,552.919"/>
		<path fill="#5D92CA" d="M762.084,644.443l6.029-3.532l-5.146,33.281c-0.25,2.195,0.59,4.329,2.305,5.875
			c0.189,0.166,0.376,0.337,0.76,0.68c2.077,1.524,4.986,1.734,6.738,0.554l58.969-37.919c0.84-1.315,1.676-2.629,1.789-3.907l0,0
			l5.953-42.214c23.159-21.896,48.359-56.777,43.598-130.358c-0.096-1.812-1.084-3.39-2.418-4.591l0,0
			c-1.33-1.196-3.18-1.83-4.817-1.926c-73.676,2.955-105.729,31.667-125.087,56.987l-41.364,10.331
			c-1.427,0.438-2.472,1.218-3.309,2.534l-31.552,62.605c-1.164,2.056-0.479,4.742,1.256,6.649c0.188,0.169,0.38,0.343,0.76,0.683
			c1.717,1.546,3.922,2.152,6.076,1.676l32.565-8.597l-2.884,6.363 M721.13,578.613l-29.174,7.51l24.157-47.886l27.942-6.906
			l-22.025,47.049C721.858,578.573,721.495,578.591,721.13,578.613L721.13,578.613z M721.773,608.144l7.423,6.689 M744.428,628.546
			l7.429,6.688 M797.033,607.642l-11.794,6.973l0,0l-21.802,13.114l-2.118,1.201l-34.457-31.027l0.971-2.232l10.768-23.055l0,0
			l5.695-12.457l16.457-35.507c0,0,0,0,0.172-0.189c17.675-22.699,46.097-48.131,110.269-52.404l0,0l0,0
			c2.46,64.271-19.862,95.19-40.585,115.144c0,0,0,0-0.172,0.191L797.033,607.642L797.033,607.642z M776.7,662.774l4.424-29.802
			c-0.021-0.358,0.157-0.553-0.038-0.724l44.491-26.82l-3.949,28.506L776.7,662.774L776.7,662.774z"/>
	</g>
	<polygon fill="#5D92CA" points="735.906,620.502 733.931,624.285 737.913,621.942 	"/>
</g>
</svg>
