<?xml version="1.0" encoding="utf-8"?>
<!-- Generator: Adobe Illustrator 16.0.0, SVG Export Plug-In . SVG Version: 6.00 Build 0)  -->
<!DOCTYPE svg PUBLIC "-//W3C//DTD SVG 1.1//EN" "http://www.w3.org/Graphics/SVG/1.1/DTD/svg11.dtd">
<svg version="1.1" xmlns="http://www.w3.org/2000/svg" xmlns:xlink="http://www.w3.org/1999/xlink" x="0px" y="0px"
	 width="1619.797px" height="1079.865px" viewBox="0 0 1619.797 1079.865" enable-background="new 0 0 1619.797 1079.865"
	 xml:space="preserve">
<g id="Layer_1" display="none">
</g>
<g id="Layer_2">
	<g>
		<path fill="#5D92CA" d="M835.347,539.442c-6.864-11.421-21.63-15.106-33.047-8.242c-11.421,6.865-15.102,21.626-8.237,33.046
			c6.73,11.203,21.626,15.102,33.044,8.242C838.525,565.626,842.209,550.859,835.347,539.442 M805.263,557.518
			c-3.168-5.27-1.636-12.168,3.634-15.335c5.271-3.169,12.082-1.281,15.248,3.99c3.167,5.268,1.504,11.947-3.768,15.115
			C815.238,564.673,808.431,562.789,805.263,557.518"/>
		<path fill="#5D92CA" d="M743.058,634.566l6.799-1.617l-14.653,30.325c-0.878,2.025-0.701,4.31,0.488,6.289
			c0.131,0.217,0.262,0.435,0.527,0.873c1.539,2.064,4.262,3.118,6.283,2.501l67.476-19.022c1.188-1.012,2.374-2.023,2.854-3.21l0,0
			l18.034-38.629c28.549-14.171,62.85-40.158,79.807-111.917c0.438-1.759-0.046-3.559-0.97-5.098l0,0
			c-0.924-1.534-2.506-2.679-4.045-3.25c-71.32-18.714-110.37-0.629-136.281,17.927l-42.578-2.215
			c-1.49,0.002-2.721,0.442-3.905,1.456l-48.476,50.645c-1.715,1.625-1.845,4.395-0.744,6.724c0.132,0.218,0.262,0.439,0.527,0.878
			c1.189,1.978,3.122,3.204,5.32,3.377l33.657,1.299l-4.62,5.243 M723.14,559.638l-30.097-1.347l37.104-38.732l28.738,1.565
			l-34.818,38.557C723.847,559.812,723.494,559.726,723.14,559.638L723.14,559.638z M715.121,588.066l5.144,8.567 M730.82,614.202
			l5.146,8.566 M787.238,609.591l-13.314,3.22l0,0l-24.688,6.167l-2.373,0.527l-23.882-39.745l1.579-1.848l17.037-18.901l0,0
			l9.09-10.247l26.121-29.144c0,0,0,0,0.22-0.133c23.538-16.537,58.151-32.549,120.771-17.872l0,0l0,0
			c-16.437,62.182-46.826,85.223-72.476,98.246c0,0,0,0-0.22,0.133L787.238,609.591L787.238,609.591z M751.674,656.369
			l12.945-27.207c0.086-0.35,0.309-0.484,0.176-0.705l50.389-12.64l-12.111,26.106L751.674,656.369L751.674,656.369z"/>
	</g>
</g>
</svg>
