<?xml version="1.0" encoding="utf-8"?>
<!-- Generator: Adobe Illustrator 16.0.0, SVG Export Plug-In . SVG Version: 6.00 Build 0)  -->
<!DOCTYPE svg PUBLIC "-//W3C//DTD SVG 1.1//EN" "http://www.w3.org/Graphics/SVG/1.1/DTD/svg11.dtd">
<svg version="1.1" xmlns="http://www.w3.org/2000/svg" xmlns:xlink="http://www.w3.org/1999/xlink" x="0px" y="0px"
	 width="1619.797px" height="1079.866px" viewBox="0 0 1619.797 1079.866" enable-background="new 0 0 1619.797 1079.866"
	 xml:space="preserve">
<g id="Layer_1" display="none">
</g>
<g id="Layer_2">
	<g>
		<path fill="#5D92CA" d="M847.856,395.221c-6.437-1.724-13.027,2.079-14.749,8.514c-1.723,6.434,2.08,13.022,8.514,14.746
			c6.313,1.693,13.023-2.08,14.748-8.512C858.095,403.534,854.289,396.943,847.856,395.221 M843.314,412.17
			c-2.972-0.795-4.816-3.808-4.021-6.777c0.794-2.97,3.899-4.657,6.869-3.86c2.969,0.793,4.691,3.774,3.896,6.745
			C849.386,411.279,846.284,412.967,843.314,412.17"/>
		<path fill="#5D92CA" d="M848.331,461.331l1.833-2.975l5.541,15.899c0.405,1.028,1.276,1.773,2.396,2.053
			c0.122,0.028,0.245,0.062,0.495,0.122c1.274,0.186,2.608-0.405,3.104-1.338l17.132-30.581c0.062-0.778,0.122-1.554-0.128-2.146
			l0,0l-7.28-20.033c5.085-15.103,8.021-36.417-11.353-67.783c-0.468-0.777-1.275-1.242-2.146-1.459l0,0
			c-0.868-0.216-1.833-0.062-2.579,0.281c-31.832,18.599-39.242,38.798-41.845,54.52l-15.836,14.272
			c-0.526,0.527-0.805,1.117-0.866,1.895l0.767,35.045c-0.031,1.18,0.902,2.205,2.115,2.64c0.123,0.031,0.248,0.063,0.496,0.124
			c1.12,0.279,2.236,0.029,3.076-0.688l12.358-11.439l0.222,3.486 M814.799,441.881l-11.116,10.164l-0.576-26.811l10.715-9.608
			l1.32,25.94C815.111,441.692,814.955,441.786,814.799,441.881L814.799,441.881z M822.015,454.768l4.848,1.21 M836.805,458.458
			l4.85,1.207 M855.121,436.88l-3.568,5.846l0,0l-6.547,10.907l-0.653,1.027l-22.495-5.609l-0.095-1.213l-0.659-12.706l0,0
			l-0.409-6.836l-1.069-19.539c0,0,0,0,0.031-0.124c2.474-14.169,9.052-32.068,36.379-49.019l0,0l0,0
			c16.173,27.797,13.576,46.687,9.111,60.36c0,0,0,0-0.031,0.125L855.121,436.88L855.121,436.88z M859.087,465.992l-5.042-14.195
			c-0.094-0.153-0.061-0.28-0.188-0.311l13.346-22.284l4.948,13.512L859.087,465.992L859.087,465.992z"/>
	</g>
	<path fill="#5D92CA" d="M827.311,455.567l0.78,15.68l8.168-13.404 M827.311,455.567l8.948,2.275 M840.624,458.95l6.031,1.492
		l-21.709,34.893c-0.704,0.896-1.881,1.312-3.001,1.026c-1.229-0.312-2.065-1.239-2.145-2.333l-2.422-40.895l5.568,1.325
		l1.562,30.883l0,0L840.624,458.95"/>
</g>
</svg>
