<?xml version="1.0" encoding="utf-8"?>
<!-- Generator: Adobe Illustrator 16.0.0, SVG Export Plug-In . SVG Version: 6.00 Build 0)  -->
<!DOCTYPE svg PUBLIC "-//W3C//DTD SVG 1.1//EN" "http://www.w3.org/Graphics/SVG/1.1/DTD/svg11.dtd">
<svg version="1.1" xmlns="http://www.w3.org/2000/svg" xmlns:xlink="http://www.w3.org/1999/xlink" x="0px" y="0px"
	 width="1619.797px" height="1079.865px" viewBox="0 0 1619.797 1079.865" enable-background="new 0 0 1619.797 1079.865"
	 xml:space="preserve">
<g id="Layer_1" display="none">
</g>
<g id="Layer_2">
	<g>
		<path fill="#5D92CA" d="M837.212,12.08c-6.518,1.386-10.664,7.766-9.275,14.281c1.387,6.516,7.766,10.66,14.281,9.275
			c6.393-1.358,10.66-7.766,9.275-14.281C850.109,14.84,843.726,10.693,837.212,12.08 M840.86,29.244
			c-3.008,0.641-6.02-1.206-6.658-4.213c-0.643-3.008,1.359-5.92,4.367-6.559c3.006-0.642,5.895,1.232,6.533,4.24
			C845.866,25.694,843.868,28.605,840.86,29.244"/>
		<path fill="#5D92CA" d="M867.649,70.769l0.281-3.482l12.156,11.651c0.826,0.732,1.942,1,3.066,0.74
			c0.123-0.029,0.246-0.057,0.496-0.115c1.221-0.414,2.141-1.545,2.16-2.602l1.379-35.027c-0.297-0.72-0.596-1.439-1.086-1.853l0,0
			l-15.582-14.544c-2.326-15.765-9.387-36.09-40.889-55.242c-0.77-0.479-1.699-0.527-2.573-0.325l0,0
			c-0.872,0.2-1.661,0.776-2.171,1.421c-19.918,31.023-17.352,52.385-12.531,67.574l-7.632,19.906
			c-0.229,0.709-0.21,1.36,0.089,2.081l16.594,30.877c0.508,1.065,1.804,1.556,3.082,1.392c0.123-0.027,0.25-0.057,0.498-0.115
			c1.125-0.26,2.006-0.988,2.43-2.008l5.818-15.804l1.778,3.007 M828.94,68.662l-5.289,14.103l-12.686-23.626l5.186-13.426
			l12.953,22.514C829.134,68.352,829.036,68.506,828.94,68.662L828.94,68.662z M841.222,76.869l4.868-1.123 M856.075,73.441
			l4.869-1.125 M862.598,45.9l-0.526,6.828l0,0L861.19,65.42l-0.114,1.212l-22.591,5.214l-0.636-1.037l-6.354-11.023l0,0
			l-3.468-5.903l-9.823-16.923c0,0,0,0-0.028-0.125c-4.229-13.748-6.495-32.684,10.159-60.193l0,0l0,0
			c27.029,17.426,33.291,35.438,35.521,49.646c0,0,0,0,0.027,0.125L862.598,45.9L862.598,45.9z M879.349,70.039L868.411,59.68
			c-0.152-0.094-0.182-0.223-0.309-0.191l1.775-25.913l10.541,9.791L879.349,70.039L879.349,70.039z"/>
	</g>
	<path fill="#5D92CA" d="M845.972,75.355l8.617,15.166l1.4-17.385 M845.972,75.355l10.018-2.219 M860.874,72.054l6.73-1.537
		l-4.088,45.479c-0.251,1.239-1.211,2.241-2.463,2.519c-1.377,0.305-2.67-0.196-3.295-1.241l-22.857-39.363l6.188-1.472
		l16.995,29.86l0,0L860.874,72.054"/>
</g>
</svg>
