<?xml version="1.0" encoding="utf-8"?>
<!-- Generator: Adobe Illustrator 16.0.0, SVG Export Plug-In . SVG Version: 6.00 Build 0)  -->
<!DOCTYPE svg PUBLIC "-//W3C//DTD SVG 1.1//EN" "http://www.w3.org/Graphics/SVG/1.1/DTD/svg11.dtd">
<svg version="1.1" xmlns="http://www.w3.org/2000/svg" xmlns:xlink="http://www.w3.org/1999/xlink" x="0px" y="0px"
	 width="1619.797px" height="1079.865px" viewBox="0 0 1619.797 1079.865" enable-background="new 0 0 1619.797 1079.865"
	 xml:space="preserve">
<g id="Layer_1" display="none">
</g>
<g id="Layer_2">
	<g>
		<path fill="#5D92CA" d="M848.674,66.963c-6.581,1.045-11.056,7.199-10.01,13.777c1.042,6.58,7.196,11.052,13.774,10.01
			c6.455-1.021,11.053-7.197,10.012-13.775C861.409,70.395,855.251,65.921,848.674,66.963 M851.419,84.296
			c-3.037,0.481-5.949-1.52-6.43-4.556c-0.483-3.037,1.668-5.842,4.705-6.321c3.035-0.483,5.821,1.54,6.303,4.577
			C856.604,81.013,854.455,83.816,851.419,84.296"/>
		<path fill="#5D92CA" d="M875.997,127.165l0.465-3.462l11.528,12.271c0.788,0.774,1.888,1.101,3.024,0.901
			c0.124-0.023,0.249-0.045,0.502-0.091c1.239-0.349,2.218-1.431,2.293-2.484l3.211-34.907c-0.26-0.734-0.521-1.469-0.988-1.906l0,0
			l-14.8-15.34c-1.498-15.865-7.484-36.532-37.942-57.307c-0.742-0.52-1.668-0.616-2.552-0.459l0,0
			c-0.882,0.154-1.7,0.688-2.242,1.305c-21.516,29.938-20.069,51.404-16.052,66.826l-8.662,19.479
			c-0.268,0.697-0.281,1.348-0.021,2.084l14.954,31.703c0.451,1.091,1.721,1.648,3.006,1.551c0.125-0.021,0.252-0.043,0.504-0.088
			c1.137-0.201,2.055-0.884,2.531-1.879l6.637-15.479l1.619,3.096 M837.452,123.035l-6.021,13.807l-11.43-24.257l5.881-13.136
			l11.756,23.16C837.661,122.736,837.556,122.885,837.452,123.035L837.452,123.035z M849.286,131.875l4.921-0.867 M864.3,129.229
			l4.921-0.869 M872.255,102.066l-0.883,6.792l0,0l-1.545,12.628l-0.178,1.204l-22.832,4.024l-0.58-1.069l-5.77-11.341l0,0
			l-3.154-6.076l-8.924-17.414c0,0,0,0-0.021-0.127c-3.504-13.951-4.775-32.978,13.296-59.578l0,0l0,0
			c26.079,18.816,31.391,37.131,32.874,51.437c0,0,0,0,0.021,0.127L872.255,102.066L872.255,102.066z M887.72,127.049
			l-10.381-10.918c-0.148-0.102-0.17-0.232-0.298-0.207l3.128-25.785l10.016,10.33L887.72,127.049L887.72,127.049z"/>
	</g>
	<path fill="#5D92CA" d="M854.151,130.568l7.824,15.59l2.293-17.29 M854.151,130.568l10.117-1.7 M869.204,128.039l6.8-1.189
		l-6.423,45.207c-0.314,1.227-1.324,2.177-2.592,2.39c-1.389,0.233-2.654-0.334-3.227-1.411l-20.798-40.486l6.256-1.151
		l15.435,30.696l0,0L869.204,128.039"/>
</g>
</svg>
