<?xml version="1.0" encoding="utf-8"?>
<!-- Generator: Adobe Illustrator 16.0.0, SVG Export Plug-In . SVG Version: 6.00 Build 0)  -->
<!DOCTYPE svg PUBLIC "-//W3C//DTD SVG 1.1//EN" "http://www.w3.org/Graphics/SVG/1.1/DTD/svg11.dtd">
<svg version="1.1" xmlns="http://www.w3.org/2000/svg" xmlns:xlink="http://www.w3.org/1999/xlink" x="0px" y="0px"
	 width="1619.797px" height="1079.865px" viewBox="0 0 1619.797 1079.865" enable-background="new 0 0 1619.797 1079.865"
	 xml:space="preserve">
<g id="Layer_1" display="none">
</g>
<g id="Layer_2">
	<g>
		<path fill="#5D92CA" d="M800.414,546.939c-5.03-4.37-12.62-3.842-16.988,1.188c-4.37,5.027-3.84,12.616,1.188,16.985
			c4.932,4.289,12.616,3.84,16.987-1.186C805.971,558.9,805.44,551.308,800.414,546.939 M788.901,560.182
			c-2.321-2.017-2.659-5.533-0.643-7.853c2.016-2.322,5.546-2.477,7.866-0.459c2.321,2.015,2.563,5.448,0.545,7.77
			C794.749,562.044,791.221,562.2,788.901,560.182"/>
		<path fill="#5D92CA" d="M771.859,606.566l2.951-1.87l-1.99,16.72c-0.087,1.101,0.37,2.153,1.254,2.895
			c0.098,0.08,0.194,0.162,0.392,0.327c1.064,0.725,2.522,0.779,3.377,0.159l28.805-19.978c0.397-0.671,0.792-1.343,0.826-1.982l0,0
			l2.238-21.198c11.19-11.346,23.174-29.216,19.511-65.9c-0.079-0.903-0.601-1.675-1.288-2.252l0,0
			c-0.686-0.574-1.621-0.858-2.441-0.878c-36.764,2.762-52.28,17.668-61.511,30.659l-20.49,5.884
			c-0.705,0.243-1.213,0.652-1.609,1.324l-14.674,31.834c-0.546,1.047-0.156,2.377,0.744,3.3c0.097,0.082,0.196,0.165,0.392,0.328
			c0.885,0.743,1.998,1.007,3.065,0.731l16.123-4.864l-1.33,3.23 M750.246,574.387l-14.446,4.262l11.235-24.35l13.842-3.938
			l-10.185,23.895C750.609,574.354,750.429,574.369,750.246,574.387L750.246,574.387z M751.083,589.132l3.826,3.213 M762.76,598.931
			l3.829,3.212 M788.682,587.567l-5.772,3.69l0,0l-10.666,6.933l-1.037,0.637l-17.76-14.903l0.446-1.132l4.979-11.708l0,0
			l2.628-6.324l7.604-18.03c0,0,0,0,0.082-0.098c8.437-11.65,22.194-24.854,54.187-28.109l0,0l0,0
			c2.351,32.072-8.264,47.912-18.271,58.245c0,0,0,0-0.083,0.098L788.682,587.567L788.682,587.567z M779.483,615.472l1.69-14.97
			c-0.017-0.179,0.069-0.278-0.032-0.361l21.764-14.178l-1.476,14.313L779.483,615.472L779.483,615.472z"/>
	</g>
	<path fill="#5D92CA" d="M761.274,593.457l-2.083,1.304l0.964-2.202l-1.893-1.521l-2.669,6.24c-0.186,0.451-0.038,0.986,0.389,1.354
		c0.389,0.336,0.939,0.404,1.396,0.188l5.99-3.68L761.274,593.457z"/>
</g>
</svg>
