<?xml version="1.0" encoding="utf-8"?>
<!-- Generator: Adobe Illustrator 16.0.0, SVG Export Plug-In . SVG Version: 6.00 Build 0)  -->
<!DOCTYPE svg PUBLIC "-//W3C//DTD SVG 1.1//EN" "http://www.w3.org/Graphics/SVG/1.1/DTD/svg11.dtd">
<svg version="1.1" xmlns="http://www.w3.org/2000/svg" xmlns:xlink="http://www.w3.org/1999/xlink" x="0px" y="0px"
	 width="1619.797px" height="1079.865px" viewBox="0 0 1619.797 1079.865" enable-background="new 0 0 1619.797 1079.865"
	 xml:space="preserve">
<g id="Layer_1" display="none">
</g>
<g id="Layer_2">
	<g>
		<path fill="#5D92CA" d="M815.861,560.1c-3.128-5.883-10.403-8.108-16.285-4.981c-5.881,3.128-8.105,10.403-4.978,16.286
			c3.067,5.77,10.403,8.106,16.284,4.979C816.764,573.257,818.989,565.98,815.861,560.1 M800.367,568.338
			c-1.443-2.714-0.498-6.119,2.216-7.562c2.715-1.444,6.066-0.323,7.51,2.392c1.443,2.713,0.438,6.004-2.277,7.449
			C805.162,572.172,801.812,571.053,800.367,568.338"/>
		<path fill="#5D92CA" d="M767.291,605.182l3.438-0.629l-8.11,14.758c-0.492,0.987-0.464,2.133,0.078,3.151
			c0.061,0.112,0.12,0.225,0.241,0.451c0.714,1.071,2.046,1.668,3.072,1.414l34.188-7.732c0.619-0.475,1.238-0.949,1.51-1.529l0,0
			l10.015-18.816c14.626-6.329,32.433-18.407,42.778-53.793c0.265-0.867,0.069-1.778-0.352-2.571l0,0
			c-0.421-0.791-1.181-1.403-1.935-1.729c-35.121-11.211-55.093-3.203-68.517,5.385l-21.201-2.22
			c-0.745-0.038-1.371,0.149-1.988,0.624l-25.53,24.02c-0.898,0.767-1.035,2.147-0.547,3.338c0.06,0.113,0.119,0.226,0.24,0.453
			c0.542,1.018,1.475,1.682,2.568,1.826l16.771,1.529l-2.443,2.498 M759.307,567.248l-14.992-1.46l19.54-18.368l14.309,1.533
			l-18.395,18.34C759.655,567.353,759.481,567.301,759.307,567.248L759.307,567.248z M754.559,581.233l2.345,4.412 M761.714,594.692
			l2.346,4.413 M790.005,593.868l-6.732,1.259l0,0l-12.488,2.433l-1.198,0.202l-10.885-20.471l0.837-0.881l9.001-8.992l0,0
			l4.808-4.878l13.806-13.869c0,0,0,0,0.112-0.06c12.187-7.642,29.889-14.731,60.771-5.764l0,0l0,0
			c-9.834,30.618-25.611,41.328-38.76,47.158c0,0,0,0-0.112,0.061L790.005,593.868L790.005,593.868z M771.023,616.294l7.175-13.246
			c0.053-0.173,0.167-0.234,0.106-0.347l25.491-4.993l-6.73,12.718L771.023,616.294L771.023,616.294z"/>
	</g>
</g>
</svg>
