<?xml version="1.0" encoding="utf-8"?>
<!-- Generator: Adobe Illustrator 16.0.0, SVG Export Plug-In . SVG Version: 6.00 Build 0)  -->
<!DOCTYPE svg PUBLIC "-//W3C//DTD SVG 1.1//EN" "http://www.w3.org/Graphics/SVG/1.1/DTD/svg11.dtd">
<svg version="1.1" xmlns="http://www.w3.org/2000/svg" xmlns:xlink="http://www.w3.org/1999/xlink" x="0px" y="0px"
	 width="1619.797px" height="1079.865px" viewBox="0 0 1619.797 1079.865" enable-background="new 0 0 1619.797 1079.865"
	 xml:space="preserve">
<g id="Layer_1" display="none">
</g>
<g id="Layer_2">
	<g>
		<path fill="#5D92CA" d="M822.544,526.484c-9.904-8.916-25.102-8.124-34.012,1.781c-8.915,9.901-8.119,25.094,1.782,34.008
			c9.711,8.748,25.096,8.119,34.01-1.778C833.24,550.596,832.444,535.394,822.544,526.484 M799.061,552.563
			c-4.571-4.113-5.124-11.157-1.01-15.726c4.112-4.573,11.178-4.759,15.747-0.642c4.57,4.109,4.933,10.984,0.818,15.555
			C810.69,556.489,803.63,556.68,799.061,552.563"/>
		<path fill="#5D92CA" d="M763.364,644.724l5.967-3.637l-4.564,33.365c-0.211,2.2,0.666,4.318,2.407,5.834
			c0.192,0.162,0.382,0.33,0.771,0.666c2.104,1.488,5.016,1.647,6.747,0.437l58.298-38.942c0.817-1.33,1.63-2.658,1.721-3.937l0,0
			l5.216-42.313c22.773-22.296,47.361-57.611,41.316-131.099c-0.127-1.81-1.143-3.371-2.498-4.548l0,0
			c-1.352-1.172-3.211-1.773-4.851-1.84c-73.613,4.24-105.161,33.506-124.073,59.161l-41.178,11.051
			c-1.419,0.462-2.45,1.261-3.264,2.591l-30.455,63.147c-1.128,2.076-0.396,4.749,1.372,6.625c0.191,0.166,0.386,0.336,0.771,0.669
			c1.743,1.516,3.959,2.084,6.105,1.57l32.41-9.164l-2.772,6.413 M721.268,579.619l-29.038,8.018l23.317-48.3l27.818-7.393
			l-21.201,47.427C721.995,579.565,721.632,579.59,721.268,579.619L721.268,579.619z M722.426,609.134l7.539,6.559 M745.434,629.138
			l7.544,6.557 M797.666,607.318l-11.67,7.178l0,0l-21.57,13.492l-2.097,1.237l-34.993-30.42l0.932-2.249l10.363-23.24l0,0
			l5.477-12.554l15.835-35.789c0,0,0,0,0.168-0.192c17.276-23.003,45.25-48.928,109.337-54.319l0,0l0,0
			c3.581,64.217-18.198,95.522-38.569,115.834c0,0,0,0-0.168,0.194L797.666,607.318L797.666,607.318z M778.298,662.797l3.903-29.875
			c-0.026-0.358,0.147-0.556-0.051-0.724l44.016-27.592l-3.451,28.57L778.298,662.797L778.298,662.797z"/>
	</g>
	<path fill="#5D92CA" d="M741.998,617.991l-3.121,1.954l1.409-3.216l-3.857-2.844l-4.746,11.096
		c-0.372,0.902-0.075,1.973,0.778,2.708c0.778,0.672,1.878,0.809,2.793,0.377l11.133-6.84L741.998,617.991z"/>
</g>
</svg>
