<?xml version="1.0" encoding="utf-8"?>
<!-- Generator: Adobe Illustrator 16.0.0, SVG Export Plug-In . SVG Version: 6.00 Build 0)  -->
<!DOCTYPE svg PUBLIC "-//W3C//DTD SVG 1.1//EN" "http://www.w3.org/Graphics/SVG/1.1/DTD/svg11.dtd">
<svg version="1.1" xmlns="http://www.w3.org/2000/svg" xmlns:xlink="http://www.w3.org/1999/xlink" x="0px" y="0px"
	 width="1619.797px" height="1079.866px" viewBox="0 0 1619.797 1079.866" enable-background="new 0 0 1619.797 1079.866"
	 xml:space="preserve">
<g id="Layer_1" display="none">
</g>
<g id="Layer_2">
	<g>
		<path fill="#5D92CA" d="M860.186,343.169c-13.036-2.769-25.801,5.516-28.566,18.549c-2.768,13.031,5.517,25.792,18.547,28.562
			c12.785,2.719,25.793-5.518,28.564-18.545C881.504,358.702,873.214,345.937,860.186,343.169 M852.887,377.497
			c-6.017-1.277-10.017-7.101-8.738-13.115c1.275-6.016,7.302-9.71,13.316-8.429c6.012,1.274,9.764,7.047,8.487,13.063
			C864.922,375.082,858.902,378.777,852.887,377.497"/>
		<path fill="#5D92CA" d="M868.054,475.157l3.349-6.133l12.731,31.177c0.917,2.01,2.736,3.408,5.001,3.849
			c0.248,0.045,0.495,0.096,1.001,0.191c2.565,0.237,5.167-1.082,6.062-2.996l31.015-62.872c0.042-1.56,0.082-3.117-0.479-4.271l0,0
			l-16.639-39.25c8.574-30.698,12.209-73.574-29.77-134.194c-1.015-1.503-2.675-2.347-4.437-2.689l0,0
			c-1.757-0.341-3.668,0.069-5.122,0.831c-61.63,40.479-74.316,81.597-77.868,113.27l-30.135,30.162
			c-0.997,1.109-1.491,2.316-1.532,3.875l5.2,69.912c0.061,2.362,2.032,4.313,4.5,5.052c0.248,0.05,0.501,0.101,1.003,0.195
			c2.268,0.44,4.47-0.175,6.071-1.693l23.485-24.141l0.806,6.938 M799.045,439.822l-21.138,21.464l-3.957-53.487l20.396-20.311
			l5.352,51.671C799.649,439.413,799.347,439.615,799.045,439.822L799.045,439.822z M814.806,464.804l9.809,1.91 M844.732,470.625
			l9.813,1.904 M879.056,425.614l-6.516,12.049l0,0l-11.935,22.47l-1.196,2.12l-45.516-8.849l-0.317-2.413l-2.645-25.308l0,0
			l-1.534-13.61l-4.181-38.912c0,0,0,0,0.05-0.251c3.458-28.559,14.721-64.996,67.528-101.71l0,0l0,0
			c35.21,53.825,32,91.824,24.515,119.601c0,0,0,0-0.049,0.253L879.056,425.614L879.056,425.614z M890.024,483.341l-11.557-27.823
			c-0.204-0.297-0.151-0.555-0.407-0.602l24.322-45.903l11.296,26.467L890.024,483.341L890.024,483.341z"/>
	</g>
	<path fill="#5D92CA" d="M824.716,466.19l3.758,34.684l16.389-30.795 M824.716,466.19l20.147,3.889 M854.689,471.973l13.575,2.53
		l-43.652,80.215c-1.445,2.077-4.003,3.151-6.524,2.664c-2.767-0.531-4.743-2.481-5.06-4.897l-10.657-90.41l12.525,2.22
		l7.455,68.309l0,0L854.689,471.973"/>
</g>
</svg>
