<?xml version="1.0" encoding="utf-8"?>
<!-- Generator: Adobe Illustrator 16.0.0, SVG Export Plug-In . SVG Version: 6.00 Build 0)  -->
<!DOCTYPE svg PUBLIC "-//W3C//DTD SVG 1.1//EN" "http://www.w3.org/Graphics/SVG/1.1/DTD/svg11.dtd">
<svg version="1.1" xmlns="http://www.w3.org/2000/svg" xmlns:xlink="http://www.w3.org/1999/xlink" x="0px" y="0px"
	 width="1619.797px" height="1079.865px" viewBox="0 0 1619.797 1079.865" enable-background="new 0 0 1619.797 1079.865"
	 xml:space="preserve">
<g id="Layer_1" display="none">
</g>
<g id="Layer_2">
	<g>
		<path fill="#5D92CA" d="M801.042,544.631c-5.105-4.283-12.686-3.622-16.965,1.482c-4.282,5.104-3.619,12.682,1.484,16.963
			c5.005,4.202,12.682,3.619,16.964-1.481C806.808,556.492,806.145,548.91,801.042,544.631 M789.762,558.071
			c-2.356-1.976-2.755-5.485-0.78-7.84c1.976-2.357,5.503-2.573,7.858-0.595c2.355,1.973,2.657,5.402,0.68,7.758
			C795.642,559.831,792.117,560.049,789.762,558.071"/>
		<path fill="#5D92CA" d="M773.533,604.747l2.918-1.922l-1.698,16.752c-0.067,1.104,0.408,2.146,1.304,2.873
			c0.099,0.078,0.197,0.159,0.397,0.32c1.077,0.707,2.535,0.735,3.379,0.101l28.452-20.477c0.385-0.678,0.768-1.357,0.791-1.998l0,0
			l1.868-21.233c10.991-11.539,22.661-29.615,18.357-66.231c-0.095-0.902-0.63-1.665-1.327-2.229l0,0
			c-0.695-0.563-1.636-0.83-2.456-0.836c-36.71,3.404-51.964,18.579-60.967,31.729l-20.383,6.24
			c-0.701,0.256-1.202,0.673-1.585,1.353l-14.116,32.085c-0.527,1.057-0.115,2.38,0.801,3.287c0.099,0.079,0.199,0.161,0.397,0.321
			c0.897,0.727,2.015,0.972,3.078,0.678l16.035-5.145l-1.273,3.252 M751.361,572.949l-14.37,4.513L747.8,552.92l13.771-4.18
			l-9.767,24.069C751.724,572.909,751.543,572.928,751.361,572.949L751.361,572.949z M752.456,587.677l3.881,3.146 M764.301,597.271
			l3.885,3.145 M790.021,585.457l-5.706,3.79l0,0l-10.543,7.119l-1.026,0.655l-18.017-14.591l0.426-1.14l4.773-11.793l0,0
			l2.518-6.369l7.288-18.16c0,0,0,0,0.081-0.099c8.231-11.796,21.757-25.238,53.688-29.052l0,0l0,0
			c2.91,32.027-7.426,48.05-17.251,58.555c0,0,0,0-0.081,0.1L790.021,585.457L790.021,585.457z M781.311,613.518l1.429-14.997
			c-0.02-0.178,0.064-0.28-0.038-0.36l21.513-14.556l-1.226,14.337L781.311,613.518L781.311,613.518z"/>
	</g>
	<path fill="#5D92CA" d="M763.65,592.251l-4.409,2.864l2.003-4.789l-1.924-1.538l-3.634,8.905c-0.178,0.454-0.021,0.986,0.412,1.347
		c0.395,0.33,0.946,0.389,1.399,0.165l8.26-5.268L763.65,592.251z"/>
</g>
</svg>
