<?xml version="1.0" encoding="utf-8"?>
<!-- Generator: Adobe Illustrator 16.0.0, SVG Export Plug-In . SVG Version: 6.00 Build 0)  -->
<!DOCTYPE svg PUBLIC "-//W3C//DTD SVG 1.1//EN" "http://www.w3.org/Graphics/SVG/1.1/DTD/svg11.dtd">
<svg version="1.1" xmlns="http://www.w3.org/2000/svg" xmlns:xlink="http://www.w3.org/1999/xlink" x="0px" y="0px"
	 width="1619.797px" height="1079.865px" viewBox="0 0 1619.797 1079.865" enable-background="new 0 0 1619.797 1079.865"
	 xml:space="preserve">
<g id="Layer_1" display="none">
</g>
<g id="Layer_2">
	<g>
		<path fill="#5D92CA" d="M811.333,557.672c-3.726-5.523-11.195-6.977-16.716-3.251c-5.523,3.726-6.974,11.193-3.249,16.716
			c3.654,5.417,11.193,6.974,16.715,3.25C813.605,570.663,815.058,563.192,811.333,557.672 M796.785,567.483
			c-1.72-2.548-1.136-6.033,1.413-7.751c2.549-1.721,6-0.957,7.718,1.593c1.719,2.547,1.064,5.926-1.485,7.646
			C801.953,570.795,798.504,570.033,796.785,567.483"/>
		<path fill="#5D92CA" d="M767.741,607.583l3.353-0.985l-6.522,15.525c-0.386,1.034-0.238,2.17,0.407,3.127
			c0.071,0.104,0.143,0.21,0.286,0.423c0.823,0.99,2.209,1.444,3.203,1.084l33.194-11.264c0.566-0.537,1.132-1.073,1.341-1.679l0,0
			l7.994-19.76c13.884-7.822,30.331-21.695,36.919-57.969c0.173-0.89-0.116-1.776-0.618-2.52l0,0
			c-0.501-0.742-1.321-1.272-2.104-1.518c-36.101-7.478-55.125,2.574-67.578,12.518l-21.318,0.008
			c-0.744,0.041-1.347,0.292-1.912,0.83l-22.88,26.556c-0.813,0.856-0.805,2.243-0.195,3.377c0.072,0.104,0.143,0.211,0.287,0.424
			c0.646,0.957,1.642,1.519,2.744,1.547l16.84-0.232l-2.169,2.739 M755.835,570.692l-15.063,0.115l17.513-20.311l14.391,0.03
			l-16.377,20.162C756.192,570.76,756.014,570.726,755.835,570.692L755.835,570.692z M752.575,585.096l2.792,4.143 M761.098,597.735
			l2.794,4.144 M789.147,593.956l-6.563,1.957l0,0l-12.165,3.725l-1.171,0.326l-12.964-19.221l0.74-0.965l8.012-9.882l0,0
			l4.271-5.355l12.28-15.234c0,0,0,0,0.106-0.072c11.32-8.873,28.184-17.774,59.834-12.084l0,0l0,0
			c-6.58,31.478-21.15,43.778-33.617,50.952c0,0,0,0-0.106,0.072L789.147,593.956L789.147,593.956z M772.614,618.244l5.752-13.923
			c0.034-0.177,0.142-0.25,0.069-0.356l24.829-7.63l-5.365,13.351L772.614,618.244L772.614,618.244z"/>
	</g>
</g>
</svg>
