<?xml version="1.0" encoding="utf-8"?>
<!-- Generator: Adobe Illustrator 16.0.0, SVG Export Plug-In . SVG Version: 6.00 Build 0)  -->
<!DOCTYPE svg PUBLIC "-//W3C//DTD SVG 1.1//EN" "http://www.w3.org/Graphics/SVG/1.1/DTD/svg11.dtd">
<svg version="1.1" xmlns="http://www.w3.org/2000/svg" xmlns:xlink="http://www.w3.org/1999/xlink" x="0px" y="0px"
	 width="1619.797px" height="1079.865px" viewBox="0 0 1619.797 1079.865" enable-background="new 0 0 1619.797 1079.865"
	 xml:space="preserve">
<g id="Layer_1" display="none">
</g>
<g id="Layer_2">
	<g>
		<path fill="#5D92CA" d="M882.48,57.527l0.321-6.98l25.109,22.439c1.705,1.406,3.954,1.864,6.183,1.267
			c0.243-0.067,0.488-0.13,0.984-0.267c2.409-0.91,4.169-3.237,4.135-5.35l0.313-70.107c-0.646-1.419-1.292-2.836-2.302-3.628l0,0
			l-32.16-27.981c-5.75-31.35-21.279-71.482-85.584-107.563c-1.57-0.906-3.432-0.938-5.166-0.472l0,0
			c-1.729,0.462-3.268,1.669-4.24,2.99c-37.648,63.4-31.025,105.917-20.332,135.942l-13.865,40.32
			c-0.41,1.433-0.325,2.734,0.323,4.153l35.322,60.559c1.089,2.095,3.715,2.984,6.259,2.565c0.244-0.063,0.495-0.129,0.987-0.264
			c2.231-0.598,3.941-2.117,4.715-4.183l10.526-31.995l3.766,5.885 M804.965,56.018l-9.59,28.559l-27.002-46.338l9.429-27.197
			l27.459,44.095C805.329,55.385,805.144,55.699,804.965,56.018L804.965,56.018z M830.083,71.565l9.653-2.584 M859.533,63.678
			l9.654-2.589 M870.648,8.174l-0.574,13.686l0,0l-0.876,25.429l-0.145,2.43l-44.79,11.999l-1.343-2.03l-13.472-21.588l0,0
			l-7.343-11.559L781.291-6.6c0,0,0,0-0.064-0.248c-9.412-27.185-15.263-64.873,16.105-121.021l0,0l0,0
			c55.241,32.943,69.015,68.506,74.464,96.751c0,0,0,0,0.065,0.249L870.648,8.174L870.648,8.174z M905.815,55.251L883.231,35.31
			c-0.313-0.178-0.379-0.434-0.631-0.361l1.74-51.918l21.754,18.834L905.815,55.251L905.815,55.251z"/>
	</g>
	<path fill="#5D92CA" d="M839.571,68.569l18.256,29.728l1.614-34.847 M839.571,68.569l19.871-5.119 M869.131,60.951l13.348-3.528
		l-5.074,91.18c-0.417,2.5-2.266,4.564-4.755,5.205c-2.727,0.703-5.348-0.211-6.668-2.259l-48.365-77.125l12.268-3.361
		l36.002,58.528l0,0L869.131,60.951"/>
</g>
</svg>
