<?xml version="1.0" encoding="utf-8"?>
<!-- Generator: Adobe Illustrator 16.0.0, SVG Export Plug-In . SVG Version: 6.00 Build 0)  -->
<!DOCTYPE svg PUBLIC "-//W3C//DTD SVG 1.1//EN" "http://www.w3.org/Graphics/SVG/1.1/DTD/svg11.dtd">
<svg version="1.1" xmlns="http://www.w3.org/2000/svg" xmlns:xlink="http://www.w3.org/1999/xlink" x="0px" y="0px"
	 width="1619.797px" height="1079.865px" viewBox="0 0 1619.797 1079.865" enable-background="new 0 0 1619.797 1079.865"
	 xml:space="preserve">
<g id="Layer_1" display="none">
</g>
<g id="Layer_2">
	<g>
		<path fill="#5D92CA" d="M815.122,559.747c-3.23-5.827-10.543-7.925-16.369-4.695c-5.826,3.23-7.924,10.542-4.692,16.37
			c3.167,5.715,10.542,7.923,16.368,4.694C816.255,572.886,818.353,565.572,815.122,559.747 M799.774,568.254
			c-1.49-2.689-0.605-6.109,2.084-7.599c2.688-1.493,6.059-0.429,7.549,2.259c1.49,2.688,0.543,5.996-2.146,7.487
			C804.635,572.003,801.265,570.943,799.774,568.254"/>
		<path fill="#5D92CA" d="M767.347,605.669l3.426-0.689l-7.852,14.897c-0.475,0.997-0.426,2.141,0.134,3.15
			c0.062,0.111,0.124,0.223,0.249,0.446c0.732,1.058,2.074,1.632,3.096,1.359l34.049-8.328c0.611-0.484,1.222-0.969,1.482-1.555l0,0
			l9.686-18.987c14.514-6.583,32.106-18.97,41.832-54.532c0.25-0.871,0.039-1.779-0.396-2.563l0,0
			c-0.435-0.783-1.206-1.383-1.964-1.695c-35.313-10.596-55.141-2.24-68.412,6.58l-21.238-1.849
			c-0.744-0.025-1.367,0.173-1.977,0.659l-25.107,24.461c-0.885,0.782-0.998,2.164-0.488,3.347c0.063,0.111,0.123,0.224,0.248,0.447
			c0.56,1.009,1.504,1.656,2.6,1.781l16.795,1.237l-2.399,2.54 M758.701,567.881l-15.016-1.198l19.216-18.707l14.334,1.283
			l-18.072,18.658C759.052,567.979,758.876,567.931,758.701,567.881L758.701,567.881z M754.198,581.946l2.42,4.371 M761.587,595.28
			l2.422,4.37 M789.858,593.961l-6.709,1.376l0,0l-12.443,2.65l-1.195,0.223l-11.24-20.278l0.822-0.896l8.842-9.147l0,0l4.722-4.962
			l13.562-14.107c0,0,0,0,0.111-0.063c12.051-7.852,29.627-15.25,60.661-6.823l0,0l0,0c-9.299,30.785-24.886,41.769-37.931,47.828
			c0,0,0,0-0.111,0.063L789.858,593.961L789.858,593.961z M771.271,616.714l6.943-13.369c0.05-0.174,0.163-0.236,0.1-0.349
			l25.4-5.438l-6.508,12.834L771.271,616.714L771.271,616.714z"/>
	</g>
</g>
</svg>
