<?xml version="1.0" encoding="utf-8"?>
<!-- Generator: Adobe Illustrator 16.0.0, SVG Export Plug-In . SVG Version: 6.00 Build 0)  -->
<!DOCTYPE svg PUBLIC "-//W3C//DTD SVG 1.1//EN" "http://www.w3.org/Graphics/SVG/1.1/DTD/svg11.dtd">
<svg version="1.1" xmlns="http://www.w3.org/2000/svg" xmlns:xlink="http://www.w3.org/1999/xlink" x="0px" y="0px"
	 width="1619.797px" height="1079.865px" viewBox="0 0 1619.797 1079.865" enable-background="new 0 0 1619.797 1079.865"
	 xml:space="preserve">
<g id="Layer_1" display="none">
</g>
<g id="Layer_2">
	<g>
		<path fill="#5D92CA" d="M836.686,540.939c-6.462-11.654-21.088-15.851-32.739-9.391c-11.652,6.461-15.847,21.085-9.385,32.74
			c6.334,11.431,21.085,15.846,32.735,9.389C838.949,567.218,843.145,552.589,836.686,540.939 M805.989,557.953
			c-2.981-5.378-1.21-12.219,4.167-15.198c5.378-2.985,12.119-0.858,15.1,4.519c2.98,5.376,1.086,11.993-4.293,14.975
			C815.71,565.452,808.971,563.332,805.989,557.953"/>
		<path fill="#5D92CA" d="M741.133,632.784l6.853-1.378L732.282,661.2c-0.949,1.994-0.852,4.282,0.268,6.3
			c0.124,0.222,0.247,0.445,0.497,0.893c1.466,2.116,4.15,3.264,6.193,2.719l68.098-16.656c1.222-0.969,2.442-1.939,2.964-3.109l0,0
			l19.371-37.975c29.026-13.165,64.213-37.939,83.665-109.064c0.499-1.742,0.077-3.558-0.792-5.127l0,0
			c-0.87-1.565-2.411-2.766-3.929-3.39c-70.624-21.192-110.281-4.481-136.824,13.159l-42.475-3.699
			c-1.49-0.05-2.735,0.347-3.954,1.318l-50.214,48.922c-1.771,1.564-1.996,4.328-0.978,6.694c0.124,0.222,0.247,0.447,0.497,0.895
			c1.118,2.018,3.008,3.312,5.198,3.562l33.591,2.473l-4.8,5.079 M723.843,557.207l-30.031-2.396l38.432-37.414l28.668,2.566
			l-36.145,37.317C724.543,557.404,724.193,557.307,723.843,557.207L723.843,557.207z M714.836,585.338l4.842,8.742
			 M729.614,612.005l4.845,8.74 M786.158,609.367l-13.418,2.753l0,0l-24.889,5.301l-2.39,0.445l-22.48-40.556l1.644-1.791
			l17.686-18.294l0,0l9.442-9.924l27.123-28.214c0,0,0,0,0.224-0.125c24.102-15.705,59.252-30.501,121.321-13.646l0,0l0,0
			c-18.598,61.57-49.772,83.537-75.861,95.656c0,0,0,0-0.224,0.125L786.158,609.367L786.158,609.367z M748.983,654.874
			l13.887-26.737c0.099-0.347,0.325-0.472,0.199-0.698l50.801-10.875l-13.016,25.668L748.983,654.874L748.983,654.874z"/>
	</g>
</g>
</svg>
