<?xml version="1.0" encoding="utf-8"?>
<!-- Generator: Adobe Illustrator 16.0.0, SVG Export Plug-In . SVG Version: 6.00 Build 0)  -->
<!DOCTYPE svg PUBLIC "-//W3C//DTD SVG 1.1//EN" "http://www.w3.org/Graphics/SVG/1.1/DTD/svg11.dtd">
<svg version="1.1" xmlns="http://www.w3.org/2000/svg" xmlns:xlink="http://www.w3.org/1999/xlink" x="0px" y="0px"
	 width="1619.797px" height="1079.866px" viewBox="0 0 1619.797 1079.866" enable-background="new 0 0 1619.797 1079.866"
	 xml:space="preserve">
<g id="Layer_1" display="none">
</g>
<g id="Layer_2">
	<g>
		<path fill="#5D92CA" d="M852.21,375.421c-6.518-1.385-12.901,2.758-14.283,9.274c-1.384,6.515,2.759,12.896,9.273,14.28
			c6.393,1.36,12.897-2.759,14.282-9.272C862.869,383.188,858.724,376.805,852.21,375.421 M848.561,392.585
			c-3.008-0.638-5.009-3.55-4.369-6.558c0.638-3.008,3.651-4.855,6.658-4.214c3.006,0.637,4.882,3.523,4.243,6.531
			C854.578,391.377,851.568,393.225,848.561,392.585"/>
		<path fill="#5D92CA" d="M856.144,441.415l1.675-3.066l6.365,15.589c0.458,1.005,1.368,1.704,2.501,1.925
			c0.124,0.021,0.248,0.047,0.501,0.096c1.282,0.118,2.583-0.541,3.03-1.498l15.508-31.437c0.021-0.78,0.041-1.559-0.239-2.136l0,0
			l-8.319-19.624c4.287-15.349,6.104-36.787-14.885-67.097c-0.508-0.751-1.338-1.173-2.219-1.344l0,0
			c-0.878-0.171-1.834,0.034-2.561,0.415c-30.815,20.24-37.158,40.799-38.934,56.635l-15.068,15.081
			c-0.498,0.555-0.745,1.158-0.766,1.938l2.6,34.956c0.03,1.182,1.016,2.156,2.25,2.525c0.124,0.025,0.25,0.051,0.501,0.098
			c1.134,0.221,2.235-0.087,3.036-0.846l11.742-12.07l0.403,3.469 M821.64,423.748l-10.569,10.731l-1.979-26.743l10.198-10.155
			l2.676,25.836C821.941,423.543,821.791,423.644,821.64,423.748L821.64,423.748z M829.52,436.239l4.905,0.955 M844.483,439.149
			l4.906,0.953 M861.645,416.643l-3.258,6.025l0,0l-5.967,11.234l-0.599,1.061l-22.758-4.425l-0.158-1.206l-1.322-12.654l0,0
			l-0.767-6.805l-2.09-19.456c0,0,0,0,0.025-0.126c1.729-14.279,7.36-32.498,33.764-50.855l0,0l0,0
			c17.604,26.913,16,45.912,12.257,59.8c0,0,0,0-0.024,0.126L861.645,416.643L861.645,416.643z M867.129,445.507l-5.778-13.911
			c-0.102-0.148-0.075-0.277-0.203-0.301l12.161-22.952l5.648,13.233L867.129,445.507L867.129,445.507z"/>
	</g>
	<path fill="#5D92CA" d="M834.475,436.932l1.879,17.342l8.195-15.398 M834.475,436.932l10.074,1.943 M849.461,439.823l6.788,1.266
		l-21.826,40.107c-0.723,1.039-2.002,1.576-3.262,1.332c-1.383-0.266-2.372-1.24-2.53-2.449l-5.329-45.205l6.263,1.11l3.728,34.154
		l0,0L849.461,439.823"/>
</g>
</svg>
