<?xml version="1.0" encoding="utf-8"?>
<!-- Generator: Adobe Illustrator 16.0.0, SVG Export Plug-In . SVG Version: 6.00 Build 0)  -->
<!DOCTYPE svg PUBLIC "-//W3C//DTD SVG 1.1//EN" "http://www.w3.org/Graphics/SVG/1.1/DTD/svg11.dtd">
<svg version="1.1" xmlns="http://www.w3.org/2000/svg" xmlns:xlink="http://www.w3.org/1999/xlink" x="0px" y="0px"
	 width="1619.797px" height="1079.866px" viewBox="0 0 1619.797 1079.866" enable-background="new 0 0 1619.797 1079.866"
	 xml:space="preserve">
<g id="Layer_1" display="none">
</g>
<g id="Layer_2">
	<g>
		<path fill="#5D92CA" d="M861.505,301.904c-6.627-0.695-12.541,4.092-13.234,10.717c-0.695,6.625,4.091,12.537,10.715,13.234
			c6.5,0.684,12.538-4.092,13.235-10.715C872.918,308.515,868.128,302.599,861.505,301.904 M859.67,319.356
			c-3.058-0.32-5.352-3.007-5.03-6.064c0.319-3.059,3.123-5.21,6.181-4.888c3.057,0.318,5.224,2.994,4.903,6.052
			C865.528,317.527,862.728,319.679,859.67,319.356"/>
		<path fill="#5D92CA" d="M872.316,367.126l1.345-3.225l7.96,14.837c0.561,0.952,1.538,1.552,2.688,1.652
			c0.125,0.01,0.251,0.022,0.507,0.043c1.288-0.016,2.513-0.809,2.858-1.806l12.137-32.887c-0.062-0.777-0.123-1.554-0.462-2.099
			l0,0l-10.325-18.646c2.659-15.713,2.226-37.225-21.816-65.174c-0.582-0.694-1.453-1.027-2.346-1.105l0,0
			c-0.893-0.078-1.821,0.227-2.505,0.681c-28.53,23.35-32.689,44.459-32.8,60.395l-13.409,16.573
			c-0.438,0.603-0.62,1.229-0.56,2.006l6.24,34.494c0.153,1.171,1.235,2.038,2.502,2.277c0.127,0.011,0.255,0.023,0.51,0.045
			c1.15,0.1,2.213-0.321,2.93-1.16l10.417-13.232l0.764,3.409 M836.153,353.161l-9.389,11.778l-4.764-26.39l9.081-11.166
			l5.362,25.414C836.433,352.926,836.294,353.042,836.153,353.161L836.153,353.161z M845.297,364.761l4.978,0.437 M860.482,366.091
			l4.979,0.435 M875.197,341.914l-2.61,6.332l0,0l-4.76,11.799l-0.483,1.116l-23.097-2.021l-0.283-1.184l-2.639-12.447l0,0
			l-1.474-6.687l-4.112-19.13c0,0,0,0,0.012-0.127c0.227-14.382,3.923-33.09,28.263-54.107l0,0l0,0
			c20.321,24.925,20.712,43.989,18.441,58.192c0,0,0,0-0.011,0.128L875.197,341.914L875.197,341.914z M883.669,370.047l-7.2-13.231
			c-0.117-0.137-0.104-0.269-0.234-0.277l9.695-24.097l7.001,12.569L883.669,370.047L883.669,370.047z"/>
	</g>
	<path fill="#5D92CA" d="M850.282,364.881l3.446,17.1l6.762-16.078 M850.282,364.881l10.208,1.022 M865.469,366.401l6.875,0.643
		l-18.093,41.924c-0.625,1.101-1.851,1.751-3.127,1.624c-1.402-0.141-2.475-1.021-2.742-2.21l-9.413-44.533l6.337,0.535
		l6.814,33.675l0,0L865.469,366.401"/>
</g>
</svg>
