<?xml version="1.0" encoding="utf-8"?>
<!-- Generator: Adobe Illustrator 16.0.0, SVG Export Plug-In . SVG Version: 6.00 Build 0)  -->
<!DOCTYPE svg PUBLIC "-//W3C//DTD SVG 1.1//EN" "http://www.w3.org/Graphics/SVG/1.1/DTD/svg11.dtd">
<svg version="1.1" xmlns="http://www.w3.org/2000/svg" xmlns:xlink="http://www.w3.org/1999/xlink" x="0px" y="0px"
	 width="1619.797px" height="1079.865px" viewBox="0 0 1619.797 1079.865" enable-background="new 0 0 1619.797 1079.865"
	 xml:space="preserve">
<g id="Layer_1" display="none">
</g>
<g id="Layer_2">
	<g>
		<path fill="#5D92CA" d="M863.781,260.734c-6.654-0.348-12.311,4.742-12.656,11.395c-0.348,6.652,4.742,12.307,11.394,12.655
			c6.526,0.343,12.307-4.743,12.655-11.394C875.524,266.738,870.431,261.082,863.781,260.734 M862.862,278.258
			c-3.071-0.16-5.502-2.723-5.341-5.793c0.159-3.07,2.847-5.366,5.917-5.204c3.069,0.158,5.373,2.716,5.213,5.787
			C868.617,276.125,865.933,278.42,862.862,278.258"/>
		<path fill="#5D92CA" d="M877.991,325.301l1.174-3.291l8.726,14.4c0.609,0.922,1.617,1.47,2.771,1.51
			c0.125,0.003,0.252,0.01,0.509,0.017c1.285-0.083,2.467-0.938,2.759-1.954l10.398-33.477c-0.101-0.771-0.204-1.545-0.571-2.07l0,0
			l-11.286-18.08c1.833-15.831,0.274-37.291-25.198-63.943c-0.618-0.663-1.504-0.95-2.401-0.98l0,0
			c-0.895-0.032-1.806,0.32-2.465,0.81c-27.27,24.812-30.318,46.109-29.594,62.029l-12.523,17.253
			c-0.405,0.625-0.555,1.26-0.453,2.033l8.037,34.119c0.214,1.161,1.34,1.97,2.617,2.142c0.126,0.005,0.256,0.011,0.511,0.019
			c1.154,0.04,2.193-0.436,2.866-1.311l9.709-13.76l0.941,3.363 M841.147,313.248l-8.76,12.253l-6.138-26.104l8.484-11.626
			l6.684,25.099C841.414,312.998,841.28,313.121,841.147,313.248L841.147,313.248z M850.885,324.354l4.993,0.176 M866.119,324.887
			l4.995,0.174 M879.548,299.973l-2.275,6.46l0,0l-4.137,12.031l-0.425,1.14l-23.17-0.81l-0.345-1.167l-3.286-12.292l0,0
			l-1.822-6.601l-5.108-18.889c0,0,0,0,0.005-0.127c-0.526-14.375,2.186-33.251,25.393-55.513l0,0l0,0
			c21.598,23.827,22.985,42.845,21.461,57.147c0,0,0,0-0.005,0.129L879.548,299.973L879.548,299.973z M889.48,327.624l-7.883-12.837
			c-0.124-0.131-0.118-0.263-0.249-0.265l8.421-24.571l7.648,12.187L889.48,327.624L889.48,327.624z"/>
	</g>
	<path fill="#5D92CA" d="M855.882,324.369l4.497,16.854l5.755-16.465 M855.882,324.369l10.251,0.389 M871.134,324.947l6.9,0.217
		l-15.466,42.962c-0.556,1.137-1.738,1.862-3.021,1.813c-1.408-0.053-2.533-0.865-2.874-2.035l-12.147-43.867l6.358,0.143
		l8.883,33.189l0,0L871.134,324.947"/>
</g>
</svg>
