<?xml version="1.0" encoding="utf-8"?>
<!-- Generator: Adobe Illustrator 16.0.0, SVG Export Plug-In . SVG Version: 6.00 Build 0)  -->
<!DOCTYPE svg PUBLIC "-//W3C//DTD SVG 1.1//EN" "http://www.w3.org/Graphics/SVG/1.1/DTD/svg11.dtd">
<svg version="1.1" xmlns="http://www.w3.org/2000/svg" xmlns:xlink="http://www.w3.org/1999/xlink" x="0px" y="0px"
	 width="1619.797px" height="1079.865px" viewBox="0 0 1619.797 1079.865" enable-background="new 0 0 1619.797 1079.865"
	 xml:space="preserve">
<g id="Layer_1" display="none">
</g>
<g id="Layer_2">
	<g>
		<path fill="#5D92CA" d="M833.434-1.627c-13.082,2.545-21.595,15.159-19.045,28.236c2.543,13.078,15.155,21.587,28.23,19.046
			c12.832-2.493,21.59-15.157,19.049-28.232C859.129,4.343,846.508-4.17,833.434-1.627 M840.13,32.825
			c-6.037,1.175-11.997-2.622-13.168-8.658c-1.179-6.036,2.927-11.791,8.964-12.962c6.033-1.178,11.742,2.672,12.916,8.708
			C850.265,25.901,846.166,31.654,840.13,32.825"/>
		<path fill="#5D92CA" d="M892.25,116.796l0.686-6.954l23.9,23.723c1.629,1.494,3.85,2.069,6.108,1.59
			c0.246-0.056,0.494-0.104,0.997-0.215c2.453-0.784,4.332-3.016,4.408-5.126l3.981-69.995c-0.57-1.451-1.142-2.9-2.108-3.744l0,0
			l-30.651-29.626c-4.103-31.607-17.509-72.497-79.837-111.895c-1.521-0.987-3.378-1.116-5.134-0.741l0,0
			c-1.751,0.371-3.351,1.496-4.391,2.765C769.295-22.08,773.684,20.725,782.791,51.27l-15.955,39.539
			c-0.484,1.409-0.469,2.713,0.104,4.164l32.104,62.324c0.978,2.149,3.553,3.175,6.115,2.891c0.248-0.051,0.501-0.104,1-0.212
			c2.26-0.48,4.047-1.908,4.928-3.931l12.187-31.4l3.452,6.073 M814.92,111.232l-11.072,28.017l-24.54-47.688l10.839-26.667
			l25.114,45.472C815.316,110.618,815.115,110.923,814.92,111.232L814.92,111.232z M839.189,128.073l9.775-2.076 M869.012,121.737
			l9.776-2.08 M883.018,66.891l-1.29,13.637l0,0l-2.205,25.349l-0.272,2.419l-45.355,9.639l-1.235-2.098l-12.323-22.264l0,0
			l-6.729-11.928l-19.053-34.184c0,0,0,0-0.051-0.25c-7.977-27.641-11.847-65.583,22.416-120.013l0,0l0,0
			c53.441,35.789,65.336,72.023,69.299,100.515c0,0,0,0,0.053,0.252L883.018,66.891L883.018,66.891z M915.672,115.744l-21.51-21.096
			c-0.303-0.193-0.356-0.453-0.61-0.395l4.453-51.756l20.739,19.947L915.672,115.744L915.672,115.744z"/>
	</g>
	<path fill="#5D92CA" d="M848.824,125.28l16.633,30.664l3.484-34.711 M848.824,125.28l20.117-4.047 M878.752,119.262l13.518-2.812
		l-9.958,90.779c-0.548,2.472-2.507,4.435-5.024,4.943c-2.761,0.555-5.331-0.499-6.54-2.615l-44.159-79.605l12.432-2.7
		l32.811,60.375l0,0L878.752,119.262"/>
</g>
</svg>
