<?xml version="1.0" encoding="utf-8"?>
<!-- Generator: Adobe Illustrator 16.0.0, SVG Export Plug-In . SVG Version: 6.00 Build 0)  -->
<!DOCTYPE svg PUBLIC "-//W3C//DTD SVG 1.1//EN" "http://www.w3.org/Graphics/SVG/1.1/DTD/svg11.dtd">
<svg version="1.1" xmlns="http://www.w3.org/2000/svg" xmlns:xlink="http://www.w3.org/1999/xlink" x="0px" y="0px"
	 width="1619.797px" height="1079.866px" viewBox="0 0 1619.797 1079.866" enable-background="new 0 0 1619.797 1079.866"
	 xml:space="preserve">
<g id="Layer_1" display="none">
</g>
<g id="Layer_2">
	<g>
		<path fill="#5D92CA" d="M860.399,315.053c-6.614-0.811-12.611,3.872-13.42,10.484c-0.811,6.612,3.872,12.606,10.483,13.419
			c6.486,0.797,12.606-3.873,13.419-10.482C871.695,321.861,867.01,315.863,860.399,315.053 M858.26,332.47
			c-3.052-0.374-5.299-3.1-4.924-6.152c0.373-3.053,3.214-5.155,6.266-4.779c3.051,0.372,5.171,3.085,4.797,6.137
			C864.149,330.743,861.313,332.845,858.26,332.47"/>
		<path fill="#5D92CA" d="M870.071,380.453l1.4-3.201l7.699,14.974c0.544,0.961,1.511,1.578,2.659,1.699
			c0.125,0.011,0.251,0.026,0.507,0.051c1.288,0.007,2.526-0.764,2.89-1.756l12.708-32.669c-0.048-0.778-0.095-1.556-0.425-2.106
			l0,0l-9.998-18.824c2.934-15.664,2.875-37.18-20.676-65.544c-0.57-0.705-1.435-1.052-2.327-1.146l0,0
			c-0.89-0.094-1.824,0.194-2.515,0.637c-28.934,22.849-33.461,43.882-33.85,59.813l-13.696,16.336
			c-0.448,0.596-0.642,1.219-0.595,1.997l5.639,34.597c0.133,1.174,1.199,2.059,2.461,2.32c0.125,0.014,0.254,0.028,0.508,0.053
			c1.149,0.121,2.219-0.282,2.951-1.108l10.646-13.049l0.704,3.422 M834.158,365.86l-9.595,11.612l-4.302-26.469l9.274-11.006
			l4.917,25.504C834.441,365.629,834.299,365.743,834.158,365.86L834.158,365.86z M843.097,377.617l4.969,0.524 M858.257,379.212
			l4.971,0.521 M873.392,355.295l-2.721,6.285l0,0l-4.965,11.714l-0.504,1.108l-23.057-2.424l-0.263-1.188l-2.421-12.491l0,0
			l-1.357-6.712l-3.777-19.199c0,0,0,0,0.015-0.127c0.477-14.376,4.499-33.016,29.202-53.604l0,0l0,0
			c19.884,25.275,19.94,44.343,17.423,58.504c0,0,0,0-0.014,0.128L873.392,355.295L873.392,355.295z M881.37,383.572l-6.968-13.355
			c-0.115-0.139-0.1-0.271-0.229-0.282l10.114-23.924l6.78,12.69L881.37,383.572L881.37,383.572z"/>
	</g>
	<path fill="#5D92CA" d="M848.076,377.863l3.182,17.15l7.01-15.972 M848.076,377.863l10.191,1.178 M863.237,379.616l6.863,0.749
		l-18.736,41.64c-0.643,1.091-1.877,1.723-3.152,1.576c-1.399-0.162-2.458-1.06-2.708-2.252l-8.725-44.674l6.329,0.634l6.294,33.776
		l0,0L863.237,379.616"/>
</g>
</svg>
