<?xml version="1.0" encoding="utf-8"?>
<!-- Generator: Adobe Illustrator 16.0.0, SVG Export Plug-In . SVG Version: 6.00 Build 0)  -->
<!DOCTYPE svg PUBLIC "-//W3C//DTD SVG 1.1//EN" "http://www.w3.org/Graphics/SVG/1.1/DTD/svg11.dtd">
<svg version="1.1" xmlns="http://www.w3.org/2000/svg" xmlns:xlink="http://www.w3.org/1999/xlink" x="0px" y="0px"
	 width="1619.797px" height="1079.865px" viewBox="0 0 1619.797 1079.865" enable-background="new 0 0 1619.797 1079.865"
	 xml:space="preserve">
<g id="Layer_1" display="none">
</g>
<g id="Layer_2">
	<g>
		<path fill="#5D92CA" d="M848.859,422.923c-12.442-4.774-26.346,1.412-31.116,13.852c-4.772,12.438,1.414,26.337,13.851,31.112
			c12.203,4.686,26.339-1.415,31.115-13.85C867.485,441.6,861.294,427.693,848.859,422.923 M836.28,455.685
			c-5.743-2.201-8.783-8.58-6.579-14.319c2.2-5.744,8.73-8.449,14.471-6.243c5.74,2.198,8.542,8.487,6.339,14.229
			C848.544,455.184,842.021,457.891,836.28,455.685"/>
		<path fill="#5D92CA" d="M835.983,554.517l4.267-5.534l7.698,32.785c0.591,2.129,2.169,3.793,4.337,4.583
			c0.238,0.083,0.474,0.172,0.959,0.346c2.496,0.636,5.273-0.26,6.455-2.011l40.469-57.247c0.286-1.534,0.568-3.065,0.195-4.292l0,0
			l-10.294-41.37c13.271-28.978,23.569-70.759-8.41-137.198c-0.768-1.644-2.275-2.737-3.962-3.351l0,0
			c-1.681-0.611-3.633-0.505-5.189,0.02c-67.204,30.339-86.166,68.966-94.627,99.695l-34.483,25.074
			c-1.158,0.94-1.834,2.055-2.119,3.589l-5.801,69.865c-0.309,2.343,1.333,4.576,3.655,5.694c0.237,0.087,0.48,0.177,0.96,0.349
			c2.171,0.791,4.442,0.527,6.261-0.722l26.973-20.169l-0.289,6.979 M773.353,508.822l-24.236,17.892l4.459-53.449l23.321-16.871
			L774.1,508.27C774.013,508.512,773.683,508.665,773.353,508.822L773.353,508.822z M785.01,535.961l9.389,3.421 M813.658,546.392
			l9.394,3.418 M854.6,507.305l-8.32,10.882l0,0l-15.302,20.326l-1.513,1.906l-43.571-15.86l0.064-2.433l1.347-25.41l0,0
			l0.614-13.683l1.958-39.086c0,0,0,0,0.089-0.24c7.883-27.667,24.707-61.893,82.607-89.895l0,0l0,0
			c26.356,58.669,17.242,95.7,5.503,121.963c0,0,0,0-0.088,0.242L854.6,507.305L854.6,507.305z M856.403,566.038l-7.063-29.289
			c-0.154-0.324-0.062-0.571-0.307-0.657l31.204-41.533l7.017,27.91L856.403,566.038L856.403,566.038z"/>
	</g>
	<path fill="#5D92CA" d="M800.93,539.022l-0.613,13.94l8.343-11.183 M800.93,539.022l7.73,2.757 M812.431,543.123l5.214,1.823
		l-22.116,29.075c-0.697,0.733-1.773,1.003-2.74,0.657c-1.061-0.377-1.725-1.268-1.704-2.242l1.258-36.393l4.819,1.636l-1.188,27.46
		l0,0L812.431,543.123"/>
</g>
</svg>
