<?xml version="1.0" encoding="utf-8"?>
<!-- Generator: Adobe Illustrator 16.0.0, SVG Export Plug-In . SVG Version: 6.00 Build 0)  -->
<!DOCTYPE svg PUBLIC "-//W3C//DTD SVG 1.1//EN" "http://www.w3.org/Graphics/SVG/1.1/DTD/svg11.dtd">
<svg version="1.1" xmlns="http://www.w3.org/2000/svg" xmlns:xlink="http://www.w3.org/1999/xlink" x="0px" y="0px"
	 width="1619.797px" height="1079.865px" viewBox="0 0 1619.797 1079.865" enable-background="new 0 0 1619.797 1079.865"
	 xml:space="preserve">
<g id="Layer_1" display="none">
</g>
<g id="Layer_2">
	<g>
		<path fill="#5D92CA" d="M823.318,527.254c-9.747-9.087-24.955-8.56-34.038,1.187c-9.086,9.745-8.556,24.949,1.188,34.035
			c9.559,8.916,24.949,8.556,34.036-1.185C833.592,551.548,833.062,536.335,823.318,527.254 M799.384,552.919
			c-4.499-4.192-4.929-11.245-0.736-15.741c4.191-4.501,11.26-4.563,15.757-0.367c4.497,4.188,4.74,11.069,0.546,15.567
			C810.943,557.048,803.88,557.115,799.384,552.919"/>
		<path fill="#5D92CA" d="M760.823,644.13l6.09-3.427l-5.726,33.187c-0.287,2.189,0.514,4.338,2.201,5.913
			c0.187,0.17,0.37,0.345,0.748,0.695c2.049,1.56,4.956,1.821,6.729,0.67l59.62-36.884c0.862-1.3,1.724-2.599,1.857-3.875l0,0
			l6.688-42.104c23.537-21.487,49.344-55.924,45.866-129.578c-0.063-1.813-1.024-3.408-2.337-4.632l0,0
			c-1.309-1.22-3.147-1.886-4.783-2.009c-73.717,1.668-106.267,29.816-126.062,54.795l-41.539,9.608
			c-1.434,0.413-2.493,1.175-3.353,2.476l-32.64,62.045c-1.2,2.035-0.56,4.733,1.141,6.67c0.185,0.172,0.372,0.35,0.747,0.696
			c1.69,1.575,3.884,2.22,6.045,1.781l32.711-8.027l-2.992,6.313 M721.023,577.596l-29.3,7l24.989-47.457l28.057-6.418
			l-22.843,46.658C721.752,577.567,721.389,577.58,721.023,577.596L721.023,577.596z M721.15,607.133l7.307,6.818 M743.446,627.927
			l7.311,6.816 M796.408,607.944l-11.913,6.766l0,0l-22.027,12.732l-2.139,1.164l-33.911-31.625l1.01-2.214l11.168-22.863l0,0
			l5.912-12.355l17.076-35.216c0,0,0,0,0.174-0.185c18.068-22.387,46.928-47.32,111.166-50.471l0,0l0,0
			c1.338,64.303-21.52,94.83-42.588,114.417c0,0,0,0-0.176,0.188L796.408,607.944L796.408,607.944z M775.115,662.713l4.946-29.72
			c-0.016-0.358,0.165-0.55-0.026-0.726l44.951-26.039l-4.445,28.433L775.115,662.713L775.115,662.713z"/>
	</g>
	<polygon fill="#5D92CA" points="735.451,619.236 732.463,625.281 738.334,621.962 	"/>
</g>
</svg>
