<?xml version="1.0" encoding="utf-8"?>
<!-- Generator: Adobe Illustrator 16.0.0, SVG Export Plug-In . SVG Version: 6.00 Build 0)  -->
<!DOCTYPE svg PUBLIC "-//W3C//DTD SVG 1.1//EN" "http://www.w3.org/Graphics/SVG/1.1/DTD/svg11.dtd">
<svg version="1.1" xmlns="http://www.w3.org/2000/svg" xmlns:xlink="http://www.w3.org/1999/xlink" x="0px" y="0px"
	 width="1619.797px" height="1079.865px" viewBox="0 0 1619.797 1079.865" enable-background="new 0 0 1619.797 1079.865"
	 xml:space="preserve">
<g id="Layer_1" display="none">
</g>
<g id="Layer_2">
	<g>
		<path fill="#5D92CA" d="M822.914,481.879c-5.989-2.919-13.185-0.445-16.103,5.543c-2.919,5.988-0.443,13.181,5.544,16.101
			c5.873,2.866,13.181,0.443,16.102-5.542C831.378,491.994,828.9,484.797,822.914,481.879 M815.221,497.65
			c-2.764-1.347-4.001-4.656-2.653-7.419c1.347-2.765,4.717-3.828,7.48-2.479c2.764,1.345,3.885,4.6,2.537,7.364
			C821.352,497.935,817.984,498.999,815.221,497.65"/>
		<path fill="#5D92CA" d="M810.766,546.865l2.367-2.571l2.404,16.666c0.201,1.086,0.915,1.984,1.961,2.472
			c0.115,0.052,0.229,0.106,0.463,0.214c1.216,0.425,2.638,0.101,3.303-0.72l22.652-26.751c0.209-0.751,0.417-1.502,0.285-2.129l0,0
			l-3.325-21.055c7.873-13.855,14.823-34.217,1.79-68.705c-0.311-0.852-1.015-1.462-1.828-1.842l0,0
			c-0.811-0.377-1.787-0.41-2.585-0.216c-34.796,12.183-45.925,30.597-51.479,45.535l-18.269,10.987
			c-0.618,0.417-1.004,0.943-1.212,1.695l-5.935,34.547c-0.256,1.153,0.465,2.337,1.572,2.996c0.115,0.053,0.232,0.108,0.464,0.215
			c1.047,0.488,2.189,0.456,3.15-0.087l14.313-8.871l-0.448,3.464 M781.561,521.375l-12.852,7.856l4.55-26.428l12.352-7.387
			l-3.653,25.716C781.902,521.25,781.732,521.311,781.561,521.375L781.561,521.375z M786.185,535.401l4.527,2.113 M800,541.845
			l4.529,2.111 M822.097,524.16l-4.619,5.058l0,0l-8.509,9.458l-0.836,0.884l-21.012-9.798l0.138-1.209l1.778-12.598l0,0
			l0.902-6.789l2.678-19.384c0,0,0,0,0.055-0.115c5.133-13.438,15.005-29.752,45.064-41.177l0,0l0,0
			c10.572,30.372,4.418,48.419-2.573,60.99c0,0,0,0-0.054,0.116L822.097,524.16L822.097,524.16z M820.435,553.493l-2.241-14.897
			c-0.063-0.168-0.007-0.287-0.125-0.34l17.354-19.328l2.278,14.207L820.435,553.493L820.435,553.493z"/>
	</g>
	<path fill="#5D92CA" d="M793.978,537.441l-1.043,6.898l4.739-5.118 M793.978,537.441l3.696,1.78 M799.479,540.088l2.495,1.182
		l-12.532,13.287c-0.387,0.328-0.936,0.405-1.398,0.182c-0.508-0.244-0.79-0.722-0.729-1.206l2.549-18.027l2.311,1.068
		l-2.043,13.591l0,0L799.479,540.088"/>
</g>
</svg>
