<?xml version="1.0" encoding="utf-8"?>
<!-- Generator: Adobe Illustrator 16.0.0, SVG Export Plug-In . SVG Version: 6.00 Build 0)  -->
<!DOCTYPE svg PUBLIC "-//W3C//DTD SVG 1.1//EN" "http://www.w3.org/Graphics/SVG/1.1/DTD/svg11.dtd">
<svg version="1.1" xmlns="http://www.w3.org/2000/svg" xmlns:xlink="http://www.w3.org/1999/xlink" x="0px" y="0px"
	 width="1619.797px" height="1079.865px" viewBox="0 0 1619.797 1079.865" enable-background="new 0 0 1619.797 1079.865"
	 xml:space="preserve">
<g id="Layer_1" display="none">
</g>
<g id="Layer_2">
	<g>
		<path fill="#5D92CA" d="M862.822,183.102c-6.66,0.234-11.852,5.797-11.615,12.455c0.232,6.658,5.796,11.846,12.453,11.613
			c6.531-0.227,11.846-5.797,11.613-12.452C875.043,188.061,869.477,182.869,862.822,183.102 M863.434,200.64
			c-3.074,0.108-5.72-2.233-5.826-5.306c-0.109-3.072,2.367-5.594,5.44-5.7c3.071-0.11,5.59,2.237,5.698,5.311
			C868.979,198.014,866.506,200.533,863.434,200.64"/>
		<path fill="#5D92CA" d="M882.604,246.186l0.883-3.381l9.947,13.584c0.688,0.865,1.74,1.323,2.893,1.264
			c0.127-0.009,0.252-0.014,0.51-0.029c1.271-0.194,2.375-1.149,2.578-2.186l7.441-34.256c-0.169-0.761-0.338-1.521-0.749-2.014l0,0
			l-12.819-17.027c0.446-15.931-2.977-37.172-30.676-61.504c-0.674-0.606-1.58-0.815-2.477-0.768l0,0
			c-0.895,0.047-1.771,0.477-2.385,1.021c-25.004,27.094-26.185,48.576-24.076,64.373l-10.973,18.277
			c-0.349,0.658-0.441,1.304-0.273,2.065l10.98,33.29c0.314,1.137,1.506,1.846,2.793,1.904c0.127-0.005,0.256-0.012,0.511-0.025
			c1.153-0.061,2.147-0.626,2.741-1.556l8.475-14.554l1.229,3.27 M844.85,237.389l-7.658,12.971l-8.389-25.471l7.438-12.321
			l8.846,24.421C845.094,237.117,844.972,237.252,844.85,237.389L844.85,237.389z M855.518,247.604l4.99-0.26 M870.742,246.808
			l4.99-0.263 M881.948,220.817l-1.704,6.634l0,0l-3.071,12.346l-0.323,1.173l-23.152,1.212l-0.447-1.133l-4.344-11.958l0,0
			l-2.39-6.416l-6.735-18.372c0,0,0,0-0.006-0.127c-1.777-14.275-0.721-33.314,20.458-57.515l0,0l0,0
			c23.591,21.854,26.632,40.679,26.36,55.06c0,0,0,0,0.006,0.129L881.948,220.817L881.948,220.817z M894.254,247.498l-8.973-12.102
			c-0.135-0.119-0.141-0.251-0.271-0.242l6.248-25.211l8.682,11.473L894.254,247.498L894.254,247.498z"/>
	</g>
	<path fill="#5D92CA" d="M861.252,246.893l5.23,14.8l3.994-15.181 M861.252,246.893l9.225-0.381 M874.977,246.325l6.205-0.297
		l-10.82,39.646c-0.418,1.06-1.428,1.795-2.582,1.842c-1.266,0.053-2.334-0.596-2.723-1.621l-14.02-38.493l5.716-0.323
		l10.331,29.145l0,0L874.977,246.325"/>
</g>
</svg>
