<?xml version="1.0" encoding="utf-8"?>
<!-- Generator: Adobe Illustrator 16.0.0, SVG Export Plug-In . SVG Version: 6.00 Build 0)  -->
<!DOCTYPE svg PUBLIC "-//W3C//DTD SVG 1.1//EN" "http://www.w3.org/Graphics/SVG/1.1/DTD/svg11.dtd">
<svg version="1.1" xmlns="http://www.w3.org/2000/svg" xmlns:xlink="http://www.w3.org/1999/xlink" x="0px" y="0px"
	 width="1619.797px" height="1079.866px" viewBox="0 0 1619.797 1079.866" enable-background="new 0 0 1619.797 1079.866"
	 xml:space="preserve">
<g id="Layer_1" display="none">
</g>
<g id="Layer_2">
	<g>
		<path fill="#5D92CA" d="M859.128,354.451c-12.959-3.109-25.938,4.839-29.042,17.794c-3.107,12.954,4.84,25.927,17.793,29.038
			c12.71,3.053,25.929-4.841,29.041-17.792C880.032,370.536,872.079,357.558,859.128,354.451 M850.933,388.575
			c-5.981-1.434-9.828-7.36-8.392-13.339c1.432-5.98,7.553-9.516,13.532-8.078c5.978,1.431,9.576,7.3,8.142,13.28
			C863.027,386.477,856.912,390.013,850.933,388.575"/>
		<path fill="#5D92CA" d="M863.538,486.599l3.509-6.043l11.91,31.499c0.863,2.033,2.646,3.479,4.899,3.979
			c0.246,0.051,0.492,0.109,0.995,0.217c2.559,0.306,5.194-0.945,6.138-2.835l32.65-62.039c0.083-1.559,0.163-3.114-0.367-4.282l0,0
			l-15.605-39.671c9.375-30.463,14.131-73.229-26.247-134.927c-0.975-1.529-2.613-2.416-4.364-2.804l0,0
			c-1.748-0.387-3.669-0.027-5.142,0.696c-62.669,38.852-76.427,79.624-80.806,111.192l-30.915,29.362
			c-1.025,1.083-1.551,2.277-1.632,3.834l3.369,70.024c-0.001,2.362,1.918,4.363,4.366,5.168c0.247,0.056,0.499,0.113,0.998,0.221
			c2.255,0.5,4.473-0.058,6.113-1.533l24.109-23.519l0.624,6.958 M795.478,449.469l-21.693,20.903l-2.556-53.572l20.92-19.771
			l3.998,51.794C796.093,449.077,795.785,449.271,795.478,449.469L795.478,449.469z M810.579,474.857l9.756,2.166 M840.343,481.458
			l9.759,2.161 M875.833,437.361l-6.829,11.874l0,0l-12.519,22.15l-1.251,2.088l-45.269-10.037l-0.254-2.421l-1.981-25.368l0,0
			l-1.177-13.646l-3.162-39.008c0,0,0,0,0.057-0.25c4.205-28.459,16.417-64.589,70.167-99.908l0,0l0,0
			c33.789,54.728,29.585,92.63,21.376,120.201c0,0,0,0-0.056,0.251L875.833,437.361L875.833,437.361z M885.287,495.356
			l-10.825-28.117c-0.196-0.301-0.136-0.558-0.391-0.61l25.516-45.251l10.6,26.754L885.287,495.356L885.287,495.356z"/>
	</g>
	<path fill="#5D92CA" d="M821.397,476.078l2.186,31.32l15.798-27.13 M821.397,476.078l17.984,4.19 M848.154,482.31l12.12,2.74
		l-42.016,70.641c-1.371,1.818-3.708,2.697-5.959,2.172c-2.47-0.574-4.179-2.395-4.381-4.578l-6.477-81.677l11.187,2.427
		l4.357,61.69l0,0L848.154,482.31"/>
</g>
</svg>
