<?xml version="1.0" encoding="utf-8"?>
<!-- Generator: Adobe Illustrator 16.0.0, SVG Export Plug-In . SVG Version: 6.00 Build 0)  -->
<!DOCTYPE svg PUBLIC "-//W3C//DTD SVG 1.1//EN" "http://www.w3.org/Graphics/SVG/1.1/DTD/svg11.dtd">
<svg version="1.1" xmlns="http://www.w3.org/2000/svg" xmlns:xlink="http://www.w3.org/1999/xlink" x="0px" y="0px"
	 width="1619.797px" height="1079.865px" viewBox="0 0 1619.797 1079.865" enable-background="new 0 0 1619.797 1079.865"
	 xml:space="preserve">
<g id="Layer_1" display="none">
</g>
<g id="Layer_2">
	<g>
		<path fill="#5D92CA" d="M827.512,504.575c-11.05-7.45-25.989-4.551-33.433,6.498c-7.451,11.045-4.55,25.98,6.496,33.43
			c10.836,7.311,25.981,4.547,33.432-6.495C841.459,526.963,838.554,512.021,827.512,504.575 M807.886,533.668
			c-5.1-3.437-6.627-10.336-3.189-15.433c3.436-5.101,10.407-6.268,15.504-2.827c5.098,3.434,6.414,10.19,2.976,15.29
			C819.948,535.938,812.983,537.108,807.886,533.668"/>
		<path fill="#5D92CA" d="M785.362,629.9l5.402-4.431l0.125,33.675c0.097,2.208,1.26,4.183,3.195,5.442
			c0.214,0.134,0.424,0.274,0.857,0.553c2.289,1.181,5.195,0.933,6.742-0.507l52.311-46.677c0.623-1.43,1.243-2.859,1.155-4.139l0,0
			l-0.726-42.625c19.451-25.25,38.884-63.644,22.671-135.574c-0.378-1.774-1.601-3.179-3.106-4.155l0,0
			c-1.502-0.974-3.428-1.31-5.061-1.148c-72.307,14.444-99.473,47.816-114.631,75.853l-39.24,16.675
			c-1.34,0.655-2.25,1.589-2.871,3.02l-21.369,66.77c-0.828,2.214,0.27,4.759,2.279,6.371c0.213,0.138,0.43,0.279,0.858,0.556
			c1.938,1.258,4.211,1.513,6.264,0.705l30.818-13.585l-1.852,6.736 M734.614,571.288l-27.639,11.982l16.368-51.076l26.519-11.191
			l-14.394,49.915C735.329,571.134,734.973,571.208,734.614,571.288L734.614,571.288z M739.87,600.354l8.379,5.446 M765.437,616.961
			l8.385,5.443 M814.124,588.085l-10.557,8.732l0,0l-19.482,16.363l-1.904,1.517l-38.886-25.254l0.608-2.356l7.029-24.456l0,0
			l3.677-13.194l10.7-37.645c0,0,0,0,0.14-0.213c13.905-25.184,37.999-54.749,100.714-69.009l0,0l0,0
			c12.482,63.095-4.729,97.125-22.074,120.075c0,0,0,0-0.14,0.216L814.124,588.085L814.124,588.085z M802.667,645.719l-0.293-30.127
			c-0.078-0.351,0.068-0.57-0.152-0.709l39.75-33.45l0.558,28.773L802.667,645.719L802.667,645.719z"/>
	</g>
	<path fill="#5D92CA" d="M753.955,607.527l-3.794,13.428l10.686-8.97 M753.955,607.527l6.892,4.458 M764.208,614.158l4.656,2.97
		l-28.197,23.224c-0.846,0.554-1.955,0.571-2.818,0.012c-0.946-0.611-1.387-1.631-1.145-2.574l9.577-35.133l4.313,2.698
		l-7.457,26.455l0,0L764.208,614.158"/>
</g>
</svg>
