<?xml version="1.0" encoding="utf-8"?>
<!-- Generator: Adobe Illustrator 16.0.0, SVG Export Plug-In . SVG Version: 6.00 Build 0)  -->
<!DOCTYPE svg PUBLIC "-//W3C//DTD SVG 1.1//EN" "http://www.w3.org/Graphics/SVG/1.1/DTD/svg11.dtd">
<svg version="1.1" xmlns="http://www.w3.org/2000/svg" xmlns:xlink="http://www.w3.org/1999/xlink" x="0px" y="0px"
	 width="1619.797px" height="1079.865px" viewBox="0 0 1619.797 1079.865" enable-background="new 0 0 1619.797 1079.865"
	 xml:space="preserve">
<g id="Layer_1" display="none">
</g>
<g id="Layer_2">
	<g>
		<path fill="#5D92CA" d="M804.537,533.63c-5.392-3.915-12.906-2.727-16.82,2.664c-3.915,5.39-2.727,12.903,2.664,16.818
			c5.286,3.843,12.902,2.726,16.818-2.662C811.115,545.061,809.925,537.543,804.537,533.63 M794.223,547.826
			c-2.488-1.807-3.132-5.281-1.324-7.767c1.805-2.489,5.309-2.951,7.796-1.143c2.487,1.805,3.027,5.204,1.22,7.692
			C800.21,549.17,796.709,549.634,794.223,547.826"/>
		<path fill="#5D92CA" d="M781.288,595.519l2.776-2.12l-0.524,16.83c0.01,1.105,0.557,2.113,1.501,2.775
			c0.105,0.071,0.207,0.145,0.42,0.291c1.123,0.63,2.58,0.557,3.377-0.135l26.953-22.412c0.338-0.704,0.672-1.407,0.65-2.048l0,0
			l0.382-21.313c10.159-12.277,20.54-31.124,13.694-67.35c-0.158-0.894-0.745-1.617-1.48-2.131l0,0
			c-0.732-0.513-1.689-0.714-2.508-0.662c-36.384,5.956-50.541,22.158-58.605,35.904l-19.898,7.647
			c-0.681,0.304-1.152,0.755-1.488,1.459l-11.842,32.991c-0.453,1.092,0.051,2.383,1.027,3.224c0.104,0.073,0.209,0.147,0.42,0.292
			c0.945,0.663,2.076,0.829,3.117,0.461l15.637-6.25l-1.043,3.333 M756.953,565.345l-14.021,5.505l9.07-25.237l13.447-5.129
			l-8.063,24.691C757.313,565.281,757.133,565.312,756.953,565.345L756.953,565.345z M759.071,579.961l4.092,2.868 M771.557,588.706
			l4.096,2.866 M796.391,575.126l-5.428,4.179l0,0l-10.021,7.836l-0.978,0.725l-18.991-13.298l0.346-1.167l3.939-12.098l0,0
			l2.067-6.528l6.003-18.625c0,0,0,0,0.074-0.104c7.389-12.342,19.943-26.695,51.53-32.726l0,0l0,0
			c5.136,31.746-4.058,48.45-13.126,59.615c0,0,0,0-0.073,0.106L796.391,575.126L796.391,575.126z M789.659,603.726l0.38-15.06
			c-0.033-0.177,0.043-0.284-0.064-0.357l20.446-16.021l-0.224,14.388L789.659,603.726L789.659,603.726z"/>
	</g>
	<g>
		<path fill="#5D92CA" d="M771.357,584.431l-6.818,5.391l2.549-8.15l-2.09-1.35l-3.759,12.398c-0.135,0.468,0.071,0.984,0.535,1.303
			c0.423,0.292,0.978,0.299,1.409,0.034l10.473-8.14L771.357,584.431z"/>
		<polygon fill="#5D92CA" points="768.75,582.746 768.202,584.496 769.664,583.337 		"/>
	</g>
</g>
</svg>
