<?xml version="1.0" encoding="utf-8"?>
<!-- Generator: Adobe Illustrator 16.0.0, SVG Export Plug-In . SVG Version: 6.00 Build 0)  -->
<!DOCTYPE svg PUBLIC "-//W3C//DTD SVG 1.1//EN" "http://www.w3.org/Graphics/SVG/1.1/DTD/svg11.dtd">
<svg version="1.1" xmlns="http://www.w3.org/2000/svg" xmlns:xlink="http://www.w3.org/1999/xlink" x="0px" y="0px"
	 width="1619.797px" height="1079.865px" viewBox="0 0 1619.797 1079.865" enable-background="new 0 0 1619.797 1079.865"
	 xml:space="preserve">
<g id="Layer_1" display="none">
</g>
<g id="Layer_2">
	<g>
		<path fill="#5D92CA" d="M829.631,459.641c-6.134-2.602-13.19,0.246-15.79,6.379c-2.602,6.132,0.247,13.185,6.378,15.788
			c6.016,2.555,13.187-0.247,15.79-6.377C838.612,469.298,835.761,462.242,829.631,459.641 M822.774,475.792
			c-2.832-1.2-4.239-4.44-3.038-7.27c1.2-2.832,4.51-4.069,7.34-2.867c2.829,1.198,4.12,4.39,2.919,7.221
			C828.911,475.756,825.604,476.995,822.774,475.792"/>
		<path fill="#5D92CA" d="M820.9,525.173l2.229-2.69L826.403,539c0.258,1.074,1.018,1.933,2.087,2.366
			c0.118,0.045,0.234,0.094,0.473,0.19c1.236,0.361,2.64-0.038,3.261-0.892l21.221-27.9c0.17-0.762,0.338-1.522,0.172-2.142l0,0
			l-4.422-20.853c7.138-14.248,13.012-34.946-1.808-68.704c-0.355-0.834-1.089-1.407-1.921-1.743l0,0
			c-0.829-0.335-1.807-0.316-2.593-0.081c-34.111,13.988-44.261,32.959-49.025,48.166l-17.669,11.928
			c-0.595,0.449-0.952,0.995-1.121,1.756l-4.118,34.81c-0.195,1.165,0.586,2.31,1.728,2.909c0.117,0.047,0.236,0.096,0.474,0.191
			c1.071,0.433,2.211,0.341,3.142-0.252l13.83-9.607l-0.267,3.482 M790.401,501.247l-12.423,8.518l3.161-26.63l11.948-8.023
			l-2.303,25.873C790.736,501.104,790.569,501.174,790.401,501.247L790.401,501.247z M795.753,515.012l4.632,1.874 M809.886,520.724
			l4.634,1.872 M831.027,501.906l-4.348,5.292l0,0l-8.002,9.89l-0.789,0.927l-21.496-8.686l0.075-1.215l1.116-12.674l0,0
			l0.546-6.826l1.66-19.498c0,0,0,0,0.048-0.118c4.422-13.687,13.426-30.497,42.847-43.479l0,0l0,0
			c12.146,29.777,6.946,48.122,0.622,61.041c0,0,0,0-0.048,0.119L831.027,501.906L831.027,501.906z M830.903,531.287l-3.019-14.759
			c-0.071-0.165-0.021-0.287-0.142-0.333l16.317-20.209l3.02,14.069L830.903,531.287L830.903,531.287z"/>
	</g>
	<path fill="#5D92CA" d="M803.469,517.677l-0.616,6.95l4.416-5.4 M803.469,517.677l3.8,1.549 M809.123,519.98l2.563,1.026
		l-11.692,14.032c-0.364,0.351-0.908,0.462-1.384,0.268c-0.521-0.212-0.833-0.672-0.801-1.158l1.437-18.15l2.37,0.924l-1.203,13.69
		l0,0L809.123,519.98"/>
</g>
</svg>
