<?xml version="1.0" encoding="utf-8"?>
<!-- Generator: Adobe Illustrator 16.0.0, SVG Export Plug-In . SVG Version: 6.00 Build 0)  -->
<!DOCTYPE svg PUBLIC "-//W3C//DTD SVG 1.1//EN" "http://www.w3.org/Graphics/SVG/1.1/DTD/svg11.dtd">
<svg version="1.1" xmlns="http://www.w3.org/2000/svg" xmlns:xlink="http://www.w3.org/1999/xlink" x="0px" y="0px"
	 width="1619.797px" height="1079.865px" viewBox="0 0 1619.797 1079.865" enable-background="new 0 0 1619.797 1079.865"
	 xml:space="preserve">
<g id="Layer_1" display="none">
</g>
<g id="Layer_2">
	<g>
		<path fill="#5D92CA" d="M865.617,241.866c-13.295-0.927-24.782,9.054-25.706,22.345c-0.927,13.291,9.053,24.773,22.341,25.704
			c13.04,0.913,24.775-9.054,25.706-22.341C888.89,254.282,878.903,242.794,865.617,241.866 M863.167,276.877
			c-6.135-0.427-10.907-5.637-10.479-11.771c0.426-6.136,5.88-10.632,12.014-10.2c6.131,0.423,10.65,5.619,10.222,11.754
			C874.75,272.813,869.302,277.309,863.167,276.877"/>
		<path fill="#5D92CA" d="M891.779,371.477l2.462-6.539l16.946,29.101c1.187,1.864,3.183,2.994,5.489,3.115
			c0.251,0.01,0.504,0.027,1.018,0.051c2.574-0.122,4.966-1.791,5.586-3.811l21.962-66.58c-0.175-1.549-0.353-3.097-1.068-4.161l0,0
			l-21.939-36.55c4.219-31.592,1.851-74.559-48.156-128.745c-1.213-1.348-2.975-1.952-4.767-2.045l0,0
			c-1.788-0.095-3.624,0.578-4.958,1.534c-55.396,48.663-62.237,91.146-61.344,123.006l-25.646,34.063
			c-0.832,1.236-1.153,2.5-0.978,4.05l14.88,68.509c0.389,2.33,2.612,3.986,5.16,4.375c0.252,0.015,0.51,0.03,1.021,0.055
			c2.307,0.121,4.402-0.796,5.777-2.521l19.896-27.177l1.764,6.761 M818.522,346.088l-17.944,24.197l-11.362-52.415l17.371-22.953
			l12.49,50.423C819.065,345.598,818.793,345.84,818.522,346.088L818.522,346.088z M837.607,368.637l9.979,0.524 M868.053,370.235
			l9.982,0.521 M895.777,320.883l-4.775,12.838l0,0l-8.691,23.914l-0.889,2.266l-46.305-2.429l-0.65-2.346l-6.141-24.695l0,0
			l-3.413-13.262l-9.555-37.95c0,0,0,0,0.015-0.255c-0.551-28.764,5.53-66.414,52.714-110.121l0,0l0,0
			c42.358,48.4,44.469,86.479,40.922,115.025c0,0,0,0-0.014,0.258L895.777,320.883L895.777,320.883z M914.674,376.523
			l-15.316-25.945c-0.243-0.266-0.227-0.529-0.487-0.538l17.697-48.84l14.87,24.635L914.674,376.523L914.674,376.523z"/>
	</g>
	<path fill="#5D92CA" d="M847.513,369.03l8.45,33.847l12.039-32.741 M847.513,369.03l20.488,1.105 M878.088,370.518l13.792,0.656
		l-32.312,85.417c-1.148,2.254-3.536,3.666-6.099,3.527c-2.813-0.15-5.037-1.812-5.681-4.161l-22.88-88.113l12.711,0.489
		l16.695,66.657l0,0L878.088,370.518"/>
</g>
</svg>
