<?xml version="1.0" encoding="utf-8"?>
<!-- Generator: Adobe Illustrator 16.0.0, SVG Export Plug-In . SVG Version: 6.00 Build 0)  -->
<!DOCTYPE svg PUBLIC "-//W3C//DTD SVG 1.1//EN" "http://www.w3.org/Graphics/SVG/1.1/DTD/svg11.dtd">
<svg version="1.1" xmlns="http://www.w3.org/2000/svg" xmlns:xlink="http://www.w3.org/1999/xlink" x="0px" y="0px"
	 width="1619.797px" height="1079.865px" viewBox="0 0 1619.797 1079.865" enable-background="new 0 0 1619.797 1079.865"
	 xml:space="preserve">
<g id="Layer_1" display="none">
</g>
<g id="Layer_2">
	<g>
		<path fill="#5D92CA" d="M818.029,561.038c-2.815-6.039-9.965-8.641-16.002-5.826c-6.036,2.814-8.639,9.965-5.823,16.002
			c2.761,5.922,9.965,8.639,16.001,5.825C818.242,574.223,820.845,567.074,818.029,561.038 M802.125,568.454
			c-1.299-2.787-0.177-6.137,2.609-7.437c2.786-1.3,6.074-0.005,7.374,2.781c1.299,2.786,0.123,6.021-2.664,7.32
			C806.712,572.533,803.425,571.24,802.125,568.454"/>
		<path fill="#5D92CA" d="M767.167,603.515l3.466-0.448l-8.872,14.313c-0.543,0.96-0.574,2.105-0.086,3.151
			c0.054,0.115,0.107,0.23,0.217,0.463c0.657,1.107,1.957,1.772,2.994,1.572l34.547-5.933c0.644-0.441,1.286-0.882,1.587-1.448l0,0
			l10.986-18.267c14.937-5.552,33.351-16.683,45.535-51.479c0.309-0.852,0.162-1.772-0.217-2.585l0,0
			c-0.379-0.812-1.106-1.463-1.842-1.827c-34.486-13.034-54.85-6.083-68.704,1.791l-21.057-3.327
			c-0.741-0.077-1.376,0.077-2.019,0.519l-26.752,22.651c-0.938,0.718-1.146,2.088-0.721,3.304c0.054,0.116,0.107,0.232,0.217,0.465
			c0.487,1.045,1.384,1.757,2.469,1.958l16.668,2.404l-2.571,2.367 M761.179,565.214l-14.896-2.241l20.475-17.321l14.209,2.28
			l-19.33,17.353C761.521,565.338,761.351,565.276,761.179,565.214L761.179,565.214z M755.704,578.933l2.111,4.528 M762.146,592.749
			l2.111,4.528 M790.44,593.407l-6.788,0.903l0,0l-12.599,1.776l-1.208,0.139l-9.799-21.013l0.883-0.836l9.46-8.509l0,0l5.055-4.619
			l14.514-13.128c0,0,0,0,0.116-0.055c12.569-6.992,30.617-13.146,60.988-2.575l0,0l0,0c-11.423,30.062-27.739,39.931-41.175,45.066
			c0,0,0,0-0.116,0.054L790.44,593.407L790.44,593.407z M770.312,614.807l7.859-12.853c0.061-0.17,0.179-0.224,0.124-0.341
			l25.718-3.652l-7.388,12.349L770.312,614.807L770.312,614.807z"/>
	</g>
</g>
</svg>
