<?xml version="1.0" encoding="utf-8"?>
<!-- Generator: Adobe Illustrator 16.0.0, SVG Export Plug-In . SVG Version: 6.00 Build 0)  -->
<!DOCTYPE svg PUBLIC "-//W3C//DTD SVG 1.1//EN" "http://www.w3.org/Graphics/SVG/1.1/DTD/svg11.dtd">
<svg version="1.1" xmlns="http://www.w3.org/2000/svg" xmlns:xlink="http://www.w3.org/1999/xlink" x="0px" y="0px"
	 width="1619.797px" height="1079.865px" viewBox="0 0 1619.797 1079.865" enable-background="new 0 0 1619.797 1079.865"
	 xml:space="preserve">
<g id="Layer_1" display="none">
</g>
<g id="Layer_2">
	<g>
		<path fill="#5D92CA" d="M802.065,550.375c-4.794-4.628-12.401-4.498-17.027,0.296c-4.627,4.792-4.494,12.398,0.298,17.025
			c4.7,4.541,12.398,4.495,17.025-0.295C806.989,562.609,806.856,555,802.065,550.375 M789.876,562.997
			c-2.213-2.136-2.366-5.665-0.23-7.876c2.135-2.213,5.668-2.183,7.88-0.046c2.212,2.133,2.272,5.575,0.138,7.787
			C795.618,565.162,792.087,565.133,789.876,562.997"/>
		<path fill="#5D92CA" d="M769.803,608.258l3.074-1.66l-3.151,16.541c-0.163,1.092,0.219,2.173,1.048,2.975
			c0.092,0.087,0.183,0.176,0.368,0.354c1.012,0.797,2.462,0.954,3.357,0.394l30.128-17.919c0.442-0.642,0.884-1.284,0.962-1.921
			l0,0l3.711-20.99c11.955-10.537,25.156-27.527,24.061-64.379c-0.016-0.906-0.482-1.712-1.127-2.335l0,0
			c-0.645-0.622-1.558-0.97-2.374-1.046c-36.868,0.19-53.386,13.978-63.499,26.293l-20.851,4.44
			c-0.72,0.194-1.257,0.566-1.698,1.208l-16.858,30.733c-0.618,1.007-0.321,2.361,0.513,3.344c0.09,0.088,0.183,0.178,0.367,0.355
			c0.831,0.802,1.922,1.144,3.006,0.943l16.424-3.728l-1.553,3.129 M750.486,574.649l-14.709,3.244l12.907-23.507l14.082-2.963
			l-11.826,23.126C750.851,574.642,750.669,574.645,750.486,574.649L750.486,574.649z M750.292,589.417l3.594,3.472
			 M761.257,600.007l3.596,3.471 M787.907,590.479l-6.014,3.278l0,0l-11.123,6.173l-1.08,0.563l-16.676-16.106l0.523-1.098
			l5.783-11.333l0,0l3.063-6.125l8.844-17.456c0,0,0,0,0.089-0.091c9.229-11.034,23.874-23.247,56.016-24.262l0,0l0,0
			c0.107,32.159-11.586,47.22-22.29,56.829c0,0,0,0-0.089,0.092L787.907,590.479L787.907,590.479z M776.786,617.673l2.731-14.814
			c-0.005-0.18,0.087-0.273-0.007-0.363l22.699-12.625l-2.471,14.176L776.786,617.673L776.786,617.673z"/>
	</g>
</g>
</svg>
