<?xml version="1.0" encoding="utf-8"?>
<!-- Generator: Adobe Illustrator 16.0.0, SVG Export Plug-In . SVG Version: 6.00 Build 0)  -->
<!DOCTYPE svg PUBLIC "-//W3C//DTD SVG 1.1//EN" "http://www.w3.org/Graphics/SVG/1.1/DTD/svg11.dtd">
<svg version="1.1" xmlns="http://www.w3.org/2000/svg" xmlns:xlink="http://www.w3.org/1999/xlink" x="0px" y="0px"
	 width="1619.797px" height="1079.865px" viewBox="0 0 1619.797 1079.865" enable-background="new 0 0 1619.797 1079.865"
	 xml:space="preserve">
<g id="Layer_1" display="none">
</g>
<g id="Layer_2">
	<g>
		<path fill="#5D92CA" d="M805.89,553.843c-4.372-5.028-11.962-5.561-16.988-1.189c-5.027,4.371-5.558,11.959-1.188,16.986
			c4.287,4.933,11.96,5.559,16.987,1.189C809.728,566.46,810.26,558.869,805.89,553.843 M792.646,565.354
			c-2.018-2.319-1.862-5.85,0.458-7.866c2.319-2.019,5.837-1.681,7.854,0.641c2.017,2.318,1.778,5.751-0.542,7.77
			C798.179,568.012,794.663,567.676,792.646,565.354"/>
		<path fill="#5D92CA" d="M768.705,608.695l3.207-1.386l-4.582,16.203c-0.257,1.074,0.028,2.184,0.786,3.055
			c0.083,0.094,0.166,0.191,0.336,0.384c0.937,0.883,2.368,1.165,3.31,0.685l31.575-15.225c0.497-0.602,0.993-1.202,1.126-1.83l0,0
			l5.527-20.587c12.826-9.455,27.459-25.229,29.579-62.036c0.063-0.905-0.332-1.748-0.92-2.425l0,0
			c-0.588-0.675-1.467-1.102-2.273-1.25c-36.744-3.023-54.401,9.272-65.549,20.659l-21.158,2.606
			c-0.734,0.13-1.302,0.454-1.797,1.056l-19.474,29.146c-0.703,0.949-0.525,2.325,0.219,3.376c0.083,0.096,0.167,0.193,0.335,0.386
			c0.758,0.872,1.815,1.308,2.913,1.202l16.685-2.282l-1.818,2.982 M752.392,573.53l-14.937,1.949l14.906-22.293l14.288-1.725
			l-13.798,22.007C752.755,573.554,752.573,573.541,752.392,573.53L752.392,573.53z M750.911,588.224l3.276,3.772 M760.911,599.729
			l3.279,3.771 M788.291,592.561l-6.277,2.742l0,0l-11.619,5.18l-1.125,0.467l-15.209-17.498l0.617-1.048l6.749-10.786l0,0
			l3.585-5.835l10.331-16.618c0,0,0,0,0.097-0.083c10.155-10.188,25.809-21.077,57.917-19.287l0,0l0,0
			c-2.696,32.045-15.658,46.03-27.158,54.669c0,0,0,0-0.097,0.084L788.291,592.561L788.291,592.561z M774.841,618.683l4.012-14.521
			c0.012-0.179,0.111-0.265,0.025-0.362l23.714-10.599l-3.697,13.906L774.841,618.683L774.841,618.683z"/>
	</g>
</g>
</svg>
