<?xml version="1.0" encoding="utf-8"?>
<!-- Generator: Adobe Illustrator 16.0.0, SVG Export Plug-In . SVG Version: 6.00 Build 0)  -->
<!DOCTYPE svg PUBLIC "-//W3C//DTD SVG 1.1//EN" "http://www.w3.org/Graphics/SVG/1.1/DTD/svg11.dtd">
<svg version="1.1" xmlns="http://www.w3.org/2000/svg" xmlns:xlink="http://www.w3.org/1999/xlink" x="0px" y="0px"
	 width="1619.797px" height="1079.866px" viewBox="0 0 1619.797 1079.866" enable-background="new 0 0 1619.797 1079.866"
	 xml:space="preserve">
<g id="Layer_1" display="none">
</g>
<g id="Layer_2">
	<g>
		<path fill="#5D92CA" d="M864.908,282.348c-13.228-1.622-25.223,7.744-26.84,20.968c-1.621,13.224,7.743,25.213,20.966,26.837
			c12.974,1.595,25.214-7.745,26.839-20.965C887.5,295.964,878.128,283.969,864.908,282.348 M860.63,317.182
			c-6.104-0.748-10.599-6.201-9.849-12.304c0.746-6.105,6.428-10.31,12.531-9.558c6.101,0.744,10.342,6.17,9.593,12.273
			C872.408,313.728,866.733,317.934,860.63,317.182"/>
		<path fill="#5D92CA" d="M884.252,413.149l2.801-6.401l15.398,29.948c1.089,1.923,3.022,3.156,5.318,3.398
			c0.25,0.022,0.502,0.053,1.014,0.103c2.577,0.014,5.053-1.527,5.778-3.512l25.417-65.338c-0.095-1.557-0.19-3.111-0.85-4.212l0,0
			l-19.996-37.649c5.867-31.328,5.751-74.359-41.352-131.089c-1.142-1.409-2.869-2.105-4.654-2.292l0,0
			c-1.78-0.187-3.648,0.388-5.03,1.274c-57.867,45.696-66.922,87.763-67.698,119.625l-27.393,32.673
			c-0.896,1.191-1.283,2.437-1.188,3.993l11.275,69.194c0.266,2.348,2.398,4.118,4.923,4.641c0.25,0.027,0.508,0.056,1.016,0.106
			c2.299,0.241,4.438-0.563,5.901-2.216l21.292-26.097l1.408,6.843 M812.425,383.962l-19.188,23.224l-8.604-52.938l18.549-22.012
			l9.835,51.008C812.991,383.501,812.707,383.729,812.425,383.962L812.425,383.962z M830.303,407.477l9.938,1.048 M860.623,410.667
			l9.941,1.042 M890.893,362.833l-5.441,12.571l0,0l-9.93,23.427l-1.008,2.216l-46.113-4.848l-0.525-2.377l-4.842-24.982l0,0
			l-2.715-13.424l-7.555-38.398c0,0,0,0,0.029-0.254c0.954-28.752,8.998-66.033,58.404-107.209l0,0l0,0
			c39.767,50.551,39.881,88.686,34.846,117.008c0,0,0,0-0.027,0.256L890.893,362.833L890.893,362.833z M906.85,419.387
			l-13.937-26.71c-0.229-0.278-0.198-0.54-0.458-0.563l20.229-47.848l13.56,25.38L906.85,419.387L906.85,419.387z"/>
	</g>
	<path fill="#5D92CA" d="M840.261,407.969l6.364,34.301l14.019-31.944 M840.261,407.969l20.383,2.356 M870.584,411.475l13.727,1.497
		l-37.473,83.28c-1.285,2.181-3.754,3.445-6.305,3.15c-2.799-0.323-4.916-2.118-5.415-4.503l-17.45-89.348l12.658,1.268
		l12.588,67.552l0,0L870.584,411.475"/>
</g>
</svg>
