<?xml version="1.0" encoding="utf-8"?>
<!-- Generator: Adobe Illustrator 16.0.0, SVG Export Plug-In . SVG Version: 6.00 Build 0)  -->
<!DOCTYPE svg PUBLIC "-//W3C//DTD SVG 1.1//EN" "http://www.w3.org/Graphics/SVG/1.1/DTD/svg11.dtd">
<svg version="1.1" xmlns="http://www.w3.org/2000/svg" xmlns:xlink="http://www.w3.org/1999/xlink" x="0px" y="0px"
	 width="1619.797px" height="1079.865px" viewBox="0 0 1619.797 1079.865" enable-background="new 0 0 1619.797 1079.865"
	 xml:space="preserve">
<g id="Layer_1" display="none">
</g>
<g id="Layer_2">
	<g>
		<path fill="#5D92CA" d="M863.636,183.572c-13.328,0.003-24.092,10.76-24.084,24.084c0.001,13.322,10.758,24.081,24.079,24.082
			c13.071,0.002,24.083-10.76,24.085-24.079C887.718,194.335,876.954,183.571,863.636,183.572 M863.634,218.669
			c-6.149,0.002-11.275-4.862-11.273-11.012c-0.005-6.149,5.123-11.016,11.272-11.013c6.146-0.006,11.017,4.862,11.017,11.012
			C874.903,213.807,869.782,218.671,863.634,218.669"/>
		<path fill="#5D92CA" d="M898.773,311.042l2.001-6.695l18.935,27.848c1.313,1.777,3.385,2.766,5.692,2.726
			c0.252-0.008,0.505-0.008,1.02-0.021c2.558-0.302,4.829-2.134,5.307-4.19l17.264-67.95c-0.283-1.533-0.568-3.064-1.355-4.077l0,0
			l-24.436-34.93c2.005-31.81-3.354-74.507-57.02-125.073c-1.305-1.259-3.104-1.739-4.898-1.707l0,0
			c-1.789,0.03-3.574,0.829-4.837,1.876c-51.868,52.409-55.728,95.266-52.615,126.986l-23.208,35.768
			c-0.743,1.291-0.976,2.574-0.691,4.108l19.623,67.305c0.55,2.297,2.884,3.794,5.451,4.004c0.253-0.003,0.512-0.006,1.022-0.017
			c2.31-0.041,4.336-1.102,5.587-2.918l17.954-28.499l2.229,6.621 M823.926,290.825l-16.214,25.39l-14.99-51.494l15.729-24.108
			l15.976,49.429C824.433,290.299,824.179,290.56,823.926,290.825L823.926,290.825z M844.536,311.987l9.992-0.172 M875.021,311.459
			l9.993-0.177 M899.233,260.292l-3.867,13.141l0,0l-7.003,24.462l-0.728,2.322l-46.362,0.808l-0.813-2.296l-7.849-24.206l0,0
			l-4.328-12.991l-12.181-37.191c0,0,0,0-0.003-0.255c-2.556-28.655,0.886-66.639,44.905-113.531l0,0l0,0
			c45.63,45.329,50.392,83.167,48.847,111.892c0,0,0,0,0.002,0.258L899.233,260.292L899.233,260.292z M921.966,314.479
			l-17.089-24.813c-0.261-0.248-0.263-0.512-0.524-0.503l14.248-49.955l16.552,23.537L921.966,314.479L921.966,314.479z"/>
	</g>
	<path fill="#5D92CA" d="M854.566,311.293l10.757,33.187l9.76-33.491 M854.566,311.293l20.517-0.305 M885.089,310.838l13.805-0.292
		l-26.365,87.435c-0.992,2.328-3.276,3.902-5.844,3.939c-2.814,0.044-5.148-1.463-5.952-3.764l-28.88-86.332l12.713-0.384
		l21.236,65.351l0,0L885.089,310.838"/>
</g>
</svg>
