<?xml version="1.0" encoding="utf-8"?>
<!-- Generator: Adobe Illustrator 16.0.0, SVG Export Plug-In . SVG Version: 6.00 Build 0)  -->
<!DOCTYPE svg PUBLIC "-//W3C//DTD SVG 1.1//EN" "http://www.w3.org/Graphics/SVG/1.1/DTD/svg11.dtd">
<svg version="1.1" xmlns="http://www.w3.org/2000/svg" xmlns:xlink="http://www.w3.org/1999/xlink" x="0px" y="0px"
	 width="1619.797px" height="1079.865px" viewBox="0 0 1619.797 1079.865" enable-background="new 0 0 1619.797 1079.865"
	 xml:space="preserve">
<g id="Layer_1" display="none">
</g>
<g id="Layer_2">
	<g>
		<path fill="#5D92CA" d="M873.883,17.051l0.078-6.986l25.877,21.549c1.753,1.346,4.016,1.726,6.223,1.051
			c0.241-0.076,0.483-0.146,0.975-0.301c2.375-0.994,4.054-3.382,3.946-5.49l-2.135-70.076c-0.695-1.396-1.391-2.79-2.427-3.546l0,0
			l-33.117-26.842c-6.841-31.13-23.761-70.696-89.286-104.511c-1.601-0.851-3.462-0.817-5.179-0.291l0,0
			c-1.712,0.521-3.207,1.782-4.133,3.137C739.292-110.58,747.395-68.32,759.13-38.687L746.68,2.093
			c-0.359,1.446-0.229,2.744,0.468,4.14l37.415,59.289c1.162,2.056,3.817,2.853,6.344,2.346c0.242-0.072,0.49-0.146,0.978-0.298
			c2.209-0.676,3.865-2.254,4.566-4.345l9.403-32.344l3.969,5.75 M796.362,18.248l-8.587,28.876L759.171,1.756l8.474-27.51
			l28.981,43.11C796.705,17.603,796.53,17.924,796.362,18.248L796.362,18.248z M822.007,32.91l9.557-2.92 M851.165,23.999
			l9.558-2.925 M860.336-31.859l-0.096,13.697l0,0l0.012,25.444l-0.06,2.433l-44.343,13.556l-1.414-1.982L800.219,0.184l0,0
			l-7.742-11.296l-21.96-32.393c0,0,0,0-0.073-0.245c-10.355-26.841-17.518-64.301,11.872-121.51l0,0l0,0
			c56.356,30.995,71.363,66.055,77.795,94.093c0,0,0,0,0.074,0.247L860.336-31.859L860.336-31.859z M897.125,13.962L873.858-5.18
			c-0.319-0.166-0.395-0.419-0.643-0.339l-0.074-51.947l22.398,18.063L897.125,13.962L897.125,13.962z"/>
	</g>
	<path fill="#5D92CA" d="M831.233,29.343l19.28,29.072l0.398-34.881 M831.233,29.343l19.678-5.809 M860.509,20.7l13.217-3.992
		l-1.893,91.303c-0.329,2.51-2.107,4.639-4.569,5.365c-2.702,0.799-5.353-0.021-6.745-2.023l-51.025-75.392l12.145-3.788
		l38.02,57.238l0,0L860.509,20.7"/>
</g>
</svg>
