<?xml version="1.0" encoding="utf-8"?>
<!-- Generator: Adobe Illustrator 16.0.0, SVG Export Plug-In . SVG Version: 6.00 Build 0)  -->
<!DOCTYPE svg PUBLIC "-//W3C//DTD SVG 1.1//EN" "http://www.w3.org/Graphics/SVG/1.1/DTD/svg11.dtd">
<svg version="1.1" xmlns="http://www.w3.org/2000/svg" xmlns:xlink="http://www.w3.org/1999/xlink" x="0px" y="0px"
	 width="1619.797px" height="1079.865px" viewBox="0 0 1619.797 1079.865" enable-background="new 0 0 1619.797 1079.865"
	 xml:space="preserve">
<g id="Layer_1" display="none">
	
		<image display="inline" overflow="visible" width="1620" height="1080" xlink:href="stars_background.png"  transform="matrix(0.9999 0 0 0.9999 0 0)">
	</image>
</g>
<g id="Layer_2">
	<g>
		<path fill="#5D92CA" d="M839.784,544.624c-5.42-12.172-19.626-17.626-31.797-12.207c-12.169,5.418-17.622,19.624-12.202,31.796
			c5.314,11.938,19.624,17.624,31.793,12.205C839.749,570.999,845.203,556.794,839.784,544.624 M807.722,558.898
			c-2.501-5.616-0.141-12.277,5.477-14.778c5.618-2.501,12.147,0.202,14.648,5.818c2.501,5.616,0.036,12.042-5.583,14.544
			C816.75,567.217,810.223,564.516,807.722,558.898"/>
		<path fill="#5D92CA" d="M736.592,627.792l6.947-0.774l-18.241,28.311c-1.119,1.903-1.222,4.19-0.282,6.298
			c0.104,0.234,0.207,0.466,0.416,0.936c1.275,2.237,3.853,3.612,5.934,3.248l69.29-10.658c1.301-0.861,2.602-1.719,3.224-2.838l0,0
			l22.607-36.146c30.063-10.581,67.274-32.196,92.853-101.353c0.647-1.694,0.386-3.54-0.343-5.178l0,0
			c-0.729-1.639-2.162-2.964-3.618-3.72c-68.509-27.267-109.472-14.076-137.45,1.185l-41.99-7.388
			c-1.481-0.179-2.756,0.105-4.057,0.968l-54.285,44.36c-1.9,1.405-2.365,4.137-1.558,6.582c0.104,0.234,0.208,0.468,0.417,0.937
			c0.938,2.106,2.707,3.563,4.869,4.002l33.246,5.39l-5.223,4.643 M725.954,550.994l-29.708-5.002l41.546-33.921l28.333,5.053
			l-39.259,34.027C726.633,551.253,726.295,551.123,725.954,550.994L725.954,550.994z M714.527,578.234l4.064,9.13 M726.928,606.086
			l4.064,9.13 M783.483,608.391l-13.604,1.568l0,0l-25.256,3.114l-2.419,0.235l-18.86-42.36l1.794-1.642l19.213-16.686l0,0
			l10.27-9.06l29.48-25.746c0,0,0,0,0.234-0.104c25.379-13.544,61.686-25.22,122.049-3.02l0,0l0,0
			c-23.892,59.716-56.864,78.882-83.91,88.681c0,0,0,0-0.234,0.104L783.483,608.391L783.483,608.391z M742.486,650.482
			l16.165-25.426c0.128-0.338,0.364-0.442,0.259-0.677l51.555-6.407l-15.203,24.436L742.486,650.482L742.486,650.482z"/>
	</g>
</g>
</svg>
