<?xml version="1.0" encoding="utf-8"?>
<!-- Generator: Adobe Illustrator 16.0.0, SVG Export Plug-In . SVG Version: 6.00 Build 0)  -->
<!DOCTYPE svg PUBLIC "-//W3C//DTD SVG 1.1//EN" "http://www.w3.org/Graphics/SVG/1.1/DTD/svg11.dtd">
<svg version="1.1" xmlns="http://www.w3.org/2000/svg" xmlns:xlink="http://www.w3.org/1999/xlink" x="0px" y="0px"
	 width="1619.797px" height="1079.865px" viewBox="0 0 1619.797 1079.865" enable-background="new 0 0 1619.797 1079.865"
	 xml:space="preserve">
<g id="Layer_1" display="none">
</g>
<g id="Layer_2">
	<g>
		<path fill="#5D92CA" d="M801.063,549.238c-4.873-4.543-12.478-4.28-17.019,0.593c-4.543,4.873-4.278,12.475,0.595,17.018
			c4.778,4.458,12.475,4.278,17.018-0.593C806.2,561.385,805.936,553.778,801.063,549.238 M789.097,562.07
			c-2.25-2.096-2.465-5.623-0.368-7.871c2.096-2.25,5.63-2.282,7.878-0.184c2.249,2.094,2.371,5.535,0.273,7.784
			C794.876,564.135,791.345,564.168,789.097,562.07"/>
		<path fill="#5D92CA" d="M770.446,607.832l3.016-1.766l-2.573,16.64c-0.125,1.098,0.295,2.165,1.152,2.937
			c0.095,0.083,0.188,0.169,0.38,0.34c1.039,0.762,2.493,0.867,3.369,0.277l29.484-18.959c0.42-0.658,0.838-1.315,0.895-1.954l0,0
			l2.977-21.107c11.58-10.948,24.18-28.389,21.799-65.179c-0.048-0.906-0.542-1.695-1.209-2.295l0,0
			c-0.665-0.598-1.59-0.915-2.408-0.963c-36.838,1.478-52.865,15.833-62.544,28.494l-20.683,5.166
			c-0.713,0.219-1.235,0.609-1.654,1.267l-15.775,31.303c-0.582,1.028-0.239,2.371,0.628,3.324c0.095,0.085,0.19,0.172,0.38,0.342
			c0.858,0.773,1.961,1.076,3.038,0.838l16.282-4.298l-1.441,3.182 M749.97,574.917l-14.587,3.755l12.079-23.943l13.971-3.453
			l-11.013,23.525C750.334,574.897,750.152,574.906,749.97,574.917L749.97,574.917z M750.292,589.683l3.711,3.345 M761.618,599.884
			l3.715,3.344 M787.921,589.432l-5.896,3.486l0,0l-10.9,6.557l-1.06,0.6l-17.229-15.513l0.485-1.116l5.384-11.528l0,0l2.848-6.228
			l8.229-17.754c0,0,0,0,0.086-0.095c8.837-11.349,23.048-24.065,55.134-26.202l0,0l0,0c1.23,32.135-9.931,47.595-20.292,57.572
			c0,0,0,0-0.086,0.096L787.921,589.432L787.921,589.432z M777.755,616.998l2.212-14.901c-0.011-0.179,0.079-0.276-0.019-0.362
			l22.245-13.41l-1.975,14.253L777.755,616.998L777.755,616.998z"/>
	</g>
	<polygon fill="#5D92CA" points="757.358,595.862 756.37,597.753 758.361,596.582 	"/>
</g>
</svg>
