<?xml version="1.0" encoding="utf-8"?>
<!-- Generator: Adobe Illustrator 16.0.0, SVG Export Plug-In . SVG Version: 6.00 Build 0)  -->
<!DOCTYPE svg PUBLIC "-//W3C//DTD SVG 1.1//EN" "http://www.w3.org/Graphics/SVG/1.1/DTD/svg11.dtd">
<svg version="1.1" xmlns="http://www.w3.org/2000/svg" xmlns:xlink="http://www.w3.org/1999/xlink" x="0px" y="0px"
	 width="1619.797px" height="1079.865px" viewBox="0 0 1619.797 1079.865" enable-background="new 0 0 1619.797 1079.865"
	 xml:space="preserve">
<g id="Layer_1" display="none">
</g>
<g id="Layer_2">
	<g>
		<path fill="#5D92CA" d="M851.31-7.747l0.039-3.493l12.938,10.774c0.876,0.673,2.008,0.862,3.111,0.525
			c0.12-0.038,0.242-0.073,0.487-0.15c1.188-0.497,2.027-1.69,1.973-2.745l-1.067-35.038c-0.347-0.698-0.695-1.396-1.213-1.772l0,0
			L851.02-53.068c-3.42-15.564-11.88-35.348-44.643-52.255c-0.8-0.425-1.731-0.409-2.589-0.146l0,0
			c-0.856,0.261-1.604,0.891-2.066,1.568c-17.706,32.338-13.655,53.468-7.787,68.285l-6.226,20.389
			c-0.179,0.724-0.114,1.373,0.234,2.07l18.707,29.645c0.581,1.027,1.909,1.426,3.172,1.173c0.121-0.036,0.245-0.073,0.489-0.149
			c1.104-0.338,1.933-1.127,2.283-2.172l4.701-16.172l1.984,2.875 M812.549-7.148l-4.293,14.438l-14.302-22.684l4.236-13.755
			l14.491,21.556C812.721-7.471,812.633-7.311,812.549-7.148L812.549-7.148z M825.372,0.183l4.778-1.46 M839.95-4.273l4.779-1.462
			 M844.536-32.202l-0.048,6.849l0,0l0.006,12.723l-0.03,1.216l-22.171,6.778l-0.707-0.992l-7.108-10.552l0,0l-3.871-5.647
			l-10.979-16.197c0,0,0,0-0.037-0.122c-5.178-13.421-8.759-32.15,5.936-60.755l0,0l0,0c28.178,15.498,35.682,33.027,38.897,47.047
			c0,0,0,0,0.037,0.123L844.536-32.202L844.536-32.202z M862.931-9.291l-11.634-9.571c-0.159-0.083-0.197-0.21-0.321-0.169
			l-0.037-25.975l11.199,9.032L862.931-9.291L862.931-9.291z"/>
	</g>
	<path fill="#5D92CA" d="M829.984-1.602l9.64,14.537l0.199-17.441 M829.984-1.602l9.839-2.904 M844.623-5.922l6.608-1.996
		l-0.946,45.65c-0.165,1.256-1.054,2.32-2.285,2.684c-1.351,0.398-2.676-0.012-3.373-1.012L819.115,1.708l6.073-1.894l19.01,28.619
		l0,0L844.623-5.922"/>
</g>
</svg>
