<?xml version="1.0" encoding="utf-8"?>
<!-- Generator: Adobe Illustrator 16.0.0, SVG Export Plug-In . SVG Version: 6.00 Build 0)  -->
<!DOCTYPE svg PUBLIC "-//W3C//DTD SVG 1.1//EN" "http://www.w3.org/Graphics/SVG/1.1/DTD/svg11.dtd">
<svg version="1.1" xmlns="http://www.w3.org/2000/svg" xmlns:xlink="http://www.w3.org/1999/xlink" x="0px" y="0px"
	 width="1619.797px" height="1079.866px" viewBox="0 0 1619.797 1079.866" enable-background="new 0 0 1619.797 1079.866"
	 xml:space="preserve">
<g id="Layer_1" display="none">
</g>
<g id="Layer_2">
	<g>
		<path fill="#5D92CA" d="M854.105,364.367c-6.541-1.271-12.851,2.982-14.119,9.522c-1.27,6.539,2.983,12.846,9.521,14.117
			c6.416,1.248,12.847-2.983,14.119-9.521C864.899,371.946,860.643,365.636,854.105,364.367 M850.757,381.591
			c-3.02-0.586-5.07-3.462-4.483-6.48c0.585-3.019,3.565-4.918,6.584-4.33c3.017,0.584,4.942,3.438,4.356,6.456
			C856.752,380.279,853.774,382.179,850.757,381.591"/>
		<path fill="#5D92CA" d="M859.191,430.282l1.62-3.096l6.637,15.475c0.476,0.997,1.397,1.681,2.534,1.881
			c0.124,0.021,0.248,0.044,0.502,0.087c1.284,0.097,2.573-0.586,3.004-1.55l14.957-31.702c0.007-0.78,0.013-1.56-0.277-2.131l0,0
			l-8.66-19.477c4.019-15.421,5.462-36.888-16.054-66.827c-0.52-0.742-1.357-1.15-2.241-1.306l0,0
			c-0.881-0.155-1.833,0.066-2.554,0.46c-30.457,20.774-36.44,41.44-37.939,57.306l-14.802,15.341
			c-0.489,0.563-0.725,1.171-0.732,1.951l3.21,34.906c0.051,1.18,1.054,2.138,2.294,2.485c0.125,0.023,0.252,0.046,0.503,0.089
			c1.137,0.2,2.233-0.126,3.02-0.899l11.531-12.273l0.463,3.462 M824.383,413.219l-10.38,10.914l-2.444-26.705l10.019-10.332
			l3.126,25.785C824.682,413.009,824.533,413.113,824.383,413.219L824.383,413.219z M832.48,425.571l4.92,0.869 M847.492,428.219
			l4.922,0.867 M864.259,405.417l-3.152,6.081l0,0l-5.771,11.337l-0.579,1.07l-22.832-4.026l-0.18-1.204l-1.543-12.628l0,0
			l-0.885-6.791l-2.43-19.417c0,0,0,0,0.023-0.126c1.479-14.307,6.792-32.622,32.871-51.437l0,0l0,0
			c18.072,26.602,16.799,45.626,13.299,59.578c0,0,0,0-0.022,0.126L864.259,405.417L864.259,405.417z M870.246,434.181
			l-6.021-13.809c-0.104-0.146-0.08-0.275-0.209-0.297l11.759-23.16l5.878,13.133L870.246,434.181L870.246,434.181z"/>
	</g>
	<path fill="#5D92CA" d="M837.464,426.148l2.009,17.327l8.078-15.459 M837.464,426.148l10.087,1.868 M852.471,428.927l6.796,1.213
		l-21.522,40.271c-0.715,1.044-1.99,1.591-3.252,1.357c-1.385-0.257-2.381-1.224-2.548-2.431l-5.67-45.163l6.271,1.062l3.985,34.126
		l0,0L852.471,428.927"/>
</g>
</svg>
