<?xml version="1.0" encoding="utf-8"?>
<!-- Generator: Adobe Illustrator 16.0.0, SVG Export Plug-In . SVG Version: 6.00 Build 0)  -->
<!DOCTYPE svg PUBLIC "-//W3C//DTD SVG 1.1//EN" "http://www.w3.org/Graphics/SVG/1.1/DTD/svg11.dtd">
<svg version="1.1" xmlns="http://www.w3.org/2000/svg" xmlns:xlink="http://www.w3.org/1999/xlink" x="0px" y="0px"
	 width="1619.797px" height="1079.865px" viewBox="0 0 1619.797 1079.865" enable-background="new 0 0 1619.797 1079.865"
	 xml:space="preserve">
<g id="Layer_1" display="none">
</g>
<g id="Layer_2">
	<g>
		<path fill="#5D92CA" d="M803.408,536.812c-5.322-4.009-12.856-2.952-16.864,2.369c-4.008,5.32-2.95,12.854,2.369,16.862
			c5.22,3.934,12.854,2.95,16.863-2.368C809.786,548.355,808.728,540.818,803.408,536.812 M792.848,550.825
			c-2.456-1.85-3.039-5.335-1.188-7.79c1.849-2.458,5.359-2.857,7.814-1.006c2.456,1.848,2.937,5.257,1.086,7.713
			C798.812,552.274,795.303,552.676,792.848,550.825"/>
		<path fill="#5D92CA" d="M779.083,598.285l2.813-2.071l-0.819,16.818c-0.009,1.104,0.521,2.122,1.453,2.801
			c0.104,0.072,0.205,0.148,0.414,0.298c1.111,0.65,2.57,0.603,3.379-0.076l27.342-21.938c0.348-0.698,0.695-1.396,0.686-2.036l0,0
			l0.754-21.303c10.371-12.099,21.079-30.761,14.866-67.101c-0.142-0.896-0.716-1.629-1.442-2.156l0,0
			c-0.724-0.525-1.677-0.744-2.496-0.706c-36.482,5.32-50.92,21.272-59.223,34.875l-20.029,7.3
			c-0.686,0.292-1.164,0.734-1.513,1.433l-12.417,32.779c-0.471,1.084,0.01,2.384,0.973,3.241c0.102,0.074,0.205,0.15,0.413,0.3
			c0.935,0.679,2.063,0.865,3.108,0.516l15.744-5.977l-1.102,3.314 M755.278,567.691l-14.115,5.26l9.51-25.075l13.534-4.895
			l-8.493,24.547C755.638,567.633,755.458,567.661,755.278,567.691L755.278,567.691z M757.142,582.342l4.041,2.938 M769.473,591.303
			l4.044,2.938 M794.538,578.159l-5.499,4.084l0,0l-10.156,7.66l-0.99,0.708l-18.756-13.628l0.366-1.16l4.149-12.027l0,0
			l2.181-6.492l6.328-18.517c0,0,0,0,0.075-0.103c7.603-12.211,20.406-26.343,52.094-31.821l0,0l0,0
			c4.581,31.83-4.902,48.372-14.164,59.377c0,0,0,0-0.075,0.104L794.538,578.159L794.538,578.159z M787.31,606.637l0.643-15.051
			c-0.029-0.177,0.049-0.283-0.058-0.358l20.722-15.662l-0.474,14.381L787.31,606.637L787.31,606.637z"/>
	</g>
	<path fill="#5D92CA" d="M768.615,586.764l-5.066,3.834l2.033-6.046l-2.016-1.47l-3.378,10.341
		c-0.145,0.466,0.049,0.986,0.508,1.314c0.416,0.301,0.971,0.32,1.407,0.064l8.682-6.455L768.615,586.764z"/>
</g>
</svg>
