<?xml version="1.0" encoding="utf-8"?>
<!-- Generator: Adobe Illustrator 16.0.0, SVG Export Plug-In . SVG Version: 6.00 Build 0)  -->
<!DOCTYPE svg PUBLIC "-//W3C//DTD SVG 1.1//EN" "http://www.w3.org/Graphics/SVG/1.1/DTD/svg11.dtd">
<svg version="1.1" xmlns="http://www.w3.org/2000/svg" xmlns:xlink="http://www.w3.org/1999/xlink" x="0px" y="0px"
	 width="1619.797px" height="1079.865px" viewBox="0 0 1619.797 1079.865" enable-background="new 0 0 1619.797 1079.865"
	 xml:space="preserve">
<g id="Layer_1" display="none">
</g>
<g id="Layer_2">
	<g>
		<path fill="#5D92CA" d="M849.228,69.965c-13.229,1.627-22.601,13.615-20.97,26.839c1.625,13.224,13.612,22.591,26.834,20.969
			c12.974-1.592,22.593-13.615,20.971-26.835C874.442,77.712,862.446,68.34,849.228,69.965 M853.503,104.8
			c-6.104,0.751-11.784-3.452-12.532-9.556c-0.754-6.104,3.742-11.558,9.847-12.305c6.099-0.755,11.527,3.484,12.277,9.588
			C864.096,98.6,859.606,104.053,853.503,104.8"/>
		<path fill="#5D92CA" d="M899.638,192.202l1.169-6.889l22.187,25.332c1.521,1.604,3.697,2.332,5.983,2.011
			c0.249-0.038,0.5-0.069,1.009-0.145c2.502-0.611,4.533-2.705,4.756-4.806l8.854-69.548c-0.468-1.486-0.938-2.972-1.842-3.881l0,0
			l-28.51-31.691c-1.887-31.817-12.409-73.543-71.838-117.191c-1.448-1.092-3.292-1.35-5.069-1.099l0,0
			c-1.772,0.248-3.447,1.259-4.573,2.452c-45.094,58.34-43.702,101.347-36.747,132.451l-18.675,38.33
			c-0.581,1.372-0.655,2.674-0.186,4.161l27.678,64.412c0.826,2.213,3.325,3.415,5.899,3.31c0.25-0.033,0.506-0.067,1.012-0.142
			c2.288-0.321,4.17-1.621,5.19-3.577l14.347-30.474l3.021,6.3 M822.885,181.258l-12.999,27.176l-21.154-49.283l12.673-25.846
			l21.881,47.113C823.323,180.673,823.103,180.963,822.885,181.258L822.885,181.258z M845.92,199.75l9.896-1.389 M876.112,195.51
			l9.897-1.393 M893.909,141.774l-2.237,13.514l0,0l-3.969,25.133l-0.439,2.394l-45.918,6.452l-1.086-2.18l-10.74-23.069l0,0
			l-5.879-12.367l-16.622-35.43c0,0,0,0-0.034-0.253c-6.029-28.13-7.243-66.249,30.734-118.156l0,0l0,0
			c50.814,39.43,60.151,76.405,62.118,105.104c0,0,0,0,0.035,0.255L893.909,141.774L893.909,141.774z M923.077,192.787
			l-19.986-22.546c-0.289-0.214-0.324-0.476-0.582-0.436l8.053-51.319l19.297,21.346L923.077,192.787L923.077,192.787z"/>
	</g>
	<path fill="#5D92CA" d="M855.723,197.805l14.478,31.739l5.87-34.388 M855.723,197.805l20.347-2.648 M885.994,193.866l13.68-1.87
		l-16.2,89.874c-0.718,2.429-2.808,4.251-5.354,4.585c-2.793,0.363-5.283-0.866-6.344-3.061l-38.56-82.464l12.588-1.835
		l28.567,62.495l0,0L885.994,193.866"/>
</g>
</svg>
