<?xml version="1.0" encoding="utf-8"?>
<!-- Generator: Adobe Illustrator 16.0.0, SVG Export Plug-In . SVG Version: 6.00 Build 0)  -->
<!DOCTYPE svg PUBLIC "-//W3C//DTD SVG 1.1//EN" "http://www.w3.org/Graphics/SVG/1.1/DTD/svg11.dtd">
<svg version="1.1" xmlns="http://www.w3.org/2000/svg" xmlns:xlink="http://www.w3.org/1999/xlink" x="0px" y="0px"
	 width="1619.797px" height="1079.865px" viewBox="0 0 1619.797 1079.865" enable-background="new 0 0 1619.797 1079.865"
	 xml:space="preserve">
<g id="Layer_1" display="none">
</g>
<g id="Layer_2">
	<g>
		<path fill="#5D92CA" d="M854.901,103.654c-13.277,1.164-23.062,12.818-21.894,26.09c1.162,13.272,12.816,23.053,26.086,21.893
			c13.021-1.138,23.054-12.817,21.895-26.086C879.83,112.276,868.168,102.491,854.901,103.654 M857.958,138.617
			c-6.126,0.538-11.656-3.861-12.191-9.987c-0.541-6.126,4.144-11.42,10.27-11.954c6.122-0.541,11.398,3.885,11.935,10.011
			C868.761,132.79,864.083,138.083,857.958,138.617"/>
		<path fill="#5D92CA" d="M901.015,227.576l1.409-6.844l21.29,26.091c1.464,1.655,3.613,2.46,5.909,2.219
			c0.25-0.029,0.502-0.052,1.014-0.109c2.522-0.523,4.625-2.546,4.921-4.637l11.275-69.196c-0.416-1.502-0.833-3.004-1.706-3.943
			l0,0l-27.386-32.667c-0.775-31.863-9.835-73.932-67.704-119.628c-1.409-1.141-3.243-1.463-5.028-1.273l0,0
			c-1.78,0.186-3.488,1.138-4.656,2.29c-47.103,56.73-47.212,99.76-41.347,131.089l-20.001,37.654
			c-0.628,1.352-0.748,2.649-0.331,4.152l25.413,65.339c0.748,2.24,3.204,3.528,5.78,3.514c0.251-0.024,0.509-0.05,1.017-0.106
			c2.298-0.241,4.224-1.475,5.312-3.394l15.401-29.954l2.799,6.4 M824.69,213.96l-13.939,26.706l-19.422-49.992l13.567-25.388
			l20.223,47.848C825.149,213.391,824.918,213.672,824.69,213.96L824.69,213.96z M847.066,233.245l9.938-1.043 M877.388,230.061
			l9.94-1.046 M897.05,176.979l-2.708,13.428l0,0l-4.843,24.979l-0.523,2.377l-46.115,4.845l-1.009-2.216l-9.928-23.43l0,0
			l-5.444-12.564l-15.375-35.988c0,0,0,0-0.025-0.255c-5.044-28.322-4.927-66.462,34.839-117.012l0,0l0,0
			c49.407,41.179,57.448,78.458,58.412,107.208c0,0,0,0,0.025,0.257L897.05,176.979L897.05,176.979z M924.419,228.979
			l-19.187-23.229c-0.282-0.224-0.307-0.487-0.566-0.455l9.839-51.007l18.541,22.005L924.419,228.979L924.419,228.979z"/>
	</g>
	<path fill="#5D92CA" d="M856.979,231.762l13.65,32.104l6.759-34.223 M856.979,231.762l20.41-2.118 M887.341,228.61l13.724-1.515
		l-18.527,89.424c-0.782,2.408-2.917,4.178-5.472,4.442c-2.802,0.292-5.258-1.002-6.262-3.223L834.399,234.3l12.631-1.506
		l26.933,63.216l0,0L887.341,228.61"/>
</g>
</svg>
