<?xml version="1.0" encoding="utf-8"?>
<!-- Generator: Adobe Illustrator 16.0.0, SVG Export Plug-In . SVG Version: 6.00 Build 0)  -->
<!DOCTYPE svg PUBLIC "-//W3C//DTD SVG 1.1//EN" "http://www.w3.org/Graphics/SVG/1.1/DTD/svg11.dtd">
<svg version="1.1" xmlns="http://www.w3.org/2000/svg" xmlns:xlink="http://www.w3.org/1999/xlink" x="0px" y="0px"
	 width="1619.797px" height="1079.865px" viewBox="0 0 1619.797 1079.865" enable-background="new 0 0 1619.797 1079.865"
	 xml:space="preserve">
<g id="Layer_1" display="none">
</g>
<g id="Layer_2">
	<g>
		<path fill="#5D92CA" d="M814.377,559.374c-3.332-5.771-10.682-7.741-16.449-4.41c-5.77,3.333-7.738,10.68-4.406,16.449
			c3.266,5.66,10.68,7.738,16.447,4.409C815.737,572.492,817.707,565.142,814.377,559.374 M799.18,568.147
			c-1.538-2.663-0.712-6.098,1.95-7.635c2.662-1.539,6.051-0.535,7.588,2.127c1.537,2.662,0.647,5.986-2.016,7.524
			C804.104,571.812,800.717,570.811,799.18,568.147"/>
		<path fill="#5D92CA" d="M767.409,606.123l3.413-0.749l-7.59,15.032c-0.457,1.005-0.389,2.148,0.188,3.148
			c0.063,0.108,0.128,0.219,0.257,0.44c0.751,1.046,2.103,1.596,3.119,1.306l33.898-8.921c0.603-0.496,1.204-0.991,1.455-1.581l0,0
			l9.353-19.153c14.396-6.835,31.771-19.527,40.874-55.253c0.234-0.875,0.008-1.78-0.44-2.557l0,0
			c-0.448-0.774-1.229-1.361-1.993-1.66c-35.492-9.979-55.172-1.278-68.287,7.772l-21.267-1.479
			c-0.745-0.012-1.364,0.198-1.966,0.694l-24.676,24.896c-0.871,0.797-0.96,2.181-0.43,3.355c0.063,0.11,0.127,0.222,0.256,0.443
			c0.576,0.999,1.532,1.629,2.63,1.735l16.814,0.942l-2.355,2.582 M758.105,568.49l-15.034-0.936l18.887-19.039l14.354,1.033
			l-17.744,18.972C758.457,568.584,758.281,568.538,758.105,568.49L758.105,568.49z M753.849,582.633l2.497,4.328 M761.469,595.835
			l2.498,4.328 M789.714,594.023l-6.685,1.494l0,0l-12.396,2.867l-1.19,0.243l-11.593-20.079l0.806-0.91l8.682-9.301l0,0
			l4.635-5.043l13.313-14.341c0,0,0,0,0.111-0.065c11.912-8.062,29.355-15.765,60.531-7.881l0,0l0,0
			c-8.76,30.942-24.152,42.197-37.09,48.482c0,0,0,0-0.11,0.064L789.714,594.023L789.714,594.023z M771.526,617.098l6.709-13.489
			c0.046-0.174,0.158-0.239,0.094-0.35l25.302-5.88l-6.283,12.946L771.526,617.098L771.526,617.098z"/>
	</g>
</g>
</svg>
