<?xml version="1.0" encoding="utf-8"?>
<!-- Generator: Adobe Illustrator 16.0.0, SVG Export Plug-In . SVG Version: 6.00 Build 0)  -->
<!DOCTYPE svg PUBLIC "-//W3C//DTD SVG 1.1//EN" "http://www.w3.org/Graphics/SVG/1.1/DTD/svg11.dtd">
<svg version="1.1" xmlns="http://www.w3.org/2000/svg" xmlns:xlink="http://www.w3.org/1999/xlink" x="0px" y="0px"
	 width="1619.797px" height="1079.865px" viewBox="0 0 1619.797 1079.865" enable-background="new 0 0 1619.797 1079.865"
	 xml:space="preserve">
<g id="Layer_1" display="none">
</g>
<g id="Layer_2">
	<g>
		<path fill="#5D92CA" d="M841.422,30.671c-6.541,1.272-10.797,7.579-9.522,14.118c1.271,6.539,7.577,10.793,14.115,9.523
			c6.416-1.247,10.795-7.579,9.524-14.117C854.27,33.656,847.959,29.399,841.422,30.671 M844.77,47.896
			c-3.018,0.588-5.998-1.311-6.584-4.328c-0.589-3.019,1.464-5.896,4.482-6.481c3.017-0.589,5.871,1.336,6.458,4.354
			C849.838,44.436,847.788,47.312,844.77,47.896"/>
		<path fill="#5D92CA" d="M870.83,89.883l0.343-3.478l11.95,11.861c0.814,0.747,1.925,1.034,3.055,0.795
			c0.123-0.028,0.246-0.052,0.498-0.107c1.227-0.392,2.166-1.508,2.204-2.563l1.991-34.997c-0.285-0.726-0.571-1.45-1.055-1.872l0,0
			L874.49,44.709c-2.051-15.805-8.754-36.249-39.918-55.947c-0.76-0.494-1.689-0.559-2.566-0.371l0,0
			c-0.876,0.186-1.676,0.748-2.195,1.383c-20.458,30.671-18.264,52.073-13.71,67.346l-7.978,19.77
			c-0.242,0.705-0.234,1.356,0.053,2.082l16.052,31.162c0.489,1.074,1.776,1.588,3.058,1.445c0.124-0.025,0.25-0.052,0.5-0.105
			c1.13-0.24,2.023-0.955,2.464-1.966l6.093-15.7l1.727,3.037 M832.165,87.101l-5.536,14.009l-12.27-23.844l5.419-13.334
			l12.558,22.736C832.363,86.793,832.263,86.945,832.165,87.101L832.165,87.101z M844.3,95.521l4.888-1.039 M859.211,92.354
			l4.889-1.041 M866.214,64.93l-0.646,6.818l0,0l-1.102,12.674l-0.137,1.21l-22.678,4.819l-0.617-1.049l-6.162-11.132l0,0
			l-3.364-5.964l-9.526-17.092c0,0,0,0-0.025-0.125c-3.988-13.82-5.924-32.791,11.208-60.006l0,0l0,0
			c26.721,17.895,32.668,36.012,34.649,50.257c0,0,0,0,0.026,0.126L866.214,64.93L866.214,64.93z M882.541,89.356l-10.755-10.548
			c-0.151-0.097-0.179-0.227-0.306-0.197l2.227-25.878l10.37,9.974L882.541,89.356L882.541,89.356z"/>
	</g>
	<path fill="#5D92CA" d="M849.117,94.125l8.316,15.332l1.742-17.355 M849.117,94.125l10.059-2.023 M864.081,91.115l6.759-1.406
		l-4.979,45.391c-0.274,1.235-1.254,2.217-2.513,2.471c-1.38,0.277-2.665-0.249-3.271-1.307l-22.079-39.803l6.216-1.351
		l16.405,30.188l0,0L864.081,91.115"/>
</g>
</svg>
