<?xml version="1.0" encoding="utf-8"?>
<!-- Generator: Adobe Illustrator 16.0.0, SVG Export Plug-In . SVG Version: 6.00 Build 0)  -->
<!DOCTYPE svg PUBLIC "-//W3C//DTD SVG 1.1//EN" "http://www.w3.org/Graphics/SVG/1.1/DTD/svg11.dtd">
<svg version="1.1" xmlns="http://www.w3.org/2000/svg" xmlns:xlink="http://www.w3.org/1999/xlink" x="0px" y="0px"
	 width="1619.797px" height="1079.865px" viewBox="0 0 1619.797 1079.865" enable-background="new 0 0 1619.797 1079.865"
	 xml:space="preserve">
<g id="Layer_1" display="none">
</g>
<g id="Layer_2">
	<g>
		<path fill="#5D92CA" d="M830.304,534.136c-8.206-10.5-23.31-12.358-33.806-4.153c-10.498,8.203-12.354,23.305-4.15,33.804
			c8.046,10.3,23.306,12.353,33.803,4.154C836.648,559.737,838.506,544.63,830.304,534.136 M802.646,555.74
			c-3.787-4.844-3.106-11.877,1.737-15.661c4.845-3.79,11.836-2.747,15.619,2.102c3.788,4.841,2.95,11.673-1.896,15.46
			C813.42,561.626,806.433,560.588,802.646,555.74"/>
		<path fill="#5D92CA" d="M750.295,639.797l6.55-2.432l-10.847,31.883c-0.626,2.118-0.172,4.364,1.25,6.184
			c0.156,0.197,0.313,0.399,0.631,0.803c1.778,1.861,4.608,2.573,6.539,1.715l64.655-27.102c1.056-1.15,2.109-2.298,2.442-3.538l0,0
			l13.192-40.539c26.608-17.542,57.485-47.516,65.572-120.806c0.221-1.801-0.479-3.528-1.584-4.942l0,0
			c-1.104-1.409-2.815-2.354-4.41-2.732c-73.07-9.883-109.623,12.825-133.081,34.4l-42.531,2.991
			c-1.479,0.184-2.646,0.77-3.699,1.921l-41.943,56.175c-1.503,1.822-1.293,4.587,0.083,6.764c0.157,0.2,0.313,0.405,0.63,0.808
			c1.423,1.818,3.488,2.799,5.691,2.705L713,581.241l-3.945,5.768 M721.393,567.856l-30.035,2.33l32.105-42.964l28.717-1.949
			l-29.861,42.511C722.116,567.942,721.756,567.898,721.393,567.856L721.393,567.856z M716.898,597.048l6.149,7.876
			 M735.665,621.075l6.155,7.876 M791.102,609.623l-12.823,4.82l0,0l-23.749,9.129l-2.295,0.813l-28.546-36.539l1.343-2.029
			l14.606-20.834l0,0l7.772-11.279l22.375-32.109c0,0,0,0,0.201-0.157c21.349-19.283,53.753-39.395,117.693-32.458l0,0l0,0
			c-8.737,63.721-36.091,90.295-59.964,106.346c0,0,0,0-0.2,0.158L791.102,609.623L791.102,609.623z M761.504,660.387l9.533-28.581
			c0.042-0.356,0.248-0.516,0.088-0.72l48.474-18.687l-8.841,27.387L761.504,660.387L761.504,660.387z"/>
	</g>
</g>
</svg>
