<?xml version="1.0" encoding="utf-8"?>
<!-- Generator: Adobe Illustrator 16.0.0, SVG Export Plug-In . SVG Version: 6.00 Build 0)  -->
<!DOCTYPE svg PUBLIC "-//W3C//DTD SVG 1.1//EN" "http://www.w3.org/Graphics/SVG/1.1/DTD/svg11.dtd">
<svg version="1.1" xmlns="http://www.w3.org/2000/svg" xmlns:xlink="http://www.w3.org/1999/xlink" x="0px" y="0px"
	 width="1619.797px" height="1079.865px" viewBox="0 0 1619.797 1079.865" enable-background="new 0 0 1619.797 1079.865"
	 xml:space="preserve">
<g id="Layer_1" display="none">
</g>
<g id="Layer_2">
	<g>
		<path fill="#5D92CA" d="M838.735,425.28c-6.301-2.168-13.141,1.166-15.307,7.464c-2.167,6.299,1.167,13.136,7.465,15.305
			c6.179,2.129,13.137-1.166,15.306-7.463C848.369,434.288,845.032,427.447,838.735,425.28 M833.022,441.871
			c-2.908-1-4.539-4.134-3.537-7.041c0.998-2.908,4.215-4.374,7.121-3.372c2.906,0.999,4.416,4.092,3.416,7
			C839.142,441.407,835.929,442.874,833.022,441.871"/>
		<path fill="#5D92CA" d="M834.599,491.262l2.035-2.84l4.418,16.248c0.333,1.054,1.15,1.857,2.248,2.215
			c0.12,0.037,0.24,0.078,0.485,0.156c1.259,0.274,2.63-0.222,3.19-1.117l19.223-29.313c0.117-0.771,0.23-1.542,0.023-2.148l0,0
			l-5.866-20.493c6.126-14.711,10.542-35.769-6.597-68.411c-0.412-0.808-1.185-1.328-2.038-1.605l0,0
			c-0.851-0.275-1.824-0.188-2.593,0.101c-33.052,16.333-41.853,35.966-45.545,51.468l-16.794,13.131
			c-0.562,0.49-0.88,1.059-0.995,1.83l-1.68,35.013c-0.114,1.176,0.745,2.264,1.926,2.782c0.119,0.04,0.242,0.08,0.485,0.158
			c1.099,0.357,2.229,0.186,3.116-0.471l13.127-10.549l-0.023,3.493 M802.505,469.521l-11.799,9.364l1.295-26.786l11.359-8.837
			l-0.492,25.97C802.829,469.355,802.667,469.437,802.505,469.521L802.505,469.521z M808.804,482.879l4.751,1.546 M823.3,487.591
			l4.754,1.544 M843.077,467.345l-3.968,5.583l0,0l-7.292,10.424l-0.723,0.979l-22.049-7.165l-0.011-1.217l0.229-12.721l0,0
			l0.068-6.848l0.296-19.566c0,0,0,0,0.04-0.121c3.457-13.962,11.266-31.359,39.71-46.361l0,0l0,0
			c14.194,28.856,10.286,47.52,4.878,60.848c0,0,0,0-0.039,0.123L843.077,467.345L843.077,467.345z M845.003,496.663l-4.04-14.513
			c-0.083-0.159-0.041-0.284-0.165-0.323l14.867-21.298l3.994,13.824L845.003,496.663L845.003,496.663z"/>
	</g>
	<path fill="#5D92CA" d="M816.112,485.016l-0.205,8.719l5.07-7.096 M816.112,485.016l4.865,1.623 M823.351,487.43l3.281,1.071
		l-13.443,18.452c-0.426,0.468-1.096,0.65-1.705,0.447c-0.668-0.223-1.094-0.771-1.094-1.379l0.316-22.757l3.033,0.959
		l-0.388,17.175l0,0L823.351,487.43"/>
</g>
</svg>
