<?xml version="1.0" encoding="utf-8"?>
<!-- Generator: Adobe Illustrator 16.0.0, SVG Export Plug-In . SVG Version: 6.00 Build 0)  -->
<!DOCTYPE svg PUBLIC "-//W3C//DTD SVG 1.1//EN" "http://www.w3.org/Graphics/SVG/1.1/DTD/svg11.dtd">
<svg version="1.1" xmlns="http://www.w3.org/2000/svg" xmlns:xlink="http://www.w3.org/1999/xlink" x="0px" y="0px"
	 width="1619.797px" height="1079.865px" viewBox="0 0 1619.797 1079.865" enable-background="new 0 0 1619.797 1079.865"
	 xml:space="preserve">
<g id="Layer_1" display="none">
</g>
<g id="Layer_2">
	<g>
		<path fill="#5D92CA" d="M868.747-4.02l-0.045-6.987l26.249,21.095c1.776,1.315,4.045,1.654,6.241,0.941
			c0.238-0.081,0.48-0.155,0.969-0.317c2.357-1.036,3.994-3.452,3.85-5.559l-3.357-70.028c-0.719-1.384-1.439-2.765-2.488-3.503l0,0
			l-33.58-26.26c-7.384-31.006-24.991-70.271-91.097-102.937c-1.615-0.822-3.476-0.757-5.183-0.2l0,0
			c-1.703,0.552-3.176,1.838-4.078,3.208c-34.278,65.284-25.439,107.396-13.189,136.82l-11.736,40.991
			c-0.334,1.452-0.181,2.747,0.54,4.131l38.444,58.626c1.198,2.035,3.866,2.786,6.384,2.235c0.241-0.076,0.487-0.155,0.972-0.315
			c2.197-0.714,3.826-2.32,4.49-4.424l8.837-32.503l4.068,5.68 M791.259-1.47l-8.083,29.021l-29.391-44.86l7.992-27.654
			l29.729,42.598C791.589-2.121,791.421-1.798,791.259-1.47L791.259-1.47z M817.155,12.742l9.505-3.086 M846.153,3.323l9.505-3.09
			 M854.349-52.687l0.143,13.697l0,0l0.456,25.44l-0.018,2.434l-44.1,14.327l-1.448-1.958L794.799-19.6l0,0l-7.938-11.158
			L764.34-62.763c0,0,0,0-0.078-0.244c-10.822-26.655-18.637-63.984,9.75-121.698l0,0l0,0c56.889,30.007,72.505,64.8,79.425,92.721
			c0,0,0,0,0.078,0.246L854.349-52.687L854.349-52.687z M891.931-7.514l-23.597-18.732c-0.322-0.161-0.403-0.412-0.648-0.328
			l-0.981-51.938l22.711,17.67L891.931-7.514L891.931-7.514z"/>
	</g>
	<path fill="#5D92CA" d="M826.58,9.374l20.091,28.521l-0.584-34.881 M826.58,9.374l19.507-6.359 M855.602-0.087l13.1-4.363
		l0.677,91.322c-0.257,2.516-1.974,4.694-4.415,5.488c-2.679,0.875-5.353,0.129-6.799-1.832l-53.127-73.927l12.033-4.13
		l39.615,56.146l0,0L855.602-0.087"/>
</g>
</svg>
