<?xml version="1.0" encoding="utf-8"?>
<!-- Generator: Adobe Illustrator 16.0.0, SVG Export Plug-In . SVG Version: 6.00 Build 0)  -->
<!DOCTYPE svg PUBLIC "-//W3C//DTD SVG 1.1//EN" "http://www.w3.org/Graphics/SVG/1.1/DTD/svg11.dtd">
<svg version="1.1" xmlns="http://www.w3.org/2000/svg" xmlns:xlink="http://www.w3.org/1999/xlink" x="0px" y="0px"
	 width="1619.797px" height="1079.865px" viewBox="0 0 1619.797 1079.865" enable-background="new 0 0 1619.797 1079.865"
	 xml:space="preserve">
<g id="Layer_1" display="none">
</g>
<g id="Layer_2">
	<g>
		<path fill="#5D92CA" d="M809.786,556.692c-3.917-5.39-11.432-6.582-16.82-2.665c-5.389,3.916-6.58,11.429-2.664,16.819
			c3.841,5.287,11.43,6.579,16.819,2.665C812.51,569.596,813.702,562.079,809.786,556.692 M795.589,567.006
			c-1.808-2.487-1.345-5.989,1.141-7.796c2.487-1.809,5.962-1.166,7.769,1.323c1.808,2.485,1.271,5.885-1.217,7.693
			C800.87,570.135,797.396,569.494,795.589,567.006"/>
		<path fill="#5D92CA" d="M767.962,608.094l3.316-1.102l-5.977,15.743c-0.35,1.047-0.162,2.178,0.517,3.112
			c0.074,0.101,0.149,0.204,0.301,0.412c0.856,0.961,2.258,1.367,3.238,0.972l32.781-12.416c0.547-0.557,1.094-1.111,1.282-1.725
			l0,0l7.299-20.026c13.603-8.302,29.555-22.74,34.874-59.223c0.142-0.896-0.178-1.771-0.705-2.497l0,0
			c-0.527-0.724-1.365-1.225-2.156-1.443c-36.34-6.214-55.002,4.496-67.1,14.868l-21.305,0.752
			c-0.742,0.066-1.335,0.339-1.882,0.896l-21.939,27.339c-0.783,0.884-0.726,2.269-0.077,3.381c0.075,0.103,0.15,0.207,0.301,0.414
			c0.679,0.933,1.694,1.46,2.797,1.451l16.821-0.819l-2.072,2.813 M754.776,571.641l-15.05,0.64l16.793-20.908l14.383-0.474
			l-15.663,20.722C755.136,571.696,754.957,571.668,754.776,571.641L754.776,571.641z M752.021,586.15l2.936,4.043 M760.979,598.484
			l2.938,4.043 M788.88,593.729l-6.492,2.184l0,0l-12.027,4.147l-1.16,0.367l-13.627-18.756l0.706-0.991l7.663-10.156l0,0l4.081-5.5
			l11.741-15.654c0,0,0,0,0.104-0.076c11.004-9.262,27.547-18.747,59.376-14.165l0,0l0,0c-5.478,31.689-19.61,44.49-31.819,52.094
			c0,0,0,0-0.103,0.075L788.88,593.729L788.88,593.729z M773.204,618.579l5.263-14.115c0.027-0.178,0.133-0.254,0.057-0.358
			l24.548-8.492l-4.896,13.53L773.204,618.579L773.204,618.579z"/>
	</g>
</g>
</svg>
