<?xml version="1.0" encoding="utf-8"?>
<!-- Generator: Adobe Illustrator 16.0.0, SVG Export Plug-In . SVG Version: 6.00 Build 0)  -->
<!DOCTYPE svg PUBLIC "-//W3C//DTD SVG 1.1//EN" "http://www.w3.org/Graphics/SVG/1.1/DTD/svg11.dtd">
<svg version="1.1" xmlns="http://www.w3.org/2000/svg" xmlns:xlink="http://www.w3.org/1999/xlink" x="0px" y="0px"
	 width="1619.797px" height="1079.865px" viewBox="0 0 1619.797 1079.865" enable-background="new 0 0 1619.797 1079.865"
	 xml:space="preserve">
<g id="Layer_1" display="none">
</g>
<g id="Layer_2">
	<g>
		<path fill="#5D92CA" d="M854.476,102.664c-6.614,0.813-11.3,6.808-10.485,13.42c0.812,6.611,6.806,11.295,13.417,10.484
			c6.487-0.797,11.296-6.809,10.485-13.418C867.083,106.537,861.085,101.852,854.476,102.664 M856.613,120.082
			c-3.052,0.375-5.892-1.727-6.266-4.778c-0.377-3.052,1.871-5.778,4.923-6.152c3.05-0.378,5.764,1.742,6.139,4.794
			C861.91,116.981,859.665,119.708,856.613,120.082"/>
		<path fill="#5D92CA" d="M879.681,163.783l0.585-3.445l11.094,12.666c0.76,0.803,1.848,1.166,2.991,1.006
			c0.125-0.02,0.25-0.035,0.505-0.072c1.251-0.306,2.266-1.353,2.378-2.402l4.427-34.774c-0.234-0.743-0.469-1.485-0.921-1.94l0,0
			l-14.255-15.846c-0.943-15.908-6.205-36.771-35.919-58.596c-0.724-0.546-1.646-0.675-2.535-0.549l0,0
			c-0.886,0.123-1.723,0.629-2.286,1.226c-22.547,29.17-21.851,50.673-18.374,66.226l-9.337,19.165
			c-0.291,0.687-0.328,1.337-0.093,2.081l13.839,32.205c0.413,1.107,1.662,1.708,2.95,1.655c0.125-0.017,0.253-0.034,0.506-0.071
			c1.144-0.16,2.085-0.811,2.595-1.788l7.173-15.237l1.51,3.15 M841.304,158.311l-6.5,13.588l-10.577-24.642l6.336-12.923
			l10.94,23.557C841.523,158.018,841.413,158.163,841.304,158.311L841.304,158.311z M852.822,167.557l4.948-0.694 M867.918,165.437
			l4.949-0.696 M876.816,138.568l-1.119,6.758l0,0l-1.984,12.566l-0.22,1.196l-22.959,3.226l-0.543-1.09l-5.37-11.534l0,0
			l-2.94-6.184l-8.311-17.715c0,0,0,0-0.017-0.126c-3.015-14.065-3.622-33.125,15.367-59.078l0,0l0,0
			c25.407,19.715,30.076,38.202,31.059,52.552c0,0,0,0,0.017,0.128L876.816,138.568L876.816,138.568z M891.4,164.075l-9.993-11.272
			c-0.145-0.107-0.162-0.238-0.291-0.219l4.027-25.659l9.648,10.673L891.4,164.075L891.4,164.075z"/>
	</g>
	<path fill="#5D92CA" d="M857.723,166.584l7.239,15.869l2.935-17.193 M857.723,166.584l10.173-1.324 M872.859,164.615l6.84-0.936
		l-8.1,44.938c-0.359,1.214-1.403,2.125-2.677,2.292c-1.396,0.182-2.642-0.433-3.172-1.53l-19.28-41.232l6.294-0.917l14.284,31.247
		l0,0L872.859,164.615"/>
</g>
</svg>
