<?xml version="1.0" encoding="utf-8"?>
<!-- Generator: Adobe Illustrator 16.0.0, SVG Export Plug-In . SVG Version: 6.00 Build 0)  -->
<!DOCTYPE svg PUBLIC "-//W3C//DTD SVG 1.1//EN" "http://www.w3.org/Graphics/SVG/1.1/DTD/svg11.dtd">
<svg version="1.1" xmlns="http://www.w3.org/2000/svg" xmlns:xlink="http://www.w3.org/1999/xlink" x="0px" y="0px"
	 width="1619.797px" height="1079.865px" viewBox="0 0 1619.797 1079.865" enable-background="new 0 0 1619.797 1079.865"
	 xml:space="preserve">
<g id="Layer_1" display="none">
</g>
<g id="Layer_2">
	<g>
		<path fill="#5D92CA" d="M863.578,201.498c-6.662,0.118-11.949,5.59-11.83,12.25c0.117,6.661,5.588,11.945,12.248,11.83
			c6.535-0.113,11.945-5.59,11.83-12.248C875.711,206.669,870.236,201.382,863.578,201.498 M863.884,219.045
			c-3.075,0.055-5.679-2.334-5.732-5.407c-0.056-3.074,2.465-5.552,5.539-5.604c3.073-0.057,5.55,2.336,5.604,5.41
			C869.475,216.515,866.957,218.992,863.884,219.045"/>
		<path fill="#5D92CA" d="M882.257,264.917l0.941-3.364l9.709,13.756c0.673,0.877,1.716,1.354,2.87,1.313
			c0.126-0.006,0.252-0.008,0.51-0.019c1.275-0.173,2.395-1.108,2.615-2.142l8.038-34.12c-0.155-0.764-0.312-1.526-0.714-2.026l0,0
			l-12.52-17.249c0.724-15.92-2.328-37.218-29.598-62.029c-0.663-0.618-1.566-0.843-2.463-0.812l0,0
			c-0.895,0.031-1.78,0.446-2.402,0.98c-25.473,26.654-27.028,48.111-25.195,63.943l-11.29,18.083
			c-0.36,0.652-0.466,1.296-0.31,2.06l10.396,33.477c0.295,1.143,1.475,1.871,2.761,1.954c0.126-0.003,0.255-0.007,0.511-0.018
			c1.154-0.04,2.158-0.588,2.768-1.507l8.727-14.404l1.173,3.291 M844.662,255.463l-7.884,12.835l-7.943-25.612l7.652-12.189
			l8.418,24.57C844.911,255.195,844.786,255.328,844.662,255.463L844.662,255.463z M855.15,265.863l4.994-0.174 M870.386,265.332
			l4.994-0.175 M882.044,239.542l-1.819,6.603l0,0l-3.287,12.291l-0.344,1.167l-23.17,0.808l-0.426-1.141l-4.135-12.031l0,0
			l-2.277-6.457l-6.414-18.487c0,0,0,0-0.004-0.128c-1.527-14.303-0.139-33.321,21.459-57.148l0,0l0,0
			c23.207,22.264,25.917,41.138,25.395,55.512c0,0,0,0,0.004,0.129L882.044,239.542L882.044,239.542z M893.881,266.434l-8.76-12.256
			c-0.132-0.122-0.136-0.254-0.267-0.247l6.687-25.099l8.48,11.623L893.881,266.434L893.881,266.434z"/>
	</g>
	<path fill="#5D92CA" d="M860.086,265.475l5.587,16.523l4.668-16.805 M860.086,265.475l10.255-0.281 M875.343,265.055l6.899-0.233
		l-12.629,43.88c-0.481,1.17-1.613,1.972-2.896,2.007c-1.408,0.039-2.584-0.698-3-1.844l-14.984-42.98l6.354-0.272l11.029,32.539
		l0,0L875.343,265.055"/>
</g>
</svg>
