<?xml version="1.0" encoding="utf-8"?>
<!-- Generator: Adobe Illustrator 16.0.0, SVG Export Plug-In . SVG Version: 6.00 Build 0)  -->
<!DOCTYPE svg PUBLIC "-//W3C//DTD SVG 1.1//EN" "http://www.w3.org/Graphics/SVG/1.1/DTD/svg11.dtd">
<svg version="1.1" xmlns="http://www.w3.org/2000/svg" xmlns:xlink="http://www.w3.org/1999/xlink" x="0px" y="0px"
	 width="1619.797px" height="1079.865px" viewBox="0 0 1619.797 1079.865" enable-background="new 0 0 1619.797 1079.865"
	 xml:space="preserve">
<g id="Layer_1" display="none">
</g>
<g id="Layer_2">
	<g>
		<path fill="#5D92CA" d="M864.019,216.509c-6.664,0.001-12.045,5.38-12.041,12.042c0,6.661,5.379,12.041,12.039,12.041
			c6.535,0.001,12.041-5.38,12.043-12.039C876.06,221.891,870.679,216.508,864.019,216.509 M864.019,234.057
			c-3.075,0.002-5.639-2.431-5.637-5.506c-0.003-3.074,2.561-5.508,5.636-5.506c3.073-0.003,5.509,2.432,5.509,5.506
			C869.653,231.626,867.093,234.059,864.019,234.057"/>
		<path fill="#5D92CA" d="M881.588,280.244l1.001-3.348l9.467,13.924c0.656,0.889,1.692,1.383,2.846,1.362
			c0.127-0.004,0.253-0.004,0.51-0.011c1.279-0.15,2.415-1.066,2.654-2.095l8.631-33.976c-0.141-0.766-0.283-1.531-0.678-2.038l0,0
			l-12.217-17.465c1.002-15.905-1.678-37.253-28.51-62.536c-0.652-0.63-1.553-0.87-2.449-0.854l0,0
			c-0.895,0.015-1.787,0.414-2.419,0.938c-25.935,26.205-27.864,47.633-26.308,63.493l-11.604,17.884
			c-0.372,0.646-0.488,1.287-0.346,2.055l9.811,33.652c0.275,1.148,1.442,1.896,2.727,2.002c0.126-0.002,0.256-0.004,0.511-0.009
			c1.155-0.021,2.168-0.551,2.794-1.459l8.977-14.249l1.115,3.311 M844.164,270.135l-8.106,12.695l-7.496-25.747l7.865-12.054
			l7.987,24.714C844.417,269.872,844.29,270.002,844.164,270.135L844.164,270.135z M854.47,280.717l4.996-0.086 M869.712,280.452
			l4.996-0.089 M881.817,254.869l-1.934,6.57l0,0l-3.501,12.23l-0.364,1.161l-23.181,0.403l-0.406-1.147l-3.925-12.103l0,0
			l-2.164-6.496l-6.09-18.596c0,0,0,0-0.002-0.127c-1.277-14.328,0.443-33.32,22.453-56.766l0,0l0,0
			c22.814,22.664,25.195,41.583,24.424,55.945c0,0,0,0,0,0.129L881.817,254.869L881.817,254.869z M893.185,281.963l-8.545-12.407
			c-0.131-0.124-0.131-0.256-0.262-0.251l7.123-24.979l8.276,11.77L893.185,281.963L893.185,281.963z"/>
	</g>
	<path fill="#5D92CA" d="M859.484,280.369l5.378,16.594l4.881-16.746 M859.484,280.369l10.259-0.152 M874.745,280.142l6.902-0.146
		l-13.182,43.717c-0.496,1.164-1.639,1.951-2.922,1.97c-1.408,0.022-2.574-0.731-2.977-1.882l-14.439-43.166l6.355-0.191
		l10.619,32.675l0,0L874.745,280.142"/>
</g>
</svg>
