<?xml version="1.0" encoding="utf-8"?>
<!-- Generator: Adobe Illustrator 16.0.0, SVG Export Plug-In . SVG Version: 6.00 Build 0)  -->
<!DOCTYPE svg PUBLIC "-//W3C//DTD SVG 1.1//EN" "http://www.w3.org/Graphics/SVG/1.1/DTD/svg11.dtd">
<svg version="1.1" xmlns="http://www.w3.org/2000/svg" xmlns:xlink="http://www.w3.org/1999/xlink" x="0px" y="0px"
	 width="1619.797px" height="1079.865px" viewBox="0 0 1619.797 1079.865" enable-background="new 0 0 1619.797 1079.865"
	 xml:space="preserve">
<g id="Layer_1" display="none">
</g>
<g id="Layer_2">
	<g>
		<path fill="#5D92CA" d="M800.412,548.468c-4.952-4.458-12.551-4.062-17.006,0.89c-4.458,4.951-4.06,12.547,0.891,17.004
			c4.855,4.374,12.548,4.06,17.005-0.889C805.76,560.524,805.362,552.923,800.412,548.468 M788.67,561.507
			c-2.286-2.056-2.562-5.579-0.505-7.863c2.056-2.287,5.589-2.379,7.874-0.321c2.285,2.055,2.467,5.492,0.409,7.778
			C794.484,563.471,790.955,563.566,788.67,561.507"/>
		<path fill="#5D92CA" d="M770.822,607.588l2.983-1.818l-2.282,16.683c-0.105,1.1,0.333,2.159,1.204,2.917
			c0.096,0.081,0.191,0.165,0.386,0.333c1.052,0.744,2.508,0.824,3.374,0.218l29.149-19.471c0.408-0.665,0.815-1.329,0.86-1.968l0,0
			l2.608-21.156c11.387-11.148,23.68-28.806,20.658-65.549c-0.063-0.905-0.571-1.686-1.249-2.274l0,0
			c-0.676-0.586-1.606-0.887-2.425-0.92c-36.807,2.12-52.581,16.753-62.037,29.581l-20.589,5.526
			c-0.709,0.231-1.225,0.63-1.632,1.295l-15.228,31.574c-0.564,1.038-0.198,2.375,0.686,3.313c0.096,0.083,0.193,0.168,0.386,0.334
			c0.872,0.758,1.979,1.042,3.052,0.785l16.205-4.582l-1.386,3.207 M749.773,575.036l-14.519,4.009l11.659-24.15l13.909-3.696
			l-10.6,23.713C750.137,575.009,749.956,575.021,749.773,575.036L749.773,575.036z M750.353,589.793l3.77,3.279 M761.856,599.795
			l3.772,3.278 M787.972,588.885l-5.835,3.589l0,0l-10.785,6.746l-1.048,0.619l-17.497-15.21l0.466-1.125l5.182-11.62l0,0
			l2.738-6.277l7.917-17.895c0,0,0,0,0.084-0.096c8.638-11.501,22.625-24.464,54.668-27.16l0,0l0,0
			c1.791,32.108-9.099,47.761-19.285,57.917c0,0,0,0-0.084,0.097L787.972,588.885L787.972,588.885z M778.289,616.625l1.952-14.938
			c-0.013-0.179,0.074-0.278-0.025-0.362l22.008-13.796l-1.725,14.285L778.289,616.625L778.289,616.625z"/>
	</g>
	<path fill="#5D92CA" d="M760.138,594.222l-1.561,0.977l0.705-1.608l-1.929-1.422l-2.373,5.548
		c-0.186,0.451-0.037,0.986,0.389,1.354c0.389,0.336,0.939,0.404,1.396,0.188l5.567-3.42L760.138,594.222z"/>
</g>
</svg>
