<?xml version="1.0" encoding="utf-8"?>
<!-- Generator: Adobe Illustrator 16.0.0, SVG Export Plug-In . SVG Version: 6.00 Build 0)  -->
<!DOCTYPE svg PUBLIC "-//W3C//DTD SVG 1.1//EN" "http://www.w3.org/Graphics/SVG/1.1/DTD/svg11.dtd">
<svg version="1.1" xmlns="http://www.w3.org/2000/svg" xmlns:xlink="http://www.w3.org/1999/xlink" x="0px" y="0px"
	 width="1619.797px" height="1079.865px" viewBox="0 0 1619.797 1079.865" enable-background="new 0 0 1619.797 1079.865"
	 xml:space="preserve">
<g id="Layer_1" display="none">
</g>
<g id="Layer_2">
	<g>
		<path fill="#5D92CA" d="M864.197,229.3c-6.664-0.114-12.139,5.169-12.251,11.829c-0.116,6.661,5.168,12.134,11.827,12.25
			c6.535,0.115,12.135-5.168,12.251-11.827C876.143,234.891,870.855,229.416,864.197,229.3 M863.89,246.846
			c-3.075-0.053-5.595-2.529-5.54-5.604c0.051-3.074,2.657-5.463,5.731-5.408c3.073,0.052,5.465,2.527,5.411,5.602
			C869.566,244.513,866.963,246.9,863.89,246.846"/>
		<path fill="#5D92CA" d="M880.65,293.332l1.059-3.33l9.223,14.087c0.643,0.899,1.668,1.412,2.822,1.412
			c0.127-0.001,0.253,0.001,0.51-0.001c1.281-0.129,2.434-1.025,2.689-2.049l9.224-33.819c-0.128-0.769-0.257-1.537-0.642-2.05l0,0
			l-11.911-17.676c1.28-15.885-1.026-37.277-27.415-63.024c-0.641-0.641-1.535-0.897-2.434-0.896l0,0
			c-0.895-0.001-1.793,0.384-2.434,0.896c-26.388,25.748-28.691,47.14-27.412,63.024l-11.914,17.679
			c-0.383,0.639-0.51,1.279-0.382,2.048l9.223,33.818c0.255,1.153,1.408,1.923,2.69,2.05c0.127,0,0.256,0.002,0.512,0
			c1.154,0,2.177-0.513,2.818-1.41l9.224-14.09l1.058,3.329 M843.409,282.572l-8.327,12.551l-7.045-25.874l8.073-11.915l7.556,24.85
			C843.667,282.313,843.537,282.441,843.409,282.572L843.409,282.572z M853.527,293.331l4.997,0.001 M868.772,293.332h4.997
			 M881.323,267.965l-2.048,6.535l0,0l-3.715,12.168l-0.384,1.154h-23.185l-0.386-1.155l-3.712-12.169l0,0l-2.051-6.533
			l-5.766-18.699c0,0,0,0,0.002-0.127c-1.028-14.348,1.023-33.307,23.439-56.365l0,0l0,0c22.416,23.059,24.466,42.017,23.442,56.363
			c0,0,0,0-0.001,0.129L881.323,267.965L881.323,267.965z M892.215,295.252l-8.326-12.554c-0.129-0.126-0.127-0.259-0.258-0.256
			l7.559-24.85l8.069,11.911L892.215,295.252L892.215,295.252z"/>
	</g>
	<path fill="#5D92CA" d="M859.339,293.13l4.724,14.971l4.51-15.036 M859.339,293.13l9.233-0.065 M873.075,293.031l6.213-0.084
		l-12.167,39.254c-0.455,1.043-1.488,1.744-2.645,1.752c-1.268,0.01-2.312-0.676-2.664-1.713l-12.697-38.949l5.723-0.129
		l9.329,29.48l0,0L873.075,293.031"/>
</g>
</svg>
