<?xml version="1.0" encoding="utf-8"?>
<!-- Generator: Adobe Illustrator 16.0.0, SVG Export Plug-In . SVG Version: 6.00 Build 0)  -->
<!DOCTYPE svg PUBLIC "-//W3C//DTD SVG 1.1//EN" "http://www.w3.org/Graphics/SVG/1.1/DTD/svg11.dtd">
<svg version="1.1" xmlns="http://www.w3.org/2000/svg" xmlns:xlink="http://www.w3.org/1999/xlink" x="0px" y="0px"
	 width="1619.797px" height="1079.865px" viewBox="0 0 1619.797 1079.865" enable-background="new 0 0 1619.797 1079.865"
	 xml:space="preserve">
<g id="Layer_1" display="none">
</g>
<g id="Layer_2">
	<g>
		<path fill="#5D92CA" d="M845.976,403.078c-6.406-1.835-13.062,1.852-14.896,8.256c-1.835,6.403,1.853,13.057,8.255,14.893
			c6.282,1.803,13.058-1.853,14.895-8.254C856.066,411.569,852.377,404.912,845.976,403.078 M841.138,419.945
			c-2.957-0.847-4.749-3.891-3.901-6.846c0.846-2.956,3.98-4.589,6.937-3.74c2.954,0.845,4.624,3.855,3.776,6.812
			C847.225,419.161,844.093,420.793,841.138,419.945"/>
		<path fill="#5D92CA" d="M845.296,469.186l1.885-2.942l5.263,15.994c0.387,1.035,1.245,1.795,2.36,2.094
			c0.122,0.031,0.244,0.065,0.492,0.131c1.271,0.208,2.615-0.359,3.129-1.283l17.662-30.278c0.075-0.777,0.149-1.552-0.09-2.147l0,0
			l-6.931-20.157c5.349-15.012,8.657-36.271-10.168-67.972c-0.453-0.785-1.252-1.264-2.119-1.496l0,0
			c-0.864-0.231-1.832-0.094-2.583,0.236c-32.152,18.041-39.914,38.107-42.79,53.781l-16.083,13.993
			c-0.536,0.519-0.824,1.104-0.898,1.879l0.154,35.053c-0.052,1.18,0.863,2.221,2.068,2.677c0.122,0.033,0.248,0.067,0.494,0.132
			c1.115,0.299,2.236,0.068,3.088-0.633l12.556-11.222l0.16,3.489 M812.108,449.154l-11.292,9.968l-0.108-26.816l10.881-9.42
			l0.868,25.96C812.424,448.971,812.267,449.062,812.108,449.154L812.108,449.154z M819.098,462.165l4.827,1.295 M833.822,466.112
			l4.827,1.292 M852.513,444.858l-3.671,5.783l0,0l-6.736,10.792l-0.671,1.016l-22.394-6.001l-0.074-1.214l-0.437-12.716l0,0
			l-0.29-6.842l-0.729-19.554c0,0,0,0,0.034-0.124c2.721-14.124,9.609-31.905,37.229-48.376l0,0l0,0
			c15.686,28.075,12.759,46.916,8.057,60.51c0,0,0,0-0.034,0.124L852.513,444.858L852.513,444.858z M855.97,474.034l-4.795-14.281
			c-0.091-0.155-0.056-0.282-0.182-0.314l13.733-22.047l4.711,13.596L855.97,474.034L855.97,474.034z"/>
	</g>
	<path fill="#5D92CA" d="M825.144,463.422l0.489,13.945l7.436-11.807 M825.144,463.422l7.925,2.139 M836.933,466.604l5.342,1.405
		l-19.753,30.728c-0.638,0.786-1.688,1.14-2.681,0.872c-1.088-0.293-1.818-1.128-1.876-2.101l-1.616-36.379l4.933,1.25l0.983,27.468
		l0,0L836.933,466.604"/>
</g>
</svg>
