<?xml version="1.0" encoding="utf-8"?>
<!-- Generator: Adobe Illustrator 16.0.0, SVG Export Plug-In . SVG Version: 6.00 Build 0)  -->
<!DOCTYPE svg PUBLIC "-//W3C//DTD SVG 1.1//EN" "http://www.w3.org/Graphics/SVG/1.1/DTD/svg11.dtd">
<svg version="1.1" xmlns="http://www.w3.org/2000/svg" xmlns:xlink="http://www.w3.org/1999/xlink" x="0px" y="0px"
	 width="1619.797px" height="1079.865px" viewBox="0 0 1619.797 1079.865" enable-background="new 0 0 1619.797 1079.865"
	 xml:space="preserve">
<g id="Layer_1" display="none">
</g>
<g id="Layer_2">
	<g>
		<path fill="#5D92CA" d="M852.211,86.785c-13.255,1.396-22.834,13.219-21.435,26.469c1.394,13.25,13.216,22.825,26.465,21.434
			c13-1.365,22.827-13.219,21.436-26.465C877.287,94.971,865.456,85.392,852.211,86.785 M855.878,121.689
			c-6.116,0.645-11.722-3.658-12.363-9.772c-0.647-6.116,3.943-11.491,10.06-12.132c6.111-0.647,11.464,3.685,12.108,9.801
			C866.577,115.675,861.993,121.049,855.878,121.689"/>
		<path fill="#5D92CA" d="M900.48,209.883l1.29-6.867l21.742,25.716c1.493,1.63,3.655,2.396,5.947,2.115
			c0.25-0.034,0.501-0.061,1.012-0.127c2.512-0.567,4.579-2.626,4.839-4.723l10.066-69.382c-0.442-1.495-0.885-2.988-1.774-3.913
			l0,0l-27.953-32.185c-1.331-31.845-11.124-73.748-69.781-118.427c-1.429-1.116-3.268-1.406-5.05-1.187l0,0
			c-1.776,0.217-3.468,1.198-4.615,2.371c-46.105,57.544-45.464,100.569-39.053,131.79l-19.342,37.998
			c-0.604,1.362-0.701,2.662-0.258,4.158l26.55,64.885c0.787,2.227,3.265,3.473,5.84,3.412c0.251-0.028,0.508-0.059,1.014-0.123
			c2.293-0.282,4.198-1.549,5.252-3.486l14.876-30.219l2.91,6.352 M823.93,197.601l-13.471,26.945l-20.291-49.645l13.121-25.621
			l21.056,47.488C824.379,197.024,824.153,197.31,823.93,197.601L823.93,197.601z M846.639,216.493l9.919-1.216 M876.901,212.78
			l9.92-1.22 M895.633,159.363l-2.473,13.473l0,0l-4.407,25.06l-0.481,2.386l-46.024,5.649l-1.048-2.198l-10.335-23.253l0,0
			l-5.663-12.468l-16.001-35.714c0,0,0,0-0.029-0.254c-5.538-28.231-6.085-66.366,32.792-117.603l0,0l0,0
			c50.118,40.311,58.809,77.443,60.274,106.173c0,0,0,0,0.03,0.256L895.633,159.363L895.633,159.363z M923.905,210.877
			l-19.589-22.891c-0.285-0.22-0.315-0.482-0.574-0.445l8.947-51.171l18.922,21.678L923.905,210.877L923.905,210.877z"/>
	</g>
	<path fill="#5D92CA" d="M856.463,214.448l13.81,32.036l6.588-34.257 M856.463,214.448l20.398-2.221 M886.811,211.145l13.716-1.583
		l-18.077,89.516c-0.769,2.413-2.896,4.191-5.449,4.471c-2.8,0.306-5.264-0.976-6.279-3.191l-36.825-83.254l12.624-1.57
		l27.253,63.079l0,0L886.811,211.145"/>
</g>
</svg>
