<?xml version="1.0" encoding="utf-8"?>
<!-- Generator: Adobe Illustrator 16.0.0, SVG Export Plug-In . SVG Version: 6.00 Build 0)  -->
<!DOCTYPE svg PUBLIC "-//W3C//DTD SVG 1.1//EN" "http://www.w3.org/Graphics/SVG/1.1/DTD/svg11.dtd">
<svg version="1.1" xmlns="http://www.w3.org/2000/svg" xmlns:xlink="http://www.w3.org/1999/xlink" x="0px" y="0px"
	 width="1619.797px" height="1079.865px" viewBox="0 0 1619.797 1079.865" enable-background="new 0 0 1619.797 1079.865"
	 xml:space="preserve">
<g id="Layer_1" display="none">
</g>
<g id="Layer_2">
	<g>
		<path fill="#5D92CA" d="M806.669,554.46c-4.283-5.104-11.863-5.769-16.965-1.485c-5.103,4.282-5.766,11.861-1.483,16.963
			c4.2,5.007,11.86,5.766,16.964,1.486C810.287,567.143,810.951,559.562,806.669,554.46 M793.227,565.739
			c-1.978-2.354-1.76-5.881,0.595-7.856c2.354-1.979,5.866-1.579,7.842,0.778c1.977,2.353,1.678,5.782-0.678,7.759
			C798.713,568.492,795.203,568.095,793.227,565.739"/>
		<path fill="#5D92CA" d="M768.533,608.655l3.23-1.33l-4.863,16.121c-0.276,1.069-0.01,2.184,0.731,3.068
			c0.082,0.096,0.164,0.194,0.33,0.39c0.922,0.899,2.348,1.206,3.297,0.743l31.836-14.671c0.508-0.593,1.014-1.186,1.158-1.811l0,0
			l5.885-20.487c12.99-9.23,27.896-24.747,30.658-61.511c0.079-0.904-0.301-1.754-0.878-2.441l0,0
			c-0.576-0.685-1.447-1.127-2.251-1.289c-36.686-3.664-54.555,8.322-65.9,19.512l-21.199,2.237
			c-0.736,0.118-1.31,0.432-1.815,1.024l-19.979,28.802c-0.719,0.937-0.565,2.315,0.16,3.379c0.082,0.097,0.164,0.196,0.328,0.392
			c0.744,0.885,1.792,1.338,2.893,1.253l16.722-1.991l-1.87,2.95 M752.836,573.21l-14.968,1.688l15.293-22.029l14.315-1.475
			l-14.18,21.763C753.198,573.24,753.018,573.225,752.836,573.21L752.836,573.21z M751.099,587.877l3.211,3.828 M760.896,599.555
			l3.213,3.828 M788.397,592.865l-6.324,2.632l0,0l-11.707,4.976l-1.133,0.447l-14.901-17.76l0.636-1.038l6.936-10.666l0,0
			l3.687-5.771l10.619-16.435c0,0,0,0,0.099-0.082c10.331-10.009,26.173-20.624,58.244-18.274l0,0l0,0
			c-3.254,31.994-16.458,45.75-28.107,54.187c0,0,0,0-0.098,0.083L788.397,592.865L788.397,592.865z M774.493,618.748l4.266-14.448
			c0.015-0.179,0.115-0.263,0.031-0.361l23.896-10.183l-3.939,13.839L774.493,618.748L774.493,618.748z"/>
	</g>
</g>
</svg>
