<?xml version="1.0" encoding="utf-8"?>
<!-- Generator: Adobe Illustrator 16.0.0, SVG Export Plug-In . SVG Version: 6.00 Build 0)  -->
<!DOCTYPE svg PUBLIC "-//W3C//DTD SVG 1.1//EN" "http://www.w3.org/Graphics/SVG/1.1/DTD/svg11.dtd">
<svg version="1.1" xmlns="http://www.w3.org/2000/svg" xmlns:xlink="http://www.w3.org/1999/xlink" x="0px" y="0px"
	 width="1619.797px" height="1079.865px" viewBox="0 0 1619.797 1079.865" enable-background="new 0 0 1619.797 1079.865"
	 xml:space="preserve">
<g id="Layer_1" display="none">
</g>
<g id="Layer_2">
	<g>
		<path fill="#5D92CA" d="M807.449,555.053c-4.193-5.177-11.761-5.975-16.937-1.781c-5.177,4.192-5.972,11.759-1.78,16.935
			c4.113,5.08,11.76,5.972,16.936,1.782C810.845,567.796,811.641,560.228,807.449,555.053 M793.812,566.095
			c-1.936-2.388-1.656-5.911,0.731-7.845c2.389-1.937,5.893-1.476,7.827,0.915c1.936,2.387,1.577,5.811-0.813,7.746
			C799.248,568.944,795.746,568.485,793.812,566.095"/>
		<path fill="#5D92CA" d="M768.373,608.574l3.253-1.273l-5.144,16.033c-0.295,1.064-0.049,2.184,0.678,3.081
			c0.08,0.098,0.16,0.197,0.322,0.396c0.906,0.916,2.327,1.247,3.284,0.801l32.087-14.114c0.518-0.584,1.034-1.167,1.189-1.79l0,0
			l6.242-20.381c13.148-9.002,28.323-24.256,31.727-60.966c0.095-0.902-0.271-1.759-0.835-2.457l0,0
			c-0.563-0.695-1.427-1.152-2.229-1.328c-36.616-4.304-54.691,7.368-66.229,18.358l-21.236,1.867
			c-0.739,0.105-1.316,0.409-1.833,0.993l-20.479,28.449c-0.735,0.925-0.606,2.305,0.101,3.381c0.08,0.098,0.16,0.2,0.322,0.397
			c0.727,0.897,1.768,1.37,2.869,1.303l16.755-1.699l-1.923,2.917 M753.297,572.861l-14.995,1.427l15.675-21.759l14.34-1.225
			l-14.559,21.513C753.658,572.897,753.479,572.878,753.297,572.861L753.297,572.861z M751.305,587.495l3.143,3.884
			 M760.896,599.342l3.145,3.884 M788.51,593.133l-6.369,2.521l0,0l-11.793,4.771l-1.14,0.427l-14.59-18.018l0.653-1.026
			l7.121-10.542l0,0l3.787-5.707l10.905-16.248c0,0,0,0,0.1-0.08c10.505-9.826,26.528-20.164,58.555-17.254l0,0l0,0
			c-3.813,31.932-17.255,45.456-29.05,53.688c0,0,0,0-0.099,0.081L788.51,593.133L788.51,593.133z M774.156,618.77l4.517-14.372
			c0.018-0.179,0.12-0.261,0.037-0.36l24.07-9.765l-4.181,13.769L774.156,618.77L774.156,618.77z"/>
	</g>
</g>
</svg>
