<?xml version="1.0" encoding="utf-8"?>
<!-- Generator: Adobe Illustrator 16.0.0, SVG Export Plug-In . SVG Version: 6.00 Build 0)  -->
<!DOCTYPE svg PUBLIC "-//W3C//DTD SVG 1.1//EN" "http://www.w3.org/Graphics/SVG/1.1/DTD/svg11.dtd">
<svg version="1.1" xmlns="http://www.w3.org/2000/svg" xmlns:xlink="http://www.w3.org/1999/xlink" x="0px" y="0px"
	 width="1619.797px" height="1079.865px" viewBox="0 0 1619.797 1079.865" enable-background="new 0 0 1619.797 1079.865"
	 xml:space="preserve">
<g id="Layer_1" display="none">
</g>
<g id="Layer_2">
	<g>
		<path fill="#5D92CA" d="M862.382,286.514c-6.638-0.58-12.469,4.309-13.046,10.945c-0.58,6.637,4.309,12.465,10.944,13.045
			c6.512,0.57,12.465-4.31,13.046-10.943C873.909,292.924,869.016,287.093,862.382,286.514 M860.852,303.994
			c-3.063-0.267-5.404-2.913-5.136-5.976c0.266-3.063,3.032-5.264,6.095-4.995c3.062,0.266,5.275,2.902,5.007,5.966
			C866.677,302.063,863.915,304.264,860.852,303.994"/>
		<path fill="#5D92CA" d="M874.33,351.537l1.288-3.248l8.218,14.695c0.577,0.943,1.565,1.525,2.716,1.605
			c0.126,0.008,0.252,0.019,0.508,0.035c1.288-0.039,2.499-0.853,2.826-1.856l11.56-33.093c-0.074-0.776-0.149-1.552-0.498-2.09l0,0
			L890.3,309.122c2.385-15.757,1.576-37.258-22.951-64.783c-0.595-0.685-1.47-1.002-2.365-1.063l0,0
			c-0.894-0.063-1.816,0.257-2.492,0.723c-28.119,23.846-31.909,45.023-31.74,60.959l-13.119,16.805
			c-0.426,0.611-0.598,1.24-0.524,2.016l6.842,34.38c0.173,1.168,1.271,2.016,2.541,2.231c0.126,0.01,0.254,0.02,0.509,0.037
			c1.153,0.08,2.208-0.359,2.91-1.211l10.184-13.412l0.823,3.395 M837.929,338.205l-9.183,11.939l-5.223-26.302l8.885-11.323
			l5.804,25.316C838.204,337.965,838.066,338.084,837.929,338.205L837.929,338.205z M847.273,349.645l4.984,0.35 M862.48,350.709
			l4.985,0.348 M876.771,326.278l-2.499,6.376l0,0l-4.554,11.88l-0.464,1.125l-23.127-1.618l-0.305-1.179l-2.854-12.399l0,0
			l-1.59-6.659l-4.446-19.056c0,0,0,0,0.009-0.127c-0.024-14.385,3.345-33.154,27.314-54.593l0,0l0,0
			c20.753,24.566,21.476,43.621,19.454,57.861c0,0,0,0-0.009,0.128L876.771,326.278L876.771,326.278z M885.732,354.26l-7.431-13.104
			c-0.119-0.135-0.108-0.267-0.238-0.273l9.273-24.262l7.218,12.445L885.732,354.26L885.732,354.26z"/>
	</g>
	<path fill="#5D92CA" d="M852.575,349.779l3.546,15.293l5.664-14.641 M852.575,349.779l9.209,0.652 M866.277,350.749l6.2,0.399
		l-15.182,38.188c-0.534,1.006-1.619,1.624-2.771,1.542c-1.264-0.089-2.252-0.853-2.524-1.915l-9.631-39.818l5.715,0.316
		l7.01,30.117l0,0L866.277,350.749"/>
</g>
</svg>
