<?xml version="1.0" encoding="utf-8"?>
<!-- Generator: Adobe Illustrator 16.0.0, SVG Export Plug-In . SVG Version: 6.00 Build 0)  -->
<!DOCTYPE svg PUBLIC "-//W3C//DTD SVG 1.1//EN" "http://www.w3.org/Graphics/SVG/1.1/DTD/svg11.dtd">
<svg version="1.1" xmlns="http://www.w3.org/2000/svg" xmlns:xlink="http://www.w3.org/1999/xlink" x="0px" y="0px"
	 width="1619.797px" height="1079.865px" viewBox="0 0 1619.797 1079.865" enable-background="new 0 0 1619.797 1079.865"
	 xml:space="preserve">
<g id="Layer_1" display="none">
</g>
<g id="Layer_2">
	<g>
		<path fill="#5D92CA" d="M855.803,12.039l0.1-3.492l12.749,11c0.864,0.688,1.992,0.896,3.102,0.579
			c0.121-0.036,0.243-0.069,0.49-0.142c1.196-0.477,2.056-1.656,2.021-2.711l-0.456-35.051c-0.335-0.704-0.671-1.407-1.182-1.794
			l0,0l-16.322-13.708c-3.148-15.622-11.262-35.55-43.724-53.026c-0.792-0.439-1.724-0.438-2.586-0.19l0,0
			c-0.86,0.246-1.619,0.862-2.094,1.531c-18.268,32.024-14.586,53.222-8.978,68.139l-6.58,20.277
			c-0.192,0.721-0.139,1.37,0.197,2.074l18.187,29.967c0.563,1.037,1.883,1.459,3.151,1.228c0.122-0.034,0.246-0.069,0.491-0.14
			c1.11-0.318,1.952-1.094,2.321-2.133l4.983-16.087l1.934,2.909 M817.038,11.962l-4.545,14.36l-13.904-22.93l4.476-13.68
			l14.112,21.805C817.215,11.643,817.125,11.801,817.038,11.962L817.038,11.962z M829.73,19.516l4.804-1.377 M844.385,15.314
			l4.804-1.378 M849.457-12.529l-0.167,6.846l0,0l-0.216,12.721l-0.051,1.216l-22.286,6.39l-0.689-1.004l-6.923-10.674l0,0
			l-3.772-5.715l-10.695-16.386c0,0,0,0-0.034-0.123c-4.943-13.509-8.196-32.298,6.995-60.642l0,0l0,0
			c27.904,15.986,35.1,33.645,38.071,47.718c0,0,0,0,0.034,0.124L849.457-12.529L849.457-12.529z M867.449,10.698l-11.465-9.772
			c-0.158-0.086-0.193-0.213-0.318-0.175l0.417-25.97l11.04,9.225L867.449,10.698L867.449,10.698z"/>
	</g>
	<path fill="#5D92CA" d="M834.5,17.955l9.469,14.648l0.405-17.438 M834.5,17.955l9.874-2.789 M849.188,13.807l6.632-1.918
		l-1.486,45.637c-0.18,1.254-1.08,2.307-2.316,2.656c-1.355,0.383-2.676-0.045-3.359-1.053l-25.064-37.995l6.094-1.821l18.67,28.842
		l0,0L849.188,13.807"/>
</g>
</svg>
