<?xml version="1.0" encoding="utf-8"?>
<!-- Generator: Adobe Illustrator 16.0.0, SVG Export Plug-In . SVG Version: 6.00 Build 0)  -->
<!DOCTYPE svg PUBLIC "-//W3C//DTD SVG 1.1//EN" "http://www.w3.org/Graphics/SVG/1.1/DTD/svg11.dtd">
<svg version="1.1" xmlns="http://www.w3.org/2000/svg" xmlns:xlink="http://www.w3.org/1999/xlink" x="0px" y="0px"
	 width="1619.797px" height="1079.865px" viewBox="0 0 1619.797 1079.865" enable-background="new 0 0 1619.797 1079.865"
	 xml:space="preserve">
<g id="Layer_1" display="none">
</g>
<g id="Layer_2">
	<g>
		<path fill="#5D92CA" d="M825.449,511.779c-10.782-7.831-25.813-5.455-33.64,5.327c-7.83,10.779-5.452,25.806,5.327,33.636
			c10.573,7.685,25.807,5.451,33.638-5.324C838.607,534.64,836.226,519.605,825.449,511.779 M804.821,540.17
			c-4.978-3.613-6.264-10.561-2.649-15.535c3.611-4.978,10.619-5.901,15.593-2.285c4.975,3.609,6.055,10.409,2.44,15.385
			C816.796,542.859,809.795,543.786,804.821,540.17"/>
		<path fill="#5D92CA" d="M778.952,635.557l5.554-4.24l-1.05,33.659c0.02,2.21,1.113,4.226,3.003,5.551
			c0.209,0.142,0.414,0.289,0.838,0.582c2.246,1.261,5.16,1.114,6.755-0.271l53.907-44.823c0.674-1.407,1.342-2.813,1.3-4.096l0,0
			l0.764-42.625c20.319-24.556,41.08-62.248,27.388-134.7c-0.316-1.787-1.489-3.233-2.96-4.263l0,0
			c-1.466-1.025-3.379-1.428-5.017-1.324c-72.767,11.912-101.082,44.316-117.209,71.808l-39.798,15.295
			c-1.361,0.607-2.304,1.51-2.976,2.918l-23.686,65.983c-0.904,2.183,0.104,4.765,2.057,6.446c0.207,0.146,0.418,0.294,0.838,0.585
			c1.893,1.325,4.154,1.658,6.234,0.923l31.274-12.501l-2.086,6.667 M730.282,575.209l-28.042,11.01l18.141-50.473l26.894-10.259
			l-16.127,49.383C731,575.08,730.642,575.143,730.282,575.209L730.282,575.209z M734.519,604.441l8.184,5.735 M759.49,621.931
			l8.189,5.732 M809.156,594.771l-10.855,8.358l0,0l-20.042,15.673l-1.955,1.449l-37.981-26.596l0.691-2.334l7.878-24.196l0,0
			l4.135-13.058l12.007-37.249c0,0,0,0,0.147-0.208c14.776-24.684,39.887-53.39,103.061-65.451l0,0l0,0
			c10.272,63.491-8.114,96.9-26.251,119.23c0,0,0,0-0.147,0.212L809.156,594.771L809.156,594.771z M795.694,651.971l0.759-30.12
			c-0.064-0.353,0.088-0.567-0.127-0.714l40.892-32.042l-0.446,28.775L795.694,651.971L795.694,651.971z"/>
	</g>
	<g>
		<path fill="#5D92CA" d="M759.09,613.38l-13.636,10.782l5.097-16.3l-4.179-2.7l-7.518,24.795c-0.27,0.937,0.142,1.968,1.07,2.605
			c0.847,0.583,1.956,0.598,2.817,0.068l20.946-16.28L759.09,613.38z"/>
		<polygon fill="#5D92CA" points="753.877,610.011 752.78,613.511 755.705,611.192 		"/>
	</g>
</g>
</svg>
