<?xml version="1.0" encoding="utf-8"?>
<!-- Generator: Adobe Illustrator 16.0.0, SVG Export Plug-In . SVG Version: 6.00 Build 0)  -->
<!DOCTYPE svg PUBLIC "-//W3C//DTD SVG 1.1//EN" "http://www.w3.org/Graphics/SVG/1.1/DTD/svg11.dtd">
<svg version="1.1" xmlns="http://www.w3.org/2000/svg" xmlns:xlink="http://www.w3.org/1999/xlink" x="0px" y="0px"
	 width="1619.797px" height="1079.865px" viewBox="0 0 1619.797 1079.865" enable-background="new 0 0 1619.797 1079.865"
	 xml:space="preserve">
<g id="Layer_1" display="none">
</g>
<g id="Layer_2">
	<g>
		<path fill="#5D92CA" d="M857.375-45.874l-0.289-6.981l26.97,20.165c1.821,1.253,4.101,1.513,6.27,0.724
			c0.236-0.089,0.476-0.172,0.957-0.352c2.32-1.117,3.871-3.589,3.653-5.689l-5.799-69.868c-0.768-1.357-1.535-2.713-2.609-3.414
			l0,0l-34.477-25.071c-8.46-30.729-27.428-69.355-94.633-99.694c-1.643-0.767-3.5-0.636-5.187-0.021l0,0
			c-1.683,0.611-3.11,1.948-3.964,3.349c-31.979,66.441-21.676,108.219-8.405,137.197l-10.299,41.376
			c-0.283,1.463-0.085,2.752,0.684,4.109l40.466,57.249c1.268,1.992,3.961,2.649,6.459,2.011c0.238-0.085,0.481-0.172,0.961-0.349
			c2.171-0.79,3.741-2.453,4.332-4.578l7.697-32.791l4.265,5.534 M780.022-40.622l-7.064,29.285L742.02-55.145l7.022-27.916
			l31.198,41.534C780.33-41.284,780.174-40.955,780.022-40.622L780.022-40.622z M806.4-27.322l9.391-3.416 M835.051-37.747
			l9.392-3.42 M841.286-94.009l0.621,13.684l0,0l1.344,25.408l0.067,2.434l-43.572,15.857l-1.516-1.906l-15.302-20.332l0,0
			l-8.322-10.874l-23.625-31.2c0,0,0,0-0.086-0.24c-11.746-26.262-20.858-63.296,5.496-121.965l0,0l0,0
			c57.901,28.003,74.723,62.23,82.613,89.893c0,0,0,0,0.087,0.242L841.286-94.009L841.286-94.009z M880.422-50.176l-24.235-17.897
			c-0.327-0.149-0.417-0.397-0.66-0.305l-2.793-51.872l23.313,16.866L880.422-50.176L880.422-50.176z"/>
	</g>
	<path fill="#5D92CA" d="M815.383-31.435l21.318,27.615l-2.109-34.822 M815.383-31.435l19.209-7.207 M843.963-42.156l12.896-4.932
		l4.671,91.205c-0.148,2.524-1.768,4.776-4.172,5.677c-2.638,0.99-5.342,0.362-6.872-1.533l-56.31-71.533l11.842-4.652l42.031,54.36
		l0,0L843.963-42.156"/>
</g>
</svg>
