<?xml version="1.0" encoding="utf-8"?>
<!-- Generator: Adobe Illustrator 16.0.0, SVG Export Plug-In . SVG Version: 6.00 Build 0)  -->
<!DOCTYPE svg PUBLIC "-//W3C//DTD SVG 1.1//EN" "http://www.w3.org/Graphics/SVG/1.1/DTD/svg11.dtd">
<svg version="1.1" xmlns="http://www.w3.org/2000/svg" xmlns:xlink="http://www.w3.org/1999/xlink" x="0px" y="0px"
	 width="1619.797px" height="1079.865px" viewBox="0 0 1619.797 1079.865" enable-background="new 0 0 1619.797 1079.865"
	 xml:space="preserve">
<g id="Layer_1" display="none">
</g>
<g id="Layer_2">
	<g>
		<path fill="#5D92CA" d="M838,16.9c-13.125,2.316-21.856,14.779-19.536,27.899c2.314,13.12,14.776,21.848,27.896,19.535
			c12.873-2.269,21.85-14.778,19.537-27.896C863.586,23.317,851.115,14.586,838,16.9 M844.094,51.464
			c-6.057,1.069-11.949-2.831-13.016-8.887c-1.072-6.056,3.133-11.737,9.188-12.804c6.053-1.072,11.695,2.876,12.764,8.932
			C854.347,44.718,850.148,50.398,844.094,51.464"/>
		<path fill="#5D92CA" d="M894.739,136.331l0.808-6.94l23.482,24.137c1.603,1.521,3.813,2.135,6.079,1.695
			c0.248-0.052,0.496-0.096,1.001-0.197c2.467-0.741,4.385-2.939,4.498-5.049l5.202-69.915c-0.545-1.46-1.093-2.919-2.044-3.779l0,0
			l-30.129-30.156c-3.549-31.675-16.241-72.793-77.872-113.271c-1.503-1.014-3.358-1.175-5.12-0.831l0,0
			c-1.757,0.34-3.376,1.438-4.438,2.688c-41.979,60.62-38.338,103.495-29.765,134.193l-16.644,39.255
			c-0.508,1.4-0.515,2.704,0.032,4.165l31.012,62.875c0.94,2.166,3.498,3.236,6.064,2.996c0.248-0.046,0.502-0.094,1.003-0.193
			c2.269-0.441,4.08-1.838,4.996-3.844l12.732-31.184l3.346,6.133 M817.519,129.419l-11.56,27.819l-23.704-48.108l11.303-26.474
			l24.316,45.903C817.926,128.813,817.72,129.113,817.519,129.419L817.519,129.419z M841.49,146.681l9.811-1.904 M871.418,140.866
			l9.813-1.909 M886.379,86.272l-1.526,13.612l0,0l-2.648,25.307l-0.313,2.413l-45.518,8.846l-1.198-2.119l-11.933-22.476l0,0
			l-6.519-12.042L798.27,65.302c0,0,0,0-0.047-0.251c-7.493-27.775-10.7-65.779,24.509-119.604l0,0l0,0
			c52.808,36.717,64.067,73.153,67.533,101.71c0,0,0,0,0.048,0.253L886.379,86.272L886.379,86.272z M918.177,135.688l-21.139-21.468
			c-0.3-0.199-0.349-0.459-0.604-0.404l5.357-51.671l20.388,20.306L918.177,135.688L918.177,135.688z"/>
	</g>
	<path fill="#5D92CA" d="M851.191,144.412l16.242,30.872l3.924-34.664 M851.191,144.412l20.166-3.792 M881.191,138.773l13.553-2.639
		l-11.109,90.645c-0.579,2.465-2.564,4.403-5.088,4.879c-2.768,0.521-5.323-0.567-6.507-2.697l-43.143-80.16l12.464-2.541
		l32.043,60.785l0,0L881.191,138.773"/>
</g>
</svg>
