<?xml version="1.0" encoding="utf-8"?>
<!-- Generator: Adobe Illustrator 16.0.0, SVG Export Plug-In . SVG Version: 6.00 Build 0)  -->
<!DOCTYPE svg PUBLIC "-//W3C//DTD SVG 1.1//EN" "http://www.w3.org/Graphics/SVG/1.1/DTD/svg11.dtd">
<svg version="1.1" xmlns="http://www.w3.org/2000/svg" xmlns:xlink="http://www.w3.org/1999/xlink" x="0px" y="0px"
	 width="1619.797px" height="1079.865px" viewBox="0 0 1619.797 1079.865" enable-background="new 0 0 1619.797 1079.865"
	 xml:space="preserve">
<g id="Layer_1" display="none">
</g>
<g id="Layer_2">
	<g>
		<path fill="#5D92CA" d="M831.878,451.533c-6.178-2.495-13.184,0.477-15.676,6.653c-2.495,6.177,0.477,13.179,6.652,15.674
			c6.06,2.449,13.181-0.477,15.676-6.652C841.027,461.033,838.053,454.026,831.878,451.533 M825.304,467.802
			c-2.852-1.151-4.316-4.366-3.165-7.216c1.15-2.852,4.438-4.147,7.289-2.995c2.851,1.149,4.196,4.317,3.045,7.169
			C831.439,467.659,828.155,468.955,825.304,467.802"/>
		<path fill="#5D92CA" d="M824.293,517.208l2.182-2.729l3.562,16.457c0.276,1.07,1.051,1.915,2.129,2.33
			c0.118,0.043,0.235,0.09,0.477,0.181c1.242,0.339,2.638-0.084,3.244-0.949l20.731-28.266c0.156-0.764,0.311-1.528,0.135-2.144l0,0
			l-4.785-20.772c6.888-14.371,12.4-35.168-3.007-68.662c-0.37-0.829-1.114-1.388-1.952-1.709l0,0
			c-0.835-0.32-1.812-0.284-2.594-0.036c-33.861,14.581-43.678,33.726-48.177,49.014l-17.458,12.234
			c-0.587,0.46-0.935,1.012-1.091,1.775l-3.51,34.877c-0.175,1.168,0.627,2.299,1.778,2.879c0.118,0.045,0.239,0.092,0.477,0.183
			c1.078,0.414,2.216,0.302,3.137-0.307l13.66-9.848l-0.205,3.487 M793.381,493.817l-12.272,8.733l2.695-26.681l11.807-8.231
			l-1.851,25.909C793.713,493.668,793.547,493.742,793.381,493.817L793.381,493.817z M798.972,507.487l4.665,1.792 M813.203,512.951
			l4.667,1.791 M834.012,493.768l-4.255,5.368l0,0l-7.828,10.028l-0.773,0.94l-21.644-8.309l0.054-1.216l0.895-12.691l0,0
			l0.427-6.835l1.319-19.523c0,0,0,0,0.047-0.119c4.183-13.763,12.892-30.727,42.082-44.22l0,0l0,0
			c12.664,29.56,7.784,47.993,1.687,61.02c0,0,0,0-0.046,0.12L834.012,493.768L834.012,493.768z M834.4,523.146l-3.274-14.704
			c-0.074-0.164-0.026-0.286-0.148-0.331l15.962-20.491l3.265,14.014L834.4,523.146L834.4,523.146z"/>
	</g>
	<path fill="#5D92CA" d="M807.611,506.414l-0.544,6.956l4.36-5.446 M807.611,506.414l3.816,1.51 M813.289,508.659l2.574,1
		l-11.548,14.151c-0.361,0.354-0.903,0.471-1.381,0.281c-0.523-0.206-0.84-0.663-0.813-1.149l1.25-18.164l2.38,0.899l-1.062,13.702
		l0,0L813.289,508.659"/>
</g>
</svg>
