<?xml version="1.0" encoding="utf-8"?>
<!-- Generator: Adobe Illustrator 16.0.0, SVG Export Plug-In . SVG Version: 6.00 Build 0)  -->
<!DOCTYPE svg PUBLIC "-//W3C//DTD SVG 1.1//EN" "http://www.w3.org/Graphics/SVG/1.1/DTD/svg11.dtd">
<svg version="1.1" xmlns="http://www.w3.org/2000/svg" xmlns:xlink="http://www.w3.org/1999/xlink" x="0px" y="0px"
	 width="1619.797px" height="1079.865px" viewBox="0 0 1619.797 1079.865" enable-background="new 0 0 1619.797 1079.865"
	 xml:space="preserve">
<g id="Layer_1" display="none">
</g>
<g id="Layer_2">
	<g>
		<path fill="#5D92CA" d="M855.273,385.855c-12.745-3.894-26.185,3.247-30.074,15.988c-3.893,12.741,3.248,26.174,15.986,30.07
			c12.5,3.823,26.178-3.248,30.073-15.986C875.156,403.188,868.01,389.747,855.273,385.855 M845.011,419.416
			c-5.883-1.795-9.36-7.946-7.563-13.825c1.795-5.883,8.121-9.037,14-7.237c5.88,1.792,9.114,7.871,7.317,13.752
			C857.21,418.06,850.891,421.216,845.011,419.416"/>
		<path fill="#5D92CA" d="M851.608,518.027l3.87-5.818l9.966,32.168c0.737,2.083,2.428,3.632,4.646,4.27
			c0.243,0.066,0.485,0.139,0.981,0.278c2.534,0.46,5.242-0.627,6.299-2.456l36.377-59.931c0.178-1.55,0.354-3.098-0.105-4.296l0,0
			l-13.154-40.551c11.218-29.833,18.576-72.23-17.96-136.277c-0.88-1.586-2.46-2.572-4.186-3.066l0,0
			c-1.72-0.492-3.661-0.25-5.175,0.381c-64.924,34.953-81.145,74.809-87.443,106.053l-32.65,27.419
			c-1.09,1.019-1.687,2.178-1.863,3.728l-0.913,70.1c-0.146,2.358,1.649,4.472,4.044,5.425c0.242,0.07,0.49,0.143,0.982,0.281
			c2.221,0.637,4.469,0.215,6.195-1.158l25.5-22.002l0.199,6.983 M785.941,476.813l-22.929,19.539l0.72-53.629l22.088-18.457
			l0.829,51.943C786.579,476.457,786.261,476.633,785.941,476.813L785.941,476.813z M799.465,503.073l9.604,2.758 M828.77,511.479
			l9.61,2.754 M866.885,469.631l-7.54,11.436l0,0l-13.847,21.344l-1.377,2.007l-44.572-12.782l-0.104-2.432l-0.429-25.442l0,0
			l-0.342-13.692l-0.775-39.128c0,0,0,0,0.072-0.246c5.936-28.149,20.33-63.466,76.136-95.438l0,0l0,0
			c30.385,56.688,23.876,94.264,13.997,121.282c0,0,0,0-0.07,0.248L866.885,469.631L866.885,469.631z M872.782,528.096
			l-9.089-28.726c-0.177-0.313-0.102-0.565-0.353-0.634l28.23-43.608l8.946,27.352L872.782,528.096L872.782,528.096z"/>
	</g>
	<path fill="#5D92CA" d="M811.553,505.798l0.416,24.416l13.381-20.425 M811.553,505.798l13.797,3.99 M832.08,511.735l9.303,2.626
		l-35.531,53.145c-1.138,1.354-2.99,1.942-4.717,1.441c-1.893-0.547-3.148-2.031-3.215-3.735l-1.684-63.703l8.592,2.344
		l0.854,48.092l0,0L832.08,511.735"/>
</g>
</svg>
