<?xml version="1.0" encoding="utf-8"?>
<!-- Generator: Adobe Illustrator 16.0.0, SVG Export Plug-In . SVG Version: 6.00 Build 0)  -->
<!DOCTYPE svg PUBLIC "-//W3C//DTD SVG 1.1//EN" "http://www.w3.org/Graphics/SVG/1.1/DTD/svg11.dtd">
<svg version="1.1" xmlns="http://www.w3.org/2000/svg" xmlns:xlink="http://www.w3.org/1999/xlink" x="0px" y="0px"
	 width="1619.797px" height="1079.865px" viewBox="0 0 1619.797 1079.865" enable-background="new 0 0 1619.797 1079.865"
	 xml:space="preserve">
<g id="Layer_1" display="none">
</g>
<g id="Layer_2">
	<g>
		<path fill="#5D92CA" d="M863.243-24.997l-0.166-6.984l26.613,20.633c1.799,1.284,4.073,1.584,6.256,0.833
			c0.237-0.085,0.478-0.164,0.963-0.335c2.34-1.077,3.934-3.521,3.752-5.625l-4.579-69.959c-0.742-1.37-1.487-2.739-2.549-3.459l0,0
			L859.5-115.563c-7.923-30.872-26.214-69.824-92.879-101.331c-1.63-0.795-3.488-0.696-5.186-0.11l0,0
			c-1.692,0.581-3.144,1.894-4.021,3.278c-33.134,65.873-23.561,107.824-10.799,137.03l-11.02,41.189
			c-0.308,1.458-0.133,2.75,0.612,4.12l39.461,57.947c1.232,2.014,3.914,2.718,6.422,2.123c0.24-0.08,0.484-0.163,0.967-0.332
			c2.185-0.752,3.784-2.387,4.412-4.502l8.269-32.651l4.167,5.608 M785.812-21.095l-7.574,29.158l-30.17-44.342l7.509-27.789
			l30.469,42.072C786.131-21.752,785.969-21.425,785.812-21.095L785.812-21.095z M811.953-7.337l9.449-3.252 M840.781-17.261
			l9.45-3.255 M847.998-73.404l0.382,13.692l0,0l0.9,25.428l0.024,2.434l-43.843,15.095l-1.482-1.932l-14.944-20.596l0,0
			l-8.131-11.019l-23.077-31.606c0,0,0,0-0.082-0.242c-11.285-26.463-19.75-63.65,7.625-121.851l0,0l0,0
			c57.403,29.01,73.625,63.524,81.031,91.32c0,0,0,0,0.082,0.244L847.998-73.404L847.998-73.404z M886.362-28.895l-23.92-18.317
			c-0.324-0.155-0.409-0.406-0.654-0.316l-1.887-51.913l23.016,17.271L886.362-28.895L886.362-28.895z"/>
	</g>
	<path fill="#5D92CA" d="M821.089-11.29l20.091,28.521l-0.584-34.881 M821.089-11.29l19.507-6.359 M850.11-20.751l13.1-4.363
		l0.677,91.322c-0.257,2.516-1.974,4.694-4.415,5.488c-2.679,0.875-5.353,0.129-6.799-1.832L799.546-4.063l12.033-4.13
		l39.615,56.146l0,0L850.11-20.751"/>
</g>
</svg>
