<?xml version="1.0" encoding="utf-8"?>
<!-- Generator: Adobe Illustrator 16.0.0, SVG Export Plug-In . SVG Version: 6.00 Build 0)  -->
<!DOCTYPE svg PUBLIC "-//W3C//DTD SVG 1.1//EN" "http://www.w3.org/Graphics/SVG/1.1/DTD/svg11.dtd">
<svg version="1.1" xmlns="http://www.w3.org/2000/svg" xmlns:xlink="http://www.w3.org/1999/xlink" x="0px" y="0px"
	 width="1619.797px" height="1079.865px" viewBox="0 0 1619.797 1079.865" enable-background="new 0 0 1619.797 1079.865"
	 xml:space="preserve">
<g id="Layer_1" display="none">
</g>
<g id="Layer_2">
	<g>
		<path fill="#5D92CA" d="M836.727,473.689c-11.768-6.254-26.322-1.809-32.572,9.957c-6.253,11.764-1.807,26.313,9.956,32.567
			c11.541,6.138,26.315,1.806,32.571-9.954C852.938,494.497,848.487,479.94,836.727,473.689 M820.249,504.675
			c-5.432-2.885-7.672-9.586-4.785-15.014c2.884-5.433,9.695-7.322,15.124-4.433c5.429,2.881,7.443,9.465,4.558,14.895
			C832.482,505.672,825.678,507.564,820.249,504.675"/>
		<path fill="#5D92CA" d="M807.909,602.734l4.909-4.972l3.645,33.478c0.326,2.185,1.69,4.029,3.746,5.078
			c0.227,0.111,0.45,0.229,0.91,0.46c2.4,0.936,5.266,0.385,6.652-1.208l47.145-51.889c0.471-1.487,0.938-2.973,0.717-4.236l0,0
			l-5.176-42.316c16.704-27.144,32.017-67.358,8.373-137.2c-0.562-1.725-1.925-2.994-3.523-3.809l0,0
			c-1.595-0.812-3.545-0.944-5.153-0.613c-70.4,21.923-93.929,57.952-106.073,87.42l-37.281,20.685
			c-1.265,0.792-2.071,1.816-2.54,3.304l-14.272,68.638c-0.593,2.287,0.765,4.704,2.934,6.098c0.225,0.114,0.455,0.233,0.911,0.462
			c2.058,1.049,4.345,1.064,6.303,0.046l29.229-16.732l-1.138,6.893 M751.313,549.747l-26.236,14.805l10.939-52.507l25.203-13.902
			l-9.098,51.146C752.006,549.519,751.66,549.63,751.313,549.747L751.313,549.747z M759.577,578.104l8.901,4.54 M786.739,591.948
			l8.908,4.538 M832.142,558.142l-9.586,9.787l0,0l-17.666,18.31l-1.734,1.708l-41.313-21.052l0.359-2.407l4.434-25.056l0,0
			l2.277-13.506l6.706-38.557c0,0,0,0,0.117-0.227c11.197-26.5,32.067-58.421,92.948-79.158l0,0l0,0
			c19.01,61.444,5.451,97.087-9.401,121.725c0,0,0,0-0.116,0.229L832.142,558.142L832.142,558.142z M826.772,616.657l-3.44-29.932
			c-0.113-0.341,0.008-0.575-0.226-0.689l36.034-37.421l3.563,28.557L826.772,616.657L826.772,616.657z"/>
	</g>
	<g>
		<polygon fill="#5D92CA" points="778.728,580.995 777.711,586.57 781.714,582.503 		"/>
		<path fill="#5D92CA" d="M785.291,584.311l-13.54,13.73l3.424-18.843l-4.48-2.264l-4.78,27.669
			c-0.151,0.963,0.383,1.936,1.385,2.455c0.911,0.475,2.014,0.353,2.804-0.278l20.061-20.006L785.291,584.311z"/>
	</g>
</g>
</svg>
