<?xml version="1.0" encoding="utf-8"?>
<!-- Generator: Adobe Illustrator 16.0.0, SVG Export Plug-In . SVG Version: 6.00 Build 0)  -->
<!DOCTYPE svg PUBLIC "-//W3C//DTD SVG 1.1//EN" "http://www.w3.org/Graphics/SVG/1.1/DTD/svg11.dtd">
<svg version="1.1" xmlns="http://www.w3.org/2000/svg" xmlns:xlink="http://www.w3.org/1999/xlink" x="0px" y="0px"
	 width="1619.797px" height="1079.865px" viewBox="0 0 1619.797 1079.865" enable-background="new 0 0 1619.797 1079.865"
	 xml:space="preserve">
<g id="Layer_1" display="none">
</g>
<g id="Layer_2">
	<g>
		<path fill="#5D92CA" d="M801.653,542.308c-5.179-4.193-12.747-3.399-16.937,1.778c-4.192,5.178-3.397,12.743,1.78,16.935
			c5.078,4.114,12.743,3.397,16.935-1.778C807.625,554.066,806.829,546.497,801.653,542.308 M790.61,555.943
			c-2.39-1.935-2.851-5.438-0.917-7.826c1.934-2.392,5.457-2.668,7.846-0.732c2.39,1.932,2.751,5.355,0.816,7.746
			C796.52,557.6,792.999,557.879,790.61,555.943"/>
		<path fill="#5D92CA" d="M775.198,602.895l2.884-1.972l-1.406,16.779c-0.048,1.104,0.445,2.139,1.354,2.85
			c0.101,0.076,0.199,0.155,0.403,0.313c1.089,0.688,2.547,0.691,3.38,0.041l28.09-20.97c0.373-0.685,0.744-1.37,0.756-2.011l0,0
			l1.497-21.264c10.789-11.729,22.141-30.006,17.2-66.541c-0.111-0.9-0.659-1.652-1.366-2.205l0,0
			c-0.706-0.551-1.65-0.802-2.471-0.793c-36.646,4.044-51.632,19.482-60.403,32.787l-20.271,6.596
			c-0.696,0.269-1.19,0.694-1.562,1.379l-13.554,32.327c-0.509,1.066-0.073,2.382,0.858,3.272c0.1,0.078,0.202,0.158,0.403,0.314
			c0.91,0.711,2.031,0.937,3.089,0.624l15.943-5.424l-1.217,3.274 M752.475,571.488l-14.29,4.764l10.379-24.728l13.696-4.419
			l-9.345,24.235C752.836,571.442,752.656,571.464,752.475,571.488L752.475,571.488z M753.825,586.195l3.936,3.077 M765.837,595.581
			l3.938,3.077 M791.346,583.32l-5.639,3.889l0,0l-10.417,7.302l-1.015,0.673l-18.269-14.274l0.406-1.146l4.566-11.875l0,0
			l2.406-6.412l6.97-18.284c0,0,0,0,0.079-0.101c8.024-11.938,21.313-25.614,53.173-29.984l0,0l0,0
			c3.468,31.972-6.587,48.172-16.228,58.848c0,0,0,0-0.079,0.102L791.346,583.32L791.346,583.32z M783.127,611.528l1.167-15.02
			c-0.023-0.178,0.059-0.281-0.044-0.359l21.256-14.93l-0.976,14.356L783.127,611.528L783.127,611.528z"/>
	</g>
	<g>
		<polygon fill="#5D92CA" points="763.358,590.296 763.275,590.521 763.469,590.383 		"/>
		<path fill="#5D92CA" d="M765.038,591.604l-5.685,4.056l2.425-6.593l-1.976-1.538l-3.888,10.861
			c-0.158,0.462,0.022,0.987,0.47,1.328c0.409,0.313,0.962,0.347,1.405,0.104l9.37-6.566L765.038,591.604z"/>
	</g>
</g>
</svg>
