<?xml version="1.0" encoding="utf-8"?>
<!-- Generator: Adobe Illustrator 16.0.0, SVG Export Plug-In . SVG Version: 6.00 Build 0)  -->
<!DOCTYPE svg PUBLIC "-//W3C//DTD SVG 1.1//EN" "http://www.w3.org/Graphics/SVG/1.1/DTD/svg11.dtd">
<svg version="1.1" xmlns="http://www.w3.org/2000/svg" xmlns:xlink="http://www.w3.org/1999/xlink" x="0px" y="0px"
	 width="1619.797px" height="1079.866px" viewBox="0 0 1619.797 1079.866" enable-background="new 0 0 1619.797 1079.866"
	 xml:space="preserve">
<g id="Layer_1" display="none">
</g>
<g id="Layer_2">
	<g>
		<path fill="#5D92CA" d="M865.316,269.152c-13.255-1.391-25.083,8.183-26.47,21.434c-1.391,13.25,8.182,25.074,21.431,26.468
			c13,1.368,25.075-8.184,26.47-21.43C888.142,282.373,878.562,270.542,865.316,269.152 M861.646,304.056
			c-6.116-0.641-10.703-6.015-10.061-12.13c0.639-6.117,6.246-10.42,12.361-9.775c6.113,0.637,10.447,5.988,9.806,12.103
			C873.362,300.397,867.761,304.701,861.646,304.056"/>
		<path fill="#5D92CA" d="M886.938,399.596l2.689-6.449l15.92,29.674c1.121,1.904,3.076,3.104,5.376,3.305
			c0.252,0.02,0.503,0.045,1.015,0.087c2.577-0.032,5.025-1.617,5.717-3.612l24.272-65.773c-0.122-1.555-0.245-3.107-0.923-4.196
			l0,0l-20.65-37.293c5.318-31.426,4.451-74.449-43.633-130.347c-1.165-1.389-2.905-2.055-4.692-2.211l0,0
			c-1.784-0.157-3.642,0.452-5.009,1.361c-57.061,46.7-65.379,88.918-65.6,120.79l-26.818,33.146
			c-0.875,1.207-1.24,2.458-1.118,4.013l12.479,68.987c0.307,2.342,2.471,4.076,5.005,4.553c0.252,0.022,0.509,0.048,1.018,0.09
			c2.302,0.2,4.428-0.643,5.861-2.319l20.833-26.465l1.527,6.818 M814.613,371.666l-18.778,23.556l-9.526-52.779l18.161-22.333
			l10.724,50.827C815.172,371.196,814.893,371.428,814.613,371.666L814.613,371.666z M832.899,394.867l9.955,0.873 M863.271,397.527
			l9.958,0.869 M892.7,349.172l-5.22,12.664l0,0l-9.521,23.597l-0.967,2.233l-46.192-4.042l-0.568-2.368l-5.276-24.894l0,0
			l-2.947-13.373l-8.225-38.261c0,0,0,0,0.023-0.255c0.453-28.765,7.846-66.181,56.525-108.214l0,0l0,0
			c40.644,49.85,41.424,87.978,36.883,116.384c0,0,0,0-0.022,0.257L892.7,349.172L892.7,349.172z M909.644,405.438l-14.4-26.463
			c-0.234-0.273-0.209-0.537-0.469-0.555l19.391-48.193l14.001,25.139L909.644,405.438L909.644,405.438z"/>
	</g>
	<path fill="#5D92CA" d="M842.87,395.105l6.893,34.2l13.523-32.156 M842.87,395.105l20.416,2.043 M873.243,398.146l13.75,1.285
		l-36.186,83.849c-1.25,2.2-3.701,3.502-6.255,3.247c-2.804-0.28-4.948-2.042-5.483-4.419l-18.826-89.067l12.674,1.071l13.629,67.35
		l0,0L873.243,398.146"/>
</g>
</svg>
