<?xml version="1.0" encoding="utf-8"?>
<!-- Generator: Adobe Illustrator 16.0.0, SVG Export Plug-In . SVG Version: 6.00 Build 0)  -->
<!DOCTYPE svg PUBLIC "-//W3C//DTD SVG 1.1//EN" "http://www.w3.org/Graphics/SVG/1.1/DTD/svg11.dtd">
<svg version="1.1" xmlns="http://www.w3.org/2000/svg" xmlns:xlink="http://www.w3.org/1999/xlink" x="0px" y="0px"
	 width="1619.797px" height="1079.865px" viewBox="0 0 1619.797 1079.865" enable-background="new 0 0 1619.797 1079.865"
	 xml:space="preserve">
<g id="Layer_1" display="none">
</g>
<g id="Layer_2">
	<g>
		<path fill="#5D92CA" d="M865.495,255.95c-13.276-1.159-24.937,8.619-26.092,21.893c-1.159,13.272,8.618,24.928,21.888,26.09
			c13.023,1.141,24.93-8.62,26.092-21.889C888.547,268.771,878.762,257.109,865.495,255.95 M862.434,290.913
			c-6.127-0.534-10.808-5.827-10.271-11.952c0.532-6.127,6.063-10.527,12.189-9.989c6.123,0.53,10.551,5.805,10.015,11.931
			C874.085,287.051,868.56,291.451,862.434,290.913"/>
		<path fill="#5D92CA" d="M889.39,385.997l2.576-6.495l16.436,29.392c1.154,1.885,3.13,3.05,5.433,3.211
			c0.251,0.015,0.503,0.036,1.017,0.068c2.576-0.077,4.997-1.704,5.652-3.712l23.121-66.187c-0.148-1.552-0.298-3.103-0.996-4.18
			l0,0l-21.297-36.927c4.769-31.514,3.152-74.516-45.902-129.566c-1.189-1.368-2.94-2.004-4.73-2.128l0,0
			c-1.787-0.126-3.633,0.515-4.984,1.447c-56.238,47.689-63.818,90.046-63.481,121.917l-26.237,33.609
			c-0.853,1.222-1.197,2.479-1.048,4.032l13.683,68.759c0.347,2.336,2.541,4.031,5.082,4.464c0.252,0.02,0.509,0.039,1.019,0.072
			c2.305,0.161,4.416-0.719,5.82-2.42l20.368-26.825l1.646,6.79 M816.588,359.334l-18.365,23.88l-10.446-52.604l17.77-22.646
			l11.608,50.633C817.139,358.854,816.863,359.091,816.588,359.334L816.588,359.334z M835.277,382.212l9.968,0.699 M865.69,384.342
			l9.971,0.695 M894.271,335.48l-4.998,12.753l0,0l-9.108,23.759l-0.929,2.25l-46.254-3.236l-0.61-2.357l-5.708-24.798l0,0
			l-3.181-13.319l-8.892-38.111c0,0,0,0,0.019-0.255c-0.049-28.769,6.689-66.308,54.628-109.185l0,0l0,0
			c41.507,49.133,42.952,87.242,38.907,115.723c0,0,0,0-0.018,0.257L894.271,335.48L894.271,335.48z M912.194,391.442
			l-14.862-26.208c-0.238-0.27-0.217-0.533-0.477-0.547l18.547-48.523l14.437,24.891L912.194,391.442L912.194,391.442z"/>
	</g>
	<path fill="#5D92CA" d="M845.88,382.482l7.092,30.585l11.327-29.279 M845.88,382.482l18.419,1.306 M873.284,384.422l12.4,0.798
		l-30.364,76.377c-1.067,2.011-3.237,3.247-5.542,3.083c-2.528-0.178-4.504-1.706-5.048-3.831l-19.262-79.636l11.43,0.634
		l14.02,60.234l0,0L873.284,384.422"/>
</g>
</svg>
