<?xml version="1.0" encoding="utf-8"?>
<!-- Generator: Adobe Illustrator 16.0.0, SVG Export Plug-In . SVG Version: 6.00 Build 0)  -->
<!DOCTYPE svg PUBLIC "-//W3C//DTD SVG 1.1//EN" "http://www.w3.org/Graphics/SVG/1.1/DTD/svg11.dtd">
<svg version="1.1" xmlns="http://www.w3.org/2000/svg" xmlns:xlink="http://www.w3.org/1999/xlink" x="0px" y="0px"
	 width="1619.797px" height="1079.865px" viewBox="0 0 1619.797 1079.865" enable-background="new 0 0 1619.797 1079.865"
	 xml:space="preserve">
<g id="Layer_1" display="none">
</g>
<g id="Layer_2">
	<g>
		<path fill="#5D92CA" d="M827.26,467.711c-6.088-2.709-13.192,0.016-15.899,6.102c-2.709,6.086,0.017,13.188,6.102,15.897
			c5.97,2.659,13.188-0.018,15.898-6.102C836.071,477.524,833.344,470.418,827.26,467.711 M820.122,483.741
			c-2.81-1.25-4.161-4.514-2.911-7.322c1.249-2.81,4.58-3.99,7.389-2.738c2.809,1.248,4.043,4.461,2.793,7.271
			C826.258,483.811,822.931,484.993,820.122,483.741"/>
		<path fill="#5D92CA" d="M817.387,533.082l2.275-2.651l2.985,16.571c0.239,1.078,0.983,1.95,2.046,2.402
			c0.117,0.047,0.232,0.098,0.47,0.198c1.23,0.383,2.64,0.008,3.276-0.835l21.705-27.525c0.183-0.758,0.364-1.516,0.209-2.138l0,0
			l-4.057-20.926c7.385-14.121,13.62-34.714-0.609-68.725c-0.34-0.841-1.064-1.427-1.891-1.777l0,0
			c-0.823-0.349-1.801-0.347-2.591-0.126c-34.35,13.391-44.829,32.182-49.858,47.303l-17.874,11.618
			c-0.603,0.439-0.97,0.979-1.152,1.736l-4.725,34.733c-0.216,1.161,0.545,2.319,1.676,2.938c0.116,0.05,0.235,0.101,0.471,0.199
			c1.063,0.452,2.204,0.379,3.145-0.196l13.996-9.365l-0.327,3.478 M787.31,508.626l-12.569,8.3l3.625-26.571l12.086-7.813
			l-2.753,25.828C787.647,508.489,787.479,508.556,787.31,508.626L787.31,508.626z M792.42,522.482l4.599,1.954 M806.452,528.44
			l4.601,1.952 M827.918,509.995l-4.439,5.216l0,0l-8.173,9.749l-0.806,0.912l-21.34-9.06l0.096-1.213l1.337-12.652l0,0l0.665-6.816
			l2-19.465c0,0,0,0,0.05-0.117c4.661-13.608,13.957-30.258,43.6-42.725l0,0l0,0c11.625,29.984,6.105,48.235-0.444,61.042
			c0,0,0,0-0.05,0.118L827.918,509.995L827.918,509.995z M827.281,539.368l-2.76-14.81c-0.068-0.166-0.016-0.287-0.136-0.336
			l16.668-19.921l2.773,14.119L827.281,539.368L827.281,539.368z"/>
	</g>
	<path fill="#5D92CA" d="M799.868,525.38l-0.82,7.462l4.873-5.71 M799.868,525.38l4.053,1.752 M805.897,527.986l2.735,1.162
		l-12.895,14.83c-0.4,0.369-0.987,0.476-1.494,0.257c-0.556-0.24-0.881-0.742-0.836-1.264l1.956-19.492l2.529,1.047l-1.604,14.7l0,0
		L805.897,527.986"/>
</g>
</svg>
