<?xml version="1.0" encoding="utf-8"?>
<!-- Generator: Adobe Illustrator 16.0.0, SVG Export Plug-In . SVG Version: 6.00 Build 0)  -->
<!DOCTYPE svg PUBLIC "-//W3C//DTD SVG 1.1//EN" "http://www.w3.org/Graphics/SVG/1.1/DTD/svg11.dtd">
<svg version="1.1" xmlns="http://www.w3.org/2000/svg" xmlns:xlink="http://www.w3.org/1999/xlink" x="0px" y="0px"
	 width="1619.797px" height="1079.865px" viewBox="0 0 1619.797 1079.865" enable-background="new 0 0 1619.797 1079.865"
	 xml:space="preserve">
<g id="Layer_1" display="none">
</g>
<g id="Layer_2">
	<g>
		<path fill="#5D92CA" d="M810.608,517.181c-5.651-3.53-13.065-1.82-16.593,3.83c-3.53,5.65-1.82,13.062,3.83,16.591
			c5.542,3.464,13.062,1.819,16.592-3.829C817.969,528.125,816.256,520.708,810.608,517.181 M801.31,532.061
			c-2.608-1.628-3.492-5.049-1.863-7.656c1.628-2.609,5.091-3.314,7.698-1.683c2.607,1.626,3.383,4.98,1.753,7.588
			C807.376,532.985,803.917,533.691,801.31,532.061"/>
		<path fill="#5D92CA" d="M791.733,580.541l2.622-2.309l0.65,16.825c0.087,1.102,0.703,2.069,1.691,2.664
			c0.109,0.063,0.217,0.13,0.438,0.261c1.164,0.55,2.612,0.376,3.359-0.371l25.325-24.237c0.286-0.726,0.571-1.451,0.505-2.088l0,0
			l-1.105-21.287c9.278-12.957,18.319-32.481,8.962-68.141c-0.22-0.88-0.855-1.561-1.625-2.022l0,0
			c-0.767-0.46-1.735-0.595-2.548-0.485c-35.879,8.479-48.872,25.629-55.957,39.904l-19.317,9.017
			c-0.658,0.351-1.097,0.833-1.382,1.559l-9.513,33.738c-0.375,1.12,0.217,2.373,1.25,3.143c0.108,0.065,0.219,0.132,0.438,0.263
			c0.99,0.595,2.13,0.682,3.143,0.243l15.162-7.326l-0.808,3.398 M765.353,552.138l-13.603,6.469l7.288-25.808l13.056-6.055
			l-6.322,25.194C765.707,552.048,765.53,552.092,765.353,552.138L765.353,552.138z M768.485,566.57l4.282,2.575 M781.551,574.423
			l4.285,2.574 M805.376,559.144l-5.123,4.548l0,0l-9.45,8.516L789.879,573l-19.872-11.941l0.263-1.188l3.085-12.343l0,0
			l1.606-6.657l4.69-18.997c0,0,0,0,0.066-0.109c6.509-12.827,18.032-28.021,49.121-36.24l0,0l0,0
			c7.339,31.31-0.667,48.615-8.935,60.386c0,0,0,0-0.066,0.11L805.376,559.144L805.376,559.144z M800.657,588.143l-0.672-15.049
			c-0.044-0.173,0.024-0.286-0.088-0.352l19.278-17.408l0.781,14.368L800.657,588.143L800.657,588.143z"/>
	</g>
	<path fill="#5D92CA" d="M775.274,570.28l-1.925,7.364l5.731-5.007 M775.274,570.28l3.806,2.357 M780.938,573.786l2.571,1.57
		l-15.127,12.97c-0.456,0.311-1.06,0.332-1.537,0.036c-0.522-0.323-0.774-0.874-0.651-1.392l4.843-19.263l2.382,1.425l-3.781,14.508
		l0,0L780.938,573.786"/>
</g>
</svg>
