<?xml version="1.0" encoding="utf-8"?>
<!-- Generator: Adobe Illustrator 16.0.0, SVG Export Plug-In . SVG Version: 6.00 Build 0)  -->
<!DOCTYPE svg PUBLIC "-//W3C//DTD SVG 1.1//EN" "http://www.w3.org/Graphics/SVG/1.1/DTD/svg11.dtd">
<svg version="1.1" xmlns="http://www.w3.org/2000/svg" xmlns:xlink="http://www.w3.org/1999/xlink" x="0px" y="0px"
	 width="1619.797px" height="1079.865px" viewBox="0 0 1619.797 1079.865" enable-background="new 0 0 1619.797 1079.865"
	 xml:space="preserve">
<g id="Layer_1" display="none">
</g>
<g id="Layer_2">
	<g>
		<path fill="#5D92CA" d="M802.064,550.375c-4.793-4.628-12.4-4.498-17.026,0.296c-4.628,4.792-4.495,12.398,0.298,17.025
			c4.699,4.541,12.398,4.495,17.025-0.295C806.988,562.609,806.855,555,802.064,550.375 M789.875,562.997
			c-2.213-2.136-2.365-5.665-0.23-7.876c2.135-2.213,5.669-2.183,7.881-0.046c2.211,2.133,2.272,5.575,0.137,7.787
			C795.618,565.162,792.086,565.133,789.875,562.997"/>
		<path fill="#5D92CA" d="M769.803,608.258l3.074-1.66l-3.152,16.541c-0.162,1.092,0.219,2.173,1.049,2.975
			c0.092,0.087,0.182,0.176,0.367,0.354c1.012,0.797,2.463,0.954,3.358,0.394l30.128-17.919c0.441-0.642,0.883-1.284,0.962-1.921
			l0,0l3.711-20.99c11.954-10.537,25.156-27.527,24.061-64.379c-0.016-0.906-0.483-1.712-1.128-2.335l0,0
			c-0.645-0.622-1.557-0.97-2.373-1.046c-36.868,0.19-53.387,13.978-63.5,26.293l-20.85,4.44c-0.721,0.194-1.258,0.566-1.698,1.208
			l-16.858,30.733c-0.618,1.007-0.322,2.361,0.512,3.344c0.091,0.088,0.184,0.178,0.367,0.355c0.832,0.802,1.922,1.144,3.007,0.943
			l16.423-3.728l-1.552,3.129 M750.486,574.649l-14.709,3.244l12.906-23.507l14.083-2.963l-11.827,23.126
			C750.85,574.642,750.668,574.645,750.486,574.649L750.486,574.649z M750.292,589.417l3.593,3.472 M761.256,600.007l3.596,3.471
			 M787.907,590.479l-6.015,3.278l0,0l-11.123,6.173l-1.079,0.563l-16.677-16.106l0.523-1.098l5.783-11.333l0,0l3.063-6.125
			l8.844-17.456c0,0,0,0,0.09-0.091c9.229-11.034,23.873-23.247,56.016-24.262l0,0l0,0c0.107,32.159-11.586,47.22-22.291,56.829
			c0,0,0,0-0.088,0.092L787.907,590.479L787.907,590.479z M776.785,617.673l2.732-14.814c-0.006-0.18,0.086-0.273-0.008-0.363
			l22.7-12.625l-2.472,14.176L776.785,617.673L776.785,617.673z"/>
	</g>
	<polygon fill="#5D92CA" points="757.133,595.955 756.332,597.506 757.867,596.673 	"/>
</g>
</svg>
