<?xml version="1.0" encoding="utf-8"?>
<!-- Generator: Adobe Illustrator 16.0.0, SVG Export Plug-In . SVG Version: 6.00 Build 0)  -->
<!DOCTYPE svg PUBLIC "-//W3C//DTD SVG 1.1//EN" "http://www.w3.org/Graphics/SVG/1.1/DTD/svg11.dtd">
<svg version="1.1" xmlns="http://www.w3.org/2000/svg" xmlns:xlink="http://www.w3.org/1999/xlink" x="0px" y="0px"
	 width="1619.797px" height="1079.865px" viewBox="0 0 1619.797 1079.865" enable-background="new 0 0 1619.797 1079.865"
	 xml:space="preserve">
<g id="Layer_1" display="none">
</g>
<g id="Layer_2">
	<g>
		<path fill="#5D92CA" d="M826.46,530.311c-9.09-9.744-24.298-10.28-34.039-1.19c-9.744,9.086-10.275,24.293-1.188,34.036
			c8.913,9.56,24.292,10.275,34.036,1.191C835.013,555.262,835.546,540.05,826.46,530.311 M800.792,554.244
			c-4.195-4.497-4.131-11.562,0.365-15.753c4.495-4.199,11.551-3.767,15.743,0.732c4.194,4.492,3.957,11.372-0.542,15.567
			C812.037,559.169,804.986,558.743,800.792,554.244"/>
		<path fill="#5D92CA" d="M755.965,642.543l6.313-2.994l-8.026,32.707c-0.439,2.164,0.209,4.363,1.783,6.051
			c0.174,0.183,0.346,0.37,0.698,0.745c1.936,1.7,4.816,2.163,6.665,1.139l62.048-32.635c0.951-1.237,1.9-2.473,2.124-3.736l0,0
			l9.609-41.535c24.978-19.794,53.125-52.345,54.793-126.062c0.063-1.813-0.786-3.471-2.009-4.783l0,0
			c-1.221-1.309-3.009-2.101-4.63-2.338c-73.654-3.479-108.089,22.33-129.577,45.867l-42.108,6.687
			c-1.458,0.313-2.569,0.999-3.518,2.236l-36.889,59.617c-1.339,1.947-0.888,4.683,0.673,6.733c0.173,0.185,0.347,0.375,0.697,0.748
			c1.577,1.689,3.719,2.485,5.906,2.198l33.191-5.727l-3.427,6.088 M720.903,573.395l-29.719,4.939l28.239-45.599l28.437-4.444
			l-26.042,44.951C721.631,573.417,721.268,573.404,720.903,573.395L720.903,573.395z M718.97,602.868l6.813,7.311 M739.76,625.167
			l6.817,7.311 M793.986,608.928l-12.354,5.919l0,0l-22.863,11.164l-2.215,1.011l-31.621-33.913l1.16-2.138l12.736-22.029l0,0
			l6.759-11.914l19.49-33.938c0,0,0,0,0.188-0.173c19.587-21.072,50.115-43.931,114.417-42.594l0,0l0,0
			c-3.151,64.24-28.083,93.098-50.467,111.168c0,0,0,0-0.187,0.175L793.986,608.928L793.986,608.928z M768.926,662.078l7.006-29.304
			c0.01-0.359,0.203-0.536,0.024-0.725l46.66-22.84l-6.419,28.054L768.926,662.078L768.926,662.078z"/>
	</g>
</g>
</svg>
