<?xml version="1.0" encoding="utf-8"?>
<!-- Generator: Adobe Illustrator 16.0.0, SVG Export Plug-In . SVG Version: 6.00 Build 0)  -->
<!DOCTYPE svg PUBLIC "-//W3C//DTD SVG 1.1//EN" "http://www.w3.org/Graphics/SVG/1.1/DTD/svg11.dtd">
<svg version="1.1" xmlns="http://www.w3.org/2000/svg" xmlns:xlink="http://www.w3.org/1999/xlink" x="0px" y="0px"
	 width="1619.797px" height="1079.865px" viewBox="0 0 1619.797 1079.865" enable-background="new 0 0 1619.797 1079.865"
	 xml:space="preserve">
<g id="Layer_1" display="none">
</g>
<g id="Layer_2">
	<g>
		<path fill="#5D92CA" d="M826.265,508.622c-10.917-7.642-25.904-5.003-33.541,5.913c-7.642,10.915-5.001,25.897,5.911,33.538
			c10.708,7.499,25.899,5,33.541-5.91C839.818,531.25,837.177,516.259,826.265,508.622 M806.135,537.368
			c-5.039-3.525-6.446-10.45-2.919-15.486c3.523-5.041,10.514-6.085,15.55-2.556c5.037,3.521,6.236,10.302,2.708,15.34
			C818.155,539.849,811.172,540.897,806.135,537.368"/>
		<path fill="#5D92CA" d="M781.936,633.192l5.479-4.337l-0.463,33.673c0.059,2.209,1.187,4.205,3.101,5.497
			c0.21,0.138,0.417,0.282,0.847,0.568c2.27,1.221,5.18,1.023,6.75-0.389l53.116-45.756c0.648-1.419,1.294-2.837,1.229-4.118l0,0
			l0.02-42.632C871.9,550.792,892,512.743,877.045,440.54c-0.347-1.78-1.545-3.206-3.033-4.21l0,0
			c-1.483-0.999-3.403-1.368-5.04-1.235c-72.547,13.18-100.292,46.072-115.938,73.841l-39.524,15.987
			c-1.352,0.632-2.277,1.55-2.924,2.97l-22.531,66.387c-0.866,2.198,0.187,4.763,2.17,6.409c0.209,0.142,0.423,0.287,0.847,0.571
			c1.915,1.292,4.184,1.585,6.251,0.814l31.051-13.045l-1.969,6.702 M732.219,573.703L704.375,585.2l17.256-50.782l26.71-10.727
			l-15.263,49.656C732.934,573.562,732.577,573.63,732.219,573.703L732.219,573.703z M736.965,602.856l8.283,5.592 M762.238,619.907
			l8.288,5.589 M811.423,591.886l-10.708,8.546l0,0l-19.766,16.021l-1.93,1.484l-38.439-25.929l0.65-2.346l7.454-24.329l0,0
			l3.906-13.128l11.355-37.452c0,0,0,0,0.144-0.211c14.343-24.938,38.949-54.078,101.902-67.24l0,0l0,0
			c11.38,63.303-6.422,97.028-24.166,119.672c0,0,0,0-0.145,0.213L811.423,591.886L811.423,591.886z M798.961,649.311l0.233-30.128
			c-0.071-0.352,0.078-0.568-0.14-0.711l40.326-32.75l0.057,28.777L798.961,649.311L798.961,649.311z"/>
	</g>
	<path fill="#5D92CA" d="M755.201,604.003l-4.112,13.334l10.896-8.714 M755.201,604.003l6.783,4.62 M765.295,610.874l4.584,3.08
		l-28.738,22.551c-0.859,0.532-1.969,0.523-2.818-0.056c-0.932-0.634-1.348-1.663-1.082-2.602l10.402-34.896l4.25,2.8l-8.08,26.271
		l0,0L765.295,610.874"/>
</g>
</svg>
