<?xml version="1.0" encoding="utf-8"?>
<!-- Generator: Adobe Illustrator 16.0.0, SVG Export Plug-In . SVG Version: 6.00 Build 0)  -->
<!DOCTYPE svg PUBLIC "-//W3C//DTD SVG 1.1//EN" "http://www.w3.org/Graphics/SVG/1.1/DTD/svg11.dtd">
<svg version="1.1" xmlns="http://www.w3.org/2000/svg" xmlns:xlink="http://www.w3.org/1999/xlink" x="0px" y="0px"
	 width="1619.797px" height="1079.865px" viewBox="0 0 1619.797 1079.865" enable-background="new 0 0 1619.797 1079.865"
	 xml:space="preserve">
<g id="Layer_1" display="none">
</g>
<g id="Layer_2">
	<g>
		<path fill="#5D92CA" d="M834,443.39c-6.222-2.387-13.173,0.706-15.558,6.926c-2.386,6.219,0.707,13.168,6.925,15.556
			c6.102,2.343,13.17-0.708,15.558-6.925C843.313,452.728,840.217,445.775,834,443.39 M827.71,459.771
			c-2.872-1.101-4.392-4.29-3.29-7.16c1.1-2.872,4.365-4.224,7.235-3.122c2.87,1.099,4.271,4.244,3.169,7.115
			C833.843,459.52,830.581,460.874,827.71,459.771"/>
		<path fill="#5D92CA" d="M827.562,509.187l2.133-2.767l3.849,16.392c0.296,1.064,1.085,1.896,2.169,2.292
			c0.119,0.042,0.237,0.086,0.479,0.173c1.248,0.318,2.637-0.13,3.228-1.005l20.234-28.624c0.143-0.767,0.284-1.532,0.098-2.146l0,0
			l-5.147-20.685c6.635-14.489,11.785-35.379-4.205-68.599c-0.384-0.822-1.138-1.369-1.981-1.675l0,0
			c-0.841-0.306-1.816-0.253-2.595,0.01c-33.602,15.17-43.083,34.483-47.313,49.848l-17.241,12.537
			c-0.579,0.47-0.917,1.027-1.06,1.794l-2.9,34.933c-0.155,1.172,0.666,2.288,1.827,2.848c0.119,0.043,0.24,0.088,0.48,0.174
			c1.085,0.396,2.221,0.264,3.131-0.361l13.486-10.084l-0.145,3.489 M796.247,486.339l-12.118,8.946l2.229-26.725l11.661-8.436
			l-1.398,25.938C796.577,486.184,796.412,486.26,796.247,486.339L796.247,486.339z M802.075,499.909l4.695,1.711 M816.399,505.124
			l4.697,1.709 M836.87,485.581l-4.16,5.441l0,0l-7.651,10.163l-0.756,0.953l-21.786-7.93l0.032-1.216l0.673-12.705l0,0l0.307-6.842
			l0.979-19.543c0,0,0,0,0.045-0.12c3.941-13.833,12.353-30.946,41.303-44.947l0,0l0,0c13.178,29.334,8.621,47.85,2.751,60.981
			c0,0,0,0-0.044,0.121L836.87,485.581L836.87,485.581z M837.771,514.947l-3.531-14.645c-0.077-0.162-0.031-0.285-0.153-0.328
			l15.602-20.767l3.509,13.955L837.771,514.947L837.771,514.947z"/>
	</g>
	<path fill="#5D92CA" d="M810.035,501.439l-0.307,6.971l4.172-5.592 M810.035,501.439l3.865,1.379 M815.786,503.49l2.607,0.911
		l-11.058,14.537c-0.349,0.367-0.887,0.502-1.37,0.329c-0.53-0.188-0.862-0.634-0.853-1.121l0.629-18.196l2.41,0.817l-0.594,13.73
		l0,0L815.786,503.49"/>
</g>
</svg>
