<?xml version="1.0" encoding="utf-8"?>
<!-- Generator: Adobe Illustrator 16.0.0, SVG Export Plug-In . SVG Version: 6.00 Build 0)  -->
<!DOCTYPE svg PUBLIC "-//W3C//DTD SVG 1.1//EN" "http://www.w3.org/Graphics/SVG/1.1/DTD/svg11.dtd">
<svg version="1.1" xmlns="http://www.w3.org/2000/svg" xmlns:xlink="http://www.w3.org/1999/xlink" x="0px" y="0px"
	 width="1619.797px" height="1079.865px" viewBox="0 0 1619.797 1079.865" enable-background="new 0 0 1619.797 1079.865"
	 xml:space="preserve">
<g id="Layer_1" display="none">
</g>
<g id="Layer_2">
	<g>
		<path fill="#5D92CA" d="M824.579,514.922c-10.645-8.019-25.714-5.905-33.728,4.738c-8.018,10.641-5.901,25.707,4.738,33.724
			c10.438,7.868,25.708,5.901,33.727-4.736C837.336,538.009,835.218,522.935,824.579,514.922 M803.458,542.948
			c-4.913-3.699-6.078-10.669-2.377-15.579c3.697-4.915,10.72-5.715,15.63-2.012c4.911,3.695,5.872,10.513,2.171,15.425
			C815.385,545.847,808.368,546.65,803.458,542.948"/>
		<path fill="#5D92CA" d="M775.929,637.869l5.627-4.144l-1.638,33.637c-0.019,2.21,1.04,4.244,2.906,5.602
			c0.206,0.145,0.408,0.297,0.827,0.597c2.224,1.3,5.141,1.204,6.759-0.152l54.682-43.875c0.697-1.396,1.392-2.791,1.371-4.073l0,0
			l1.508-42.604c20.744-24.197,42.159-61.521,29.733-134.201c-0.284-1.792-1.433-3.259-2.885-4.313l0,0
			c-1.447-1.051-3.354-1.487-4.993-1.412c-72.963,10.64-101.839,42.544-118.443,69.75l-40.06,14.599
			c-1.372,0.584-2.329,1.469-3.025,2.865l-24.834,65.56c-0.942,2.167,0.02,4.767,1.944,6.481c0.204,0.149,0.412,0.302,0.827,0.601
			c1.869,1.357,4.125,1.73,6.218,1.031l31.487-11.954l-2.202,6.63 M728.319,576.681L700.09,587.2l19.019-50.149l27.068-9.789
			l-16.986,49.094C729.039,576.564,728.68,576.621,728.319,576.681L728.319,576.681z M732.045,605.982l8.082,5.877 M756.708,623.905
			l8.088,5.875 M806.84,597.617l-10.999,8.167l0,0l-20.313,15.321l-1.98,1.415l-37.512-27.255l0.732-2.321l8.299-24.055l0,0
			l4.361-12.983l12.656-37.033c0,0,0,0,0.15-0.206c15.205-24.422,40.813-52.686,104.188-63.643l0,0l0,0
			c9.163,63.661-9.805,96.745-28.328,118.755c0,0,0,0-0.151,0.209L806.84,597.617L806.84,597.617z M792.382,654.572l1.285-30.102
			c-0.06-0.354,0.098-0.566-0.115-0.716l41.444-31.324l-0.948,28.763L792.382,654.572L792.382,654.572z"/>
	</g>
	<path fill="#5D92CA" d="M754.993,614.826l-10.133,7.667l4.066-12.092l-4.031-2.939l-6.756,20.683
		c-0.29,0.932,0.099,1.972,1.015,2.628c0.833,0.602,1.942,0.641,2.815,0.13l17.363-12.91L754.993,614.826z"/>
</g>
</svg>
