<?xml version="1.0" encoding="utf-8"?>
<!-- Generator: Adobe Illustrator 16.0.0, SVG Export Plug-In . SVG Version: 6.00 Build 0)  -->
<!DOCTYPE svg PUBLIC "-//W3C//DTD SVG 1.1//EN" "http://www.w3.org/Graphics/SVG/1.1/DTD/svg11.dtd">
<svg version="1.1" xmlns="http://www.w3.org/2000/svg" xmlns:xlink="http://www.w3.org/1999/xlink" x="0px" y="0px"
	 width="1619.797px" height="1079.865px" viewBox="0 0 1619.797 1079.865" enable-background="new 0 0 1619.797 1079.865"
	 xml:space="preserve">
<g id="Layer_1" display="none">
</g>
<g id="Layer_2">
	<g>
		<path fill="#5D92CA" d="M814.283,507.041c-5.771-3.331-13.121-1.363-16.45,4.407c-3.33,5.77-1.362,13.117,4.407,16.448
			c5.66,3.269,13.118,1.362,16.449-4.406C822.021,517.721,820.051,510.37,814.283,507.041 M805.509,522.237
			c-2.664-1.536-3.666-4.924-2.129-7.586c1.536-2.664,4.973-3.489,7.635-1.951c2.662,1.535,3.554,4.86,2.018,7.522
			C811.604,522.949,808.171,523.775,805.509,522.237"/>
		<path fill="#5D92CA" d="M797.631,571.021l2.54-2.398l1.237,16.792c0.125,1.098,0.774,2.043,1.784,2.603
			c0.111,0.06,0.221,0.123,0.447,0.246c1.183,0.51,2.624,0.284,3.345-0.487l24.464-25.106c0.261-0.735,0.521-1.469,0.432-2.104l0,0
			l-1.848-21.235c8.82-13.272,17.174-33.101,6.578-68.412c-0.25-0.872-0.909-1.53-1.694-1.965l0,0
			c-0.782-0.434-1.755-0.534-2.564-0.396c-35.562,9.727-47.947,27.319-54.53,41.833l-18.991,9.686
			c-0.645,0.373-1.066,0.871-1.327,1.606l-8.33,34.049c-0.336,1.133,0.3,2.364,1.36,3.098c0.11,0.062,0.223,0.125,0.447,0.248
			c1.011,0.56,2.153,0.607,3.148,0.133l14.898-7.851l-0.688,3.424 M770.275,543.556l-13.369,6.94l6.382-26.046l12.837-6.507
			l-5.439,25.399C770.625,543.455,770.45,543.504,770.275,543.556L770.275,543.556z M773.91,557.871l4.369,2.424 M787.241,565.262
			l4.372,2.423 M810.519,549.162l-4.961,4.724l0,0l-9.146,8.841l-0.896,0.823l-20.277-11.24l0.222-1.197l2.653-12.443l0,0
			l1.374-6.709l4.024-19.149c0,0,0,0,0.063-0.112c6.058-13.046,17.043-28.633,47.827-37.933l0,0l0,0
			c8.427,31.035,1.029,48.609-6.822,60.661c0,0,0,0-0.063,0.112L810.519,549.162L810.519,549.162z M806.814,578.308l-1.197-15.017
			c-0.051-0.172,0.014-0.287-0.101-0.348l18.659-18.07l1.282,14.332L806.814,578.308L806.814,578.308z"/>
	</g>
	<path fill="#5D92CA" d="M782.513,558.252l-1.326,6.85l4.947-4.919 M782.513,558.252l3.621,1.931 M787.9,561.124l2.445,1.285
		l-13.071,12.757c-0.398,0.312-0.95,0.367-1.403,0.125c-0.497-0.264-0.76-0.754-0.678-1.234l3.292-17.907l2.263,1.163l-2.602,13.495
		l0,0L787.9,561.124"/>
</g>
</svg>
