<?xml version="1.0" encoding="utf-8"?>
<!-- Generator: Adobe Illustrator 16.0.0, SVG Export Plug-In . SVG Version: 6.00 Build 0)  -->
<!DOCTYPE svg PUBLIC "-//W3C//DTD SVG 1.1//EN" "http://www.w3.org/Graphics/SVG/1.1/DTD/svg11.dtd">
<svg version="1.1" xmlns="http://www.w3.org/2000/svg" xmlns:xlink="http://www.w3.org/1999/xlink" x="0px" y="0px"
	 width="1619.797px" height="1079.865px" viewBox="0 0 1619.797 1079.865" enable-background="new 0 0 1619.797 1079.865"
	 xml:space="preserve">
<g id="Layer_1" display="none">
</g>
<g id="Layer_2">
	<g>
		<path fill="#5D92CA" d="M862.496,168.531c-13.325,0.235-23.899,11.179-23.66,24.5c0.233,13.321,11.177,23.891,24.496,23.659
			c13.069-0.227,23.892-11.179,23.66-24.496C886.763,178.872,875.813,168.298,862.496,168.531 M863.107,203.623
			c-6.149,0.109-11.358-4.666-11.465-10.813c-0.112-6.148,4.93-11.104,11.078-11.208c6.146-0.113,11.101,4.67,11.208,10.818
			C874.29,198.563,869.255,203.518,863.107,203.623"/>
		<path fill="#5D92CA" d="M899.854,295.368l1.883-6.729l19.418,27.513c1.345,1.754,3.433,2.706,5.739,2.625
			c0.253-0.012,0.505-0.017,1.02-0.038c2.552-0.346,4.791-2.217,5.232-4.282l16.075-68.241c-0.31-1.527-0.623-3.054-1.427-4.053l0,0
			l-25.041-34.498c1.448-31.84-4.655-74.437-59.194-124.059c-1.326-1.236-3.133-1.686-4.927-1.622l0,0
			c-1.789,0.062-3.56,0.892-4.804,1.961c-50.945,53.307-54.057,96.223-50.392,127.885l-22.579,36.167
			c-0.721,1.305-0.931,2.592-0.619,4.12l20.794,66.952c0.59,2.286,2.949,3.743,5.521,3.908c0.252-0.007,0.511-0.015,1.021-0.035
			c2.309-0.08,4.316-1.176,5.535-3.015l17.454-28.808l2.345,6.581 M824.664,276.461l-15.768,25.669l-15.887-51.225l15.305-24.38
			l16.836,49.143C825.162,275.926,824.912,276.19,824.664,276.461L824.664,276.461z M845.641,297.261l9.987-0.347 M876.111,296.199
			l9.988-0.351 M899.428,244.618l-3.638,13.206l0,0l-6.574,24.58l-0.688,2.335l-46.341,1.616l-0.853-2.281l-8.27-24.064l0,0
			l-4.555-12.914l-12.828-36.974c0,0,0,0-0.007-0.255c-3.056-28.606-0.278-66.644,42.917-114.297l0,0l0,0
			c46.414,44.525,51.835,82.274,50.791,111.021c0,0,0,0,0.008,0.258L899.428,244.618L899.428,244.618z M923.102,298.4
			l-17.519-24.512c-0.265-0.243-0.272-0.507-0.534-0.493l13.374-50.196l16.961,23.245L923.102,298.4L923.102,298.4z"/>
	</g>
	<path fill="#5D92CA" d="M855.512,296.483l11.174,33.048l9.336-33.611 M855.512,296.483l20.51-0.563 M886.025,295.645l13.799-0.468
		l-25.258,87.761c-0.963,2.34-3.227,3.942-5.793,4.013c-2.816,0.078-5.168-1.396-6-3.688l-29.97-85.961l12.71-0.545l22.059,65.078
		l0,0L886.025,295.645"/>
</g>
</svg>
