<?xml version="1.0" encoding="utf-8"?>
<!-- Generator: Adobe Illustrator 16.0.0, SVG Export Plug-In . SVG Version: 6.00 Build 0)  -->
<!DOCTYPE svg PUBLIC "-//W3C//DTD SVG 1.1//EN" "http://www.w3.org/Graphics/SVG/1.1/DTD/svg11.dtd">
<svg version="1.1" xmlns="http://www.w3.org/2000/svg" xmlns:xlink="http://www.w3.org/1999/xlink" x="0px" y="0px"
	 width="1619.797px" height="1079.865px" viewBox="0 0 1619.797 1079.865" enable-background="new 0 0 1619.797 1079.865"
	 xml:space="preserve">
<g id="Layer_1" display="none">
</g>
<g id="Layer_2">
	<g>
		<path fill="#5D92CA" d="M824.106,528.017c-9.588-9.256-24.803-8.996-34.054,0.592c-9.255,9.584-8.99,24.796,0.595,34.05
			c9.4,9.081,24.797,8.99,34.051-0.591C833.953,552.486,833.688,537.267,824.106,528.017 M799.727,553.261
			c-4.425-4.271-4.731-11.33-0.461-15.752c4.27-4.427,11.338-4.366,15.761-0.092c4.423,4.266,4.546,11.149,0.274,15.574
			C811.213,557.59,804.149,557.533,799.727,553.261"/>
		<path fill="#5D92CA" d="M759.581,643.784l6.148-3.319l-6.304,33.082c-0.325,2.184,0.438,4.346,2.097,5.949
			c0.184,0.174,0.364,0.352,0.736,0.708c2.022,1.595,4.924,1.907,6.716,0.788l60.255-35.837c0.885-1.285,1.768-2.569,1.925-3.842
			l0,0l7.422-41.98c23.909-21.075,50.313-55.055,48.121-128.758c-0.031-1.813-0.967-3.425-2.256-4.671l0,0
			c-1.288-1.243-3.114-1.94-4.747-2.093c-73.735,0.381-106.771,27.956-126.999,52.586l-41.7,8.881
			c-1.44,0.388-2.514,1.131-3.396,2.417l-33.718,61.465c-1.235,2.015-0.643,4.723,1.024,6.689c0.182,0.175,0.366,0.356,0.735,0.709
			c1.662,1.605,3.844,2.288,6.013,1.887l32.846-7.455l-3.104,6.258 M720.948,576.566l-29.418,6.487l25.813-47.014l28.166-5.926
			l-23.654,46.252C721.677,576.55,721.313,576.556,720.948,576.566L720.948,576.566z M720.561,606.1l7.186,6.944 M742.489,627.281
			l7.19,6.942 M795.791,608.225l-12.028,6.557l0,0l-22.247,12.345l-2.158,1.126l-33.354-32.211l1.048-2.196l11.565-22.666l0,0
			l6.126-12.25l17.688-34.911c0,0,0,0,0.178-0.183c18.457-22.068,47.748-46.493,112.031-48.523l0,0l0,0
			c0.215,64.317-23.172,94.439-44.58,113.657c0,0,0,0-0.178,0.185L795.791,608.225L795.791,608.225z M773.547,662.613l5.464-29.629
			c-0.01-0.359,0.174-0.547-0.014-0.726l45.399-25.25l-4.942,28.351L773.547,662.613L773.547,662.613z"/>
	</g>
	<polygon fill="#5D92CA" points="734.243,619.177 732.642,622.279 735.711,620.613 	"/>
</g>
</svg>
