<?xml version="1.0" encoding="utf-8"?>
<!-- Generator: Adobe Illustrator 16.0.0, SVG Export Plug-In . SVG Version: 6.00 Build 0)  -->
<!DOCTYPE svg PUBLIC "-//W3C//DTD SVG 1.1//EN" "http://www.w3.org/Graphics/SVG/1.1/DTD/svg11.dtd">
<svg version="1.1" xmlns="http://www.w3.org/2000/svg" xmlns:xlink="http://www.w3.org/1999/xlink" x="0px" y="0px"
	 width="1619.797px" height="1079.865px" viewBox="0 0 1619.797 1079.865" enable-background="new 0 0 1619.797 1079.865"
	 xml:space="preserve">
<g id="Layer_1" display="none">
</g>
<g id="Layer_2">
	<g>
		<path fill="#5D92CA" d="M865.127,213.702c-13.32-0.462-24.453,9.913-24.911,23.229c-0.464,13.314,9.911,24.442,23.224,24.908
			c13.063,0.458,24.444-9.913,24.911-23.224C888.819,225.299,878.437,214.166,865.127,213.702 M863.9,248.777
			c-6.146-0.213-11.099-5.253-10.883-11.398c0.21-6.146,5.504-10.83,11.65-10.613c6.143,0.209,10.84,5.245,10.626,11.391
			C875.333,244.311,870.045,248.994,863.9,248.777"/>
		<path fill="#5D92CA" d="M895.795,342.32l2.232-6.621l17.951,28.491c1.251,1.822,3.286,2.882,5.594,2.923
			c0.252,0.001,0.505,0.009,1.02,0.015c2.566-0.212,4.9-1.963,5.449-4.003l19.625-67.306c-0.229-1.542-0.461-3.083-1.212-4.122l0,0
			l-23.202-35.762c3.114-31.72-0.751-74.578-52.62-126.986c-1.259-1.304-3.041-1.847-4.835-1.877l0,0
			c-1.789-0.032-3.601,0.704-4.9,1.706c-53.666,50.567-59.018,93.263-57.015,125.072l-24.441,34.937
			c-0.789,1.265-1.065,2.538-0.834,4.081l17.262,67.948c0.469,2.315,2.749,3.894,5.309,4.192c0.252,0.006,0.511,0.012,1.022,0.019
			c2.31,0.04,4.372-0.949,5.686-2.721l18.937-27.854l1.998,6.694 M821.698,319.504l-17.09,24.809l-13.184-51.985l16.56-23.546
			l14.241,49.956C822.223,318.995,821.959,319.247,821.698,319.504L821.698,319.504z M841.558,341.373l9.992,0.176 M872.042,341.908
			l9.993,0.172 M898.025,291.618l-4.324,12.997l0,0l-7.852,24.202l-0.809,2.296l-46.362-0.812l-0.732-2.322l-6.999-24.465l0,0
			l-3.872-13.135l-10.875-37.594c0,0,0,0,0.006-0.255c-1.554-28.727,3.21-66.567,48.84-111.895l0,0l0,0
			c44.021,46.894,47.458,84.875,44.911,113.527c0,0,0,0-0.006,0.258L898.025,291.618L898.025,291.618z M918.853,346.564
			l-16.212-25.394c-0.252-0.257-0.246-0.521-0.507-0.521l15.982-49.428l15.72,24.102L918.853,346.564L918.853,346.564z"/>
	</g>
	<path fill="#5D92CA" d="M853.849,341.32l7.134,25.174l8.251-24.828 M853.849,341.32l15.385,0.346 M876.738,341.833l10.354,0.165
		l-22.203,64.795c-0.808,1.717-2.564,2.832-4.489,2.789c-2.112-0.047-3.818-1.239-4.355-2.986l-19.235-65.512l9.54,0.068
		l14.091,49.572l0,0L876.738,341.833"/>
</g>
</svg>
