<?xml version="1.0" encoding="utf-8"?>
<!-- Generator: Adobe Illustrator 16.0.0, SVG Export Plug-In . SVG Version: 6.00 Build 0)  -->
<!DOCTYPE svg PUBLIC "-//W3C//DTD SVG 1.1//EN" "http://www.w3.org/Graphics/SVG/1.1/DTD/svg11.dtd">
<svg version="1.1" xmlns="http://www.w3.org/2000/svg" xmlns:xlink="http://www.w3.org/1999/xlink" x="0px" y="0px"
	 width="1619.797px" height="1079.865px" viewBox="0 0 1619.797 1079.865" enable-background="new 0 0 1619.797 1079.865"
	 xml:space="preserve">
<g id="Layer_1" display="none">
</g>
<g id="Layer_2">
	<g>
		<path fill="#5D92CA" d="M843.693,410.73c-6.373-1.947-13.093,1.624-15.037,7.994c-1.947,6.371,1.623,13.087,7.992,15.035
			c6.25,1.912,13.09-1.624,15.037-7.993C853.635,419.396,850.061,412.676,843.693,410.73 M838.562,427.51
			c-2.941-0.897-4.681-3.973-3.782-6.913c0.898-2.941,4.061-4.519,7-3.619c2.94,0.896,4.558,3.936,3.659,6.876
			C844.661,426.833,841.502,428.411,838.562,427.51"/>
		<path fill="#5D92CA" d="M841.86,476.816l1.935-2.909l4.983,16.084c0.368,1.042,1.214,1.816,2.323,2.135
			c0.121,0.033,0.242,0.069,0.49,0.139c1.268,0.23,2.621-0.313,3.15-1.228l18.188-29.966c0.09-0.775,0.178-1.549-0.053-2.147l0,0
			l-6.576-20.276c5.608-14.917,9.287-36.115-8.98-68.139c-0.439-0.793-1.23-1.286-2.093-1.533l0,0
			c-0.86-0.246-1.831-0.125-2.587,0.19c-32.463,17.477-40.572,37.404-43.723,53.026l-16.324,13.709
			c-0.545,0.509-0.844,1.089-0.932,1.864l-0.457,35.05c-0.072,1.18,0.824,2.236,2.021,2.713c0.121,0.035,0.246,0.071,0.492,0.141
			c1.109,0.318,2.234,0.107,3.098-0.579l12.75-11.001l0.1,3.492 M809.027,456.209l-11.465,9.77l0.359-26.815l11.045-9.228
			l0.414,25.972C809.346,456.031,809.187,456.119,809.027,456.209L809.027,456.209z M815.789,469.339l4.801,1.379 M830.441,473.542
			l4.805,1.377 M849.498,452.618l-3.77,5.718l0,0l-6.924,10.672l-0.688,1.003l-22.287-6.391l-0.052-1.216l-0.214-12.721l0,0
			l-0.172-6.846l-0.387-19.564c0,0,0,0,0.035-0.123c2.969-14.074,10.166-31.732,38.068-47.719l0,0l0,0
			c15.192,28.344,11.938,47.132,6.998,60.641c0,0,0,0-0.035,0.124L849.498,452.618L849.498,452.618z M852.447,481.85l-4.545-14.362
			c-0.088-0.156-0.051-0.283-0.176-0.317l14.115-21.804l4.473,13.676L852.447,481.85L852.447,481.85z"/>
	</g>
	<path fill="#5D92CA" d="M821.832,470.702l0.209,12.208l6.689-10.213 M821.832,470.702l6.898,1.995 M832.096,473.67l4.652,1.313
		l-17.766,26.572c-0.569,0.678-1.496,0.971-2.359,0.721c-0.945-0.273-1.574-1.015-1.607-1.867l-0.842-31.852l4.297,1.172
		l0.426,24.046l0,0L832.096,473.67"/>
</g>
</svg>
