<?xml version="1.0" encoding="utf-8"?>
<!-- Generator: Adobe Illustrator 16.0.0, SVG Export Plug-In . SVG Version: 6.00 Build 0)  -->
<!DOCTYPE svg PUBLIC "-//W3C//DTD SVG 1.1//EN" "http://www.w3.org/Graphics/SVG/1.1/DTD/svg11.dtd">
<svg version="1.1" xmlns="http://www.w3.org/2000/svg" xmlns:xlink="http://www.w3.org/1999/xlink" x="0px" y="0px"
	 width="1619.797px" height="1079.865px" viewBox="0 0 1619.797 1079.865" enable-background="new 0 0 1619.797 1079.865"
	 xml:space="preserve">
<g id="Layer_1" display="none">
</g>
<g id="Layer_2">
	<g>
		<path fill="#5D92CA" d="M827.239,531.077c-8.918-9.902-24.115-10.704-34.013-1.785c-9.901,8.915-10.697,24.11-1.782,34.01
			c8.745,9.714,24.11,10.697,34.01,1.786C835.355,556.173,836.153,540.973,827.239,531.077 M801.157,554.558
			c-4.116-4.568-3.928-11.632,0.64-15.745c4.568-4.119,11.615-3.565,15.728,1.007c4.115,4.564,3.757,11.44-0.813,15.556
			C812.314,559.679,805.272,559.129,801.157,554.558"/>
		<path fill="#5D92CA" d="M754.796,642.061l6.364-2.882l-8.596,32.561c-0.477,2.156,0.133,4.367,1.677,6.082
			c0.17,0.186,0.339,0.376,0.685,0.757c1.905,1.732,4.777,2.247,6.644,1.255l62.608-31.547c0.972-1.22,1.943-2.439,2.188-3.699l0,0
			l10.333-41.361c25.319-19.355,54.03-51.41,56.985-125.085c0.095-1.812-0.725-3.485-1.925-4.818l0,0
			c-1.198-1.33-2.972-2.153-4.589-2.419c-73.583-4.762-108.462,20.44-130.358,43.6l-42.218,5.951
			c-1.464,0.287-2.586,0.953-3.557,2.174l-37.923,58.964c-1.373,1.922-0.97,4.666,0.555,6.743c0.169,0.188,0.34,0.381,0.684,0.76
			c1.547,1.716,3.675,2.549,5.867,2.301l33.286-5.146l-3.533,6.027 M720.946,572.312l-29.8,4.419l29.031-45.099l28.51-3.948
			l-26.823,44.49C721.674,572.347,721.311,572.327,720.946,572.312L720.946,572.312z M718.499,601.748l6.684,7.428 M738.896,624.405
			l6.689,7.427 M793.398,609.115l-12.456,5.702l0,0l-23.054,10.764l-2.232,0.972l-31.024-34.459l1.198-2.118l13.118-21.802l0,0
			l6.966-11.793l20.079-33.593c0,0,0,0,0.191-0.17c19.952-20.727,50.874-43.049,115.143-40.59l0,0l0,0
			c-4.272,64.176-29.704,92.593-52.399,110.27c0,0,0,0-0.189,0.172L793.398,609.115L793.398,609.115z M767.414,661.819l7.517-29.177
			c0.017-0.357,0.211-0.532,0.037-0.724l47.051-22.022l-6.908,27.937L767.414,661.819L767.414,661.819z"/>
	</g>
</g>
</svg>
