<?xml version="1.0" encoding="utf-8"?>
<!-- Generator: Adobe Illustrator 16.0.0, SVG Export Plug-In . SVG Version: 6.00 Build 0)  -->
<!DOCTYPE svg PUBLIC "-//W3C//DTD SVG 1.1//EN" "http://www.w3.org/Graphics/SVG/1.1/DTD/svg11.dtd">
<svg version="1.1" xmlns="http://www.w3.org/2000/svg" xmlns:xlink="http://www.w3.org/1999/xlink" x="0px" y="0px"
	 width="1619.797px" height="1079.865px" viewBox="0 0 1619.797 1079.865" enable-background="new 0 0 1619.797 1079.865"
	 xml:space="preserve">
<g id="Layer_1" display="none">
</g>
<g id="Layer_2">
	<g>
		<path fill="#5D92CA" d="M828.546-20.07c-13.037,2.772-21.328,15.533-18.551,28.563c2.771,13.032,15.529,21.319,28.561,18.551
			c12.785-2.717,21.32-15.532,18.551-28.562C854.34-14.551,841.573-22.842,828.546-20.07 M835.841,14.259
			c-6.014,1.28-12.039-2.412-13.316-8.427c-1.283-6.015,2.721-11.84,8.736-13.116c6.01-1.283,11.787,2.466,13.066,8.481
			C845.854,7.159,841.856,12.982,835.841,14.259"/>
		<path fill="#5D92CA" d="M889.419,97.308l0.564-6.965l24.311,23.302c1.654,1.465,3.886,2.002,6.135,1.482
			c0.244-0.06,0.492-0.113,0.992-0.232c2.44-0.826,4.281-3.09,4.32-5.202l2.758-70.054c-0.596-1.44-1.193-2.88-2.172-3.706l0,0
			L895.163,6.846c-4.654-31.53-18.773-72.181-81.778-110.484c-1.538-0.96-3.397-1.057-5.146-0.651l0,0
			c-1.743,0.401-3.323,1.554-4.341,2.841C764.06-39.401,769.194,3.32,778.833,33.701L763.57,73.513
			c-0.46,1.418-0.42,2.721,0.177,4.162l33.188,61.754c1.016,2.132,3.608,3.112,6.165,2.783c0.247-0.056,0.499-0.112,0.996-0.229
			c2.251-0.52,4.013-1.979,4.858-4.016l11.637-31.608l3.558,6.013 M812.003,93.094l-10.58,28.206l-25.369-47.252l10.371-26.853
			l25.904,45.027C812.39,92.474,812.193,92.781,812.003,93.094L812.003,93.094z M836.563,109.509l9.737-2.246 M866.271,102.653
			l9.738-2.25 M879.316,47.571l-1.052,13.657l0,0l-1.762,25.383l-0.229,2.423l-45.182,10.429l-1.271-2.076l-12.71-22.045l0,0
			l-6.935-11.808l-19.647-33.846c0,0,0,0-0.056-0.25c-8.458-27.497-12.989-65.366,20.319-120.386l0,0l0,0
			c54.057,34.852,66.582,70.873,71.043,99.291c0,0,0,0,0.055,0.251L879.316,47.571L879.316,47.571z M912.819,95.848L890.944,75.13
			c-0.307-0.188-0.365-0.446-0.617-0.384l3.549-51.825l21.084,19.582L912.819,95.848L912.819,95.848z"/>
	</g>
	<path fill="#5D92CA" d="M846.065,106.481l17.232,30.333l2.801-34.771 M846.065,106.481l20.033-4.438 M875.868,99.878l13.461-3.074
		l-8.176,90.957c-0.501,2.479-2.42,4.481-4.926,5.037c-2.752,0.61-5.34-0.393-6.59-2.482l-45.714-78.727l12.377-2.943l33.99,59.721
		l0,0L875.868,99.878"/>
</g>
</svg>
