<?xml version="1.0" encoding="utf-8"?>
<!-- Generator: Adobe Illustrator 16.0.0, SVG Export Plug-In . SVG Version: 6.00 Build 0)  -->
<!DOCTYPE svg PUBLIC "-//W3C//DTD SVG 1.1//EN" "http://www.w3.org/Graphics/SVG/1.1/DTD/svg11.dtd">
<svg version="1.1" xmlns="http://www.w3.org/2000/svg" xmlns:xlink="http://www.w3.org/1999/xlink" x="0px" y="0px"
	 width="1619.797px" height="1079.865px" viewBox="0 0 1619.797 1079.865" enable-background="new 0 0 1619.797 1079.865"
	 xml:space="preserve">
<g id="Layer_1" display="none">
</g>
<g id="Layer_2">
	<g>
		<path fill="#5D92CA" d="M812.101,558.129c-3.629-5.587-11.071-7.171-16.657-3.542c-5.587,3.629-7.168,11.07-3.54,16.656
			c3.559,5.481,11.07,7.169,16.655,3.542C814.146,571.158,815.729,563.714,812.101,558.129 M797.384,567.686
			c-1.675-2.578-1.03-6.052,1.548-7.726c2.579-1.676,6.015-0.852,7.689,1.727c1.675,2.577,0.959,5.944-1.619,7.619
			C802.494,571.087,799.059,570.264,797.384,567.686"/>
		<path fill="#5D92CA" d="M767.645,607.272l3.369-0.926l-6.792,15.408c-0.404,1.027-0.276,2.167,0.353,3.134
			c0.069,0.105,0.139,0.212,0.278,0.428c0.806,1.004,2.184,1.483,3.184,1.139l33.385-10.682c0.575-0.527,1.151-1.052,1.37-1.655l0,0
			l8.338-19.617c14.018-7.579,30.705-21.163,37.926-57.316c0.188-0.887-0.085-1.778-0.574-2.53l0,0
			c-0.488-0.75-1.299-1.295-2.078-1.554c-35.965-8.107-55.162,1.612-67.787,11.336l-21.315-0.364
			c-0.745,0.027-1.352,0.269-1.926,0.796l-23.34,26.153c-0.828,0.842-0.844,2.229-0.254,3.373c0.07,0.106,0.139,0.214,0.279,0.429
			c0.629,0.968,1.615,1.546,2.717,1.595l16.841,0.062l-2.217,2.701 M756.384,570.179l-15.063-0.148l17.865-20.002l14.388,0.281
			l-16.727,19.874C756.741,570.253,756.563,570.216,756.384,570.179L756.384,570.179z M752.874,584.524l2.719,4.191 M761.174,597.31
			l2.722,4.191 M789.286,594.021l-6.597,1.841l0,0l-12.229,3.512l-1.177,0.305l-12.627-19.443l0.756-0.952l8.184-9.741l0,0
			l4.363-5.279l12.544-15.019c0,0,0,0,0.107-0.07c11.474-8.674,28.49-17.279,60.037-11.038l0,0l0,0
			c-7.128,31.358-21.912,43.403-34.501,50.357c0,0,0,0-0.108,0.071L789.286,594.021L789.286,594.021z M772.331,618.017l5.994-13.821
			c0.037-0.176,0.146-0.247,0.076-0.355l24.958-7.195l-5.597,13.256L772.331,618.017L772.331,618.017z"/>
	</g>
</g>
</svg>
