<?xml version="1.0" encoding="utf-8"?>
<!-- Generator: Adobe Illustrator 16.0.0, SVG Export Plug-In . SVG Version: 6.00 Build 0)  -->
<!DOCTYPE svg PUBLIC "-//W3C//DTD SVG 1.1//EN" "http://www.w3.org/Graphics/SVG/1.1/DTD/svg11.dtd">
<svg version="1.1" xmlns="http://www.w3.org/2000/svg" xmlns:xlink="http://www.w3.org/1999/xlink" x="0px" y="0px"
	 width="1619.797px" height="1079.865px" viewBox="0 0 1619.797 1079.865" enable-background="new 0 0 1619.797 1079.865"
	 xml:space="preserve">
<g id="Layer_1" display="none">
</g>
<g id="Layer_2">
	<g>
		<path fill="#5D92CA" d="M808.23,555.623c-4.104-5.25-11.655-6.179-16.903-2.077c-5.249,4.102-6.177,11.652-2.075,16.902
			c4.023,5.15,11.652,6.176,16.901,2.077C811.402,568.423,812.331,560.87,808.23,555.623 M794.401,566.425
			c-1.894-2.422-1.554-5.938,0.868-7.83c2.423-1.896,5.918-1.374,7.811,1.051c1.894,2.42,1.475,5.836-0.948,7.73
			C799.788,569.368,796.295,568.849,794.401,566.425"/>
		<path fill="#5D92CA" d="M768.226,608.453l3.274-1.216l-5.423,15.941c-0.313,1.059-0.086,2.182,0.625,3.092
			c0.078,0.098,0.156,0.199,0.315,0.401c0.889,0.931,2.305,1.287,3.27,0.857l32.328-13.551c0.527-0.575,1.055-1.149,1.221-1.769l0,0
			l6.596-20.27c13.305-8.771,28.743-23.758,32.787-60.403c0.109-0.9-0.24-1.764-0.793-2.471l0,0
			c-0.551-0.705-1.407-1.177-2.205-1.366c-36.535-4.942-54.811,6.413-66.54,17.2l-21.266,1.496c-0.739,0.092-1.323,0.385-1.85,0.96
			l-20.972,28.087c-0.752,0.911-0.646,2.294,0.041,3.382c0.079,0.1,0.157,0.203,0.315,0.404c0.712,0.909,1.744,1.399,2.846,1.352
			l16.782-1.406l-1.973,2.884 M753.774,572.482l-15.018,1.165l16.053-21.482l14.358-0.975l-14.931,21.255
			C754.137,572.526,753.956,572.504,753.774,572.482L753.774,572.482z M751.527,587.079l3.074,3.938 M760.91,599.092l3.078,3.938
			 M788.629,593.366l-6.412,2.41l0,0l-11.874,4.564l-1.147,0.407l-14.273-18.27l0.672-1.015l7.303-10.417l0,0l3.887-5.64
			l11.188-16.055c0,0,0,0,0.101-0.079c10.675-9.642,26.876-19.698,58.847-16.229l0,0l0,0c-4.369,31.86-18.045,45.147-29.982,53.173
			c0,0,0,0-0.1,0.079L788.629,593.366L788.629,593.366z M773.83,618.748l4.767-14.291c0.021-0.178,0.124-0.258,0.044-0.36
			l24.236-9.343l-4.42,13.693L773.83,618.748L773.83,618.748z"/>
	</g>
</g>
</svg>
