<?xml version="1.0" encoding="utf-8"?>
<!-- Generator: Adobe Illustrator 16.0.0, SVG Export Plug-In . SVG Version: 6.00 Build 0)  -->
<!DOCTYPE svg PUBLIC "-//W3C//DTD SVG 1.1//EN" "http://www.w3.org/Graphics/SVG/1.1/DTD/svg11.dtd">
<svg version="1.1" xmlns="http://www.w3.org/2000/svg" xmlns:xlink="http://www.w3.org/1999/xlink" x="0px" y="0px"
	 width="1619.797px" height="1079.865px" viewBox="0 0 1619.797 1079.865" enable-background="new 0 0 1619.797 1079.865"
	 xml:space="preserve">
<g id="Layer_1" display="none">
</g>
<g id="Layer_2">
	<g>
		<path fill="#5D92CA" d="M816.47,501.033c-5.829-3.229-13.144-1.134-16.37,4.693c-3.229,5.826-1.133,13.139,4.693,16.368
			c5.715,3.169,13.139,1.132,16.37-4.692C824.393,511.576,822.295,504.26,816.47,501.033 M807.962,516.379
			c-2.69-1.49-3.752-4.859-2.261-7.548c1.489-2.69,4.911-3.576,7.6-2.084c2.688,1.487,3.639,4.796,2.148,7.486
			C814.068,516.984,810.65,517.871,807.962,516.379"/>
		<path fill="#5D92CA" d="M800.937,565.293l2.498-2.443l1.53,16.769c0.145,1.095,0.81,2.029,1.829,2.571
			c0.112,0.058,0.223,0.119,0.451,0.238c1.191,0.489,2.629,0.238,3.336-0.546l24.021-25.529c0.248-0.739,0.495-1.478,0.396-2.112
			l0,0l-2.218-21.2c8.587-13.424,16.594-33.396,5.383-68.517c-0.266-0.867-0.936-1.513-1.729-1.935l0,0
			c-0.79-0.419-1.764-0.503-2.57-0.352c-35.387,10.346-47.463,28.152-53.792,42.778l-18.818,10.016
			c-0.639,0.385-1.051,0.89-1.299,1.629l-7.734,34.189c-0.316,1.139,0.341,2.359,1.414,3.074c0.111,0.06,0.226,0.121,0.451,0.24
			c1.02,0.542,2.163,0.57,3.15,0.078l14.759-8.11l-0.629,3.436 M773.105,538.31l-13.245,7.173l5.927-26.154l12.721-6.73
			l-4.994,25.49C773.454,538.203,773.28,538.255,773.105,538.31L773.105,538.31z M776.989,552.559l4.411,2.348 M790.448,559.717
			l4.413,2.346 M813.44,543.212l-4.877,4.809l0,0l-8.991,9l-0.882,0.838l-20.47-10.884l0.201-1.2l2.435-12.488l0,0l1.256-6.732
			l3.689-19.217c0,0,0,0,0.061-0.112c5.828-13.15,16.541-28.926,47.157-38.762l0,0l0,0c8.967,30.884,1.878,48.584-5.762,60.771
			c0,0,0,0-0.061,0.114L813.44,543.212L813.44,543.212z M810.246,572.418l-1.459-14.993c-0.054-0.171,0.009-0.287-0.106-0.347
			l18.341-18.394l1.531,14.308L810.246,572.418L810.246,572.418z"/>
	</g>
	<path fill="#5D92CA" d="M784.664,555.139l-1.351,6.845l4.964-4.901 M784.664,555.139l3.613,1.944 M790.041,558.03l2.439,1.293
		l-13.117,12.71c-0.399,0.31-0.952,0.363-1.404,0.119c-0.497-0.267-0.757-0.756-0.674-1.237l3.357-17.895l2.259,1.171l-2.651,13.485
		l0,0L790.041,558.03"/>
</g>
</svg>
