<?xml version="1.0" encoding="utf-8"?>
<!-- Generator: Adobe Illustrator 16.0.0, SVG Export Plug-In . SVG Version: 6.00 Build 0)  -->
<!DOCTYPE svg PUBLIC "-//W3C//DTD SVG 1.1//EN" "http://www.w3.org/Graphics/SVG/1.1/DTD/svg11.dtd">
<svg version="1.1" xmlns="http://www.w3.org/2000/svg" xmlns:xlink="http://www.w3.org/1999/xlink" x="0px" y="0px"
	 width="1619.797px" height="1079.865px" viewBox="0 0 1619.797 1079.865" enable-background="new 0 0 1619.797 1079.865"
	 xml:space="preserve">
<g id="Layer_1" display="none">
</g>
<g id="Layer_2">
	<g>
		<path fill="#5D92CA" d="M856.769,119.5c-6.628,0.697-11.417,6.609-10.718,13.234c0.697,6.625,6.608,11.412,13.232,10.717
			c6.5-0.683,11.413-6.609,10.718-13.232C869.306,123.593,863.391,118.803,856.769,119.5 M858.602,136.952
			c-3.058,0.322-5.86-1.829-6.182-4.886c-0.323-3.059,1.972-5.746,5.03-6.066c3.056-0.324,5.731,1.842,6.054,4.9
			C863.951,133.945,861.659,136.632,858.602,136.952"/>
		<path fill="#5D92CA" d="M880.903,181.049l0.645-3.434l10.871,12.857c0.746,0.815,1.827,1.199,2.973,1.059
			c0.125-0.018,0.25-0.031,0.506-0.064c1.256-0.283,2.29-1.313,2.419-2.361l5.033-34.69c-0.221-0.747-0.442-1.494-0.887-1.956l0,0
			l-13.977-16.093c-0.666-15.923-5.562-36.874-34.891-59.214c-0.714-0.558-1.634-0.703-2.525-0.593l0,0
			c-0.888,0.108-1.734,0.599-2.307,1.186c-23.053,28.772-22.732,50.284-19.526,65.896l-9.671,18.998
			c-0.303,0.682-0.351,1.332-0.129,2.08l13.274,32.441c0.394,1.113,1.633,1.736,2.92,1.707c0.125-0.015,0.254-0.029,0.507-0.063
			c1.146-0.141,2.099-0.773,2.626-1.742l7.438-15.109l1.455,3.176 M842.628,174.908l-6.736,13.473l-10.145-24.822l6.561-12.811
			l10.528,23.744C842.853,174.619,842.739,174.762,842.628,174.908L842.628,174.908z M853.982,184.354l4.96-0.607 M869.113,182.498
			l4.96-0.61 M878.479,155.789l-1.236,6.736l0,0l-2.204,12.529l-0.241,1.193l-23.012,2.824l-0.524-1.099l-5.167-11.626l0,0
			l-2.832-6.234l-8-17.857c0,0,0,0-0.015-0.127c-2.769-14.115-3.042-33.183,16.396-58.801l0,0l0,0
			c25.059,20.155,29.404,38.722,30.137,53.086c0,0,0,0,0.015,0.129L878.479,155.789L878.479,155.789z M892.615,181.546
			l-9.794-11.445c-0.143-0.11-0.158-0.241-0.287-0.223l4.474-25.585l9.461,10.838L892.615,181.546L892.615,181.546z"/>
	</g>
	<path fill="#5D92CA" d="M858.895,183.332l6.905,16.018l3.294-17.129 M858.895,183.332l10.199-1.111 M874.068,181.68l6.857-0.791
		l-9.038,44.758c-0.385,1.206-1.448,2.096-2.725,2.234c-1.4,0.153-2.632-0.487-3.14-1.596l-18.412-41.627l6.312-0.785l13.626,31.54
		l0,0L874.068,181.68"/>
</g>
</svg>
