<?xml version="1.0" encoding="utf-8"?>
<!-- Generator: Adobe Illustrator 16.0.0, SVG Export Plug-In . SVG Version: 6.00 Build 0)  -->
<!DOCTYPE svg PUBLIC "-//W3C//DTD SVG 1.1//EN" "http://www.w3.org/Graphics/SVG/1.1/DTD/svg11.dtd">
<svg version="1.1" xmlns="http://www.w3.org/2000/svg" xmlns:xlink="http://www.w3.org/1999/xlink" x="0px" y="0px"
	 width="1619.797px" height="1079.865px" viewBox="0 0 1619.797 1079.865" enable-background="new 0 0 1619.797 1079.865"
	 xml:space="preserve">
<g id="Layer_1" display="none">
</g>
<g id="Layer_2">
	<g>
		<path fill="#5D92CA" d="M812.864,558.565c-3.531-5.65-10.944-7.363-16.592-3.832c-5.65,3.531-7.361,10.943-3.83,16.593
			c3.462,5.542,10.942,7.361,16.591,3.832C814.682,571.627,816.395,564.213,812.864,558.565 M797.982,567.864
			c-1.63-2.607-0.924-6.069,1.683-7.698c2.607-1.631,6.029-0.746,7.658,1.862c1.629,2.606,0.855,5.959-1.752,7.589
			C803.032,571.354,799.612,570.472,797.982,567.864"/>
		<path fill="#5D92CA" d="M767.558,606.925l3.385-0.867l-7.061,15.287c-0.422,1.02-0.313,2.161,0.298,3.14
			c0.067,0.106,0.135,0.214,0.271,0.432c0.788,1.019,2.157,1.522,3.163,1.195l33.566-10.098c0.585-0.517,1.169-1.033,1.399-1.631
			l0,0l8.679-19.469c14.148-7.333,31.069-20.624,38.92-56.646c0.204-0.883-0.053-1.779-0.529-2.54l0,0
			c-0.475-0.759-1.275-1.317-2.05-1.59c-35.818-8.733-55.183,0.648-67.974,10.152l-21.306-0.736
			c-0.745,0.015-1.356,0.245-1.939,0.762l-23.792,25.742c-0.844,0.827-0.884,2.213-0.313,3.368c0.067,0.107,0.136,0.217,0.271,0.434
			c0.612,0.979,1.588,1.575,2.688,1.643l16.838,0.356l-2.264,2.662 M756.946,569.64l-15.059-0.411l18.211-19.687l14.381,0.531
			l-17.07,19.579C757.301,569.721,757.124,569.681,756.946,569.64L756.946,569.64z M753.186,583.923l2.646,4.237 M761.262,596.851
			l2.647,4.238 M789.427,594.053l-6.629,1.727l0,0l-12.287,3.298l-1.183,0.284l-12.286-19.661l0.773-0.938l8.353-9.597l0,0
			l4.455-5.202l12.804-14.797c0,0,0,0,0.109-0.068c11.623-8.473,28.787-16.78,60.22-9.989l0,0l0,0
			c-7.675,31.229-22.665,43.013-35.375,49.748c0,0,0,0-0.108,0.068L789.427,594.053L789.427,594.053z M772.056,617.75l6.233-13.714
			c0.04-0.176,0.15-0.245,0.082-0.354l25.08-6.759l-5.827,13.156L772.056,617.75L772.056,617.75z"/>
	</g>
</g>
</svg>
