<?xml version="1.0" encoding="utf-8"?>
<!-- Generator: Adobe Illustrator 16.0.0, SVG Export Plug-In . SVG Version: 6.00 Build 0)  -->
<!DOCTYPE svg PUBLIC "-//W3C//DTD SVG 1.1//EN" "http://www.w3.org/Graphics/SVG/1.1/DTD/svg11.dtd">
<svg version="1.1" xmlns="http://www.w3.org/2000/svg" xmlns:xlink="http://www.w3.org/1999/xlink" x="0px" y="0px"
	 width="1619.797px" height="1079.865px" viewBox="0 0 1619.797 1079.865" enable-background="new 0 0 1619.797 1079.865"
	 xml:space="preserve">
<g id="Layer_1" display="none">
</g>
<g id="Layer_2">
	<g>
		<path fill="#5D92CA" d="M856.658,375.799c-12.811-3.67-26.122,3.704-29.79,16.512c-3.67,12.806,3.705,26.114,16.51,29.786
			c12.564,3.605,26.115-3.705,29.789-16.509C876.841,392.782,869.462,379.468,856.658,375.799 M846.983,409.534
			c-5.913-1.693-9.498-7.783-7.803-13.692c1.691-5.912,7.961-9.177,13.872-7.48c5.909,1.69,9.249,7.711,7.554,13.623
			C859.157,407.965,852.894,411.231,846.983,409.534"/>
		<path fill="#5D92CA" d="M855.301,508.015l3.769-5.884l10.525,31.989c0.773,2.069,2.491,3.59,4.721,4.188
			c0.244,0.062,0.487,0.131,0.985,0.261c2.542,0.417,5.229-0.718,6.256-2.565l35.325-60.556c0.15-1.553,0.299-3.104-0.18-4.294l0,0
			l-13.861-40.314c10.696-30.024,17.313-72.543-20.336-135.944c-0.906-1.57-2.504-2.528-4.238-2.992l0,0
			c-1.728-0.463-3.664-0.187-5.167,0.472c-64.304,36.081-79.827,76.214-85.579,107.563l-32.166,27.985
			c-1.072,1.037-1.648,2.207-1.798,3.759l0.311,70.106c-0.104,2.36,1.726,4.442,4.137,5.354c0.243,0.066,0.494,0.134,0.987,0.264
			c2.23,0.597,4.472,0.137,6.175-1.266l25.112-22.444l0.32,6.979 M788.925,467.953l-22.584,19.937l-0.217-53.633l21.762-18.84
			l1.736,51.92C789.556,467.586,789.241,467.768,788.925,467.953L788.925,467.953z M802.903,493.974l9.653,2.59 M832.353,501.867
			l9.655,2.585 M869.732,459.36l-7.341,11.565l0,0l-13.473,21.583l-1.342,2.031l-44.787-12.002l-0.148-2.429l-0.873-25.431l0,0
			l-0.58-13.684l-1.457-39.108c0,0,0,0,0.067-0.247c5.442-28.249,19.219-63.811,74.458-96.753l0,0l0,0
			c31.37,56.15,25.518,93.833,16.113,121.02c0,0,0,0-0.068,0.249L869.732,459.36L869.732,459.36z M876.647,517.712l-9.59-28.562
			c-0.182-0.311-0.111-0.563-0.363-0.628l27.467-44.095l9.422,27.192L876.647,517.712L876.647,517.712z"/>
	</g>
	<path fill="#5D92CA" d="M814.995,496.489l0.979,27.891l14.871-23.613 M814.995,496.489l15.85,4.277 M838.573,502.852l10.683,2.81
		l-39.505,61.456c-1.275,1.573-3.377,2.281-5.361,1.745c-2.176-0.587-3.637-2.256-3.752-4.202l-3.232-72.758l9.865,2.501
		l1.966,54.936l0,0L838.573,502.852"/>
</g>
</svg>
