<?xml version="1.0" encoding="utf-8"?>
<!-- Generator: Adobe Illustrator 16.0.0, SVG Export Plug-In . SVG Version: 6.00 Build 0)  -->
<!DOCTYPE svg PUBLIC "-//W3C//DTD SVG 1.1//EN" "http://www.w3.org/Graphics/SVG/1.1/DTD/svg11.dtd">
<svg version="1.1" xmlns="http://www.w3.org/2000/svg" xmlns:xlink="http://www.w3.org/1999/xlink" x="0px" y="0px"
	 width="1619.797px" height="1079.865px" viewBox="0 0 1619.797 1079.865" enable-background="new 0 0 1619.797 1079.865"
	 xml:space="preserve">
<g id="Layer_1" display="none">
</g>
<g id="Layer_2">
	<g>
		<path fill="#5D92CA" d="M831.808,490.571c-11.424-6.862-26.19-3.185-33.047,8.238c-6.861,11.421-3.182,26.184,8.238,33.044
			c11.204,6.733,26.184,3.182,33.046-8.235C846.908,512.199,843.225,497.429,831.808,490.571 M813.732,520.652
			c-5.273-3.166-7.16-9.975-3.993-15.245c3.164-5.274,10.064-6.804,15.334-3.635c5.271,3.162,6.939,9.841,3.771,15.114
			C825.896,522.288,819.002,523.821,813.732,520.652"/>
		<path fill="#5D92CA" d="M796.275,617.931l5.163-4.708l1.888,33.623c0.212,2.199,1.477,4.112,3.476,5.267
			c0.22,0.124,0.437,0.252,0.885,0.507c2.348,1.06,5.238,0.66,6.706-0.859l49.795-49.35c0.548-1.461,1.092-2.921,0.938-4.194l0,0
			l-2.954-42.529c18.102-26.233,35.498-65.591,15.543-136.575c-0.47-1.752-1.765-3.09-3.319-3.988l0,0
			c-1.55-0.894-3.491-1.128-5.114-0.882c-71.451,18.209-96.834,52.957-110.504,81.749l-38.313,18.706
			c-1.304,0.724-2.164,1.705-2.709,3.166l-17.845,67.797c-0.711,2.253,0.518,4.738,2.611,6.243c0.219,0.126,0.442,0.257,0.885,0.51
			c2,1.155,4.284,1.29,6.292,0.376l30.066-15.179l-1.497,6.824 M742.531,562.054l-26.975,13.412l13.672-51.862l25.897-12.565
			l-11.762,50.601C743.235,561.863,742.883,561.957,742.531,562.054L742.531,562.054z M749.299,590.806l8.652,5 M775.7,606.052
			l8.658,4.997 M822.81,574.668l-10.085,9.272l0,0l-18.6,17.36l-1.821,1.615l-40.155-23.185l0.485-2.385l5.738-24.79l0,0
			l2.981-13.369l8.715-38.153c0,0,0,0,0.129-0.221c12.568-25.877,35.082-56.663,96.964-74.185l0,0l0,0
			c15.768,62.354,0.361,97.239-15.76,121.065c0,0,0,0-0.128,0.224L822.81,574.668L822.81,574.668z M814.385,632.822l-1.869-30.071
			c-0.096-0.346,0.038-0.573-0.189-0.7l37.943-35.483l2.064,28.704L814.385,632.822L814.385,632.822z"/>
	</g>
	<path fill="#5D92CA" d="M764.411,596.05l-3.241,13.57l10.309-9.4 M764.411,596.05l7.068,4.17 M774.928,602.252l4.773,2.777
		l-27.218,24.364c-0.822,0.587-1.931,0.65-2.815,0.127c-0.971-0.572-1.453-1.573-1.249-2.525l8.123-35.496l4.422,2.518
		l-6.364,26.739l0,0L774.928,602.252"/>
</g>
</svg>
