<?xml version="1.0" encoding="utf-8"?>
<!-- Generator: Adobe Illustrator 16.0.0, SVG Export Plug-In . SVG Version: 6.00 Build 0)  -->
<!DOCTYPE svg PUBLIC "-//W3C//DTD SVG 1.1//EN" "http://www.w3.org/Graphics/SVG/1.1/DTD/svg11.dtd">
<svg version="1.1" xmlns="http://www.w3.org/2000/svg" xmlns:xlink="http://www.w3.org/1999/xlink" x="0px" y="0px"
	 width="1619.797px" height="1079.865px" viewBox="0 0 1619.797 1079.865" enable-background="new 0 0 1619.797 1079.865"
	 xml:space="preserve">
<g id="Layer_1" display="none">
</g>
<g id="Layer_2">
	<g>
		<path fill="#5D92CA" d="M823.276,520.36c-10.358-8.386-25.493-6.799-33.873,3.558c-8.384,10.354-6.794,25.485,3.56,33.869
			c10.156,8.228,25.486,6.794,33.871-3.557C835.22,543.878,833.628,528.739,823.276,520.36 M801.189,547.632
			c-4.78-3.868-5.701-10.874-1.833-15.651c3.868-4.783,10.914-5.337,15.692-1.465c4.779,3.864,5.502,10.71,1.632,15.491
			C813.008,550.945,805.968,551.504,801.189,547.632"/>
		<path fill="#5D92CA" d="M770.365,641.535l5.768-3.944l-2.812,33.558c-0.096,2.208,0.891,4.278,2.709,5.7
			c0.201,0.152,0.398,0.311,0.805,0.625c2.179,1.376,5.095,1.383,6.761,0.083l56.18-41.94c0.746-1.37,1.488-2.74,1.512-4.022l0,0
			l2.994-42.526c21.577-23.458,44.281-60.013,34.399-133.082c-0.222-1.8-1.317-3.306-2.732-4.411l0,0
			c-1.411-1.101-3.3-1.603-4.941-1.585c-73.291,8.087-103.263,38.965-120.807,65.574l-40.543,13.191
			c-1.393,0.536-2.38,1.388-3.124,2.758l-27.108,64.654c-1.018,2.132-0.146,4.764,1.716,6.545c0.2,0.156,0.403,0.316,0.806,0.629
			c1.82,1.422,4.063,1.873,6.178,1.247l31.887-10.847l-2.433,6.549 M724.919,578.723l-28.579,9.527l20.758-49.455l27.393-8.837
			l-18.689,48.471C725.643,578.631,725.281,578.674,724.919,578.723L724.919,578.723z M727.621,608.136l7.872,6.155
			 M751.643,626.908l7.877,6.153 M802.662,602.386l-11.279,7.778l0,0l-20.834,14.603l-2.029,1.346l-36.537-28.548l0.813-2.294
			l9.133-23.75l0,0l4.813-12.823l13.94-36.569c0,0,0,0,0.158-0.201c16.048-23.876,42.627-51.229,106.345-59.968l0,0l0,0
			c6.937,63.943-13.175,96.344-32.455,117.694c0,0,0,0-0.158,0.203L802.662,602.386L802.662,602.386z M786.225,658.802l2.334-30.039
			c-0.045-0.356,0.118-0.562-0.088-0.719l42.512-29.858l-1.951,28.712L786.225,658.802L786.225,658.802z"/>
	</g>
	<g>
		<polygon fill="#5D92CA" points="746.686,616.338 746.52,616.788 746.907,616.511 		"/>
		<path fill="#5D92CA" d="M750.046,618.955l-11.37,8.111l4.851-13.187l-3.951-3.075l-7.776,21.723
			c-0.316,0.923,0.044,1.974,0.94,2.656c0.817,0.624,1.924,0.693,2.811,0.207l18.739-13.133L750.046,618.955z"/>
	</g>
</g>
</svg>
