<?xml version="1.0" encoding="utf-8"?>
<!-- Generator: Adobe Illustrator 16.0.0, SVG Export Plug-In . SVG Version: 6.00 Build 0)  -->
<!DOCTYPE svg PUBLIC "-//W3C//DTD SVG 1.1//EN" "http://www.w3.org/Graphics/SVG/1.1/DTD/svg11.dtd">
<svg version="1.1" xmlns="http://www.w3.org/2000/svg" xmlns:xlink="http://www.w3.org/1999/xlink" x="0px" y="0px"
	 width="1619.797px" height="1079.865px" viewBox="0 0 1619.797 1079.865" enable-background="new 0 0 1619.797 1079.865"
	 xml:space="preserve">
<g id="Layer_1" display="none">
</g>
<g id="Layer_2">
	<g>
		<path fill="#5D92CA" d="M802.802,551.121c-4.712-4.711-12.321-4.713-17.029-0.001c-4.71,4.71-4.711,12.318,0,17.028
			c4.621,4.622,12.318,4.71,17.028,0.001C807.511,563.439,807.512,555.829,802.802,551.121 M790.394,563.528
			c-2.175-2.174-2.267-5.705-0.093-7.879c2.173-2.176,5.706-2.084,7.88,0.092c2.174,2.171,2.175,5.613,0.001,7.788
			C796.098,565.792,792.567,565.703,790.394,563.528"/>
		<path fill="#5D92CA" d="M769.534,608.433l3.103-1.606l-3.44,16.483c-0.182,1.089,0.181,2.176,0.996,2.993
			c0.09,0.088,0.179,0.179,0.362,0.36c0.997,0.815,2.445,0.997,3.351,0.453l30.436-17.39c0.454-0.635,0.906-1.269,0.996-1.904l0,0
			l4.077-20.922c12.137-10.327,25.633-27.084,25.18-63.949c0-0.908-0.453-1.721-1.087-2.356l0,0
			c-0.634-0.632-1.54-0.997-2.354-1.087c-36.866-0.453-53.622,13.044-63.949,25.181l-20.924,4.076
			c-0.724,0.182-1.267,0.543-1.719,1.179l-17.393,30.434c-0.635,0.996-0.362,2.355,0.454,3.353c0.089,0.09,0.18,0.182,0.362,0.361
			c0.817,0.817,1.901,1.178,2.989,0.996l16.485-3.44l-1.606,3.102 M750.807,574.491l-14.764,2.987l13.315-23.278l14.132-2.718
			l-12.229,22.916C751.171,574.49,750.99,574.49,750.807,574.491L750.807,574.491z M750.355,589.253l3.532,3.534 M761.133,600.033
			l3.534,3.534 M787.946,590.972l-6.07,3.173l0,0l-11.229,5.978l-1.089,0.543l-16.393-16.394l0.543-1.089l5.979-11.23l0,0
			l3.169-6.071l9.147-17.299c0,0,0,0,0.09-0.09c9.419-10.871,24.276-22.826,56.43-23.28l0,0l0,0
			c-0.454,32.156-12.408,47.011-23.278,56.431c0,0,0,0-0.09,0.091L787.946,590.972L787.946,590.972z M776.352,617.968l2.99-14.765
			c-0.001-0.179,0.092-0.271,0-0.362l22.917-12.228l-2.718,14.131L776.352,617.968L776.352,617.968z"/>
	</g>
</g>
</svg>
