<?xml version="1.0" encoding="utf-8"?>
<!-- Generator: Adobe Illustrator 16.0.0, SVG Export Plug-In . SVG Version: 6.00 Build 0)  -->
<!DOCTYPE svg PUBLIC "-//W3C//DTD SVG 1.1//EN" "http://www.w3.org/Graphics/SVG/1.1/DTD/svg11.dtd">
<svg version="1.1" xmlns="http://www.w3.org/2000/svg" xmlns:xlink="http://www.w3.org/1999/xlink" x="0px" y="0px"
	 width="1619.797px" height="1079.865px" viewBox="0 0 1619.797 1079.865" enable-background="new 0 0 1619.797 1079.865"
	 xml:space="preserve">
<g id="Layer_1" display="none">
</g>
<g id="Layer_2">
	<g>
		<path fill="#5D92CA" d="M841.977,453.832c-12.079-5.629-26.38-0.429-32.005,11.648c-5.631,12.075-0.428,26.372,11.646,32.002
			c11.847,5.526,26.374,0.427,32.005-11.646C859.255,473.763,854.048,459.459,841.977,453.832 M827.144,485.638
			c-5.576-2.596-8.163-9.171-5.564-14.743c2.596-5.576,9.299-7.819,14.871-5.218c5.572,2.593,7.929,9.063,5.331,14.637
			C839.413,485.993,832.717,488.239,827.144,485.638"/>
		<path fill="#5D92CA" d="M819.952,584.208l4.643-5.223l5.392,33.242c0.44,2.166,1.898,3.935,4.007,4.875
			c0.231,0.1,0.461,0.205,0.934,0.412c2.445,0.809,5.277,0.109,6.578-1.555l44.365-54.285c0.393-1.51,0.781-3.019,0.494-4.269l0,0
			l-7.383-41.987c15.262-27.981,28.447-68.942,1.182-137.45c-0.651-1.694-2.079-2.89-3.719-3.619l0,0
			c-1.635-0.727-3.59-0.758-5.178-0.343c-69.157,25.577-90.768,62.788-101.354,92.852l-36.148,22.608
			c-1.221,0.856-1.973,1.921-2.363,3.432l-10.66,69.291c-0.472,2.315,1.01,4.658,3.249,5.935c0.23,0.104,0.466,0.21,0.934,0.415
			c2.11,0.94,4.395,0.835,6.297-0.284l28.313-18.239l-0.775,6.942 M760.661,534.256l-25.426,16.158l8.178-53.007l24.44-15.203
			l-6.408,51.553C761.341,533.993,761.001,534.122,760.661,534.256L760.661,534.256z M770.397,562.142l9.128,4.068 M798.247,574.545
			l9.133,4.065 M841.817,538.409l-9.061,10.276l0,0l-16.683,19.208l-1.643,1.796l-42.358-18.86l0.232-2.423l3.117-25.254l0,0
			l1.567-13.607l4.68-38.854c0,0,0,0,0.104-0.233c9.795-27.049,28.965-60.019,88.678-83.914l0,0l0,0
			c22.199,60.365,10.524,96.669-3.018,122.05c0,0,0,0-0.104,0.235L841.817,538.409L841.817,538.409z M839.519,597.125l-5.002-29.711
			c-0.132-0.334-0.021-0.574-0.261-0.677l34.025-39.255l5.053,28.331L839.519,597.125L839.519,597.125z"/>
	</g>
	<path fill="#5D92CA" d="M785.97,566.737l-1.797,13.837l9.264-10.433 M785.97,566.737l7.467,3.404 M797.079,571.799l5.039,2.26
		l-24.508,27.09c-0.756,0.671-1.85,0.85-2.785,0.422c-1.025-0.466-1.611-1.411-1.507-2.379l4.347-36.154l4.662,2.04l-3.518,27.26
		l0,0L797.079,571.799"/>
</g>
</svg>
