<?xml version="1.0" encoding="utf-8"?>
<!-- Generator: Adobe Illustrator 16.0.0, SVG Export Plug-In . SVG Version: 6.00 Build 0)  -->
<!DOCTYPE svg PUBLIC "-//W3C//DTD SVG 1.1//EN" "http://www.w3.org/Graphics/SVG/1.1/DTD/svg11.dtd">
<svg version="1.1" xmlns="http://www.w3.org/2000/svg" xmlns:xlink="http://www.w3.org/1999/xlink" x="0px" y="0px"
	 width="1619.797px" height="1079.865px" viewBox="0 0 1619.797 1079.865" enable-background="new 0 0 1619.797 1079.865"
	 xml:space="preserve">
<g id="Layer_1" display="none">
</g>
<g id="Layer_2">
	<g>
		<path fill="#5D92CA" d="M839.195,543.895c-5.632-12.077-19.931-17.282-32.005-11.651c-12.072,5.629-17.276,19.93-11.646,32.004
			c5.521,11.844,19.929,17.278,32.001,11.649C839.62,570.266,844.826,555.967,839.195,543.895 M807.387,558.727
			c-2.599-5.573-0.354-12.274,5.218-14.873c5.573-2.6,12.149-0.01,14.748,5.562c2.599,5.572,0.246,12.041-5.328,14.639
			C816.561,566.885,809.986,564.299,807.387,558.727"/>
		<path fill="#5D92CA" d="M737.47,628.85l6.933-0.896l-17.744,28.627c-1.086,1.921-1.148,4.21-0.172,6.303
			c0.107,0.23,0.215,0.461,0.433,0.926c1.314,2.214,3.914,3.545,5.989,3.144l69.093-11.865c1.287-0.883,2.572-1.765,3.175-2.896l0,0
			l21.973-36.534c29.873-11.105,66.702-33.366,91.069-102.959c0.618-1.704,0.324-3.544-0.433-5.171l0,0
			c-0.759-1.624-2.213-2.926-3.684-3.654c-68.974-26.068-109.7-12.166-137.408,3.582l-42.113-6.653
			c-1.483-0.154-2.753,0.154-4.038,1.037l-53.503,45.302c-1.875,1.437-2.293,4.177-1.442,6.608c0.108,0.232,0.216,0.463,0.434,0.93
			c0.975,2.09,2.769,3.514,4.938,3.916l33.336,4.808l-5.142,4.733 M725.494,552.248l-29.792-4.482l40.949-34.642l28.418,4.559
			l-38.66,34.707C726.178,552.496,725.837,552.373,725.494,552.248L725.494,552.248z M714.545,579.686l4.222,9.057 M727.429,607.317
			l4.224,9.056 M784.017,608.633l-13.575,1.807l0,0l-25.198,3.553l-2.416,0.278l-19.597-42.026l1.766-1.672l18.919-17.018l0,0
			l10.109-9.238l29.027-26.256c0,0,0,0,0.232-0.11c25.139-13.984,61.235-26.292,121.978-5.149l0,0l0,0
			c-22.847,60.123-55.479,79.862-82.35,90.132c0,0,0,0-0.232,0.108L784.017,608.633L784.017,608.633z M743.76,651.434l15.719-25.705
			c0.122-0.34,0.357-0.449,0.247-0.682l51.436-7.305l-14.774,24.698L743.76,651.434L743.76,651.434z"/>
	</g>
</g>
</svg>
