<?xml version="1.0" encoding="utf-8"?>
<!-- Generator: Adobe Illustrator 16.0.0, SVG Export Plug-In . SVG Version: 6.00 Build 0)  -->
<!DOCTYPE svg PUBLIC "-//W3C//DTD SVG 1.1//EN" "http://www.w3.org/Graphics/SVG/1.1/DTD/svg11.dtd">
<svg version="1.1" xmlns="http://www.w3.org/2000/svg" xmlns:xlink="http://www.w3.org/1999/xlink" x="0px" y="0px"
	 width="1619.797px" height="1079.865px" viewBox="0 0 1619.797 1079.865" enable-background="new 0 0 1619.797 1079.865"
	 xml:space="preserve">
<g id="Layer_1" display="none">
</g>
<g id="Layer_2">
	<g>
		<path fill="#5D92CA" d="M850.634,413.939c-12.523-4.556-26.317,1.872-30.869,14.393c-4.555,12.52,1.874,26.309,14.392,30.865
			c12.282,4.472,26.311-1.874,30.868-14.39C869.583,432.288,863.15,418.492,850.634,413.939 M838.629,446.916
			c-5.78-2.101-8.932-8.425-6.828-14.202c2.1-5.781,8.582-8.6,14.359-6.495c5.777,2.098,8.688,8.337,6.587,14.116
			C850.883,446.201,844.407,449.021,838.629,446.916"/>
		<path fill="#5D92CA" d="M840.057,545.738l4.17-5.607l8.269,32.645c0.627,2.119,2.234,3.754,4.416,4.507
			c0.239,0.079,0.478,0.164,0.966,0.33c2.507,0.592,5.268-0.352,6.419-2.123l39.463-57.944c0.26-1.539,0.516-3.075,0.12-4.295l0,0
			l-11.014-41.184c12.764-29.205,22.33-71.16-10.804-137.031c-0.796-1.63-2.322-2.697-4.02-3.281l0,0
			c-1.691-0.582-3.642-0.442-5.188,0.11c-66.665,31.507-84.949,70.46-92.874,101.331l-34.04,25.673
			c-1.142,0.959-1.798,2.086-2.056,3.625l-4.581,69.956c-0.268,2.348,1.413,4.552,3.754,5.629c0.239,0.083,0.483,0.168,0.966,0.332
			c2.185,0.752,4.451,0.449,6.248-0.832l26.617-20.637l-0.167,6.984 M776.637,501.143l-23.92,18.313l3.525-53.518l23.023-17.275
			l-1.891,51.916C777.292,500.821,776.965,500.98,776.637,501.143L776.637,501.143z M788.767,528.075l9.448,3.257 M817.593,538.003
			l9.452,3.253 M857.847,498.208l-8.13,11.025l0,0l-14.945,20.591l-1.479,1.932l-43.841-15.097l0.021-2.434l0.903-25.43l0,0
			l0.375-13.691l1.275-39.115c0,0,0,0,0.084-0.241c7.4-27.8,23.623-62.315,81.026-91.323l0,0l0,0
			c27.376,58.201,18.909,95.384,7.63,121.849c0,0,0,0-0.083,0.243L857.847,498.208L857.847,498.208z M860.674,556.9l-7.572-29.162
			c-0.159-0.321-0.072-0.57-0.318-0.651l30.474-42.071l7.503,27.783L860.674,556.9L860.674,556.9z"/>
	</g>
	<path fill="#5D92CA" d="M803.289,532.805l-0.238,13.952l8.04-11.403 M803.289,532.805l7.802,2.548 M814.896,536.595l5.261,1.682
		l-21.326,29.659c-0.677,0.751-1.745,1.051-2.722,0.731c-1.07-0.349-1.758-1.221-1.764-2.196l0.278-36.413l4.861,1.505
		l-0.448,27.482l0,0L814.896,536.595"/>
</g>
</svg>
