<?xml version="1.0" encoding="utf-8"?>
<!-- Generator: Adobe Illustrator 16.0.0, SVG Export Plug-In . SVG Version: 6.00 Build 0)  -->
<!DOCTYPE svg PUBLIC "-//W3C//DTD SVG 1.1//EN" "http://www.w3.org/Graphics/SVG/1.1/DTD/svg11.dtd">
<svg version="1.1" xmlns="http://www.w3.org/2000/svg" xmlns:xlink="http://www.w3.org/1999/xlink" x="0px" y="0px"
	 width="1619.797px" height="1079.865px" viewBox="0 0 1619.797 1079.865" enable-background="new 0 0 1619.797 1079.865"
	 xml:space="preserve">
<g id="Layer_1" display="none">
</g>
<g id="Layer_2">
	<g>
		<path fill="#5D92CA" d="M808.668,522.201c-5.589-3.628-13.032-2.048-16.657,3.54c-3.628,5.587-2.047,13.028,3.54,16.655
			c5.481,3.561,13.028,2.047,16.657-3.539C815.836,533.271,814.253,525.827,808.668,522.201 M799.111,536.917
			c-2.58-1.674-3.404-5.109-1.729-7.688c1.673-2.58,5.148-3.224,7.726-1.548c2.578,1.671,3.296,5.039,1.621,7.618
			C805.16,537.946,801.689,538.592,799.111,536.917"/>
		<path fill="#5D92CA" d="M788.69,585.222l2.663-2.263l0.356,16.834c0.067,1.103,0.666,2.081,1.645,2.692
			c0.108,0.065,0.214,0.134,0.434,0.269c1.154,0.571,2.605,0.421,3.366-0.312l25.744-23.792c0.299-0.72,0.597-1.44,0.542-2.079l0,0
			l-0.734-21.303c9.503-12.792,18.882-32.156,10.15-67.975c-0.205-0.883-0.828-1.575-1.589-2.05l0,0
			c-0.759-0.474-1.725-0.625-2.54-0.53c-36.022,7.852-49.312,24.772-56.645,38.921l-19.472,8.679
			c-0.664,0.339-1.111,0.814-1.409,1.535l-10.1,33.566c-0.395,1.113,0.176,2.376,1.196,3.165c0.107,0.067,0.216,0.136,0.433,0.271
			c0.98,0.612,2.118,0.719,3.138,0.297l15.289-7.061l-0.867,3.384 M762.809,556.363l-13.713,6.231l7.737-25.677l13.16-5.827
			l-6.76,25.08C763.164,556.28,762.987,556.32,762.809,556.363L762.809,556.363z M765.689,570.848l4.236,2.649 M778.616,578.927
			l4.239,2.648 M802.704,564.066l-5.202,4.458l0,0l-9.597,8.35l-0.938,0.775l-19.661-12.286l0.284-1.183l3.3-12.288l0,0l1.723-6.628
			l5.021-18.913c0,0,0,0,0.068-0.107c6.732-12.711,18.519-27.702,49.747-35.378l0,0l0,0c6.791,31.434-1.516,48.597-9.987,60.221
			c0,0,0,0-0.068,0.109L802.704,564.066L802.704,564.066z M797.479,592.979l-0.409-15.059c-0.042-0.174,0.029-0.286-0.082-0.353
			l19.579-17.069l0.531,14.379L797.479,592.979L797.479,592.979z"/>
	</g>
	<path fill="#5D92CA" d="M772.674,574.797l-1.757,6.752l5.249-4.595 M772.674,574.797l3.492,2.157 M777.869,578.004l2.358,1.436
		l-13.853,11.904c-0.417,0.286-0.972,0.306-1.408,0.035c-0.48-0.296-0.711-0.801-0.599-1.275l4.419-17.662l2.186,1.304
		l-3.452,13.303l0,0L777.869,578.004"/>
</g>
</svg>
