<?xml version="1.0" encoding="utf-8"?>
<!-- Generator: Adobe Illustrator 16.0.0, SVG Export Plug-In . SVG Version: 6.00 Build 0)  -->
<!DOCTYPE svg PUBLIC "-//W3C//DTD SVG 1.1//EN" "http://www.w3.org/Graphics/SVG/1.1/DTD/svg11.dtd">
<svg version="1.1" xmlns="http://www.w3.org/2000/svg" xmlns:xlink="http://www.w3.org/1999/xlink" x="0px" y="0px"
	 width="1619.797px" height="1079.865px" viewBox="0 0 1619.797 1079.865" enable-background="new 0 0 1619.797 1079.865"
	 xml:space="preserve">
<g id="Layer_1" display="none">
</g>
<g id="Layer_2">
	<g>
		<path fill="#5D92CA" d="M823.337-38.427c-12.986,3-21.053,15.903-18.049,28.884c2.998,12.981,15.899,21.044,28.879,18.049
			c12.737-2.939,21.045-15.902,18.051-28.88C849.223-33.358,836.313-41.425,823.337-38.427 M831.23-4.229
			c-5.992,1.385-12.08-2.202-13.462-8.193c-1.388-5.991,2.514-11.886,8.506-13.267c5.987-1.389,11.828,2.26,13.212,8.251
			C841.117-11.503,837.222-5.61,831.23-4.229"/>
		<path fill="#5D92CA" d="M886.248,77.871l0.444-6.974l24.713,22.874c1.68,1.437,3.92,1.934,6.16,1.375
			c0.244-0.063,0.491-0.121,0.989-0.249c2.424-0.869,4.225-3.165,4.228-5.277l1.536-70.091c-0.621-1.431-1.243-2.858-2.238-3.668
			l0,0l-31.667-28.538c-5.202-31.445-20.029-71.843-83.694-109.04c-1.554-0.934-3.415-0.998-5.157-0.563l0,0
			c-1.736,0.432-3.295,1.612-4.291,2.916c-38.749,62.734-32.869,105.36-22.701,135.567l-14.566,40.072
			c-0.434,1.425-0.373,2.728,0.25,4.158l34.26,61.165c1.052,2.114,3.662,3.049,6.213,2.676c0.245-0.06,0.497-0.121,0.992-0.247
			c2.242-0.559,3.978-2.048,4.788-4.1l11.083-31.807l3.662,5.949 M808.772,75.01l-10.087,28.386l-26.19-46.802l9.901-27.029
			l26.686,44.568C809.147,74.383,808.956,74.693,808.772,75.01L808.772,75.01z M833.614,90.993l9.697-2.416 M863.198,83.62
			l9.697-2.42 M875.28,28.318l-0.813,13.674l0,0l-1.319,25.41l-0.188,2.427l-44.992,11.216l-1.308-2.054l-13.093-21.82l0,0
			l-7.14-11.685l-20.234-33.498c0,0,0,0-0.061-0.249c-8.936-27.346-14.128-65.129,18.216-120.722l0,0l0,0
			c54.657,33.902,67.808,69.699,72.764,98.035c0,0,0,0,0.061,0.251L875.28,28.318L875.28,28.318z M909.62,76.003L887.387,55.67
			c-0.31-0.183-0.372-0.439-0.624-0.372l2.645-51.88l21.422,19.211L909.62,76.003L909.62,76.003z"/>
	</g>
	<path fill="#5D92CA" d="M843.064,88.1l17.825,29.988l2.117-34.82 M843.064,88.1l19.942-4.832 M872.731,80.909l13.398-3.335
		l-6.389,91.097c-0.453,2.493-2.332,4.531-4.829,5.136c-2.737,0.664-5.344-0.288-6.636-2.354l-47.247-77.815l12.315-3.184
		l35.153,59.042l0,0L872.731,80.909"/>
</g>
</svg>
