<?xml version="1.0" encoding="utf-8"?>
<!-- Generator: Adobe Illustrator 16.0.0, SVG Export Plug-In . SVG Version: 6.00 Build 0)  -->
<!DOCTYPE svg PUBLIC "-//W3C//DTD SVG 1.1//EN" "http://www.w3.org/Graphics/SVG/1.1/DTD/svg11.dtd">
<svg version="1.1" xmlns="http://www.w3.org/2000/svg" xmlns:xlink="http://www.w3.org/1999/xlink" x="0px" y="0px"
	 width="1619.797px" height="1079.866px" viewBox="0 0 1619.797 1079.866" enable-background="new 0 0 1619.797 1079.866"
	 xml:space="preserve">
<g id="Layer_1" display="none">
</g>
<g id="Layer_2">
	<g>
		<path fill="#5D92CA" d="M850.129,384.112c-6.479-1.555-12.969,2.419-14.521,8.897c-1.554,6.478,2.42,12.964,8.896,14.519
			c6.354,1.527,12.964-2.42,14.52-8.896C860.581,392.155,856.604,385.666,850.129,384.112 M846.032,401.174
			c-2.991-0.717-4.914-3.68-4.196-6.669c0.716-2.99,3.776-4.758,6.766-4.039c2.989,0.715,4.788,3.65,4.071,6.64
			C852.079,400.125,849.021,401.894,846.032,401.174"/>
		<path fill="#5D92CA" d="M852.334,450.186l1.755-3.021l5.955,15.75c0.432,1.017,1.322,1.739,2.449,1.989
			c0.123,0.025,0.246,0.055,0.498,0.108c1.279,0.152,2.597-0.473,3.069-1.418l16.325-31.02c0.042-0.779,0.082-1.557-0.183-2.141l0,0
			l-7.802-19.836c4.687-15.231,7.065-36.614-13.124-67.463c-0.487-0.764-1.306-1.208-2.182-1.402l0,0
			c-0.874-0.193-1.835-0.014-2.571,0.348c-31.335,19.426-38.213,39.812-40.403,55.597l-15.457,14.681
			c-0.513,0.542-0.776,1.139-0.816,1.918l1.685,35.012c-0.001,1.182,0.959,2.182,2.183,2.584c0.124,0.027,0.25,0.057,0.499,0.11
			c1.128,0.25,2.237-0.028,3.057-0.767l12.055-11.76l0.313,3.479 M818.304,431.622l-10.846,10.451l-1.278-26.785l10.46-9.886
			l1.999,25.897C818.611,431.425,818.458,431.522,818.304,431.622L818.304,431.622z M825.854,444.315l4.878,1.084 M840.737,447.616
			l4.879,1.081 M858.481,425.567l-3.414,5.938l0,0l-6.26,11.075l-0.625,1.044l-22.635-5.019l-0.127-1.21l-0.99-12.685l0,0
			l-0.589-6.823l-1.581-19.503c0,0,0,0,0.029-0.125c2.103-14.229,8.208-32.295,35.083-49.954l0,0l0,0
			c16.895,27.364,14.793,46.315,10.688,60.101c0,0,0,0-0.028,0.125L858.481,425.567L858.481,425.567z M863.209,454.565
			l-5.413-14.059c-0.098-0.15-0.068-0.279-0.196-0.305l12.758-22.626l5.3,13.377L863.209,454.565L863.209,454.565z"/>
	</g>
	<path fill="#5D92CA" d="M831.264,444.926l1.093,15.66l7.899-13.565 M831.264,444.926l8.992,2.095 M844.643,448.042l6.06,1.371
		l-21.008,35.32c-0.685,0.908-1.854,1.348-2.979,1.086c-1.234-0.287-2.089-1.197-2.19-2.289l-3.238-40.839l5.593,1.214l2.178,30.845
		l0,0L844.643,448.042"/>
</g>
</svg>
