<?xml version="1.0" encoding="utf-8"?>
<!-- Generator: Adobe Illustrator 16.0.0, SVG Export Plug-In . SVG Version: 6.00 Build 0)  -->
<!DOCTYPE svg PUBLIC "-//W3C//DTD SVG 1.1//EN" "http://www.w3.org/Graphics/SVG/1.1/DTD/svg11.dtd">
<svg version="1.1" xmlns="http://www.w3.org/2000/svg" xmlns:xlink="http://www.w3.org/1999/xlink" x="0px" y="0px"
	 width="1619.797px" height="1079.866px" viewBox="0 0 1619.797 1079.866" enable-background="new 0 0 1619.797 1079.866"
	 xml:space="preserve">
<g id="Layer_1" display="none">
</g>
<g id="Layer_2">
	<g>
		<path fill="#5D92CA" d="M864.27,295.535c-13.197-1.853-25.354,7.302-27.201,20.496c-1.853,13.193,7.302,25.344,20.493,27.199
			c12.944,1.821,25.346-7.304,27.202-20.493C886.62,309.543,877.459,297.386,864.27,295.535 M859.384,330.289
			c-6.091-0.854-10.488-6.385-9.632-12.474c0.852-6.09,6.606-10.195,12.695-9.337c6.087,0.851,10.232,6.349,9.377,12.438
			C871.221,327.041,865.474,331.146,859.384,330.289"/>
		<path fill="#5D92CA" d="M881.326,426.653l2.913-6.352l14.875,30.212c1.054,1.942,2.966,3.21,5.258,3.491
			c0.25,0.027,0.5,0.062,1.011,0.121c2.576,0.059,5.08-1.439,5.839-3.411l26.554-64.884c-0.067-1.558-0.137-3.114-0.775-4.226l0,0
			l-19.336-37.993c6.411-31.221,7.047-74.247-39.059-131.791c-1.116-1.429-2.832-2.155-4.613-2.373l0,0
			c-1.776-0.218-3.654,0.325-5.052,1.186c-58.656,44.68-68.443,86.582-69.775,118.426l-27.959,32.19
			c-0.916,1.175-1.325,2.414-1.258,3.972l10.065,69.38c0.225,2.352,2.327,4.159,4.842,4.726c0.251,0.032,0.507,0.064,1.014,0.124
			c2.294,0.281,4.447-0.486,5.939-2.112l21.744-25.721l1.288,6.867 M810.021,396.217l-19.589,22.886l-7.679-53.081l18.93-21.685
			l8.942,51.172C810.595,395.767,810.308,395.989,810.021,396.217L810.021,396.217z M827.485,420.041l9.918,1.221 M857.745,423.759
			l9.922,1.216 M888.845,376.461l-5.658,12.474l0,0l-10.339,23.249l-1.045,2.199l-46.022-5.653l-0.485-2.385l-4.403-25.063l0,0
			l-2.479-13.47l-6.885-38.524c0,0,0,0,0.033-0.254c1.457-28.731,10.15-65.865,60.268-106.174l0,0l0,0
			c38.879,51.237,38.327,89.369,32.798,117.599c0,0,0,0-0.031,0.256L888.845,376.461L888.845,376.461z M903.814,433.285
			l-13.47-26.95c-0.224-0.281-0.188-0.542-0.448-0.571l21.062-47.488l13.114,25.614L903.814,433.285L903.814,433.285z"/>
	</g>
	<path fill="#5D92CA" d="M837.385,421.077l6.04,34.358l14.318-31.81 M837.385,421.077l20.358,2.549 M867.674,424.868l13.711,1.628
		l-38.259,82.924c-1.304,2.167-3.786,3.408-6.333,3.089c-2.795-0.35-4.896-2.163-5.372-4.553l-16.606-89.51l12.646,1.388
		l11.949,67.667l0,0L867.674,424.868"/>
</g>
</svg>
