<?xml version="1.0" encoding="utf-8"?>
<!-- Generator: Adobe Illustrator 16.0.0, SVG Export Plug-In . SVG Version: 6.00 Build 0)  -->
<!DOCTYPE svg PUBLIC "-//W3C//DTD SVG 1.1//EN" "http://www.w3.org/Graphics/SVG/1.1/DTD/svg11.dtd">
<svg version="1.1" xmlns="http://www.w3.org/2000/svg" xmlns:xlink="http://www.w3.org/1999/xlink" x="0px" y="0px"
	 width="1619.797px" height="1079.866px" viewBox="0 0 1619.797 1079.866" enable-background="new 0 0 1619.797 1079.866"
	 xml:space="preserve">
<g id="Layer_1" display="none">
</g>
<g id="Layer_2">
	<g>
		<path fill="#5D92CA" d="M862.565,319.881c-13.124-2.313-25.593,6.413-27.9,19.534c-2.312,13.121,6.413,25.583,19.532,27.898
			c12.873,2.271,25.585-6.415,27.899-19.531C884.413,334.661,875.682,322.192,862.565,319.881 M856.47,354.443
			c-6.058-1.066-10.259-6.747-9.19-12.802c1.063-6.057,6.958-9.959,13.014-8.889c6.053,1.063,10.004,6.702,8.937,12.758
			C868.413,351.61,862.525,355.514,856.47,354.443"/>
		<path fill="#5D92CA" d="M875.036,451.514l3.132-6.246l13.812,30.713c0.986,1.978,2.853,3.311,5.133,3.672
			c0.249,0.036,0.498,0.079,1.007,0.156c2.572,0.148,5.126-1.261,5.954-3.205l28.802-63.917c-0.013-1.561-0.027-3.118-0.628-4.251
			l0,0l-17.998-38.644c7.497-30.978,9.634-73.956-34.436-133.073c-1.065-1.466-2.754-2.252-4.526-2.533l0,0
			c-1.769-0.279-3.664,0.197-5.091,1.009c-60.18,42.605-71.423,84.14-73.866,115.918l-29.065,31.195
			c-0.957,1.143-1.409,2.366-1.396,3.926l7.638,69.688c0.143,2.358,2.18,4.238,4.673,4.892c0.25,0.041,0.504,0.082,1.009,0.16
			c2.282,0.36,4.462-0.331,6.009-1.904l22.628-24.946l1.047,6.907 M804.835,418.609l-20.376,22.188l-5.821-53.316l19.675-21.011
			l7.151,51.453C805.425,418.179,805.13,418.392,804.835,418.609L804.835,418.609z M821.458,443.026l9.87,1.567 M851.57,447.799
			l9.872,1.562 M884.302,401.617l-6.091,12.269l0,0l-11.144,22.873l-1.122,2.16l-45.797-7.255l-0.401-2.4l-3.525-25.2l0,0
			l-2.008-13.548l-5.537-38.741c0,0,0,0,0.042-0.252c2.459-28.663,12.443-65.471,63.937-104.006l0,0l0,0
			c37.067,52.563,35.186,90.652,28.674,118.672c0,0,0,0-0.04,0.254L884.302,401.617L884.302,401.617z M897.278,458.927
			l-12.521-27.404c-0.213-0.289-0.169-0.549-0.428-0.586l22.706-46.723l12.213,26.056L897.278,458.927L897.278,458.927z"/>
	</g>
	<path fill="#5D92CA" d="M831.483,443.774l4.841,34.55l15.417-31.293 M831.483,443.774l20.258,3.257 M861.621,448.619l13.648,2.103
		l-41.12,81.542c-1.379,2.122-3.903,3.275-6.438,2.868c-2.782-0.446-4.818-2.333-5.21-4.737l-13.483-90.032l12.589,1.825
		l9.588,68.042l0,0L861.621,448.619"/>
</g>
</svg>
