<?xml version="1.0" encoding="utf-8"?>
<!-- Generator: Adobe Illustrator 16.0.0, SVG Export Plug-In . SVG Version: 6.00 Build 0)  -->
<!DOCTYPE svg PUBLIC "-//W3C//DTD SVG 1.1//EN" "http://www.w3.org/Graphics/SVG/1.1/DTD/svg11.dtd">
<svg version="1.1" xmlns="http://www.w3.org/2000/svg" xmlns:xlink="http://www.w3.org/1999/xlink" x="0px" y="0px"
	 width="1619.797px" height="1079.865px" viewBox="0 0 1619.797 1079.865" enable-background="new 0 0 1619.797 1079.865"
	 xml:space="preserve">
<g id="Layer_1" display="none">
</g>
<g id="Layer_2">
	<g>
		<path fill="#5D92CA" d="M822.858,522.665c-10.209-8.565-25.37-7.243-33.93,2.966c-8.563,10.207-7.238,25.363,2.968,33.926
			c10.011,8.404,25.364,7.238,33.928-2.964C834.389,546.388,833.063,531.224,822.858,522.665 M800.299,549.547
			c-4.712-3.951-5.511-10.972-1.559-15.681c3.95-4.714,11.006-5.146,15.715-1.191c4.711,3.946,5.314,10.805,1.361,15.517
			C812.058,553.066,805.009,553.502,800.299,549.547"/>
		<path fill="#5D92CA" d="M767.84,642.897l5.836-3.843l-3.397,33.504c-0.135,2.206,0.816,4.293,2.609,5.746
			c0.198,0.156,0.393,0.317,0.794,0.64c2.154,1.414,5.07,1.471,6.758,0.201l56.904-40.954c0.77-1.357,1.536-2.713,1.582-3.995l0,0
			l3.736-42.467c21.981-23.078,45.321-59.23,36.715-132.461c-0.19-1.804-1.26-3.329-2.655-4.458l0,0
			c-1.391-1.125-3.271-1.661-4.912-1.671c-73.421,6.808-103.928,37.157-121.934,63.456l-40.767,12.481
			c-1.402,0.512-2.404,1.346-3.171,2.704l-28.232,64.17c-1.055,2.114-0.229,4.761,1.602,6.574c0.197,0.159,0.397,0.323,0.794,0.643
			c1.795,1.454,4.029,1.944,6.156,1.355l32.071-10.29l-2.547,6.505 M723.497,579.302l-28.741,9.026l21.618-49.085l27.542-8.358
			l-19.533,48.138C724.223,579.223,723.861,579.26,723.497,579.302L723.497,579.302z M725.686,608.758l7.763,6.292 M749.376,627.946
			l7.769,6.29 M800.816,604.318l-11.413,7.58l0,0l-21.085,14.237l-2.053,1.31l-36.033-29.182l0.853-2.279l9.546-23.587l0,0
			l5.035-12.737l14.577-36.32c0,0,0,0,0.162-0.198c16.463-23.592,43.515-50.477,107.375-58.103l0,0l0,0
			c5.82,64.054-14.853,96.1-34.503,117.11c0,0,0,0-0.161,0.2L800.816,604.318L800.816,604.318z M783.396,660.438l2.858-29.993
			c-0.039-0.356,0.128-0.56-0.076-0.721l43.027-29.112l-2.452,28.673L783.396,660.438L783.396,660.438z"/>
	</g>
	<path fill="#5D92CA" d="M748.075,617.906l-8.818,5.728l4.005-9.577l-3.848-3.077l-7.267,17.811
		c-0.355,0.908-0.041,1.973,0.824,2.694c0.789,0.659,1.892,0.777,2.799,0.33l16.52-10.535L748.075,617.906z"/>
</g>
</svg>
