<?xml version="1.0" encoding="utf-8"?>
<!-- Generator: Adobe Illustrator 16.0.0, SVG Export Plug-In . SVG Version: 6.00 Build 0)  -->
<!DOCTYPE svg PUBLIC "-//W3C//DTD SVG 1.1//EN" "http://www.w3.org/Graphics/SVG/1.1/DTD/svg11.dtd">
<svg version="1.1" xmlns="http://www.w3.org/2000/svg" xmlns:xlink="http://www.w3.org/1999/xlink" x="0px" y="0px"
	 width="1619.797px" height="1079.865px" viewBox="0 0 1619.797 1079.865" enable-background="new 0 0 1619.797 1079.865"
	 xml:space="preserve">
<g id="Layer_1" display="none">
</g>
<g id="Layer_2">
	<g>
		<path fill="#5D92CA" d="M864.513,198.631c-13.326-0.229-24.275,10.338-24.501,23.659c-0.231,13.321,10.336,24.267,23.655,24.5
			c13.069,0.229,24.268-10.338,24.501-23.655C888.403,209.813,877.829,198.862,864.513,198.631 M863.898,233.723
			c-6.149-0.105-11.188-5.06-11.08-11.207c0.103-6.148,5.314-10.925,11.463-10.815c6.146,0.103,10.93,5.055,10.823,11.203
			C875.251,229.057,870.046,233.832,863.898,233.723"/>
		<path fill="#5D92CA" d="M897.421,326.694l2.116-6.659l18.446,28.174c1.283,1.8,3.336,2.824,5.645,2.824
			c0.252-0.003,0.505,0.001,1.02-0.003c2.563-0.257,4.865-2.049,5.379-4.097l18.446-67.639c-0.256-1.537-0.515-3.074-1.284-4.1l0,0
			l-23.821-35.352c2.56-31.77-2.054-74.554-54.829-126.049c-1.282-1.281-3.072-1.794-4.867-1.793l0,0
			c-1.79-0.001-3.588,0.768-4.869,1.792c-52.775,51.496-57.382,94.278-54.824,126.048l-23.828,35.357
			c-0.767,1.278-1.021,2.558-0.763,4.096l18.445,67.637c0.51,2.307,2.817,3.845,5.381,4.099c0.253,0.002,0.511,0.004,1.022,0.001
			c2.31,0,4.355-1.025,5.637-2.82l18.448-28.181l2.114,6.659 M822.938,305.175l-16.655,25.103l-14.089-51.748l16.146-23.83
			l15.111,49.699C823.453,304.657,823.194,304.913,822.938,305.175L822.938,305.175z M843.175,326.693l9.993,0.002 M873.664,326.696
			l9.994-0.002 M898.766,275.961l-4.096,13.07l0,0l-7.429,24.336l-0.769,2.31l-46.368-0.002l-0.772-2.31l-7.425-24.339l0,0
			l-4.102-13.065l-11.529-37.398c0,0,0,0,0.002-0.255c-2.056-28.695,2.048-66.613,46.879-112.729l0,0l0,0
			c44.833,46.118,48.933,84.033,46.886,112.727c0,0,0,0-0.001,0.258L898.766,275.961L898.766,275.961z M920.55,330.536
			l-16.653-25.108c-0.257-0.252-0.255-0.517-0.516-0.512l15.117-49.699l16.139,23.823L920.55,330.536L920.55,330.536z"/>
	</g>
	<path fill="#5D92CA" d="M854.797,326.291l9.448,29.941l9.019-30.072 M854.797,326.291l18.467-0.131 M882.27,326.094l12.426-0.168
		l-24.334,78.507c-0.909,2.087-2.977,3.488-5.288,3.504c-2.535,0.02-4.624-1.351-5.33-3.426l-25.394-77.897l11.445-0.257
		l18.658,58.96l0,0L882.27,326.094"/>
</g>
</svg>
