<?xml version="1.0" encoding="utf-8"?>
<!-- Generator: Adobe Illustrator 16.0.0, SVG Export Plug-In . SVG Version: 6.00 Build 0)  -->
<!DOCTYPE svg PUBLIC "-//W3C//DTD SVG 1.1//EN" "http://www.w3.org/Graphics/SVG/1.1/DTD/svg11.dtd">
<svg version="1.1" xmlns="http://www.w3.org/2000/svg" xmlns:xlink="http://www.w3.org/1999/xlink" x="0px" y="0px"
	 width="1619.797px" height="1079.865px" viewBox="0 0 1619.797 1079.865" enable-background="new 0 0 1619.797 1079.865"
	 xml:space="preserve">
<g id="Layer_1" display="none">
</g>
<g id="Layer_2">
	<g>
		<path fill="#5D92CA" d="M813.623,558.98c-3.432-5.711-10.814-7.553-16.523-4.121c-5.71,3.432-7.551,10.813-4.118,16.523
			c3.365,5.602,10.813,7.551,16.522,4.121C815.213,572.072,817.055,564.688,813.623,558.98 M798.582,568.018
			c-1.584-2.635-0.818-6.084,1.816-7.667c2.636-1.585,6.041-0.641,7.624,1.995c1.583,2.634,0.752,5.974-1.884,7.558
			C803.569,571.595,800.166,570.653,798.582,568.018"/>
		<path fill="#5D92CA" d="M767.479,606.542l3.4-0.808l-7.327,15.162c-0.438,1.013-0.351,2.155,0.244,3.145
			c0.065,0.108,0.131,0.217,0.264,0.437c0.77,1.032,2.131,1.559,3.142,1.25l33.738-9.511c0.594-0.506,1.187-1.011,1.427-1.605l0,0
			l9.017-19.314c14.275-7.085,31.426-20.079,39.904-55.958c0.219-0.879-0.023-1.779-0.485-2.549l0,0
			c-0.462-0.767-1.253-1.339-2.022-1.625c-35.66-9.357-55.186-0.315-68.141,8.963l-21.289-1.107
			c-0.745,0.001-1.36,0.221-1.953,0.728l-24.237,25.322c-0.857,0.813-0.923,2.198-0.372,3.362c0.066,0.109,0.131,0.219,0.264,0.439
			c0.595,0.989,1.561,1.602,2.66,1.689l16.828,0.649l-2.31,2.622 M757.52,569.078l-15.048-0.674l18.552-19.366l14.369,0.782
			l-17.409,19.278C757.873,569.165,757.697,569.122,757.52,569.078L757.52,569.078z M753.511,583.292l2.571,4.284 M761.36,596.359
			l2.573,4.283 M789.569,594.054l-6.657,1.61l0,0l-12.344,3.083l-1.187,0.264l-11.94-19.873l0.789-0.924l8.519-9.451l0,0
			l4.545-5.124l13.061-14.572c0,0,0,0,0.11-0.066c11.769-8.269,29.075-16.275,60.385-8.936l0,0l0,0
			c-8.219,31.091-23.413,42.611-36.238,49.123c0,0,0,0-0.109,0.066L789.569,594.054L789.569,594.054z M771.787,617.443l6.473-13.604
			c0.043-0.175,0.154-0.242,0.088-0.353l25.194-6.32l-6.056,13.053L771.787,617.443L771.787,617.443z"/>
	</g>
</g>
</svg>
