<?xml version="1.0" encoding="utf-8"?>
<!-- Generator: Adobe Illustrator 16.0.0, SVG Export Plug-In . SVG Version: 6.00 Build 0)  -->
<!DOCTYPE svg PUBLIC "-//W3C//DTD SVG 1.1//EN" "http://www.w3.org/Graphics/SVG/1.1/DTD/svg11.dtd">
<svg version="1.1" xmlns="http://www.w3.org/2000/svg" xmlns:xlink="http://www.w3.org/1999/xlink" x="0px" y="0px"
	 width="1619.797px" height="1079.865px" viewBox="0 0 1619.797 1079.865" enable-background="new 0 0 1619.797 1079.865"
	 xml:space="preserve">
<g id="Layer_1" display="none">
</g>
<g id="Layer_2">
	<g>
		<path fill="#5D92CA" d="M860.468,153.402c-6.648,0.466-11.642,6.207-11.173,12.852c0.465,6.646,6.206,11.637,12.85,11.173
			c6.52-0.456,11.637-6.207,11.173-12.851C872.855,157.93,867.111,152.937,860.468,153.402 M861.691,170.908
			c-3.068,0.215-5.793-2.033-6.007-5.1c-0.217-3.067,2.171-5.674,5.238-5.887c3.065-0.217,5.664,2.041,5.879,5.108
			C867.143,168.089,864.758,170.694,861.691,170.908"/>
		<path fill="#5D92CA" d="M882.44,215.756l0.765-3.409l10.415,13.229c0.718,0.84,1.785,1.262,2.935,1.16
			c0.126-0.012,0.252-0.021,0.508-0.045c1.266-0.24,2.334-1.232,2.501-2.275l6.241-34.494c-0.195-0.755-0.391-1.509-0.819-1.986l0,0
			l-13.406-16.57c-0.109-15.936-4.271-37.046-32.803-60.396c-0.694-0.583-1.608-0.759-2.502-0.681l0,0
			c-0.891,0.078-1.753,0.539-2.347,1.104c-24.043,27.95-24.473,49.46-21.814,65.173l-10.328,18.65
			c-0.326,0.67-0.397,1.318-0.202,2.073l12.135,32.886c0.354,1.127,1.57,1.793,2.859,1.807c0.125-0.01,0.254-0.02,0.509-0.043
			c1.15-0.102,2.124-0.701,2.685-1.65l7.961-14.842l1.344,3.225 M844.402,208.283l-7.201,13.229l-9.273-25.161l7.004-12.573
			l9.693,24.097C844.637,208.002,844.519,208.141,844.402,208.283L844.402,208.283z M855.42,218.119l4.978-0.434 M870.607,216.792
			l4.979-0.437 M880.899,190.427l-1.471,6.688l0,0l-2.639,12.445l-0.282,1.185l-23.097,2.02l-0.485-1.116l-4.759-11.8l0,0
			l-2.612-6.329l-7.373-18.125c0,0,0,0-0.01-0.128c-2.274-14.203-1.883-33.269,18.438-58.192l0,0l0,0
			c24.34,21.017,28.035,39.724,28.266,54.105c0,0,0,0,0.011,0.128L880.899,190.427L880.899,190.427z M894.128,216.661l-9.389-11.78
			c-0.139-0.114-0.149-0.246-0.279-0.232l5.364-25.414l9.077,11.163L894.128,216.661L894.128,216.661z"/>
	</g>
	<path fill="#5D92CA" d="M860.396,217.346l6.408,16.223l3.82-17.019 M860.396,217.346l10.229-0.796 M875.613,216.162l6.879-0.58
		l-10.414,44.458c-0.422,1.193-1.512,2.05-2.792,2.149c-1.404,0.109-2.615-0.568-3.088-1.691l-17.12-42.176l6.333-0.59
		l12.646,31.945l0,0L875.613,216.162"/>
</g>
</svg>
