<?xml version="1.0" encoding="utf-8"?>
<!-- Generator: Adobe Illustrator 16.0.0, SVG Export Plug-In . SVG Version: 6.00 Build 0)  -->
<!DOCTYPE svg PUBLIC "-//W3C//DTD SVG 1.1//EN" "http://www.w3.org/Graphics/SVG/1.1/DTD/svg11.dtd">
<svg version="1.1" xmlns="http://www.w3.org/2000/svg" xmlns:xlink="http://www.w3.org/1999/xlink" x="0px" y="0px"
	 width="1619.797px" height="1079.865px" viewBox="0 0 1619.797 1079.865" enable-background="new 0 0 1619.797 1079.865"
	 xml:space="preserve">
<g id="Layer_1" display="none">
</g>
<g id="Layer_2">
	<g>
		<path fill="#5D92CA" d="M841.162,418.509c-6.338-2.058-13.119,1.395-15.174,7.731c-2.059,6.335,1.395,13.113,7.729,15.172
			c6.216,2.021,13.114-1.396,15.173-7.729C850.951,427.347,847.496,420.565,841.162,418.509 M835.738,435.197
			c-2.925-0.949-4.609-4.054-3.66-6.978c0.949-2.925,4.139-4.447,7.063-3.496c2.924,0.948,4.487,4.015,3.537,6.939
			C841.849,434.625,838.662,436.148,835.738,435.197"/>
		<path fill="#5D92CA" d="M838.176,484.553l1.986-2.875l4.701,16.168c0.351,1.048,1.182,1.837,2.285,2.175
			c0.121,0.035,0.241,0.074,0.488,0.148c1.264,0.252,2.627-0.268,3.171-1.173l18.708-29.644c0.104-0.773,0.204-1.545-0.015-2.148
			l0,0l-6.222-20.387c5.867-14.816,9.916-35.948-7.79-68.285c-0.427-0.801-1.208-1.308-2.066-1.569l0,0
			c-0.854-0.261-1.827-0.157-2.59,0.146c-32.762,16.907-41.219,36.69-44.64,52.255l-16.563,13.423
			c-0.554,0.499-0.862,1.074-0.964,1.847l-1.068,35.037c-0.093,1.178,0.785,2.25,1.974,2.748c0.121,0.037,0.244,0.076,0.489,0.149
			c1.104,0.338,2.231,0.146,3.107-0.524l12.94-10.777l0.038,3.493 M805.708,463.375l-11.634,9.568l0.828-26.805l11.203-9.034
			l-0.039,25.975C806.029,463.204,805.869,463.289,805.708,463.375L805.708,463.375z M812.238,476.622l4.778,1.463 M826.816,481.08
			l4.779,1.46 M846.236,460.492l-3.869,5.651l0,0l-7.109,10.55l-0.706,0.991l-22.171-6.779l-0.031-1.216l0.008-12.723l0,0
			l-0.052-6.848l-0.046-19.568c0,0,0,0,0.039-0.122c3.212-14.021,10.717-31.551,38.895-47.048l0,0l0,0
			c14.695,28.605,11.113,47.333,5.939,60.754c0,0,0,0-0.038,0.123L846.236,460.492L846.236,460.492z M848.674,489.771l-4.293-14.44
			c-0.086-0.158-0.046-0.284-0.171-0.32l14.493-21.555l4.234,13.752L848.674,489.771L848.674,489.771z"/>
	</g>
	<path fill="#5D92CA" d="M819.322,478.409l-0.065,10.465l5.937-8.618 M819.322,478.409l5.871,1.848 M828.059,481.157l3.959,1.218
		l-15.752,22.417c-0.501,0.569-1.301,0.802-2.035,0.57c-0.807-0.253-1.328-0.901-1.34-1.632l-0.089-27.311l3.657,1.089
		l-0.111,20.614l0,0L828.059,481.157"/>
</g>
</svg>
