<?xml version="1.0" encoding="utf-8"?>
<!-- Generator: Adobe Illustrator 16.0.0, SVG Export Plug-In . SVG Version: 6.00 Build 0)  -->
<!DOCTYPE svg PUBLIC "-//W3C//DTD SVG 1.1//EN" "http://www.w3.org/Graphics/SVG/1.1/DTD/svg11.dtd">
<svg version="1.1" xmlns="http://www.w3.org/2000/svg" xmlns:xlink="http://www.w3.org/1999/xlink" x="0px" y="0px"
	 width="1619.797px" height="1079.865px" viewBox="0 0 1619.797 1079.865" enable-background="new 0 0 1619.797 1079.865"
	 xml:space="preserve">
<g id="Layer_1" display="none">
</g>
<g id="Layer_2">
	<g>
		<path fill="#5D92CA" d="M803.564,551.841c-4.63-4.792-12.237-4.928-17.027-0.298c-4.792,4.628-4.925,12.234-0.297,17.025
			c4.539,4.702,12.234,4.925,17.025,0.299C808.058,564.24,808.191,556.631,803.564,551.841 M790.941,564.03
			c-2.136-2.211-2.166-5.744,0.045-7.879c2.21-2.137,5.741-1.983,7.877,0.229c2.136,2.209,2.077,5.65-0.135,7.787
			C796.605,566.394,793.077,566.242,790.941,564.03"/>
		<path fill="#5D92CA" d="M769.301,608.563l3.13-1.552l-3.727,16.421c-0.2,1.086,0.143,2.18,0.944,3.01
			c0.088,0.09,0.176,0.182,0.355,0.366c0.982,0.833,2.427,1.039,3.342,0.511l30.734-16.856c0.465-0.627,0.929-1.253,1.029-1.887l0,0
			l4.441-20.848c12.314-10.114,26.102-26.633,26.292-63.5c0.017-0.907-0.423-1.729-1.046-2.374l0,0
			c-0.622-0.643-1.522-1.023-2.335-1.128c-36.852-1.096-53.842,12.106-64.379,24.061l-20.992,3.71
			c-0.727,0.168-1.275,0.521-1.739,1.148l-17.921,30.125c-0.652,0.985-0.403,2.349,0.395,3.36c0.088,0.091,0.177,0.185,0.355,0.368
			c0.803,0.831,1.881,1.209,2.972,1.047l16.543-3.153l-1.66,3.074 M751.17,574.301l-14.814,2.729l13.72-23.042l14.178-2.47
			l-12.627,22.699C751.534,574.306,751.352,574.303,751.17,574.301L751.17,574.301z M750.46,589.053l3.47,3.595 M761.048,600.019
			l3.472,3.595 M788.016,591.427l-6.125,3.066l0,0l-11.332,5.781l-1.099,0.524l-16.104-16.678l0.561-1.079l6.175-11.124l0,0
			l3.275-6.015l9.448-17.136c0,0,0,0,0.092-0.088c9.608-10.706,24.671-22.399,56.828-22.292l0,0l0,0
			c-1.015,32.143-13.228,46.787-24.26,56.016c0,0,0,0-0.092,0.089L788.016,591.427L788.016,591.427z M775.951,618.217l3.247-14.711
			c0.002-0.179,0.097-0.27,0.006-0.362l23.127-11.825l-2.965,14.081L775.951,618.217L775.951,618.217z"/>
	</g>
</g>
</svg>
