<?xml version="1.0" encoding="utf-8"?>
<!-- Generator: Adobe Illustrator 16.0.0, SVG Export Plug-In . SVG Version: 6.00 Build 0)  -->
<!DOCTYPE svg PUBLIC "-//W3C//DTD SVG 1.1//EN" "http://www.w3.org/Graphics/SVG/1.1/DTD/svg11.dtd">
<svg version="1.1" xmlns="http://www.w3.org/2000/svg" xmlns:xlink="http://www.w3.org/1999/xlink" x="0px" y="0px"
	 width="1619.797px" height="1079.865px" viewBox="0 0 1619.797 1079.865" enable-background="new 0 0 1619.797 1079.865"
	 xml:space="preserve">
<g id="Layer_1" display="none">
</g>
<g id="Layer_2">
	<g>
		<path fill="#5D92CA" d="M836.305,434.261c-6.262-2.277-13.158,0.936-15.434,7.196c-2.277,6.26,0.937,13.154,7.195,15.433
			c6.141,2.236,13.155-0.937,15.434-7.195C845.779,443.436,842.563,436.538,836.305,434.261 M830.303,450.75
			c-2.891-1.05-4.466-4.212-3.414-7.101c1.05-2.891,4.291-4.3,7.18-3.247c2.889,1.049,4.344,4.168,3.293,7.058
			C836.43,450.392,833.191,451.803,830.303,450.75"/>
		<path fill="#5D92CA" d="M831.017,500.161l2.085-2.803l4.135,16.323c0.313,1.059,1.117,1.877,2.207,2.253
			c0.12,0.04,0.239,0.082,0.483,0.165c1.253,0.296,2.634-0.176,3.21-1.062l19.73-28.972c0.131-0.769,0.258-1.538,0.061-2.148l0,0
			l-5.507-20.592c6.382-14.603,11.165-35.58-5.401-68.516c-0.398-0.814-1.162-1.348-2.01-1.64l0,0
			c-0.846-0.291-1.821-0.221-2.594,0.055c-33.333,15.753-42.475,35.229-46.438,50.665l-17.02,12.837
			c-0.571,0.479-0.899,1.043-1.028,1.813l-2.291,34.978c-0.134,1.174,0.707,2.276,1.877,2.815c0.12,0.042,0.242,0.084,0.483,0.166
			c1.093,0.376,2.226,0.224,3.124-0.416l13.309-10.319l-0.083,3.492 M799.307,477.864l-11.96,9.156l1.763-26.759l11.512-8.638
			l-0.945,25.958C799.634,477.703,799.471,477.782,799.307,477.864L799.307,477.864z M805.372,491.33l4.724,1.628 M819.785,496.293
			l4.726,1.627 M839.912,476.396l-4.065,5.513l0,0l-7.473,10.295l-0.739,0.966l-21.921-7.548l0.011-1.217l0.451-12.715l0,0
			l0.188-6.846l0.637-19.558c0,0,0,0,0.042-0.121c3.7-13.9,11.812-31.158,40.513-45.662l0,0l0,0
			c13.688,29.101,9.455,47.692,3.814,60.924c0,0,0,0-0.041,0.122L839.912,476.396L839.912,476.396z M841.325,505.742l-3.786-14.581
			c-0.08-0.161-0.036-0.285-0.159-0.326l15.237-21.035l3.751,13.891L841.325,505.742L841.325,505.742z"/>
	</g>
	<path fill="#5D92CA" d="M812.633,493.695l-0.119,6.976l4.02-5.702 M812.633,493.695l3.9,1.274 M818.437,495.589l2.63,0.841
		l-10.662,14.83c-0.339,0.375-0.873,0.525-1.361,0.366c-0.535-0.175-0.879-0.611-0.882-1.098l0.14-18.207l2.431,0.753l-0.225,13.741
		l0,0L818.437,495.589"/>
</g>
</svg>
