<?xml version="1.0" encoding="utf-8"?>
<!-- Generator: Adobe Illustrator 16.0.0, SVG Export Plug-In . SVG Version: 6.00 Build 0)  -->
<!DOCTYPE svg PUBLIC "-//W3C//DTD SVG 1.1//EN" "http://www.w3.org/Graphics/SVG/1.1/DTD/svg11.dtd">
<svg version="1.1" xmlns="http://www.w3.org/2000/svg" xmlns:xlink="http://www.w3.org/1999/xlink" x="0px" y="0px"
	 width="1619.797px" height="1079.865px" viewBox="0 0 1619.797 1079.865" enable-background="new 0 0 1619.797 1079.865"
	 xml:space="preserve">
<g id="Layer_1" display="none">
</g>
<g id="Layer_2">
	<g>
		<path fill="#5D92CA" d="M845.307,49.361c-6.563,1.158-10.928,7.391-9.768,13.95c1.157,6.56,7.389,10.924,13.947,9.768
			c6.438-1.134,10.926-7.39,9.77-13.948C858.1,52.57,851.865,48.205,845.307,49.361 M848.354,66.644
			c-3.027,0.534-5.975-1.415-6.508-4.443c-0.535-3.028,1.566-5.868,4.594-6.401c3.027-0.537,5.848,1.438,6.383,4.465
			C853.48,63.271,851.381,66.111,848.354,66.644"/>
		<path fill="#5D92CA" d="M873.677,109.077l0.403-3.47l11.742,12.068c0.801,0.76,1.906,1.066,3.039,0.848
			c0.124-0.026,0.248-0.049,0.5-0.1c1.234-0.37,2.193-1.469,2.25-2.523l2.601-34.958c-0.272-0.729-0.546-1.46-1.022-1.89l0,0
			l-15.064-15.078c-1.773-15.838-8.12-36.396-38.936-56.636c-0.752-0.507-1.68-0.587-2.561-0.415l0,0
			c-0.878,0.17-1.688,0.719-2.219,1.344c-20.989,30.31-19.169,51.747-14.883,67.096l-8.321,19.628
			c-0.254,0.7-0.257,1.353,0.017,2.083l15.506,31.438c0.47,1.082,1.748,1.617,3.031,1.498c0.125-0.023,0.252-0.047,0.502-0.098
			c1.135-0.221,2.04-0.918,2.498-1.922l6.366-15.592l1.673,3.066 M835.066,105.621l-5.779,13.91l-11.853-24.055l5.651-13.236
			l12.158,22.951C835.27,105.318,835.167,105.469,835.066,105.621L835.066,105.621z M847.053,114.252l4.904-0.952 M862.016,111.345
			l4.906-0.954 M869.496,84.048l-0.763,6.806l0,0l-1.324,12.654l-0.157,1.206l-22.758,4.423l-0.6-1.06l-5.967-11.237l0,0
			l-3.259-6.021l-9.228-17.256c0,0,0,0-0.023-0.125c-3.746-13.889-5.35-32.891,12.255-59.803l0,0l0,0
			c26.403,18.359,32.034,36.577,33.767,50.855c0,0,0,0,0.023,0.127L869.496,84.048L869.496,84.048z M885.396,108.756l-10.569-10.734
			c-0.15-0.1-0.174-0.229-0.303-0.201l2.68-25.836l10.193,10.152L885.396,108.756L885.396,108.756z"/>
	</g>
	<path fill="#5D92CA" d="M851.902,113.117l8.121,15.437l1.963-17.332 M851.902,113.117l10.084-1.896 M866.902,110.299l6.777-1.32
		l-5.555,45.322c-0.29,1.232-1.283,2.202-2.545,2.439c-1.383,0.261-2.661-0.283-3.253-1.348l-21.571-40.08l6.232-1.271
		l16.021,30.393l0,0L866.902,110.299"/>
</g>
</svg>
