<?xml version="1.0" encoding="utf-8"?>
<!-- Generator: Adobe Illustrator 16.0.0, SVG Export Plug-In . SVG Version: 6.00 Build 0)  -->
<!DOCTYPE svg PUBLIC "-//W3C//DTD SVG 1.1//EN" "http://www.w3.org/Graphics/SVG/1.1/DTD/svg11.dtd">
<svg version="1.1" xmlns="http://www.w3.org/2000/svg" xmlns:xlink="http://www.w3.org/1999/xlink" x="0px" y="0px"
	 width="1619.797px" height="1079.865px" viewBox="0 0 1619.797 1079.865" enable-background="new 0 0 1619.797 1079.865"
	 xml:space="preserve">
<g id="Layer_1" display="none">
</g>
<g id="Layer_2">
	<g>
		<path fill="#5D92CA" d="M859.309,136.524c-13.31,0.7-23.495,12.006-22.791,25.312c0.698,13.305,12.004,23.485,25.306,22.789
			c13.055-0.683,23.488-12.006,22.793-25.307C883.921,146.012,872.608,135.826,859.309,136.524 M861.144,171.573
			c-6.143,0.323-11.514-4.267-11.834-10.406c-0.328-6.142,4.539-11.269,10.68-11.589c6.138-0.327,11.256,4.28,11.578,10.421
			C872.144,166.127,867.284,171.254,861.144,171.573"/>
		<path fill="#5D92CA" d="M901.069,261.98l1.647-6.791l20.366,26.818c1.404,1.706,3.525,2.585,5.828,2.424
			c0.252-0.021,0.504-0.034,1.017-0.074c2.538-0.435,4.71-2.383,5.08-4.462l13.683-68.761c-0.361-1.516-0.727-3.03-1.566-4l0,0
			l-26.23-33.604c0.338-31.87-7.248-74.229-63.486-121.917c-1.369-1.189-3.19-1.575-4.982-1.448l0,0
			c-1.784,0.123-3.524,1.015-4.731,2.126c-49.054,55.053-50.665,98.052-45.897,129.565l-21.303,36.934
			c-0.675,1.329-0.84,2.622-0.476,4.139l23.118,66.186c0.669,2.266,3.078,3.639,5.652,3.714c0.254-0.016,0.512-0.032,1.021-0.071
			c2.305-0.16,4.273-1.326,5.427-3.206l16.438-29.398l2.574,6.495 M825.267,245.709l-14.863,26.203l-17.664-50.639l14.444-24.899
			l18.541,48.524C825.745,245.156,825.505,245.43,825.267,245.709L825.267,245.709z M846.956,265.764l9.969-0.695 M877.371,263.64
			l9.97-0.699 M898.872,211.276l-3.174,13.324l0,0l-5.712,24.795l-0.606,2.357l-46.256,3.232l-0.932-2.249l-9.104-23.763l0,0
			l-5.002-12.747l-14.11-36.503c0,0,0,0-0.016-0.255c-4.053-28.481-2.605-66.593,38.901-115.725l0,0l0,0
			c47.939,42.878,54.675,80.415,54.634,109.182c0,0,0,0,0.018,0.257L898.872,211.276L898.872,211.276z M924.411,264.199
			l-18.365-23.885c-0.273-0.234-0.289-0.498-0.551-0.475l11.614-50.633l17.762,22.639L924.411,264.199L924.411,264.199z"/>
	</g>
	<path fill="#5D92CA" d="M858.717,264.18l11.423,29.244l6.992-30.605 M858.717,264.18l18.415-1.361 M886.114,262.152l12.387-0.996
		l-19.049,79.953c-0.768,2.145-2.736,3.68-5.041,3.849c-2.527,0.188-4.703-1.04-5.547-3.064l-30.529-76.031l11.402-1.019
		l22.549,57.587l0,0L886.114,262.152"/>
</g>
</svg>
