<?xml version="1.0" encoding="utf-8"?>
<!-- Generator: Adobe Illustrator 16.0.0, SVG Export Plug-In . SVG Version: 6.00 Build 0)  -->
<!DOCTYPE svg PUBLIC "-//W3C//DTD SVG 1.1//EN" "http://www.w3.org/Graphics/SVG/1.1/DTD/svg11.dtd">
<svg version="1.1" xmlns="http://www.w3.org/2000/svg" xmlns:xlink="http://www.w3.org/1999/xlink" x="0px" y="0px"
	 width="1619.797px" height="1079.865px" viewBox="0 0 1619.797 1079.865" enable-background="new 0 0 1619.797 1079.865"
	 xml:space="preserve">
<g id="Layer_1" display="none">
</g>
<g id="Layer_2">
	<g>
		<path fill="#5D92CA" d="M829.547,533.372c-8.388-10.354-23.521-11.95-33.873-3.563c-10.354,8.385-11.944,23.518-3.56,33.87
			c8.225,10.159,23.518,11.944,33.87,3.563C836.338,558.858,837.931,543.721,829.547,533.372 M802.271,555.456
			c-3.871-4.777-3.313-11.821,1.463-15.689c4.778-3.873,11.785-2.952,15.654,1.829c3.871,4.773,3.154,11.621-1.626,15.491
			C813.146,561.153,806.142,560.236,802.271,555.456"/>
		<path fill="#5D92CA" d="M751.395,640.414l6.506-2.546l-10.288,32.066c-0.589,2.129-0.096,4.367,1.356,6.161
			c0.161,0.195,0.32,0.394,0.646,0.792c1.812,1.831,4.653,2.494,6.567,1.602l64.174-28.228c1.035-1.168,2.068-2.334,2.379-3.579l0,0
			l12.484-40.763c26.298-18.004,56.646-48.512,63.453-121.933c0.189-1.805-0.541-3.518-1.67-4.913l0,0
			c-1.127-1.39-2.854-2.304-4.457-2.656c-73.231-8.607-109.383,14.736-132.459,36.717l-42.474,3.733
			c-1.478,0.21-2.633,0.817-3.665,1.985l-40.957,56.898c-1.471,1.85-1.213,4.61,0.201,6.763c0.16,0.196,0.32,0.399,0.645,0.795
			c1.454,1.795,3.536,2.739,5.737,2.605l33.511-3.397l-3.845,5.835 M721.241,568.987l-29.989,2.854l31.35-43.518l28.679-2.451
			l-29.115,43.026C721.965,569.061,721.604,569.022,721.241,568.987L721.241,568.987z M717.257,598.254l6.286,7.768 M736.44,621.949
			l6.29,7.768 M791.668,609.532l-12.737,5.043l0,0l-23.586,9.541l-2.28,0.854l-29.18-36.035l1.308-2.053l14.241-21.085l0,0
			l7.574-11.414l21.811-32.495c0,0,0,0,0.199-0.16c21.009-19.652,53.057-40.327,117.109-34.508l0,0l0,0
			c-7.625,63.864-34.51,90.911-58.1,107.376c0,0,0,0-0.197,0.162L791.668,609.532L791.668,609.532z M762.961,660.805l9.033-28.744
			c0.035-0.357,0.239-0.521,0.074-0.721l48.141-19.53l-8.361,27.537L762.961,660.805L762.961,660.805z"/>
	</g>
</g>
</svg>
