<?xml version="1.0" encoding="utf-8"?>
<!-- Generator: Adobe Illustrator 16.0.0, SVG Export Plug-In . SVG Version: 6.00 Build 0)  -->
<!DOCTYPE svg PUBLIC "-//W3C//DTD SVG 1.1//EN" "http://www.w3.org/Graphics/SVG/1.1/DTD/svg11.dtd">
<svg version="1.1" xmlns="http://www.w3.org/2000/svg" xmlns:xlink="http://www.w3.org/1999/xlink" x="0px" y="0px"
	 width="1619.797px" height="1079.865px" viewBox="0 0 1619.797 1079.865" enable-background="new 0 0 1619.797 1079.865"
	 xml:space="preserve">
<g id="Layer_1" display="none">
</g>
<g id="Layer_2">
	<g>
		<path fill="#5D92CA" d="M865.495,227.782c-13.309-0.694-24.621,9.484-25.312,22.79c-0.695,13.305,9.483,24.612,22.786,25.311
			c13.054,0.686,24.613-9.485,25.312-22.786C888.981,239.79,878.795,228.478,865.495,227.782 M863.656,262.831
			c-6.142-0.32-11.004-5.446-10.682-11.587c0.318-6.142,5.693-10.732,11.833-10.408c6.138,0.316,10.747,5.433,10.426,11.574
			C875.166,258.564,869.797,263.155,863.656,262.831"/>
		<path fill="#5D92CA" d="M893.914,356.916l2.348-6.581l17.451,28.801c1.219,1.843,3.234,2.938,5.542,3.019
			c0.251,0.006,0.504,0.019,1.019,0.033c2.571-0.167,4.934-1.877,5.519-3.907l20.797-66.953c-0.203-1.545-0.407-3.09-1.141-4.142
			l0,0l-22.573-36.161c3.666-31.661,0.549-74.58-50.396-127.886c-1.236-1.326-3.008-1.9-4.802-1.962l0,0
			c-1.79-0.063-3.613,0.642-4.93,1.62c-54.539,49.623-60.637,92.219-59.188,124.059l-25.047,34.505
			c-0.811,1.25-1.11,2.52-0.907,4.066l16.074,68.239c0.429,2.322,2.681,3.939,5.234,4.283c0.253,0.011,0.512,0.021,1.022,0.037
			c2.309,0.08,4.388-0.872,5.732-2.622l19.419-27.52l1.882,6.729 M820.227,332.811l-17.521,24.506l-12.275-52.208l16.968-23.253
			l13.368,50.197C820.76,332.311,820.493,332.558,820.227,332.811L820.227,332.811z M839.702,355.021l9.987,0.352 M870.171,356.089
			l9.99,0.347 M897.029,306.26l-4.55,12.92l0,0l-8.273,24.063l-0.849,2.28l-46.34-1.62l-0.691-2.334l-6.571-24.584l0,0l-3.644-13.2
			l-10.216-37.777c0,0,0,0,0.01-0.256c-1.053-28.749,4.371-66.501,50.784-111.024l0,0l0,0
			c43.196,47.654,45.971,85.69,42.923,114.294c0,0,0,0-0.01,0.258L897.029,306.26L897.029,306.26z M916.894,361.563l-15.767-25.674
			c-0.248-0.261-0.236-0.525-0.497-0.529l16.842-49.142l15.297,24.372L916.894,361.563L916.894,361.563z"/>
	</g>
	<path fill="#5D92CA" d="M849.697,355.054l8.993,33.707l11.51-32.931 M849.697,355.054l20.503,0.776 M880.201,356.208l13.801,0.434
		l-30.933,85.925c-1.112,2.273-3.477,3.725-6.042,3.627c-2.815-0.105-5.065-1.731-5.747-4.071l-24.296-87.733l12.717,0.286
		l17.766,66.379l0,0L880.201,356.208"/>
</g>
</svg>
