<?xml version="1.0" encoding="utf-8"?>
<!-- Generator: Adobe Illustrator 16.0.0, SVG Export Plug-In . SVG Version: 6.00 Build 0)  -->
<!DOCTYPE svg PUBLIC "-//W3C//DTD SVG 1.1//EN" "http://www.w3.org/Graphics/SVG/1.1/DTD/svg11.dtd">
<svg version="1.1" xmlns="http://www.w3.org/2000/svg" xmlns:xlink="http://www.w3.org/1999/xlink" x="0px" y="0px"
	 width="1619.797px" height="1079.865px" viewBox="0 0 1619.797 1079.865" enable-background="new 0 0 1619.797 1079.865"
	 xml:space="preserve">
<g id="Layer_1" display="none">
</g>
<g id="Layer_2">
	<g>
		<path fill="#5D92CA" d="M834.658,538.69c-7.063-11.301-21.89-14.727-33.186-7.665c-11.3,7.063-14.722,21.886-7.659,33.186
			c6.924,11.084,21.885,14.722,33.182,7.663C838.292,564.815,841.718,549.986,834.658,538.69 M804.894,557.288
			c-3.259-5.214-1.848-12.138,3.366-15.396c5.214-3.262,12.058-1.492,15.315,3.723c3.258,5.212,1.712,11.918-3.504,15.179
			C814.993,564.268,808.153,562.503,804.894,557.288"/>
		<path fill="#5D92CA" d="M744.043,635.41l6.77-1.734l-14.12,30.575c-0.844,2.04-0.627,4.322,0.596,6.28
			c0.136,0.213,0.27,0.429,0.543,0.864c1.575,2.037,4.314,3.043,6.327,2.391l67.133-20.195c1.169-1.034,2.337-2.065,2.798-3.262l0,0
			l17.357-38.938c28.297-14.667,62.139-41.248,77.841-113.292c0.407-1.766-0.107-3.558-1.059-5.08l0,0
			c-0.95-1.518-2.552-2.635-4.101-3.18c-71.637-17.466-110.364,1.297-135.948,20.303l-42.61-1.472
			c-1.49,0.029-2.712,0.49-3.879,1.523l-47.585,51.484c-1.686,1.654-1.767,4.426-0.626,6.736c0.135,0.214,0.271,0.434,0.543,0.868
			c1.224,1.958,3.176,3.149,5.377,3.285l33.676,0.712l-4.527,5.323 M722.821,560.841l-30.117-0.821l36.423-39.374l28.762,1.063
			l-34.142,39.158C723.53,561.001,723.177,560.922,722.821,560.841L722.821,560.841z M715.3,589.406l5.292,8.475 M731.452,615.262
			l5.295,8.476 M787.781,609.667l-13.256,3.454l0,0l-24.576,6.596l-2.364,0.568l-24.572-39.322l1.548-1.876l16.704-19.194l0,0
			l8.91-10.404l25.607-29.594c0,0,0,0,0.218-0.137c23.247-16.946,57.575-33.56,120.44-19.977l0,0l0,0
			c-15.349,62.457-45.331,86.026-70.75,99.495c0,0,0,0-0.217,0.137L787.781,609.667L787.781,609.667z M753.039,657.06l12.468-27.428
			c0.08-0.352,0.301-0.49,0.164-0.707l50.16-13.519l-11.654,26.313L753.039,657.06L753.039,657.06z"/>
	</g>
</g>
</svg>
