<?xml version="1.0" encoding="utf-8"?>
<!-- Generator: Adobe Illustrator 16.0.0, SVG Export Plug-In . SVG Version: 6.00 Build 0)  -->
<!DOCTYPE svg PUBLIC "-//W3C//DTD SVG 1.1//EN" "http://www.w3.org/Graphics/SVG/1.1/DTD/svg11.dtd">
<svg version="1.1" xmlns="http://www.w3.org/2000/svg" xmlns:xlink="http://www.w3.org/1999/xlink" x="0px" y="0px"
	 width="1619.797px" height="1079.865px" viewBox="0 0 1619.797 1079.865" enable-background="new 0 0 1619.797 1079.865"
	 xml:space="preserve">
<g id="Layer_1" display="none">
</g>
<g id="Layer_2">
	<g>
		<path fill="#5D92CA" d="M861.784,167.042c-6.655,0.351-11.748,6.003-11.396,12.655c0.35,6.652,6.002,11.743,12.653,11.395
			c6.527-0.341,11.744-6.002,11.396-12.652C874.09,171.785,868.434,166.693,861.784,167.042 M862.701,184.566
			c-3.071,0.162-5.757-2.133-5.917-5.203c-0.164-3.07,2.27-5.635,5.34-5.795c3.068-0.163,5.628,2.141,5.789,5.211
			C868.201,181.844,865.771,184.406,862.701,184.566"/>
		<path fill="#5D92CA" d="M882.664,229.77l0.823-3.395l10.184,13.408c0.702,0.854,1.763,1.293,2.914,1.213
			c0.126-0.011,0.252-0.018,0.508-0.037c1.27-0.218,2.355-1.191,2.541-2.231l6.841-34.38c-0.181-0.758-0.363-1.516-0.783-2l0,0
			l-13.115-16.803c0.169-15.935-3.624-37.113-31.743-60.958c-0.685-0.595-1.596-0.788-2.491-0.724l0,0
			c-0.892,0.061-1.763,0.507-2.366,1.063c-24.526,27.526-25.332,49.025-22.948,64.783l-10.651,18.467
			c-0.338,0.664-0.42,1.311-0.238,2.068l11.56,33.094c0.335,1.133,1.539,1.818,2.826,1.856c0.127-0.008,0.256-0.017,0.511-0.036
			c1.152-0.08,2.137-0.662,2.713-1.603l8.219-14.699l1.287,3.247 M844.763,221.635l-7.432,13.102l-8.832-25.32l7.223-12.449
			l9.27,24.262C845.002,221.357,844.882,221.494,844.763,221.635L844.763,221.635z M855.607,231.662l4.984-0.348 M870.815,230.6
			l4.984-0.35 M881.565,204.418l-1.587,6.662l0,0l-2.856,12.397l-0.303,1.179l-23.128,1.616l-0.466-1.124l-4.553-11.882l0,0
			l-2.5-6.374l-7.056-18.251c0,0,0,0-0.008-0.128c-2.026-14.24-1.303-33.296,19.45-57.861l0,0l0,0
			c23.971,21.438,27.338,40.207,27.317,54.59c0,0,0,0,0.009,0.129L881.565,204.418L881.565,204.418z M894.335,230.879l-9.183-11.941
			c-0.137-0.117-0.145-0.25-0.275-0.238l5.808-25.316l8.881,11.32L894.335,230.879L894.335,230.879z"/>
	</g>
	<path fill="#5D92CA" d="M861.487,230.869l5.712,14.623l3.496-15.303 M861.487,230.869l9.208-0.68 M875.187,229.855l6.193-0.498
		l-9.524,39.977c-0.384,1.072-1.368,1.84-2.521,1.925c-1.264,0.095-2.352-0.521-2.773-1.532l-15.265-38.016l5.701-0.51
		l11.274,28.794l0,0L875.187,229.855"/>
</g>
</svg>
