<?xml version="1.0" encoding="utf-8"?>
<!-- Generator: Adobe Illustrator 16.0.0, SVG Export Plug-In . SVG Version: 6.00 Build 0)  -->
<!DOCTYPE svg PUBLIC "-//W3C//DTD SVG 1.1//EN" "http://www.w3.org/Graphics/SVG/1.1/DTD/svg11.dtd">
<svg version="1.1" xmlns="http://www.w3.org/2000/svg" xmlns:xlink="http://www.w3.org/1999/xlink" x="0px" y="0px"
	 width="1619.797px" height="1079.866px" viewBox="0 0 1619.797 1079.866" enable-background="new 0 0 1619.797 1079.866"
	 xml:space="preserve">
<g id="Layer_1" display="none">
</g>
<g id="Layer_2">
	<g>
		<path fill="#5D92CA" d="M855.969,352.27c-6.563-1.156-12.797,3.207-13.95,9.768c-1.155,6.56,3.206,12.792,9.767,13.949
			c6.436,1.136,12.792-3.208,13.949-9.766C866.893,359.66,862.527,353.425,855.969,352.27 M852.921,369.551
			c-3.028-0.533-5.13-3.373-4.595-6.401c0.531-3.028,3.479-4.979,6.506-4.444c3.027,0.531,5.002,3.352,4.469,6.379
			C858.893,368.135,855.949,370.086,852.921,369.551"/>
		<path fill="#5D92CA" d="M862.204,418.086l1.565-3.123l6.906,15.356c0.493,0.989,1.426,1.655,2.566,1.836
			c0.125,0.019,0.249,0.04,0.504,0.078c1.285,0.074,2.563-0.63,2.977-1.603l14.4-31.958c-0.006-0.78-0.014-1.559-0.313-2.126l0,0
			l-8.999-19.322c3.748-15.489,4.816-36.978-17.218-66.537c-0.532-0.733-1.377-1.126-2.263-1.267l0,0
			c-0.885-0.14-1.832,0.099-2.546,0.505c-30.09,21.303-35.712,42.07-36.933,57.959l-14.533,15.598
			c-0.479,0.571-0.704,1.183-0.698,1.963l3.819,34.844c0.071,1.18,1.09,2.119,2.337,2.446c0.125,0.021,0.252,0.041,0.505,0.08
			c1.141,0.18,2.23-0.166,3.004-0.952l11.314-12.474l0.523,3.454 M827.104,401.634l-10.188,11.094l-2.911-26.658l9.838-10.505
			l3.575,25.727C827.398,401.419,827.251,401.526,827.104,401.634L827.104,401.634z M835.415,413.842l4.935,0.784 M850.471,416.229
			l4.937,0.781 M866.837,393.138l-3.046,6.135l0,0l-5.571,11.437l-0.562,1.08l-22.898-3.628l-0.2-1.2l-1.763-12.6l0,0l-1.004-6.774
			l-2.769-19.371c0,0,0,0,0.021-0.126c1.23-14.331,6.223-32.735,31.969-52.003l0,0l0,0c18.533,26.281,17.593,45.326,14.337,59.336
			c0,0,0,0-0.021,0.127L866.837,393.138L866.837,393.138z M873.325,421.793l-6.261-13.702c-0.106-0.145-0.084-0.274-0.214-0.293
			l11.353-23.361l6.107,13.028L873.325,421.793L873.325,421.793z"/>
	</g>
	<path fill="#5D92CA" d="M840.428,414.216l2.42,17.275l7.709-15.646 M840.428,414.216l10.129,1.629 M855.496,416.639l6.824,1.051
		l-20.56,40.771c-0.689,1.061-1.952,1.638-3.219,1.434c-1.392-0.223-2.409-1.166-2.604-2.368l-6.742-45.017l6.295,0.913
		l4.793,34.021l0,0L855.496,416.639"/>
</g>
</svg>
