<?xml version="1.0" encoding="utf-8"?>
<!-- Generator: Adobe Illustrator 16.0.0, SVG Export Plug-In . SVG Version: 6.00 Build 0)  -->
<!DOCTYPE svg PUBLIC "-//W3C//DTD SVG 1.1//EN" "http://www.w3.org/Graphics/SVG/1.1/DTD/svg11.dtd">
<svg version="1.1" xmlns="http://www.w3.org/2000/svg" xmlns:xlink="http://www.w3.org/1999/xlink" x="0px" y="0px"
	 width="1619.797px" height="1079.865px" viewBox="0 0 1619.797 1079.865" enable-background="new 0 0 1619.797 1079.865"
	 xml:space="preserve">
<g id="Layer_1" display="none">
</g>
<g id="Layer_2">
	<g>
		<path fill="#5D92CA" d="M833.238,485.564c-11.542-6.661-26.243-2.727-32.9,8.813c-6.66,11.539-2.724,26.235,8.813,32.896
			c11.319,6.538,26.236,2.724,32.898-8.812C848.713,506.925,844.773,492.221,833.238,485.564 M815.689,515.956
			c-5.328-3.072-7.333-9.848-4.258-15.172c3.071-5.329,9.945-6.979,15.27-3.902c5.325,3.069,7.108,9.72,4.035,15.045
			C827.881,517.379,821.014,519.033,815.689,515.956"/>
		<path fill="#5D92CA" d="M799.934,613.524l5.08-4.797l2.474,33.584c0.25,2.195,1.548,4.085,3.567,5.206
			c0.222,0.119,0.441,0.245,0.893,0.492c2.366,1.019,5.249,0.568,6.69-0.976l48.927-50.212c0.522-1.47,1.041-2.939,0.864-4.209l0,0
			l-3.695-42.471c17.641-26.545,34.348-66.201,13.156-136.825c-0.5-1.744-1.819-3.06-3.389-3.929l0,0
			c-1.565-0.867-3.51-1.067-5.128-0.792c-71.123,19.453-95.895,54.638-109.06,83.665l-37.981,19.372
			c-1.291,0.747-2.133,1.743-2.654,3.213l-16.659,68.098c-0.671,2.265,0.601,4.728,2.72,6.196c0.221,0.123,0.446,0.25,0.894,0.495
			c2.021,1.12,4.305,1.215,6.297,0.266l29.796-15.702l-1.377,6.849 M745.222,558.595l-26.737,13.88l12.765-52.093l25.674-13.015
			l-10.877,50.798C745.922,558.391,745.572,558.491,745.222,558.595L745.222,558.595z M752.491,587.224l8.738,4.848
			 M779.154,602.007l8.744,4.845 M825.708,569.805l-9.921,9.447l0,0l-18.294,17.682l-1.793,1.646l-40.554-22.48l0.443-2.394
			l5.306-24.886l0,0l2.748-13.418l8.048-38.299c0,0,0,0,0.125-0.223c12.115-26.093,34.086-57.267,95.654-75.866l0,0l0,0
			c16.854,62.07,2.059,97.218-13.644,121.322c0,0,0,0-0.125,0.225L825.708,569.805L825.708,569.805z M818.3,628.098l-2.394-30.034
			c-0.102-0.344,0.028-0.574-0.201-0.697l37.318-36.14l2.564,28.663L818.3,628.098L818.3,628.098z"/>
	</g>
	<path fill="#5D92CA" d="M769.698,587.987l-2.651,13.698l9.894-9.837 M769.698,587.987l7.242,3.861 M780.473,593.729l4.889,2.569
		l-26.141,25.515c-0.796,0.623-1.901,0.733-2.808,0.249c-0.994-0.529-1.52-1.508-1.356-2.469l6.583-35.814l4.526,2.326l-5.203,26.99
		l0,0L780.473,593.729"/>
</g>
</svg>
