<?xml version="1.0" encoding="utf-8"?>
<!-- Generator: Adobe Illustrator 16.0.0, SVG Export Plug-In . SVG Version: 6.00 Build 0)  -->
<!DOCTYPE svg PUBLIC "-//W3C//DTD SVG 1.1//EN" "http://www.w3.org/Graphics/SVG/1.1/DTD/svg11.dtd">
<svg version="1.1" xmlns="http://www.w3.org/2000/svg" xmlns:xlink="http://www.w3.org/1999/xlink" x="0px" y="0px"
	 width="1619.797px" height="1079.865px" viewBox="0 0 1619.797 1079.865" enable-background="new 0 0 1619.797 1079.865"
	 xml:space="preserve">
<g id="Layer_1" display="none">
</g>
<g id="Layer_2">
	<g>
		<path fill="#5D92CA" d="M842.051,34.521c-13.163,2.088-22.111,14.396-20.02,27.555c2.085,13.159,14.393,22.103,27.55,20.02
			c12.91-2.043,22.104-14.396,20.021-27.551C867.521,41.385,855.205,32.437,842.051,34.521 M847.54,69.187
			c-6.074,0.964-11.897-3.039-12.858-9.112c-0.967-6.073,3.337-11.682,9.411-12.642c6.069-0.967,11.642,3.08,12.604,9.153
			C857.91,62.62,853.613,68.227,847.54,69.187"/>
		<path fill="#5D92CA" d="M896.697,154.925l0.929-6.925l23.058,24.542c1.576,1.55,3.775,2.202,6.049,1.802
			c0.248-0.047,0.498-0.088,1.004-0.181c2.479-0.697,4.436-2.862,4.585-4.969l6.422-69.813c-0.52-1.47-1.041-2.938-1.977-3.814l0,0
			l-29.599-30.678c-2.996-31.731-14.969-73.065-75.884-114.613c-1.485-1.039-3.337-1.233-5.104-0.92l0,0
			c-1.763,0.31-3.4,1.378-4.484,2.609c-43.031,59.878-40.139,102.811-32.103,133.653l-17.326,38.958
			c-0.533,1.393-0.562,2.695-0.04,4.166l29.909,63.406c0.902,2.183,3.44,3.297,6.011,3.102c0.249-0.042,0.504-0.085,1.007-0.176
			c2.275-0.401,4.111-1.767,5.063-3.757l13.274-30.956l3.238,6.19 M819.608,146.666l-12.043,27.613l-22.86-48.515l11.763-26.272
			l23.512,46.32C820.026,146.066,819.815,146.364,819.608,146.666L819.608,146.666z M843.275,164.344l9.842-1.733 M873.302,159.053
			l9.843-1.738 M889.212,104.729l-1.765,13.583l0,0l-3.089,25.256l-0.355,2.408l-45.665,8.05l-1.161-2.14l-11.539-22.681l0,0
			l-6.308-12.154l-17.849-34.828c0,0,0,0-0.042-0.252c-7.008-27.902-9.551-65.956,26.592-119.157l0,0l0,0
			c52.159,37.633,62.781,74.261,65.748,102.873c0,0,0,0,0.043,0.254L889.212,104.729L889.212,104.729z M920.142,154.691
			l-20.76-21.834c-0.297-0.204-0.341-0.465-0.597-0.415l6.257-51.569l20.03,20.659L920.142,154.691L920.142,154.691z"/>
	</g>
	<path fill="#5D92CA" d="M853.006,161.732l15.649,31.18l4.586-34.581 M853.006,161.732l20.235-3.401 M883.11,156.672l13.601-2.377
		l-12.847,90.414c-0.629,2.451-2.648,4.353-5.182,4.778c-2.777,0.468-5.311-0.668-6.453-2.821l-41.597-80.975l12.512-2.302
		l30.868,61.392l0,0L883.11,156.672"/>
</g>
</svg>
