<?xml version="1.0" encoding="utf-8"?>
<!-- Generator: Adobe Illustrator 16.0.0, SVG Export Plug-In . SVG Version: 6.00 Build 0)  -->
<!DOCTYPE svg PUBLIC "-//W3C//DTD SVG 1.1//EN" "http://www.w3.org/Graphics/SVG/1.1/DTD/svg11.dtd">
<svg version="1.1" xmlns="http://www.w3.org/2000/svg" xmlns:xlink="http://www.w3.org/1999/xlink" x="0px" y="0px"
	 width="1619.797px" height="1079.865px" viewBox="0 0 1619.797 1079.865" enable-background="new 0 0 1619.797 1079.865"
	 xml:space="preserve">
<g id="Layer_1" display="none">
</g>
<g id="Layer_2">
	<g>
		<path fill="#5D92CA" d="M828.687,500.506c-11.178-7.256-26.064-4.096-33.315,7.08c-7.256,11.174-4.094,26.056,7.08,33.312
			c10.961,7.121,26.057,4.093,33.313-7.078C843.022,522.648,839.857,507.758,828.687,500.506 M809.572,529.938
			c-5.16-3.348-6.808-10.218-3.459-15.375c3.347-5.16,10.296-6.449,15.452-3.097c5.157,3.343,6.591,10.077,3.242,15.236
			C821.671,531.998,814.729,533.289,809.572,529.938"/>
		<path fill="#5D92CA" d="M788.73,626.548l5.325-4.525l0.712,33.669c0.135,2.205,1.333,4.161,3.29,5.385
			c0.216,0.13,0.428,0.268,0.867,0.538c2.309,1.141,5.211,0.842,6.732-0.624l51.487-47.583c0.599-1.441,1.194-2.881,1.084-4.158l0,0
			l-1.468-42.606c19.006-25.585,37.765-64.312,20.3-135.949c-0.409-1.767-1.656-3.15-3.179-4.101l0,0
			c-1.518-0.947-3.449-1.249-5.08-1.06c-72.043,15.704-98.624,49.545-113.29,77.843l-38.943,17.357
			c-1.328,0.679-2.221,1.629-2.818,3.07l-20.2,67.133c-0.789,2.227,0.353,4.753,2.392,6.33c0.214,0.135,0.432,0.272,0.867,0.541
			c1.959,1.224,4.236,1.438,6.274,0.595l30.578-14.121l-1.734,6.767 M736.969,568.831l-27.426,12.462l15.474-51.354l26.319-11.653
			l-13.521,50.159C737.679,568.664,737.325,568.745,736.969,568.831L736.969,568.831z M742.729,597.8l8.473,5.299 M768.583,613.959
			l8.478,5.296 M816.759,584.238l-10.403,8.915l0,0l-19.194,16.701l-1.876,1.55l-39.321-24.572l0.568-2.367l6.601-24.575l0,0
			l3.445-13.256l10.042-37.826c0,0,0,0,0.136-0.215c13.464-25.423,37.038-55.404,99.494-70.756l0,0l0,0
			c13.582,62.867-3.032,97.193-19.975,120.442c0,0,0,0-0.136,0.218L816.759,584.238L816.759,584.238z M806.31,642.063l-0.819-30.118
			c-0.083-0.349,0.058-0.571-0.164-0.706l39.158-34.138l1.061,28.758L806.31,642.063L806.31,642.063z"/>
	</g>
	<path fill="#5D92CA" d="M756.699,605.699l-3.514,13.504l10.497-9.191 M756.699,605.699l6.983,4.313 M767.088,612.113l4.717,2.873
		l-27.706,23.808c-0.834,0.571-1.943,0.611-2.817,0.07c-0.959-0.591-1.421-1.601-1.197-2.55l8.839-35.325l4.37,2.608l-6.903,26.605
		l0,0L767.088,612.113"/>
</g>
</svg>
