<?xml version="1.0" encoding="utf-8"?>
<!-- Generator: Adobe Illustrator 16.0.0, SVG Export Plug-In . SVG Version: 6.00 Build 0)  -->
<!DOCTYPE svg PUBLIC "-//W3C//DTD SVG 1.1//EN" "http://www.w3.org/Graphics/SVG/1.1/DTD/svg11.dtd">
<svg version="1.1" xmlns="http://www.w3.org/2000/svg" xmlns:xlink="http://www.w3.org/1999/xlink" x="0px" y="0px"
	 width="1619.797px" height="1079.865px" viewBox="0 0 1619.797 1079.865" enable-background="new 0 0 1619.797 1079.865"
	 xml:space="preserve">
<g id="Layer_1" display="none">
</g>
<g id="Layer_2">
	<g>
		<path fill="#5D92CA" d="M857.297,120.567c-13.296,0.933-23.282,12.414-22.346,25.705c0.93,13.29,12.412,23.272,25.701,22.345
			c13.039-0.911,23.274-12.414,22.346-25.701C882.071,129.624,870.582,119.637,857.297,120.567 M859.744,155.579
			c-6.135,0.431-11.587-4.064-12.015-10.198c-0.434-6.135,4.342-11.347,10.477-11.773c6.13-0.434,11.329,4.083,11.759,10.217
			C870.646,149.941,865.877,155.152,859.744,155.579"/>
		<path fill="#5D92CA" d="M901.241,245.275l1.528-6.818l20.831,26.459c1.435,1.681,3.569,2.522,5.869,2.321
			c0.251-0.024,0.504-0.043,1.016-0.092c2.53-0.479,4.668-2.464,5.001-4.55l12.482-68.988c-0.39-1.51-0.781-3.018-1.637-3.973l0,0
			l-26.812-33.141c-0.219-31.872-8.543-74.092-65.606-120.791c-1.389-1.165-3.217-1.519-5.005-1.361l0,0
			c-1.783,0.155-3.507,1.077-4.694,2.209c-48.086,55.9-48.946,98.921-43.629,130.347l-20.655,37.3
			c-0.652,1.341-0.794,2.637-0.403,4.146l24.27,65.772c0.708,2.252,3.141,3.584,5.718,3.613c0.251-0.02,0.509-0.041,1.018-0.088
			c2.301-0.201,4.249-1.4,5.37-3.301l15.922-29.682l2.687,6.449 M825.165,230.329l-14.403,26.459l-18.546-50.323l14.008-25.146
			l19.385,48.193C825.634,229.769,825.398,230.046,825.165,230.329L825.165,230.329z M847.202,250.002l9.956-0.868 M877.575,247.348
			l9.957-0.873 M898.159,194.617l-2.941,13.378l0,0l-5.279,24.891l-0.564,2.368l-46.193,4.039l-0.971-2.232l-9.518-23.6l0,0
			l-5.225-12.658l-14.745-36.251c0,0,0,0-0.021-0.255c-4.548-28.406-3.766-66.538,36.876-116.386l0,0l0,0
			c48.681,42.034,56.07,79.448,56.532,108.211c0,0,0,0,0.021,0.257L898.159,194.617L898.159,194.617z M924.617,247.086
			l-18.778-23.56c-0.277-0.229-0.298-0.493-0.558-0.466l10.728-50.827l18.153,22.325L924.617,247.086L924.617,247.086z"/>
	</g>
	<path fill="#5D92CA" d="M857.152,248.454l12.817,32.446l7.64-34.037 M857.152,248.454l20.457-1.591 M887.586,246.088l13.759-1.159
		l-20.829,88.915c-0.844,2.387-3.024,4.101-5.585,4.299c-2.808,0.22-5.23-1.137-6.177-3.382l-34.239-84.352l12.666-1.181
		l25.293,63.892l0,0L887.586,246.088"/>
</g>
</svg>
