<?xml version="1.0" encoding="utf-8"?>
<!-- Generator: Adobe Illustrator 16.0.0, SVG Export Plug-In . SVG Version: 6.00 Build 0)  -->
<!DOCTYPE svg PUBLIC "-//W3C//DTD SVG 1.1//EN" "http://www.w3.org/Graphics/SVG/1.1/DTD/svg11.dtd">
<svg version="1.1" xmlns="http://www.w3.org/2000/svg" xmlns:xlink="http://www.w3.org/1999/xlink" x="0px" y="0px"
	 width="1619.797px" height="1079.865px" viewBox="0 0 1619.797 1079.865" enable-background="new 0 0 1619.797 1079.865"
	 xml:space="preserve">
<g id="Layer_1" display="none">
</g>
<g id="Layer_2">
	<g>
		<path fill="#5D92CA" d="M828.782,532.607c-8.566-10.207-23.726-11.538-33.929-2.971c-10.206,8.564-11.532,23.722-2.968,33.927
			c8.4,10.013,23.721,11.532,33.927,2.971C836.019,557.972,837.347,542.81,828.782,532.607 M801.897,555.164
			c-3.955-4.708-3.52-11.762,1.189-15.713c4.709-3.957,11.732-3.157,15.684,1.556c3.953,4.706,3.355,11.564-1.355,15.518
			C812.87,560.671,805.851,559.875,801.897,555.164"/>
		<path fill="#5D92CA" d="M752.511,640.996l6.461-2.659l-9.727,32.241c-0.552,2.139-0.02,4.369,1.463,6.137
			c0.164,0.192,0.328,0.388,0.659,0.78c1.844,1.799,4.696,2.412,6.596,1.487l63.671-29.343c1.015-1.186,2.027-2.37,2.316-3.621l0,0
			l11.771-40.975c25.979-18.46,55.791-49.493,61.315-123.021c0.158-1.808-0.603-3.508-1.756-4.883l0,0
			c-1.152-1.37-2.895-2.255-4.502-2.577c-73.371-7.328-109.109,16.643-131.801,39.023l-42.398,4.474
			c-1.474,0.235-2.619,0.863-3.631,2.049l-39.958,57.604c-1.438,1.874-1.132,4.63,0.319,6.759c0.163,0.193,0.327,0.393,0.656,0.783
			c1.488,1.77,3.584,2.677,5.784,2.506l33.444-3.982l-3.74,5.901 M721.116,570.107l-29.937,3.377l30.587-44.059l28.631-2.95
			l-28.359,43.526C721.841,570.167,721.479,570.136,721.116,570.107L721.116,570.107z M717.642,599.44l6.422,7.657 M737.237,622.796
			l6.426,7.656 M792.239,609.417l-12.647,5.265l0,0l-23.416,9.952l-2.265,0.894l-29.803-35.52l1.271-2.075l13.871-21.333l0,0
			l7.374-11.543l21.238-32.87c0,0,0,0,0.197-0.164c20.662-20.018,52.346-41.248,116.488-36.547l0,0l0,0
			c-6.508,63.988-32.916,91.5-56.215,108.375c0,0,0,0-0.195,0.165L792.239,609.417L792.239,609.417z M764.432,661.183l8.53-28.896
			c0.029-0.357,0.23-0.525,0.063-0.722l47.791-20.367l-7.879,27.678L764.432,661.183L764.432,661.183z"/>
	</g>
</g>
</svg>
