<?xml version="1.0" encoding="utf-8"?>
<!-- Generator: Adobe Illustrator 16.0.0, SVG Export Plug-In . SVG Version: 6.00 Build 0)  -->
<!DOCTYPE svg PUBLIC "-//W3C//DTD SVG 1.1//EN" "http://www.w3.org/Graphics/SVG/1.1/DTD/svg11.dtd">
<svg version="1.1" xmlns="http://www.w3.org/2000/svg" xmlns:xlink="http://www.w3.org/1999/xlink" x="0px" y="0px"
	 width="1619.797px" height="1079.865px" viewBox="0 0 1619.797 1079.865" enable-background="new 0 0 1619.797 1079.865"
	 xml:space="preserve">
<g id="Layer_1" display="none">
</g>
<g id="Layer_2">
	<g>
		<path fill="#5D92CA" d="M838.591,543.16c-5.843-11.976-20.229-16.931-32.203-11.09s-16.927,20.227-11.086,32.204
			c5.728,11.744,20.228,16.925,32.199,11.088C839.476,569.521,844.432,555.133,838.591,543.16 M807.046,558.546
			c-2.696-5.528-0.568-12.267,4.957-14.962c5.527-2.697,12.147-0.222,14.843,5.305c2.695,5.524,0.456,12.033-5.072,14.729
			C816.36,566.542,809.742,564.072,807.046,558.546"/>
		<path fill="#5D92CA" d="M738.362,629.879l6.916-1.018l-17.241,28.931c-1.053,1.941-1.075,4.231-0.063,6.305
			c0.112,0.229,0.224,0.457,0.449,0.918c1.354,2.19,3.975,3.476,6.043,3.04l68.875-13.069c1.271-0.906,2.542-1.811,3.124-2.952l0,0
			l21.331-36.912c29.676-11.625,66.11-34.523,89.259-104.531c0.589-1.716,0.263-3.552-0.522-5.164l0,0
			c-0.787-1.61-2.263-2.888-3.746-3.59c-69.418-24.859-109.896-10.248-137.325,5.98l-42.223-5.917
			c-1.486-0.128-2.75,0.202-4.02,1.108l-52.704,46.229c-1.85,1.468-2.22,4.217-1.327,6.633c0.112,0.228,0.224,0.458,0.45,0.918
			c1.011,2.074,2.83,3.466,5.005,3.831l33.415,4.227L709,569.667 M725.052,553.498l-29.865-3.962l40.339-35.351l28.493,4.063
			l-38.049,35.376C725.74,553.734,725.397,553.618,725.052,553.498L725.052,553.498z M714.584,581.121l4.379,8.982 M727.947,608.523
			l4.381,8.982 M784.55,608.852l-13.542,2.045l0,0l-25.132,3.99l-2.41,0.32l-20.327-41.677l1.735-1.702l18.619-17.346l0,0
			l9.947-9.414l28.563-26.758c0,0,0,0,0.23-0.113c24.891-14.422,60.768-27.357,121.869-7.277l0,0l0,0
			c-21.793,60.512-54.075,80.819-80.764,91.554c0,0,0,0-0.23,0.114L784.55,608.852L784.55,608.852z M745.046,652.349l15.268-25.977
			c0.116-0.341,0.35-0.453,0.235-0.685l51.301-8.201l-14.342,24.953L745.046,652.349L745.046,652.349z"/>
	</g>
</g>
</svg>
