<?xml version="1.0" encoding="utf-8"?>
<!-- Generator: Adobe Illustrator 16.0.0, SVG Export Plug-In . SVG Version: 6.00 Build 0)  -->
<!DOCTYPE svg PUBLIC "-//W3C//DTD SVG 1.1//EN" "http://www.w3.org/Graphics/SVG/1.1/DTD/svg11.dtd">
<svg version="1.1" xmlns="http://www.w3.org/2000/svg" xmlns:xlink="http://www.w3.org/1999/xlink" x="0px" y="0px"
	 width="1619.797px" height="1079.866px" viewBox="0 0 1619.797 1079.866" enable-background="new 0 0 1619.797 1079.866"
	 xml:space="preserve">
<g id="Layer_1" display="none">
</g>
<g id="Layer_2">
	<g>
		<path fill="#5D92CA" d="M859.064,328.257c-6.6-0.926-12.678,3.651-13.602,10.248c-0.926,6.597,3.651,12.672,10.247,13.6
			c6.472,0.911,12.673-3.652,13.601-10.247C870.239,335.261,865.658,329.183,859.064,328.257 M856.621,345.634
			c-3.045-0.427-5.244-3.192-4.816-6.237c0.426-3.045,3.304-5.098,6.348-4.669c3.044,0.425,5.117,3.175,4.689,6.219
			C862.539,344.01,859.666,346.063,856.621,345.634"/>
		<path fill="#5D92CA" d="M867.592,393.816l1.457-3.176l7.438,15.106c0.527,0.971,1.482,1.605,2.629,1.746
			c0.125,0.014,0.25,0.031,0.506,0.061c1.287,0.029,2.539-0.72,2.919-1.706l13.276-32.442c-0.033-0.779-0.068-1.558-0.387-2.113l0,0
			l-9.668-18.996c3.205-15.611,3.523-37.124-19.529-65.896c-0.559-0.714-1.416-1.077-2.307-1.187l0,0
			c-0.889-0.109-1.828,0.162-2.526,0.593c-29.328,22.34-34.222,43.291-34.888,59.213l-13.979,16.095
			c-0.458,0.587-0.663,1.207-0.629,1.986l5.032,34.69c0.113,1.176,1.164,2.08,2.422,2.363c0.125,0.016,0.253,0.032,0.506,0.062
			c1.147,0.141,2.225-0.243,2.971-1.056l10.871-12.861l0.645,3.434 M831.939,378.598l-9.795,11.443l-3.839-26.541l9.465-10.842
			l4.472,25.586C832.227,378.373,832.083,378.484,831.939,378.598L831.939,378.598z M840.672,390.51l4.959,0.61 M855.802,392.369
			l4.961,0.608 M871.352,368.72l-2.829,6.237l0,0l-5.169,11.624l-0.523,1.1l-23.011-2.826l-0.243-1.193l-2.201-12.531l0,0
			l-1.24-6.735l-3.441-19.262c0,0,0,0,0.016-0.127c0.729-14.366,5.076-32.933,30.135-53.087l0,0l0,0
			c19.439,25.618,19.163,44.684,16.398,58.799c0,0,0,0-0.016,0.128L871.352,368.72L871.352,368.72z M878.836,397.132l-6.734-13.475
			c-0.111-0.141-0.094-0.271-0.225-0.285l10.531-23.744l6.557,12.807L878.836,397.132L878.836,397.132z"/>
	</g>
	<path fill="#5D92CA" d="M845.621,391.028l3.021,17.179l7.159-15.905 M845.621,391.028l10.18,1.274 M860.766,392.923l6.855,0.814
		L848.492,435.2c-0.652,1.083-1.893,1.703-3.166,1.544c-1.398-0.175-2.449-1.081-2.687-2.276l-8.304-44.755l6.323,0.694
		l5.975,33.833l0,0L860.766,392.923"/>
</g>
</svg>
