<?xml version="1.0" encoding="utf-8"?>
<!-- Generator: Adobe Illustrator 16.0.0, SVG Export Plug-In . SVG Version: 6.00 Build 0)  -->
<!DOCTYPE svg PUBLIC "-//W3C//DTD SVG 1.1//EN" "http://www.w3.org/Graphics/SVG/1.1/DTD/svg11.dtd">
<svg version="1.1" xmlns="http://www.w3.org/2000/svg" xmlns:xlink="http://www.w3.org/1999/xlink" x="0px" y="0px"
	 width="1619.797px" height="1079.865px" viewBox="0 0 1619.797 1079.865" enable-background="new 0 0 1619.797 1079.865"
	 xml:space="preserve">
<g id="Layer_1" display="none">
</g>
<g id="Layer_2">
	<g>
		<path fill="#5D92CA" d="M820.582,488.907c-5.938-3.024-13.174-0.675-16.195,5.262c-3.023,5.936-0.674,13.171,5.261,16.194
			c5.823,2.968,13.171,0.674,16.196-5.26C828.869,499.167,826.517,491.929,820.582,488.907 M812.615,504.541
			c-2.74-1.395-3.919-4.725-2.523-7.464c1.395-2.741,4.783-3.745,7.522-2.348c2.739,1.393,3.804,4.667,2.409,7.407
			C818.74,504.933,815.355,505.938,812.615,504.541"/>
		<path fill="#5D92CA" d="M807.302,553.671l2.411-2.529l2.114,16.705c0.183,1.089,0.88,1.999,1.917,2.506
			c0.114,0.054,0.227,0.11,0.459,0.222c1.208,0.447,2.636,0.146,3.315-0.662l23.115-26.352c0.223-0.748,0.443-1.495,0.321-2.125l0,0
			l-2.956-21.11c8.114-13.715,15.418-33.954,2.988-68.663c-0.296-0.858-0.987-1.48-1.794-1.874l0,0
			c-0.805-0.392-1.781-0.441-2.582-0.261c-35.004,11.574-46.451,29.791-52.266,44.629l-18.457,10.667
			c-0.625,0.406-1.02,0.926-1.242,1.674l-6.535,34.438c-0.276,1.148,0.424,2.345,1.52,3.022c0.113,0.056,0.229,0.113,0.459,0.224
			c1.039,0.506,2.182,0.494,3.152-0.032l14.466-8.62l-0.509,3.456 M778.546,527.675l-12.987,7.63l5.012-26.345l12.479-7.17
			l-4.102,25.649C778.891,527.555,778.719,527.614,778.546,527.675L778.546,527.675z M782.925,541.78l4.49,2.192 M796.625,548.463
			l4.492,2.191 M819.027,531.167l-4.707,4.977l0,0l-8.672,9.308l-0.852,0.869l-20.838-10.164l0.16-1.206l1.997-12.565l0,0
			l1.021-6.771l3.017-19.334c0,0,0,0,0.057-0.115c5.366-13.345,15.521-29.486,45.776-40.384l0,0l0,0
			c10.039,30.551,3.571,48.489-3.639,60.935c0,0,0,0-0.056,0.116L819.027,531.167L819.027,531.167z M816.854,560.467l-1.98-14.934
			c-0.061-0.169-0.002-0.287-0.119-0.343l17.688-19.022l2.031,14.245L816.854,560.467L816.854,560.467z"/>
	</g>
	<path fill="#5D92CA" d="M792.065,541.447l-1.187,6.875l4.846-5.018 M792.065,541.447l3.659,1.857 M797.51,544.208l2.471,1.234
		l-12.809,13.021c-0.393,0.319-0.943,0.385-1.4,0.152c-0.504-0.254-0.775-0.738-0.703-1.22l2.926-17.97l2.287,1.116l-2.327,13.545
		l0,0L797.51,544.208"/>
</g>
</svg>
