<?xml version="1.0" encoding="utf-8"?>
<!-- Generator: Adobe Illustrator 16.0.0, SVG Export Plug-In . SVG Version: 6.00 Build 0)  -->
<!DOCTYPE svg PUBLIC "-//W3C//DTD SVG 1.1//EN" "http://www.w3.org/Graphics/SVG/1.1/DTD/svg11.dtd">
<svg version="1.1" xmlns="http://www.w3.org/2000/svg" xmlns:xlink="http://www.w3.org/1999/xlink" x="0px" y="0px"
	 width="1619.797px" height="1079.865px" viewBox="0 0 1619.797 1079.865" enable-background="new 0 0 1619.797 1079.865"
	 xml:space="preserve">
<g id="Layer_1" display="none">
</g>
<g id="Layer_2">
	<g>
		<path fill="#5D92CA" d="M840.207,460.786c-11.979-5.839-26.369-0.889-32.205,11.087c-5.839,11.975-0.887,26.361,11.087,32.2
			c11.747,5.732,26.362,0.887,32.204-11.084C857.135,481.015,852.179,466.622,840.207,460.786 M824.821,492.328
			c-5.528-2.693-8.003-9.313-5.308-14.838c2.693-5.53,9.434-7.655,14.961-4.958c5.527,2.69,7.77,9.199,5.074,14.727
			C837.082,492.897,830.348,495.026,824.821,492.328"/>
		<path fill="#5D92CA" d="M815.91,590.758l4.733-5.141l4.81,33.331c0.403,2.172,1.83,3.967,3.922,4.944
			c0.23,0.104,0.459,0.213,0.926,0.428c2.432,0.851,5.275,0.201,6.605-1.44l45.305-53.502c0.419-1.503,0.834-3.004,0.569-4.259l0,0
			l-6.649-42.11c15.746-27.71,29.646-68.435,3.58-137.409c-0.621-1.704-2.029-2.925-3.655-3.683l0,0
			c-1.622-0.755-3.575-0.82-5.171-0.433c-69.592,24.367-91.85,61.195-102.957,91.069l-36.538,21.974
			c-1.235,0.835-2.006,1.887-2.423,3.39l-11.869,69.095c-0.512,2.306,0.93,4.675,3.146,5.991c0.229,0.106,0.463,0.217,0.927,0.431
			c2.094,0.977,4.379,0.912,6.301-0.174l28.627-17.742l-0.896,6.928 M757.5,539.778l-25.703,15.712l9.1-52.856L765.6,487.86
			l-7.307,51.433C758.185,539.526,757.843,539.65,757.5,539.778L757.5,539.778z M766.748,567.83l9.055,4.227 M794.378,580.718
			l9.06,4.223 M838.572,545.347l-9.238,10.115l0,0l-17.017,18.915l-1.673,1.768l-42.023-19.597l0.275-2.418l3.557-25.196l0,0
			l1.805-13.577l5.356-38.768c0,0,0,0,0.109-0.231c10.265-26.874,30.009-59.504,90.128-82.354l0,0l0,0
			c21.144,60.744,8.837,96.839-5.146,121.979c0,0,0,0-0.108,0.233L838.572,545.347L838.572,545.347z M835.248,604.014l-4.482-29.793
			c-0.126-0.336-0.014-0.574-0.249-0.681l34.705-38.655l4.558,28.415L835.248,604.014L835.248,604.014z"/>
	</g>
	<path fill="#5D92CA" d="M782.334,571.911l-2.086,13.797l9.479-10.236 M782.334,571.911l7.394,3.561 M793.336,577.204l4.99,2.365
		l-25.065,26.573c-0.771,0.655-1.871,0.811-2.796,0.363c-1.015-0.487-1.58-1.443-1.456-2.411l5.098-36.054l4.619,2.136
		l-4.084,27.181l0,0L793.336,577.204"/>
</g>
</svg>
