<?xml version="1.0" encoding="utf-8"?>
<!-- Generator: Adobe Illustrator 16.0.0, SVG Export Plug-In . SVG Version: 6.00 Build 0)  -->
<!DOCTYPE svg PUBLIC "-//W3C//DTD SVG 1.1//EN" "http://www.w3.org/Graphics/SVG/1.1/DTD/svg11.dtd">
<svg version="1.1" xmlns="http://www.w3.org/2000/svg" xmlns:xlink="http://www.w3.org/1999/xlink" x="0px" y="0px"
	 width="1619.797px" height="1079.865px" viewBox="0 0 1619.797 1079.865" enable-background="new 0 0 1619.797 1079.865"
	 xml:space="preserve">
<g id="Layer_1" display="none">
</g>
<g id="Layer_2">
	<g>
		<path fill="#5D92CA" d="M805.112,553.202c-4.459-4.951-12.058-5.352-17.007-0.893c-4.95,4.458-5.349,12.055-0.891,17.005
			c4.372,4.857,12.055,5.348,17.005,0.893C809.17,565.75,809.569,558.149,805.112,553.202 M792.071,564.942
			c-2.059-2.284-1.964-5.816,0.32-7.873c2.284-2.059,5.807-1.782,7.864,0.504c2.058,2.282,1.879,5.72-0.406,7.778
			C797.649,567.502,794.129,567.228,792.071,564.942"/>
		<path fill="#5D92CA" d="M768.891,608.693l3.182-1.441l-4.298,16.28c-0.238,1.078,0.066,2.183,0.839,3.041
			c0.085,0.093,0.17,0.188,0.343,0.378c0.952,0.866,2.389,1.123,3.321,0.627l31.305-15.773c0.486-0.61,0.972-1.22,1.094-1.849l0,0
			l5.167-20.681c12.659-9.678,27.015-25.705,28.492-62.543c0.048-0.906-0.362-1.742-0.963-2.409l0,0
			c-0.599-0.665-1.485-1.076-2.294-1.209c-36.792-2.381-54.231,10.22-65.179,21.8l-21.109,2.975
			c-0.732,0.144-1.293,0.477-1.778,1.087l-18.962,29.482c-0.686,0.961-0.484,2.333,0.278,3.372c0.084,0.094,0.17,0.19,0.342,0.38
			c0.773,0.858,1.837,1.274,2.934,1.15l16.643-2.573l-1.767,3.014 M751.966,573.819l-14.9,2.209l14.516-22.549l14.255-1.975
			l-13.411,22.245C752.329,573.837,752.147,573.827,751.966,573.819L751.966,573.819z M750.742,588.537l3.342,3.714 M760.94,599.866
			l3.345,3.713 M788.191,592.221l-6.228,2.851l0,0l-11.527,5.382l-1.116,0.486l-15.513-17.23l0.599-1.059l6.559-10.901l0,0
			l3.483-5.896l10.039-16.796c0,0,0,0,0.096-0.085c9.976-10.363,25.437-21.524,57.571-20.295l0,0l0,0
			c-2.136,32.088-14.852,46.296-26.2,55.135c0,0,0,0-0.095,0.086L788.191,592.221L788.191,592.221z M775.199,618.573l3.759-14.588
			c0.008-0.179,0.105-0.266,0.019-0.362l23.525-11.011l-3.454,13.969L775.199,618.573L775.199,618.573z"/>
	</g>
</g>
</svg>
