<?xml version="1.0" encoding="utf-8"?>
<!-- Generator: Adobe Illustrator 16.0.0, SVG Export Plug-In . SVG Version: 6.00 Build 0)  -->
<!DOCTYPE svg PUBLIC "-//W3C//DTD SVG 1.1//EN" "http://www.w3.org/Graphics/SVG/1.1/DTD/svg11.dtd">
<svg version="1.1" xmlns="http://www.w3.org/2000/svg" xmlns:xlink="http://www.w3.org/1999/xlink" x="0px" y="0px"
	 width="1619.797px" height="1079.865px" viewBox="0 0 1619.797 1079.865" enable-background="new 0 0 1619.797 1079.865"
	 xml:space="preserve">
<g id="Layer_1" display="none">
</g>
<g id="Layer_2">
	<g>
		<path fill="#5D92CA" d="M860.028,31.922l0.161-3.49l12.555,11.22c0.853,0.703,1.977,0.933,3.091,0.634
			c0.122-0.034,0.244-0.065,0.492-0.134c1.205-0.455,2.085-1.618,2.067-2.675l0.156-35.054c-0.322-0.71-0.646-1.418-1.15-1.813l0,0
			l-16.08-13.991c-2.875-15.675-10.64-35.741-42.792-53.781c-0.785-0.453-1.716-0.469-2.583-0.235l0,0
			c-0.864,0.23-1.634,0.834-2.12,1.494c-18.824,31.701-15.513,52.959-10.166,67.972l-6.932,20.16
			c-0.205,0.716-0.163,1.367,0.161,2.077l17.661,30.279c0.544,1.047,1.857,1.492,3.129,1.282c0.122-0.031,0.248-0.064,0.494-0.132
			c1.115-0.299,1.971-1.059,2.357-2.092l5.263-15.997l1.883,2.942 M821.271,31.167l-4.795,14.279l-13.501-23.169l4.714-13.599
			l13.729,22.048C821.453,30.851,821.36,31.008,821.271,31.167L821.271,31.167z M833.83,38.941l4.827-1.293 M848.555,34.997
			l4.827-1.294 M854.112,7.245l-0.287,6.843l0,0l-0.438,12.715l-0.072,1.215l-22.395,5.999l-0.671-1.015l-6.736-10.795l0,0
			l-3.671-5.779L809.434-0.142c0,0,0,0-0.032-0.124c-4.706-13.592-7.631-32.437,8.053-60.511l0,0l0,0
			c27.621,16.472,34.508,34.253,37.232,48.376c0,0,0,0,0.032,0.124L854.112,7.245L854.112,7.245z M871.696,30.783l-11.292-9.971
			c-0.157-0.088-0.19-0.217-0.315-0.18l0.87-25.959l10.877,9.416L871.696,30.783L871.696,30.783z"/>
	</g>
	<path fill="#5D92CA" d="M838.574,37.443l9.128,14.863l0.807-17.424 M838.574,37.443l9.935-2.561 M853.354,33.634l6.674-1.765
		l-2.537,45.59c-0.208,1.25-1.133,2.283-2.377,2.604c-1.363,0.352-2.674-0.105-3.334-1.13L827.597,40.37l6.134-1.681l18.001,29.264
		l0,0L853.354,33.634"/>
</g>
</svg>
