<?xml version="1.0" encoding="utf-8"?>
<!-- Generator: Adobe Illustrator 16.0.0, SVG Export Plug-In . SVG Version: 6.00 Build 0)  -->
<!DOCTYPE svg PUBLIC "-//W3C//DTD SVG 1.1//EN" "http://www.w3.org/Graphics/SVG/1.1/DTD/svg11.dtd">
<svg version="1.1" xmlns="http://www.w3.org/2000/svg" xmlns:xlink="http://www.w3.org/1999/xlink" x="0px" y="0px"
	 width="1619.797px" height="1079.865px" viewBox="0 0 1619.797 1079.865" enable-background="new 0 0 1619.797 1079.865"
	 xml:space="preserve">
<g id="Layer_1" display="none">
</g>
<g id="Layer_2">
	<g>
		<path fill="#5D92CA" d="M847.254,430.928c-12.357-4.99-26.367,0.952-31.353,13.307c-4.989,12.353,0.954,26.358,13.306,31.348
			c12.119,4.898,26.36-0.954,31.352-13.304C865.552,449.927,859.604,435.915,847.254,430.928 M834.106,463.466
			c-5.704-2.301-8.632-8.732-6.329-14.432c2.3-5.704,8.877-8.295,14.578-5.989c5.7,2.298,8.392,8.635,6.089,14.337
			C846.377,463.179,839.807,465.771,834.106,463.466"/>
		<path fill="#5D92CA" d="M832.083,562.277l4.363-5.458l7.124,32.914c0.553,2.139,2.102,3.83,4.257,4.659
			c0.236,0.087,0.471,0.181,0.953,0.363c2.484,0.679,5.277-0.168,6.489-1.897l41.462-56.532c0.313-1.529,0.622-3.056,0.27-4.289l0,0
			l-9.57-41.543c13.775-28.742,24.8-70.337-6.014-137.324c-0.739-1.657-2.227-2.776-3.903-3.419l0,0
			c-1.67-0.64-3.624-0.568-5.188-0.071c-67.723,29.162-87.356,67.452-96.354,98.028l-34.916,24.469
			c-1.174,0.919-1.87,2.023-2.181,3.551l-7.02,69.753c-0.35,2.337,1.253,4.599,3.555,5.757c0.236,0.091,0.477,0.185,0.954,0.366
			c2.157,0.828,4.433,0.604,6.273-0.613l27.321-19.696l-0.411,6.974 M770.259,515.497l-24.545,17.467l5.391-53.363l23.613-16.461
			l-3.702,51.818C770.924,515.198,770.592,515.345,770.259,515.497L770.259,515.497z M781.441,542.835l9.329,3.584 M809.903,553.764
			l9.333,3.582 M851.522,515.397l-8.51,10.735l0,0l-15.655,20.056l-1.546,1.88l-43.288-16.618l0.106-2.432l1.79-25.383l0,0
			l0.853-13.67l2.639-39.047c0,0,0,0,0.093-0.238c8.366-27.525,25.784-61.453,84.165-88.44l0,0l0,0
			c25.328,59.121,15.569,95.986,3.374,122.041c0,0,0,0-0.092,0.24L851.522,515.397L851.522,515.397z M852.299,574.153l-6.55-29.408
			c-0.148-0.327-0.052-0.572-0.296-0.662l31.924-40.982l6.529,28.028L852.299,574.153L852.299,574.153z"/>
	</g>
	<path fill="#5D92CA" d="M798.721,540.688l-1.089,13.912l8.721-10.892 M798.721,540.688l7.632,3.02 M810.075,545.179l5.148,2
		l-23.096,28.303c-0.721,0.709-1.806,0.942-2.761,0.563c-1.047-0.413-1.68-1.326-1.626-2.299l2.499-36.328l4.761,1.799
		l-2.124,27.404l0,0L810.075,545.179"/>
</g>
</svg>
