<?xml version="1.0" encoding="utf-8"?>
<!-- Generator: Adobe Illustrator 16.0.0, SVG Export Plug-In . SVG Version: 6.00 Build 0)  -->
<!DOCTYPE svg PUBLIC "-//W3C//DTD SVG 1.1//EN" "http://www.w3.org/Graphics/SVG/1.1/DTD/svg11.dtd">
<svg version="1.1" xmlns="http://www.w3.org/2000/svg" xmlns:xlink="http://www.w3.org/1999/xlink" x="0px" y="0px"
	 width="1619.797px" height="1079.865px" viewBox="0 0 1619.797 1079.865" enable-background="new 0 0 1619.797 1079.865"
	 xml:space="preserve">
<g id="Layer_1" display="none">
</g>
<g id="Layer_2">
	<g>
		<path fill="#5D92CA" d="M843.625,446.849c-12.175-5.418-26.384,0.032-31.798,12.205c-5.417,12.171,0.033,26.375,12.204,31.794
			c11.94,5.318,26.377-0.034,31.797-12.202C861.248,466.475,855.792,452.264,843.625,446.849 M829.349,478.908
			c-5.62-2.499-8.322-9.027-5.821-14.644c2.498-5.62,9.161-7.98,14.778-5.477c5.617,2.495,8.086,8.922,5.585,14.541
			C841.622,479.049,834.966,481.412,829.349,478.908"/>
		<path fill="#5D92CA" d="M823.879,577.589l4.551-5.303l5.971,33.143c0.479,2.157,1.967,3.901,4.092,4.804
			c0.233,0.095,0.464,0.197,0.939,0.396c2.459,0.766,5.279,0.017,6.552-1.669l43.41-55.051c0.366-1.517,0.729-3.032,0.419-4.276l0,0
			l-8.114-41.852c14.77-28.243,27.24-69.428-1.218-137.45c-0.681-1.682-2.129-2.853-3.781-3.554l0,0
			c-1.647-0.698-3.602-0.695-5.183-0.252c-68.7,26.78-89.658,64.363-99.717,94.606l-35.748,23.235
			c-1.206,0.878-1.939,1.957-2.304,3.473l-9.449,69.466c-0.431,2.323,1.091,4.64,3.352,5.878c0.232,0.099,0.47,0.201,0.941,0.398
			c2.126,0.903,4.409,0.758,6.291-0.394l27.992-18.73l-0.654,6.955 M763.725,528.679l-25.139,16.6l7.25-53.142l24.172-15.627
			l-5.507,51.657C764.4,528.404,764.063,528.539,763.725,528.679L763.725,528.679z M773.946,556.392l9.197,3.908 M802.009,568.307
			l9.202,3.904 M844.941,531.416l-8.879,10.432l0,0l-16.346,19.498l-1.611,1.824l-42.681-18.118l0.191-2.426l2.674-25.305l0,0
			l1.33-13.632l4-38.931c0,0,0,0,0.101-0.234c9.321-27.216,27.914-60.516,87.2-85.449l0,0l0,0
			c23.249,59.968,12.209,96.471-0.888,122.083c0,0,0,0-0.101,0.237L844.941,531.416L844.941,531.416z M843.667,590.163l-5.52-29.619
			c-0.137-0.332-0.032-0.573-0.273-0.672l33.336-39.843l5.546,28.238L843.667,590.163L843.667,590.163z"/>
	</g>
	<path fill="#5D92CA" d="M788.84,562.188l-1.639,14.924l9.745-11.42 M788.84,562.188l8.106,3.504 M800.9,567.399l5.47,2.324
		l-25.79,29.66c-0.8,0.737-1.975,0.952-2.988,0.514c-1.112-0.48-1.762-1.483-1.672-2.528l3.911-38.983l5.059,2.094l-3.207,29.399
		l0,0L800.9,567.399"/>
</g>
</svg>
