<?xml version="1.0" encoding="utf-8"?>
<!-- Generator: Adobe Illustrator 16.0.0, SVG Export Plug-In . SVG Version: 6.00 Build 0)  -->
<!DOCTYPE svg PUBLIC "-//W3C//DTD SVG 1.1//EN" "http://www.w3.org/Graphics/SVG/1.1/DTD/svg11.dtd">
<svg version="1.1" xmlns="http://www.w3.org/2000/svg" xmlns:xlink="http://www.w3.org/1999/xlink" x="0px" y="0px"
	 width="1619.797px" height="1079.865px" viewBox="0 0 1619.797 1079.865" enable-background="new 0 0 1619.797 1079.865"
	 xml:space="preserve">
<g id="Layer_1" display="none">
</g>
<g id="Layer_2">
	<g>
		<path fill="#5D92CA" d="M861.043,152.514c-13.32,0.468-23.702,11.594-23.229,24.909c0.466,13.315,11.592,23.692,24.905,23.228
			c13.063-0.454,23.692-11.594,23.229-24.905C885.485,162.43,874.352,152.048,861.043,152.514 M862.266,187.589
			c-6.146,0.217-11.438-4.466-11.651-10.611c-0.22-6.146,4.735-11.188,10.881-11.4c6.142-0.22,11.18,4.476,11.396,10.621
			C873.358,182.336,868.41,187.377,862.266,187.589"/>
		<path fill="#5D92CA" d="M900.607,278.68l1.766-6.761l19.895,27.169c1.376,1.73,3.479,2.646,5.785,2.525
			c0.252-0.017,0.504-0.025,1.018-0.057c2.545-0.39,4.752-2.3,5.157-4.373l14.882-68.511c-0.337-1.521-0.676-3.043-1.497-4.027l0,0
			l-25.64-34.056c0.894-31.86-5.953-74.344-61.351-123.007c-1.347-1.213-3.161-1.631-4.954-1.535l0,0
			c-1.787,0.093-3.543,0.953-4.77,2.044c-50.007,54.188-52.368,97.152-48.15,128.744l-21.945,36.557
			c-0.698,1.316-0.885,2.606-0.548,4.13l21.96,66.579c0.629,2.275,3.014,3.691,5.588,3.811c0.252-0.011,0.511-0.023,1.021-0.053
			c2.308-0.12,4.296-1.251,5.482-3.11l16.948-29.108l2.459,6.539 M825.1,261.087l-15.317,25.94l-16.778-50.939l14.877-24.644
			l17.691,48.841C825.588,260.543,825.343,260.813,825.1,261.087L825.1,261.087z M846.436,281.518l9.98-0.521 M876.883,279.925
			l9.981-0.525 M899.296,227.944l-3.407,13.268l0,0l-6.144,24.691l-0.647,2.346l-46.305,2.425l-0.893-2.266l-8.688-23.917l0,0
			l-4.779-12.832l-13.471-36.744c0,0,0,0-0.012-0.255c-3.555-28.549-1.441-66.629,40.916-115.028l0,0l0,0
			c47.183,43.708,53.263,81.357,52.72,110.118c0,0,0,0,0.012,0.258L899.296,227.944L899.296,227.944z M923.906,281.305
			l-17.945-24.201c-0.269-0.238-0.28-0.503-0.541-0.484l12.496-50.422l17.362,22.945L923.906,281.305L923.906,281.305z"/>
	</g>
	<path fill="#5D92CA" d="M857.902,280.095l10.463,29.6l7.986-30.361 M857.902,280.095l18.449-0.762 M885.352,278.96l12.412-0.594
		l-21.642,79.292c-0.837,2.118-2.854,3.589-5.163,3.683c-2.533,0.105-4.668-1.192-5.445-3.243l-28.039-76.985l11.431-0.647
		l20.661,58.291l0,0L885.352,278.96"/>
</g>
</svg>
