<?xml version="1.0" encoding="utf-8"?>
<!-- Generator: Adobe Illustrator 16.0.0, SVG Export Plug-In . SVG Version: 6.00 Build 0)  -->
<!DOCTYPE svg PUBLIC "-//W3C//DTD SVG 1.1//EN" "http://www.w3.org/Graphics/SVG/1.1/DTD/svg11.dtd">
<svg version="1.1" xmlns="http://www.w3.org/2000/svg" xmlns:xlink="http://www.w3.org/1999/xlink" x="0px" y="0px"
	 width="1619.797px" height="1079.865px" viewBox="0 0 1619.797 1079.865" enable-background="new 0 0 1619.797 1079.865"
	 xml:space="preserve">
<g id="Layer_1" display="none">
	
		<image display="inline" overflow="visible" width="1620" height="1080" xlink:href="stars_background.png"  transform="matrix(0.9999 0 0 0.9999 0 0)">
	</image>
</g>
<g id="Layer_2">
	<g>
		<path fill="#5D92CA" d="M818.733,561.311c-2.71-6.086-9.813-8.813-15.898-6.104c-6.084,2.709-8.811,9.812-6.101,15.898
			c2.657,5.969,9.812,8.812,15.896,6.102C818.716,574.498,821.443,567.396,818.733,561.311 M802.702,568.448
			c-1.25-2.808-0.07-6.139,2.738-7.389c2.81-1.251,6.074,0.101,7.324,2.909c1.251,2.808,0.019,6.021-2.791,7.272
			C807.217,572.607,803.953,571.256,802.702,568.448"/>
		<path fill="#5D92CA" d="M767.138,602.895l3.474-0.388l-9.121,14.156c-0.56,0.952-0.61,2.095-0.141,3.149
			c0.052,0.117,0.104,0.233,0.208,0.468c0.637,1.119,1.926,1.806,2.967,1.624l34.645-5.329c0.651-0.431,1.301-0.859,1.612-1.419l0,0
			l11.304-18.073c15.031-5.291,33.637-16.098,46.426-50.677c0.324-0.847,0.193-1.77-0.171-2.589l0,0
			c-0.365-0.819-1.081-1.481-1.81-1.859c-34.254-13.634-54.735-7.038-68.725,0.592l-20.995-3.694
			c-0.741-0.09-1.378,0.053-2.028,0.484l-27.143,22.18c-0.95,0.702-1.183,2.068-0.779,3.291c0.053,0.117,0.104,0.233,0.209,0.468
			c0.469,1.054,1.354,1.781,2.435,2.001l16.623,2.695l-2.611,2.321 M761.818,564.495l-14.854-2.501l20.773-16.961l14.167,2.526
			l-19.63,17.014C762.158,564.625,761.989,564.56,761.818,564.495L761.818,564.495z M756.105,578.116l2.032,4.565 M762.306,592.042
			l2.032,4.565 M790.583,593.194l-6.802,0.784l0,0l-12.628,1.557l-1.209,0.118l-9.431-21.18l0.897-0.821l9.606-8.343l0,0l5.135-4.53
			l14.74-12.873c0,0,0,0,0.117-0.052c12.69-6.772,30.843-12.61,61.025-1.51l0,0l0,0c-11.946,29.857-28.433,39.441-41.955,44.34
			c0,0,0,0-0.117,0.052L790.583,593.194L790.583,593.194z M770.085,614.239l8.082-12.713c0.064-0.169,0.183-0.221,0.13-0.338
			l25.777-3.204l-7.602,12.218L770.085,614.239L770.085,614.239z"/>
	</g>
</g>
</svg>
