<?xml version="1.0" encoding="utf-8"?>
<!-- Generator: Adobe Illustrator 16.0.0, SVG Export Plug-In . SVG Version: 6.00 Build 0)  -->
<!DOCTYPE svg PUBLIC "-//W3C//DTD SVG 1.1//EN" "http://www.w3.org/Graphics/SVG/1.1/DTD/svg11.dtd">
<svg version="1.1" xmlns="http://www.w3.org/2000/svg" xmlns:xlink="http://www.w3.org/1999/xlink" x="0px" y="0px"
	 width="1619.797px" height="1079.865px" viewBox="0 0 1619.797 1079.865" enable-background="new 0 0 1619.797 1079.865"
	 xml:space="preserve">
<g id="Layer_1" display="none">
</g>
<g id="Layer_2">
	<g>
		<path fill="#5D92CA" d="M818.569,494.987c-5.884-3.127-13.161-0.904-16.286,4.979c-3.126,5.882-0.903,13.157,4.978,16.284
			c5.771,3.069,13.158,0.903,16.286-4.977C826.675,505.391,824.45,498.113,818.569,494.987 M810.331,510.48
			c-2.717-1.442-3.836-4.793-2.393-7.507c1.441-2.716,4.848-3.661,7.562-2.216c2.714,1.44,3.722,4.732,2.278,7.448
			C816.447,510.979,813.045,511.925,810.331,510.48"/>
		<path fill="#5D92CA" d="M804.161,559.51l2.454-2.486l1.822,16.739c0.163,1.092,0.845,2.015,1.873,2.539
			c0.113,0.056,0.226,0.114,0.455,0.23c1.2,0.468,2.633,0.192,3.326-0.604l23.572-25.944c0.235-0.744,0.469-1.486,0.358-2.118l0,0
			l-2.588-21.158c8.352-13.572,16.008-33.679,4.187-68.6c-0.28-0.862-0.962-1.497-1.762-1.904l0,0
			c-0.798-0.406-1.772-0.472-2.577-0.307c-35.199,10.961-46.964,28.976-53.036,43.71l-18.641,10.342
			c-0.632,0.396-1.036,0.908-1.271,1.652l-7.136,34.319c-0.296,1.144,0.382,2.352,1.467,3.049c0.112,0.057,0.228,0.117,0.456,0.231
			c1.028,0.524,2.172,0.532,3.15,0.023l14.615-8.366l-0.568,3.446 M775.862,533.016l-13.117,7.403l5.469-26.253l12.602-6.951
			l-4.549,25.573C776.209,532.902,776.036,532.958,775.862,533.016L775.862,533.016z M779.995,547.195l4.45,2.271 M793.575,554.117
			l4.455,2.269 M816.276,537.214l-4.793,4.893l0,0l-8.832,9.155l-0.867,0.854l-20.656-10.526l0.18-1.204l2.217-12.528l0,0
			l1.139-6.753l3.353-19.278c0,0,0,0,0.059-0.114c5.599-13.25,16.034-29.21,46.474-39.579l0,0l0,0
			c9.506,30.722,2.727,48.543-4.7,60.862c0,0,0,0-0.058,0.115L816.276,537.214L816.276,537.214z M813.593,566.471l-1.721-14.966
			c-0.057-0.17,0.004-0.287-0.113-0.345l18.018-18.71l1.781,14.278L813.593,566.471L813.593,566.471z"/>
	</g>
	<g>
		<polygon fill="#5D92CA" points="789.569,548.64 789.062,551.428 791.063,549.395 		"/>
		<path fill="#5D92CA" d="M792.852,550.298l-6.771,6.865l1.713-9.422l-2.24-1.132l-2.391,13.835
			c-0.076,0.481,0.191,0.968,0.692,1.227c0.456,0.237,1.007,0.176,1.401-0.139l10.031-10.003L792.852,550.298z"/>
	</g>
</g>
</svg>
