<?xml version="1.0" encoding="utf-8"?>
<!-- Generator: Adobe Illustrator 16.0.0, SVG Export Plug-In . SVG Version: 6.00 Build 0)  -->
<!DOCTYPE svg PUBLIC "-//W3C//DTD SVG 1.1//EN" "http://www.w3.org/Graphics/SVG/1.1/DTD/svg11.dtd">
<svg version="1.1" xmlns="http://www.w3.org/2000/svg" xmlns:xlink="http://www.w3.org/1999/xlink" x="0px" y="0px"
	 width="1619.797px" height="1079.865px" viewBox="0 0 1619.797 1079.865" enable-background="new 0 0 1619.797 1079.865"
	 xml:space="preserve">
<g id="Layer_1" display="none">
</g>
<g id="Layer_2">
	<g>
		<path fill="#5D92CA" d="M878.358,37.251l0.199-6.984l25.497,21.998c1.729,1.376,3.985,1.795,6.204,1.159
			c0.242-0.073,0.486-0.139,0.98-0.284c2.393-0.953,4.112-3.311,4.041-5.421l-0.912-70.103c-0.67-1.407-1.342-2.813-2.365-3.587l0,0
			L879.36-53.387c-6.296-31.244-22.523-71.1-87.449-106.053c-1.585-0.879-3.448-0.878-5.173-0.382l0,0
			c-1.721,0.492-3.238,1.726-4.187,3.063C746.015-92.709,753.379-50.314,764.595-20.48l-13.159,40.556
			c-0.384,1.44-0.277,2.739,0.395,4.147l36.374,59.933c1.125,2.076,3.767,2.919,6.302,2.456c0.244-0.067,0.493-0.138,0.983-0.28
			c2.221-0.637,3.904-2.186,4.642-4.265l9.966-32.174l3.868,5.817 M800.828,37.096l-9.09,28.721l-27.807-45.859l8.952-27.358
			l28.225,43.609C801.181,36.456,801.002,36.773,800.828,37.096L800.828,37.096z M826.213,52.202l9.606-2.752 M855.521,43.802
			l9.607-2.757 M865.667-11.888l-0.335,13.692l0,0l-0.432,25.441l-0.102,2.432l-44.573,12.779l-1.379-2.007l-13.846-21.35l0,0
			l-7.544-11.429L776.064-25.1c0,0,0,0-0.069-0.246c-9.885-27.018-16.393-64.597,13.991-121.284l0,0l0,0
			c55.808,31.974,70.2,67.29,76.142,95.437c0,0,0,0,0.069,0.248L865.667-11.888L865.667-11.888z M901.65,34.568l-22.929-19.545
			c-0.316-0.171-0.387-0.426-0.637-0.35l0.833-51.94l22.079,18.451L901.65,34.568L901.65,34.568z"/>
	</g>
	<path fill="#5D92CA" d="M835.752,49.081l18.937,29.299l0.811-34.875 M835.752,49.081l19.748-5.576 M865.129,40.784l13.264-3.835
		l-2.973,91.272c-0.359,2.509-2.16,4.615-4.634,5.313c-2.709,0.766-5.351-0.088-6.718-2.104L813.94,55.439l12.187-3.644
		l37.341,57.685l0,0L865.129,40.784"/>
</g>
</svg>
