<?xml version="1.0" encoding="utf-8"?>
<!-- Generator: Adobe Illustrator 16.0.0, SVG Export Plug-In . SVG Version: 6.00 Build 0)  -->
<!DOCTYPE svg PUBLIC "-//W3C//DTD SVG 1.1//EN" "http://www.w3.org/Graphics/SVG/1.1/DTD/svg11.dtd">
<svg version="1.1" xmlns="http://www.w3.org/2000/svg" xmlns:xlink="http://www.w3.org/1999/xlink" x="0px" y="0px"
	 width="1619.797px" height="1079.865px" viewBox="0 0 1619.797 1079.865" enable-background="new 0 0 1619.797 1079.865"
	 xml:space="preserve">
<g id="Layer_1" display="none">
</g>
<g id="Layer_2">
	<g>
		<path fill="#5D92CA" d="M804.337,552.534c-4.545-4.872-12.149-5.14-17.02-0.595c-4.872,4.543-5.138,12.146-0.594,17.018
			c4.457,4.78,12.146,5.137,17.018,0.596C808.613,565.01,808.879,557.404,804.337,552.534 M791.502,564.501
			c-2.098-2.249-2.065-5.781,0.183-7.877c2.248-2.099,5.775-1.883,7.872,0.366c2.097,2.246,1.979,5.686-0.271,7.784
			C797.125,566.963,793.6,566.75,791.502,564.501"/>
		<path fill="#5D92CA" d="M769.089,608.65l3.156-1.497l-4.013,16.354c-0.22,1.082,0.104,2.182,0.892,3.025
			c0.087,0.091,0.173,0.185,0.349,0.373c0.968,0.85,2.408,1.082,3.333,0.569l31.024-16.317c0.476-0.618,0.95-1.236,1.062-1.868l0,0
			l4.805-20.768c12.489-9.897,26.562-26.173,27.397-63.031c0.031-0.906-0.393-1.735-1.005-2.392l0,0
			c-0.61-0.654-1.504-1.05-2.315-1.169c-36.827-1.74-54.044,11.165-64.788,22.934l-21.054,3.343
			c-0.729,0.157-1.285,0.499-1.759,1.118l-18.444,29.808c-0.669,0.974-0.444,2.342,0.336,3.367c0.086,0.092,0.174,0.188,0.349,0.374
			c0.788,0.845,1.859,1.243,2.953,1.099l16.596-2.863l-1.714,3.044 M751.558,574.076l-14.859,2.469l14.12-22.799l14.219-2.222
			L752.016,574C751.922,574.087,751.74,574.081,751.558,574.076L751.558,574.076z M750.591,588.813l3.406,3.655 M760.986,599.962
			l3.409,3.655 M788.1,591.843l-6.178,2.959l0,0l-11.431,5.582l-1.107,0.505l-15.811-16.957l0.58-1.069l6.368-11.015l0,0l3.38-5.957
			l9.745-16.969c0,0,0,0,0.094-0.086c9.793-10.536,25.058-21.965,57.208-21.297l0,0l0,0c-1.576,32.12-14.042,46.549-25.234,55.584
			c0,0,0,0-0.093,0.087L788.1,591.843L788.1,591.843z M775.569,618.418l3.503-14.652c0.005-0.18,0.102-0.268,0.012-0.362
			l23.33-11.42l-3.209,14.027L775.569,618.418L775.569,618.418z"/>
	</g>
</g>
</svg>
