<?xml version="1.0" encoding="utf-8"?>
<!-- Generator: Adobe Illustrator 16.0.0, SVG Export Plug-In . SVG Version: 6.00 Build 0)  -->
<!DOCTYPE svg PUBLIC "-//W3C//DTD SVG 1.1//EN" "http://www.w3.org/Graphics/SVG/1.1/DTD/svg11.dtd">
<svg version="1.1" xmlns="http://www.w3.org/2000/svg" xmlns:xlink="http://www.w3.org/1999/xlink" x="0px" y="0px"
	 width="1619.797px" height="1079.865px" viewBox="0 0 1619.797 1079.865" enable-background="new 0 0 1619.797 1079.865"
	 xml:space="preserve">
<g id="Layer_1" display="none">
</g>
<g id="Layer_2">
	<g>
		<path fill="#5D92CA" d="M832.679-6.344c-6.493,1.5-10.526,7.951-9.024,14.441c1.499,6.49,7.95,10.521,14.439,9.024
			c6.369-1.47,10.523-7.951,9.025-14.44C845.622-3.811,839.167-7.844,832.679-6.344 M836.625,10.754
			c-2.996,0.693-6.04-1.101-6.731-4.096c-0.694-2.996,1.257-5.943,4.253-6.634c2.994-0.694,5.914,1.13,6.606,4.126
			C841.569,7.117,839.621,10.064,836.625,10.754"/>
		<path fill="#5D92CA" d="M864.134,51.805l0.222-3.486l12.356,11.437c0.84,0.718,1.96,0.967,3.08,0.688
			c0.122-0.032,0.245-0.061,0.495-0.124c1.212-0.436,2.112-1.583,2.114-2.639l0.768-35.046c-0.31-0.716-0.621-1.429-1.119-1.834l0,0
			L866.217,6.531c-2.601-15.723-10.014-35.922-41.847-54.521c-0.777-0.467-1.708-0.499-2.579-0.281l0,0
			c-0.868,0.216-1.648,0.806-2.146,1.458c-19.375,31.367-16.435,52.68-11.351,67.783l-7.283,20.037
			c-0.217,0.712-0.186,1.363,0.125,2.078l17.13,30.583c0.526,1.058,1.831,1.524,3.106,1.338c0.123-0.03,0.248-0.061,0.496-0.124
			c1.121-0.279,1.989-1.023,2.394-2.049l5.542-15.904l1.831,2.975 M825.396,50.374l-5.044,14.192l-13.095-23.4l4.951-13.515
			l13.343,22.284C825.584,50.061,825.488,50.216,825.396,50.374L825.396,50.374z M837.817,58.365l4.849-1.207 M852.609,54.68
			l4.849-1.211 M858.65,27.028l-0.406,6.837l0,0l-0.66,12.705l-0.094,1.213l-22.496,5.608l-0.654-1.026l-6.546-10.91l0,0
			l-3.57-5.843l-10.117-16.749c0,0,0,0-0.03-0.125c-4.468-13.672-7.064-32.564,9.108-60.36l0,0l0,0
			c27.329,16.951,33.904,34.85,36.382,49.018c0,0,0,0,0.03,0.126L858.65,27.028L858.65,27.028z M875.82,50.871l-11.116-10.167
			c-0.155-0.091-0.186-0.22-0.312-0.187l1.322-25.939l10.711,9.605L875.82,50.871L875.82,50.871z"/>
	</g>
	<path fill="#5D92CA" d="M842.542,56.919l8.913,14.994l1.059-17.41 M842.542,56.919l9.971-2.416 M857.376,53.324l6.699-1.668
		l-3.195,45.549c-0.226,1.246-1.166,2.266-2.415,2.567c-1.368,0.332-2.672-0.144-3.318-1.177l-23.624-38.908l6.158-1.592
		l17.577,29.521l0,0L857.376,53.324"/>
</g>
</svg>
