<?xml version="1.0" encoding="utf-8"?>
<!-- Generator: Adobe Illustrator 16.0.0, SVG Export Plug-In . SVG Version: 6.00 Build 0)  -->
<!DOCTYPE svg PUBLIC "-//W3C//DTD SVG 1.1//EN" "http://www.w3.org/Graphics/SVG/1.1/DTD/svg11.dtd">
<svg version="1.1" xmlns="http://www.w3.org/2000/svg" xmlns:xlink="http://www.w3.org/1999/xlink" x="0px" y="0px"
	 width="1619.797px" height="1079.865px" viewBox="0 0 1619.797 1079.865" enable-background="new 0 0 1619.797 1079.865"
	 xml:space="preserve">
<g id="Layer_1" display="none">
</g>
<g id="Layer_2">
	<g>
		<path fill="#5D92CA" d="M817.316,560.744c-2.921-5.988-10.115-8.465-16.102-5.545s-8.463,10.113-5.543,16.102
			c2.864,5.872,10.114,8.462,16.1,5.544C817.758,573.925,820.236,566.73,817.316,560.744 M801.543,568.438
			c-1.348-2.765-0.284-6.134,2.479-7.481c2.764-1.349,6.074-0.111,7.421,2.652c1.348,2.762,0.228,6.017-2.536,7.365
			C806.201,572.435,802.892,571.2,801.543,568.438"/>
		<path fill="#5D92CA" d="M767.202,604.104l3.458-0.509l-8.621,14.465c-0.526,0.971-0.538,2.115-0.031,3.152
			c0.056,0.115,0.112,0.229,0.225,0.459c0.677,1.095,1.987,1.738,3.021,1.52l34.438-6.534c0.636-0.453,1.271-0.906,1.562-1.477l0,0
			l10.666-18.456c14.838-5.813,33.055-17.262,44.629-52.266c0.294-0.858,0.131-1.776-0.261-2.582l0,0
			c-0.394-0.805-1.131-1.444-1.873-1.795c-34.709-12.43-54.948-5.124-68.663,2.99l-21.111-2.958
			c-0.743-0.064-1.375,0.101-2.01,0.554l-26.352,23.115c-0.925,0.734-1.11,2.109-0.664,3.317c0.056,0.113,0.112,0.229,0.225,0.459
			c0.505,1.037,1.415,1.733,2.502,1.915l16.708,2.114l-2.529,2.41 M760.546,565.913l-14.933-1.981l20.169-17.675l14.247,2.031
			l-19.024,17.688C760.891,566.031,760.719,565.973,760.546,565.913L760.546,565.913z M755.313,579.725l2.189,4.491
			 M761.994,593.426l2.19,4.491 M790.295,593.59l-6.771,1.023l0,0l-12.566,1.995l-1.205,0.16l-10.164-20.838l0.868-0.851l9.31-8.673
			l0,0l4.974-4.707l14.282-13.379c0,0,0,0,0.115-0.056c12.445-7.211,30.384-13.679,60.935-3.639l0,0l0,0
			c-10.896,30.256-27.038,40.41-40.382,45.777c0,0,0,0-0.115,0.058L790.295,593.59L790.295,593.59z M770.543,615.339l7.634-12.988
			c0.058-0.171,0.175-0.227,0.118-0.343l25.65-4.1l-7.171,12.476L770.543,615.339L770.543,615.339z"/>
	</g>
</g>
</svg>
