<?xml version="1.0" encoding="utf-8"?>
<!-- Generator: Adobe Illustrator 16.0.0, SVG Export Plug-In . SVG Version: 6.00 Build 0)  -->
<!DOCTYPE svg PUBLIC "-//W3C//DTD SVG 1.1//EN" "http://www.w3.org/Graphics/SVG/1.1/DTD/svg11.dtd">
<svg version="1.1" xmlns="http://www.w3.org/2000/svg" xmlns:xlink="http://www.w3.org/1999/xlink" x="0px" y="0px"
	 width="1619.797px" height="1079.865px" viewBox="0 0 1619.797 1079.865" enable-background="new 0 0 1619.797 1079.865"
	 xml:space="preserve">
<g id="Layer_1" display="none">
</g>
<g id="Layer_2">
	<g>
		<path fill="#5D92CA" d="M831.793,535.66c-7.834-10.78-22.863-13.164-33.64-5.33c-10.778,7.832-13.159,22.858-5.327,33.639
			c7.682,10.573,22.86,13.158,33.638,5.33C837.241,561.469,839.624,546.435,831.793,535.66 M803.399,556.288
			c-3.616-4.974-2.69-11.978,2.282-15.592c4.975-3.618,11.925-2.331,15.537,2.646c3.616,4.971,2.541,11.771-2.435,15.386
			C813.96,562.546,807.014,561.264,803.399,556.288"/>
		<path fill="#5D92CA" d="M748.146,638.465l6.632-2.203l-11.953,31.486c-0.699,2.094-0.324,4.356,1.033,6.224
			c0.148,0.203,0.299,0.409,0.602,0.824c1.713,1.923,4.517,2.733,6.477,1.944l65.562-24.831c1.095-1.113,2.188-2.223,2.564-3.45l0,0
			l14.599-40.053c27.205-16.604,59.109-45.481,69.748-118.445c0.284-1.791-0.355-3.542-1.41-4.993l0,0
			c-1.054-1.447-2.73-2.449-4.313-2.885c-72.681-12.428-110.004,8.991-134.2,29.735l-42.61,1.504
			c-1.484,0.133-2.671,0.678-3.764,1.792l-43.878,54.677c-1.565,1.768-1.452,4.539-0.153,6.763c0.15,0.205,0.3,0.414,0.602,0.828
			c1.358,1.867,3.389,2.92,5.594,2.902l33.643-1.639l-4.145,5.626 M721.772,565.559l-30.1,1.28l33.587-41.817l28.766-0.947
			l-31.326,41.443C722.492,565.669,722.134,565.613,721.772,565.559L721.772,565.559z M716.262,594.577l5.871,8.086
			 M734.179,619.244l5.876,8.086 M789.98,609.734l-12.983,4.368l0,0l-24.054,8.294l-2.32,0.734l-27.254-37.513l1.412-1.981
			l15.325-20.312l0,0l8.161-11.001l23.482-31.309c0,0,0,0,0.207-0.151c22.008-18.525,55.094-37.494,118.753-28.33l0,0l0,0
			c-10.955,63.377-39.22,88.98-63.638,104.188c0,0,0,0-0.206,0.151L789.98,609.734L789.98,609.734z M758.629,659.434l10.525-28.23
			c0.055-0.355,0.266-0.509,0.113-0.717l49.096-16.983l-9.791,27.061L758.629,659.434L758.629,659.434z"/>
	</g>
</g>
</svg>
