<?xml version="1.0" encoding="utf-8"?>
<!-- Generator: Adobe Illustrator 16.0.0, SVG Export Plug-In . SVG Version: 6.00 Build 0)  -->
<!DOCTYPE svg PUBLIC "-//W3C//DTD SVG 1.1//EN" "http://www.w3.org/Graphics/SVG/1.1/DTD/svg11.dtd">
<svg version="1.1" xmlns="http://www.w3.org/2000/svg" xmlns:xlink="http://www.w3.org/1999/xlink" x="0px" y="0px"
	 width="1619.797px" height="1079.865px" viewBox="0 0 1619.797 1079.865" enable-background="new 0 0 1619.797 1079.865"
	 xml:space="preserve">
<g id="Layer_1" display="none">
</g>
<g id="Layer_2">
	<g>
		<path fill="#5D92CA" d="M810.561,557.192c-3.822-5.458-11.315-6.78-16.771-2.958c-5.457,3.821-6.778,11.313-2.957,16.77
			c3.748,5.353,11.313,6.778,16.77,2.958C813.06,570.142,814.382,562.647,810.561,557.192 M796.187,567.257
			c-1.765-2.518-1.241-6.011,1.277-7.775c2.519-1.765,5.982-1.061,7.745,1.458c1.764,2.517,1.167,5.907-1.352,7.671
			C801.412,570.478,797.95,569.776,796.187,567.257"/>
		<path fill="#5D92CA" d="M767.847,607.857l3.335-1.043l-6.25,15.636c-0.368,1.041-0.2,2.174,0.462,3.12
			c0.073,0.103,0.146,0.208,0.293,0.417c0.84,0.976,2.234,1.406,3.221,1.028l32.992-11.841c0.557-0.547,1.114-1.093,1.312-1.702l0,0
			l7.648-19.896c13.745-8.063,29.947-22.222,35.902-58.605c0.158-0.893-0.147-1.774-0.662-2.509l0,0
			c-0.514-0.733-1.343-1.249-2.131-1.481c-36.226-6.846-55.072,3.536-67.349,13.695l-21.315,0.38
			c-0.743,0.054-1.341,0.316-1.897,0.862l-22.413,26.952c-0.798,0.87-0.766,2.256-0.136,3.38c0.074,0.104,0.146,0.209,0.294,0.419
			c0.663,0.945,1.668,1.489,2.771,1.499l16.833-0.525l-2.121,2.776 M755.298,571.18l-15.059,0.378l17.156-20.613l14.389-0.222
			l-16.022,20.445C755.657,571.241,755.479,571.21,755.298,571.18L755.298,571.18z M752.291,585.639l2.864,4.093 M761.032,598.126
			l2.867,4.094 M789.012,593.859l-6.529,2.071l0,0l-12.098,3.937l-1.166,0.346l-13.297-18.991l0.723-0.978l7.838-10.021l0,0
			l4.176-5.429l12.012-15.446c0,0,0,0,0.105-0.074c11.164-9.069,27.87-18.264,59.615-13.127l0,0l0,0
			c-6.03,31.588-20.383,44.141-32.723,51.531c0,0,0,0-0.104,0.074L789.012,593.859L789.012,593.859z M772.905,618.432l5.508-14.021
			c0.031-0.178,0.137-0.252,0.063-0.357l24.692-8.062l-5.131,13.442L772.905,618.432L772.905,618.432z"/>
	</g>
</g>
</svg>
