<?xml version="1.0" encoding="utf-8"?>
<!-- Generator: Adobe Illustrator 16.0.0, SVG Export Plug-In . SVG Version: 6.00 Build 0)  -->
<!DOCTYPE svg PUBLIC "-//W3C//DTD SVG 1.1//EN" "http://www.w3.org/Graphics/SVG/1.1/DTD/svg11.dtd">
<svg version="1.1" xmlns="http://www.w3.org/2000/svg" xmlns:xlink="http://www.w3.org/1999/xlink" x="0px" y="0px"
	 width="1619.797px" height="1079.865px" viewBox="0 0 1619.797 1079.865" enable-background="new 0 0 1619.797 1079.865"
	 xml:space="preserve">
<g id="Layer_1" display="none">
</g>
<g id="Layer_2">
	<g>
		<path fill="#5D92CA" d="M853.712,395.885c-12.675-4.116-26.236,2.789-30.348,15.461c-4.115,12.67,2.79,26.227,15.46,30.344
			c12.431,4.041,26.229-2.791,30.347-15.458C873.29,413.562,866.38,399.999,853.712,395.885 M842.865,429.261
			c-5.85-1.898-9.22-8.108-7.319-13.955c1.896-5.851,8.276-8.894,14.124-6.992c5.847,1.895,8.975,8.029,7.075,13.878
			C855.086,428.119,848.714,431.164,842.865,429.261"/>
		<path fill="#5D92CA" d="M847.741,527.973l3.972-5.749l9.402,32.336c0.701,2.095,2.364,3.674,4.571,4.35
			c0.242,0.07,0.481,0.147,0.977,0.295c2.525,0.504,5.252-0.535,6.341-2.345l37.417-59.287c0.205-1.547,0.407-3.091-0.03-4.297l0,0
			l-12.444-40.775c11.735-29.632,19.833-71.895-15.579-136.57c-0.854-1.602-2.416-2.614-4.133-3.139l0,0
			c-1.71-0.522-3.654-0.314-5.18,0.291c-65.523,33.815-82.438,73.381-89.28,104.511L750.65,444.44
			c-1.107,0.999-1.725,2.148-1.928,3.694l-2.137,70.074c-0.186,2.355,1.57,4.5,3.948,5.495c0.241,0.074,0.488,0.151,0.978,0.298
			c2.209,0.676,4.464,0.293,6.215-1.049l25.88-21.554l0.077,6.985 M782.805,485.619l-23.267,19.136l1.655-53.608l22.406-18.068
			l-0.078,51.95C783.447,485.274,783.126,485.444,782.805,485.619L782.805,485.619z M795.866,512.111l9.556,2.925 M825.021,521.028
			l9.561,2.921 M863.861,479.851l-7.739,11.303l0,0l-14.218,21.099l-1.412,1.983l-44.341-13.558l-0.063-2.433l0.016-25.446l0,0
			L796,459.103l-0.091-39.136c0,0,0,0,0.076-0.244c6.425-28.042,21.435-63.102,77.79-94.095l0,0l0,0
			c29.391,57.21,22.227,94.666,11.878,121.508c0,0,0,0-0.075,0.246L863.861,479.851L863.861,479.851z M868.736,538.41l-8.586-28.88
			c-0.171-0.316-0.092-0.567-0.342-0.64l28.987-43.109l8.468,27.504L868.736,538.41L868.736,538.41z"/>
	</g>
	<path fill="#5D92CA" d="M810.032,515.686l-0.13,20.93l11.873-17.235 M810.032,515.686l11.743,3.695 M827.505,521.181l7.919,2.435
		l-31.503,44.834c-1.003,1.138-2.602,1.604-4.071,1.141c-1.612-0.506-2.656-1.803-2.681-3.265l-0.177-54.621l7.314,2.179
		l-0.222,41.228l0,0L827.505,521.181"/>
</g>
</svg>
