<?xml version="1.0" encoding="utf-8"?>
<!-- Generator: Adobe Illustrator 16.0.0, SVG Export Plug-In . SVG Version: 6.00 Build 0)  -->
<!DOCTYPE svg PUBLIC "-//W3C//DTD SVG 1.1//EN" "http://www.w3.org/Graphics/SVG/1.1/DTD/svg11.dtd">
<svg version="1.1" xmlns="http://www.w3.org/2000/svg" xmlns:xlink="http://www.w3.org/1999/xlink" x="0px" y="0px"
	 width="1619.797px" height="1079.865px" viewBox="0 0 1619.797 1079.865" enable-background="new 0 0 1619.797 1079.865"
	 xml:space="preserve">
<g id="Layer_1" display="none">
</g>
<g id="Layer_2">
	<g>
		<path fill="#5D92CA" d="M809.009,556.168c-4.011-5.321-11.545-6.381-16.864-2.371c-5.319,4.009-6.379,11.542-2.37,16.863
			c3.934,5.22,11.544,6.379,16.863,2.371C811.958,569.023,813.018,561.487,809.009,556.168 M794.994,566.728
			c-1.852-2.455-1.45-5.964,1.005-7.814c2.455-1.853,5.941-1.27,7.79,1.187c1.852,2.453,1.373,5.862-1.083,7.713
			C800.328,569.765,796.845,569.185,794.994,566.728"/>
		<path fill="#5D92CA" d="M768.089,608.293l3.295-1.159l-5.7,15.845c-0.331,1.053-0.124,2.18,0.571,3.103
			c0.076,0.1,0.152,0.201,0.308,0.406c0.873,0.946,2.282,1.327,3.255,0.916l32.559-12.986c0.537-0.566,1.074-1.13,1.252-1.747l0,0
			l6.949-20.151c13.455-8.538,29.152-23.253,33.835-59.822c0.126-0.898-0.209-1.768-0.749-2.484l0,0
			c-0.539-0.714-1.387-1.201-2.181-1.405c-36.443-5.579-54.915,5.455-66.831,16.036l-21.288,1.124
			c-0.741,0.08-1.329,0.363-1.866,0.93l-21.459,27.717c-0.767,0.897-0.686,2.282-0.018,3.383c0.078,0.101,0.154,0.204,0.309,0.408
			c0.695,0.922,1.719,1.43,2.822,1.402l16.804-1.113l-2.022,2.848 M754.268,572.076l-15.036,0.902l16.426-21.198l14.373-0.725
			l-15.3,20.992C754.628,572.125,754.448,572.1,754.268,572.076L754.268,572.076z M751.766,586.631l3.006,3.991 M760.938,598.806
			l3.008,3.991 M788.752,593.564l-6.452,2.297l0,0l-11.953,4.356l-1.154,0.388l-13.951-18.516l0.688-1.003l7.483-10.288l0,0
			l3.984-5.571l11.467-15.857c0,0,0,0,0.102-0.077c10.841-9.454,27.216-19.225,59.121-15.199l0,0l0,0
			c-4.924,31.78-18.831,44.826-30.906,52.641c0,0,0,0-0.102,0.078L788.752,593.564L788.752,593.564z M773.513,618.684l5.016-14.205
			c0.023-0.178,0.128-0.256,0.05-0.359l24.396-8.919l-4.658,13.614L773.513,618.684L773.513,618.684z"/>
	</g>
</g>
</svg>
