<?xml version="1.0" encoding="utf-8"?>
<!-- Generator: Adobe Illustrator 16.0.0, SVG Export Plug-In . SVG Version: 6.00 Build 0)  -->
<!DOCTYPE svg PUBLIC "-//W3C//DTD SVG 1.1//EN" "http://www.w3.org/Graphics/SVG/1.1/DTD/svg11.dtd">
<svg version="1.1" xmlns="http://www.w3.org/2000/svg" xmlns:xlink="http://www.w3.org/1999/xlink" x="0px" y="0px"
	 width="1619.797px" height="1079.865px" viewBox="0 0 1619.797 1079.865" enable-background="new 0 0 1619.797 1079.865"
	 xml:space="preserve">
<g id="Layer_1" display="none">
</g>
<g id="Layer_2">
	<g>
		<path fill="#5D92CA" d="M816.593,560.433c-3.025-5.937-10.261-8.289-16.196-5.265c-5.935,3.025-8.286,10.26-5.261,16.196
			c2.966,5.822,10.26,8.286,16.194,5.263C817.266,573.603,819.618,566.366,816.593,560.433 M800.958,568.399
			c-1.396-2.74-0.391-6.127,2.348-7.523c2.739-1.397,6.071-0.217,7.466,2.522c1.396,2.738,0.333,6.011-2.407,7.408
			C805.684,572.315,802.354,571.138,800.958,568.399"/>
		<path fill="#5D92CA" d="M767.243,604.659l3.449-0.569l-8.367,14.615c-0.509,0.979-0.5,2.124,0.024,3.153
			c0.058,0.113,0.116,0.226,0.232,0.454c0.696,1.083,2.017,1.703,3.048,1.467l34.318-7.134c0.628-0.464,1.255-0.927,1.536-1.502l0,0
			l10.342-18.639c14.734-6.071,32.749-17.837,43.71-53.038c0.279-0.863,0.101-1.778-0.306-2.577l0,0
			c-0.408-0.798-1.157-1.423-1.904-1.762c-34.921-11.823-55.029-4.164-68.6,4.188l-21.16-2.59c-0.744-0.051-1.373,0.126-2,0.589
			l-25.945,23.571c-0.912,0.751-1.073,2.127-0.605,3.328c0.058,0.114,0.116,0.228,0.233,0.457c0.523,1.027,1.445,1.707,2.536,1.87
			l16.742,1.821l-2.487,2.455 M759.922,566.591l-14.965-1.72l19.858-18.025l14.28,1.782l-18.712,18.018
			C760.269,566.703,760.096,566.647,759.922,566.591L759.922,566.591z M754.931,580.492l2.267,4.452 M761.851,594.074l2.268,4.452
			 M790.15,593.744l-6.752,1.14l0,0l-12.529,2.215l-1.202,0.181l-10.526-20.659l0.853-0.866l9.157-8.834l0,0l4.891-4.793
			l14.046-13.625c0,0,0,0,0.114-0.059c12.317-7.427,30.14-14.207,60.862-4.702l0,0l0,0c-10.367,30.441-26.329,40.875-39.577,46.475
			c0,0,0,0-0.114,0.058L790.15,593.744L790.15,593.744z M770.781,615.834l7.406-13.118c0.055-0.172,0.171-0.23,0.112-0.345
			l25.575-4.548l-6.952,12.6L770.781,615.834L770.781,615.834z"/>
	</g>
</g>
</svg>
