<?xml version="1.0" encoding="utf-8"?>
<!-- Generator: Adobe Illustrator 16.0.0, SVG Export Plug-In . SVG Version: 6.00 Build 0)  -->
<!DOCTYPE svg PUBLIC "-//W3C//DTD SVG 1.1//EN" "http://www.w3.org/Graphics/SVG/1.1/DTD/svg11.dtd">
<svg version="1.1" xmlns="http://www.w3.org/2000/svg" xmlns:xlink="http://www.w3.org/1999/xlink" x="0px" y="0px"
	 width="1619.797px" height="1079.866px" viewBox="0 0 1619.797 1079.866" enable-background="new 0 0 1619.797 1079.866"
	 xml:space="preserve">
<g id="Layer_1" display="none">
</g>
<g id="Layer_2">
	<g>
		<path fill="#5D92CA" d="M857.868,365.721c-12.873-3.447-26.054,4.158-29.497,17.028c-3.446,12.868,4.16,26.045,17.027,29.493
			c12.625,3.385,26.047-4.16,29.497-17.025C878.345,382.348,870.734,369.167,857.868,365.721 M848.784,399.62
			c-5.942-1.59-9.633-7.615-8.041-13.555c1.588-5.94,7.799-9.314,13.739-7.721c5.938,1.587,9.382,7.549,7.792,13.489
			C860.928,397.838,854.724,401.213,848.784,399.62"/>
		<path fill="#5D92CA" d="M858.818,497.94l3.666-5.949l11.082,31.8c0.81,2.056,2.554,3.547,4.793,4.105
			c0.245,0.058,0.49,0.122,0.99,0.243c2.549,0.372,5.217-0.81,6.21-2.674l34.263-61.163c0.124-1.556,0.245-3.108-0.255-4.29l0,0
			l-14.562-40.066c10.17-30.207,16.044-72.834-22.705-135.568c-0.935-1.554-2.549-2.484-4.29-2.917l0,0
			c-1.736-0.433-3.667-0.123-5.158,0.562c-63.665,37.198-78.485,77.596-83.689,109.039l-31.672,28.543
			c-1.053,1.056-1.61,2.235-1.732,3.79l1.533,70.089c-0.062,2.361,1.804,4.412,4.231,5.28c0.245,0.063,0.496,0.126,0.992,0.247
			c2.241,0.559,4.473,0.06,6.151-1.373l24.716-22.879l0.442,6.972 M791.754,459.042l-22.233,20.328l-1.152-53.621l21.43-19.216
			l2.641,51.881C792.378,458.665,792.066,458.851,791.754,459.042L791.754,459.042z M806.185,484.815l9.695,2.421 M835.766,492.194
			l9.7,2.416 M872.398,449.041l-7.138,11.691l0,0l-13.094,21.814l-1.305,2.055l-44.99-11.219l-0.191-2.427l-1.317-25.411l0,0
			l-0.819-13.672l-2.139-39.077c0,0,0,0,0.063-0.248c4.948-28.339,18.103-64.137,72.758-98.037l0,0l0,0
			c32.345,55.594,27.151,93.373,18.222,120.72c0,0,0,0-0.062,0.25L872.398,449.041L872.398,449.041z M880.331,507.263
			l-10.085-28.391c-0.188-0.307-0.122-0.562-0.375-0.621l26.69-44.567l9.896,27.022L880.331,507.263L880.331,507.263z"/>
	</g>
	<path fill="#5D92CA" d="M816.777,486.415l1.56,31.357l16.337-26.809 M816.777,486.415l17.897,4.549 M843.404,493.18l12.063,2.982
		l-43.419,69.787c-1.407,1.79-3.762,2.622-6.001,2.052c-2.458-0.623-4.131-2.478-4.289-4.665l-4.844-81.789l11.137,2.649
		l3.123,61.766l0,0L843.404,493.18"/>
</g>
</svg>
