<?xml version="1.0" encoding="utf-8"?>
<!-- Generator: Adobe Illustrator 16.0.0, SVG Export Plug-In . SVG Version: 6.00 Build 0)  -->
<!DOCTYPE svg PUBLIC "-//W3C//DTD SVG 1.1//EN" "http://www.w3.org/Graphics/SVG/1.1/DTD/svg11.dtd">
<svg version="1.1" xmlns="http://www.w3.org/2000/svg" xmlns:xlink="http://www.w3.org/1999/xlink" x="0px" y="0px"
	 width="1619.797px" height="1079.865px" viewBox="0 0 1619.797 1079.865" enable-background="new 0 0 1619.797 1079.865"
	 xml:space="preserve">
<g id="Layer_1" display="none">
</g>
<g id="Layer_2">
	<g>
		<path fill="#5D92CA" d="M830.291,495.552c-11.303-7.06-26.131-3.641-33.186,7.66c-7.06,11.299-3.639,26.124,7.66,33.183
			c11.084,6.929,26.124,3.638,33.185-7.658C845.011,517.44,841.586,502.608,830.291,495.552 M811.692,525.313
			c-5.217-3.257-6.984-10.098-3.726-15.312c3.255-5.218,10.181-6.627,15.396-3.367c5.214,3.253,6.766,9.961,3.507,15.177
			C823.826,527.161,816.907,528.574,811.692,525.313"/>
		<path fill="#5D92CA" d="M792.541,622.272l5.244-4.618l1.301,33.651c0.173,2.203,1.405,4.137,3.383,5.327
			c0.218,0.127,0.433,0.26,0.876,0.523c2.329,1.1,5.226,0.751,6.72-0.742l50.649-48.474c0.573-1.451,1.143-2.901,1.011-4.177l0,0
			l-2.211-42.574c18.557-25.913,36.637-64.961,17.924-136.282c-0.439-1.76-1.711-3.121-3.25-4.045l0,0
			c-1.534-0.921-3.47-1.189-5.097-0.971c-71.758,16.958-97.744,51.259-111.914,79.808l-38.634,18.034
			c-1.317,0.702-2.193,1.667-2.765,3.119l-19.025,67.476c-0.75,2.24,0.435,4.746,2.501,6.286c0.216,0.131,0.438,0.265,0.876,0.526
			c1.98,1.19,4.26,1.365,6.285,0.486l30.325-14.652l-1.615,6.797 M739.779,565.467l-27.205,12.939l14.575-51.616l26.113-12.111
			l-12.644,50.388C740.487,565.288,740.134,565.375,739.779,565.467L739.779,565.467z M746.045,594.332l8.563,5.15 M772.176,610.037
			l8.569,5.147 M819.826,579.479l-10.246,9.096l0,0l-18.9,17.032l-1.849,1.583l-39.744-23.882l0.527-2.376l6.17-24.686l0,0
			l3.214-13.314l9.38-37.995c0,0,0,0,0.133-0.218c13.018-25.654,36.065-56.042,98.243-72.481l0,0l0,0
			c14.677,62.621-1.335,97.231-17.87,120.772c0,0,0,0-0.132,0.221L819.826,579.479L819.826,579.479z M810.387,637.478l-1.344-30.099
			c-0.089-0.347,0.048-0.572-0.176-0.703l38.556-34.816l1.563,28.736L810.387,637.478L810.387,637.478z"/>
	</g>
	<path fill="#5D92CA" d="M759.623,601.751l-3.851,14.728l11.462-10.014 M759.623,601.751l7.612,4.714 M770.95,608.762l5.141,3.14
		l-30.254,25.939c-0.911,0.622-2.12,0.664-3.073,0.072c-1.045-0.646-1.548-1.748-1.303-2.783l9.686-38.526l4.764,2.85l-7.563,29.017
		l0,0L770.95,608.762"/>
</g>
</svg>
