<?xml version="1.0" encoding="utf-8"?>
<!-- Generator: Adobe Illustrator 16.0.0, SVG Export Plug-In . SVG Version: 6.00 Build 0)  -->
<!DOCTYPE svg PUBLIC "-//W3C//DTD SVG 1.1//EN" "http://www.w3.org/Graphics/SVG/1.1/DTD/svg11.dtd">
<svg version="1.1" xmlns="http://www.w3.org/2000/svg" xmlns:xlink="http://www.w3.org/1999/xlink" x="0px" y="0px"
	 width="1619.797px" height="1079.865px" viewBox="0 0 1619.797 1079.865" enable-background="new 0 0 1619.797 1079.865"
	 xml:space="preserve">
<g id="Layer_1" display="none">
</g>
<g id="Layer_2">
	<g>
		<path fill="#5D92CA" d="M837.971,542.424c-6.051-11.874-20.522-16.578-32.392-10.529c-11.87,6.05-16.571,20.52-10.522,32.393
			c5.932,11.643,20.521,16.571,32.389,10.526C839.315,568.765,844.02,554.292,837.971,542.424 M806.699,558.357
			c-2.792-5.48-0.782-12.254,4.695-15.045c5.479-2.794,12.142-0.435,14.933,5.044c2.791,5.476,0.666,12.022-4.813,14.816
			C816.152,566.19,809.491,563.834,806.699,558.357"/>
		<path fill="#5D92CA" d="M739.271,630.878l6.897-1.139l-16.733,29.229c-1.019,1.958-1.001,4.249,0.048,6.306
			c0.116,0.226,0.231,0.453,0.465,0.909c1.392,2.167,4.034,3.406,6.096,2.934l68.636-14.268c1.256-0.927,2.51-1.854,3.072-3.005l0,0
			l20.684-37.277c29.468-12.143,65.497-35.674,87.421-106.075c0.559-1.725,0.201-3.555-0.612-5.154l0,0
			c-0.815-1.596-2.313-2.847-3.809-3.524c-69.842-23.646-110.059-8.328-137.2,8.376l-42.319-5.18
			c-1.488-0.102-2.746,0.251-3.999,1.179l-51.89,47.142c-1.824,1.501-2.146,4.254-1.211,6.655c0.116,0.227,0.231,0.455,0.466,0.913
			c1.047,2.054,2.891,3.415,5.071,3.741l33.483,3.643l-4.974,4.91 M724.629,554.741l-29.93-3.441l39.716-36.05l28.56,3.564
			l-37.425,36.035C725.322,554.965,724.977,554.854,724.629,554.741L724.629,554.741z M714.646,582.542l4.534,8.905
			 M728.485,609.708l4.536,8.905 M785.085,609.047l-13.505,2.281l0,0l-25.059,4.43l-2.403,0.362l-21.052-41.317l1.705-1.731
			l18.313-17.668l0,0l9.782-9.587l28.092-27.25c0,0,0,0,0.229-0.118c24.635-14.854,60.28-28.414,121.724-9.403l0,0l0,0
			c-20.734,60.882-52.657,81.749-79.154,92.95c0,0,0,0-0.229,0.117L785.085,609.047L785.085,609.047z M746.346,653.228
			l14.812-26.237c0.11-0.344,0.342-0.461,0.224-0.69l51.149-9.095l-13.903,25.199L746.346,653.228L746.346,653.228z"/>
	</g>
</g>
</svg>
