<?xml version="1.0" encoding="utf-8"?>
<!-- Generator: Adobe Illustrator 16.0.0, SVG Export Plug-In . SVG Version: 6.00 Build 0)  -->
<!DOCTYPE svg PUBLIC "-//W3C//DTD SVG 1.1//EN" "http://www.w3.org/Graphics/SVG/1.1/DTD/svg11.dtd">
<svg version="1.1" xmlns="http://www.w3.org/2000/svg" xmlns:xlink="http://www.w3.org/1999/xlink" x="0px" y="0px"
	 width="1619.797px" height="1079.866px" viewBox="0 0 1619.797 1079.866" enable-background="new 0 0 1619.797 1079.866"
	 xml:space="preserve">
<g id="Layer_1" display="none">
</g>
<g id="Layer_2">
	<g>
		<path fill="#5D92CA" d="M857.622,340.183c-6.582-1.042-12.738,3.43-13.777,10.009c-1.041,6.58,3.429,12.734,10.008,13.777
			c6.455,1.023,12.734-3.43,13.777-10.008C868.673,347.381,864.199,341.224,857.622,340.183 M854.876,357.515
			c-3.037-0.48-5.188-3.283-4.707-6.32c0.48-3.038,3.393-5.04,6.43-4.558c3.035,0.479,5.059,3.264,4.578,6.3
			C860.821,355.995,857.913,357.997,854.876,357.515"/>
		<path fill="#5D92CA" d="M865.005,405.881l1.512-3.15l7.172,15.234c0.511,0.979,1.455,1.629,2.599,1.791
			c0.124,0.016,0.249,0.034,0.505,0.068c1.287,0.052,2.551-0.676,2.948-1.654l13.841-32.205c-0.02-0.779-0.041-1.558-0.352-2.119
			l0,0l-9.334-19.162c3.478-15.553,4.17-37.057-18.377-66.227c-0.545-0.724-1.396-1.102-2.285-1.227l0,0
			c-0.887-0.124-1.83,0.131-2.535,0.549c-29.714,21.825-34.973,42.688-35.916,58.595l-14.259,15.849
			c-0.468,0.58-0.683,1.195-0.663,1.975l4.426,34.772c0.092,1.178,1.127,2.1,2.38,2.405c0.125,0.018,0.253,0.037,0.506,0.071
			c1.144,0.161,2.228-0.204,2.987-1.004l11.095-12.668l0.584,3.444 M829.622,390.043l-9.992,11.27l-3.375-26.603l9.652-10.676
			l4.023,25.66C829.914,389.823,829.769,389.932,829.622,390.043L829.622,390.043z M838.146,402.105l4.948,0.697 M853.241,404.229
			l4.949,0.694 M869.201,380.855l-2.938,6.187l0,0l-5.372,11.532l-0.541,1.09l-22.959-3.228l-0.221-1.197l-1.982-12.567l0,0
			l-1.123-6.756l-3.105-19.319c0,0,0,0,0.02-0.126c0.979-14.351,5.648-32.839,31.055-52.553l0,0l0,0
			c18.99,25.954,18.381,45.012,15.371,59.077c0,0,0,0-0.019,0.127L869.201,380.855L869.201,380.855z M876.188,409.393l-6.498-13.59
			c-0.109-0.143-0.09-0.273-0.219-0.289l10.943-23.557l6.332,12.919L876.188,409.393L876.188,409.393z"/>
	</g>
	<path fill="#5D92CA" d="M843.114,402.383l2.42,17.275l7.709-15.646 M843.114,402.383l10.129,1.628 M858.183,404.805l6.824,1.051
		l-20.561,40.771c-0.689,1.061-1.951,1.638-3.219,1.434c-1.391-0.223-2.408-1.166-2.604-2.368l-6.741-45.016l6.294,0.913
		l4.794,34.021l0,0L858.183,404.805"/>
</g>
</svg>
