<?xml version="1.0" encoding="utf-8"?>
<!-- Generator: Adobe Illustrator 16.0.0, SVG Export Plug-In . SVG Version: 6.00 Build 0)  -->
<!DOCTYPE svg PUBLIC "-//W3C//DTD SVG 1.1//EN" "http://www.w3.org/Graphics/SVG/1.1/DTD/svg11.dtd">
<svg version="1.1" xmlns="http://www.w3.org/2000/svg" xmlns:xlink="http://www.w3.org/1999/xlink" x="0px" y="0px"
	 width="1619.797px" height="1079.865px" viewBox="0 0 1619.797 1079.865" enable-background="new 0 0 1619.797 1079.865"
	 xml:space="preserve">
<g id="Layer_1" display="none">
</g>
<g id="Layer_2">
	<g>
		<path fill="#5D92CA" d="M832.524,536.42c-7.645-10.915-22.63-13.561-33.541-5.916c-10.914,7.642-13.556,22.625-5.913,33.54
			c7.496,10.706,22.627,13.556,33.539,5.917C837.521,562.319,840.166,547.33,832.524,536.42 M803.775,556.549
			c-3.529-5.036-2.481-12.022,2.554-15.55c5.037-3.53,11.964-2.122,15.489,2.916c3.528,5.034,2.335,11.814-2.703,15.342
			C814.226,562.991,807.303,561.588,803.775,556.549"/>
		<path fill="#5D92CA" d="M747.096,637.75l6.67-2.086l-12.501,31.272c-0.736,2.082-0.4,4.349,0.924,6.239
			c0.146,0.206,0.292,0.415,0.587,0.835c1.68,1.952,4.469,2.812,6.442,2.056l65.984-23.681c1.114-1.095,2.228-2.186,2.624-3.405l0,0
			l15.296-39.792c27.49-16.127,59.895-44.444,71.805-117.21c0.315-1.786-0.294-3.548-1.323-5.018l0,0
			c-1.028-1.466-2.687-2.497-4.262-2.961c-72.452-13.693-110.144,7.071-134.698,27.391l-42.63,0.759
			c-1.486,0.108-2.683,0.632-3.794,1.725l-44.826,53.904c-1.596,1.74-1.531,4.513-0.271,6.76c0.147,0.207,0.293,0.418,0.588,0.837
			c1.325,1.891,3.337,2.979,5.542,2.999l33.666-1.051l-4.242,5.552 M721.999,564.395l-30.117,0.756l34.312-41.226l28.778-0.444
			l-32.045,40.89C722.717,564.518,722.359,564.456,721.999,564.395L721.999,564.395z M715.983,593.313l5.729,8.186 M733.467,618.288
			l5.733,8.188 M789.426,609.753l-13.058,4.142l0,0l-24.195,7.873l-2.332,0.692l-26.595-37.982l1.446-1.956l15.677-20.042l0,0
			l8.353-10.858l24.024-30.893c0,0,0,0,0.21-0.148c22.328-18.138,55.739-36.526,119.229-26.253l0,0l0,0
			c-12.06,63.176-40.767,88.282-65.446,103.062c0,0,0,0-0.209,0.148L789.426,609.753L789.426,609.753z M757.212,658.898
			l11.016-28.042c0.062-0.355,0.274-0.504,0.127-0.715l49.384-16.124l-10.262,26.885L757.212,658.898L757.212,658.898z"/>
	</g>
</g>
</svg>
