<?xml version="1.0" encoding="utf-8"?>
<!-- Generator: Adobe Illustrator 16.0.0, SVG Export Plug-In . SVG Version: 6.00 Build 0)  -->
<!DOCTYPE svg PUBLIC "-//W3C//DTD SVG 1.1//EN" "http://www.w3.org/Graphics/SVG/1.1/DTD/svg11.dtd">
<svg version="1.1" xmlns="http://www.w3.org/2000/svg" xmlns:xlink="http://www.w3.org/1999/xlink" x="0px" y="0px"
	 width="1619.797px" height="1079.865px" viewBox="0 0 1619.797 1079.865" enable-background="new 0 0 1619.797 1079.865"
	 xml:space="preserve">
<g id="Layer_1" display="none">
</g>
<g id="Layer_2">
	<g>
		<path fill="#5D92CA" d="M845.509,438.904c-12.268-5.205-26.38,0.492-31.58,12.758c-5.204,12.264,0.494,26.371,12.756,31.576
			c12.032,5.109,26.373-0.494,31.579-12.755C863.472,458.22,857.77,444.106,845.509,438.904 M831.795,471.208
			c-5.663-2.4-8.479-8.881-6.076-14.54c2.399-5.663,9.021-8.139,14.681-5.734c5.659,2.397,8.24,8.78,5.838,14.442
			C844.068,471.135,837.455,473.613,831.795,471.208"/>
		<path fill="#5D92CA" d="M828.048,569.969l4.458-5.381l6.548,33.033c0.516,2.148,2.035,3.866,4.175,4.732
			c0.235,0.091,0.468,0.189,0.947,0.379c2.472,0.722,5.279-0.076,6.521-1.784l42.442-55.8c0.34-1.523,0.676-3.044,0.345-4.283l0,0
			l-8.844-41.704c14.274-28.497,26.024-69.893-3.617-137.408c-0.71-1.669-2.178-2.815-3.843-3.487l0,0
			c-1.659-0.669-3.613-0.632-5.186-0.162c-68.222,27.976-88.521,65.917-98.05,96.332l-35.338,23.856
			c-1.19,0.898-1.905,1.99-2.242,3.512l-8.236,69.621c-0.391,2.33,1.172,4.62,3.454,5.818c0.234,0.095,0.473,0.193,0.948,0.382
			c2.142,0.866,4.421,0.682,6.283-0.503l27.661-19.216l-0.533,6.965 M767.049,522.117l-24.846,17.035l6.321-53.26l23.897-16.046
			l-4.606,51.745C767.72,521.83,767.385,521.971,767.049,522.117L767.049,522.117z M777.753,549.646l9.264,3.747 M806.02,561.07
			l9.269,3.743 M848.302,523.435l-8.696,10.585l0,0l-16.003,19.78l-1.579,1.853l-42.991-17.371l0.149-2.43l2.233-25.347l0,0
			l1.092-13.653l3.32-38.995c0,0,0,0,0.097-0.236c8.845-27.375,26.853-60.993,85.695-86.958l0,0l0,0
			c24.292,59.554,13.892,96.243,1.243,122.081c0,0,0,0-0.096,0.238L848.302,523.435L848.302,523.435z M848.053,582.195
			l-6.036-29.518c-0.143-0.329-0.042-0.573-0.284-0.667l32.634-40.419l6.039,28.137L848.053,582.195L848.053,582.195z"/>
	</g>
	<path fill="#5D92CA" d="M793.186,554.976l-1.232,13.899l8.832-10.801 M793.186,554.976l7.6,3.098 M804.493,559.583l5.127,2.053
		L786.235,589.7c-0.729,0.701-1.815,0.924-2.767,0.535c-1.043-0.424-1.667-1.344-1.603-2.316l2.874-36.3l4.741,1.848l-2.406,27.38
		l0,0L804.493,559.583"/>
</g>
</svg>
