<?xml version="1.0" encoding="utf-8"?>
<!-- Generator: Adobe Illustrator 16.0.0, SVG Export Plug-In . SVG Version: 6.00 Build 0)  -->
<!DOCTYPE svg PUBLIC "-//W3C//DTD SVG 1.1//EN" "http://www.w3.org/Graphics/SVG/1.1/DTD/svg11.dtd">
<svg version="1.1" xmlns="http://www.w3.org/2000/svg" xmlns:xlink="http://www.w3.org/1999/xlink" x="0px" y="0px"
	 width="1619.797px" height="1079.865px" viewBox="0 0 1619.797 1079.865" enable-background="new 0 0 1619.797 1079.865"
	 xml:space="preserve">
<g id="Layer_1" display="none">
</g>
<g id="Layer_2">
	<g>
		<path fill="#5D92CA" d="M845.794,52.212c-13.197,1.857-22.359,14.008-20.498,27.201c1.855,13.193,14.005,22.35,27.196,20.497
			c12.945-1.817,22.353-14.007,20.5-27.197C871.141,59.518,858.982,50.356,845.794,52.212 M850.677,86.967
			c-6.09,0.858-11.842-3.246-12.696-9.335c-0.86-6.089,3.54-11.621,9.63-12.476c6.085-0.86,11.586,3.283,12.442,9.372
			C861.16,80.583,856.767,86.113,850.677,86.967"/>
		<path fill="#5D92CA" d="M898.331,173.551l1.049-6.908l22.626,24.941c1.549,1.576,3.736,2.267,6.017,1.906
			c0.249-0.043,0.499-0.078,1.007-0.162c2.491-0.654,4.484-2.785,4.672-4.889l7.639-69.691c-0.494-1.479-0.989-2.955-1.91-3.849l0,0
			l-29.059-31.188c-2.441-31.779-13.691-73.315-73.872-115.92c-1.467-1.066-3.314-1.292-5.088-1.01l0,0
			c-1.768,0.279-3.424,1.318-4.529,2.531c-44.069,59.118-41.927,102.094-34.43,133.072l-18.003,38.65
			c-0.557,1.382-0.609,2.685-0.113,4.164l28.798,63.919c0.864,2.198,3.383,3.356,5.956,3.206c0.25-0.037,0.505-0.076,1.01-0.159
			c2.281-0.361,4.141-1.693,5.127-3.667l13.813-30.72l3.13,6.246 M821.397,163.947l-12.522,27.399l-22.011-48.906l12.22-26.063
			l22.699,46.724C821.826,163.355,821.609,163.649,821.397,163.947L821.397,163.947z M844.753,182.035l9.87-1.561 M874.866,177.269
			l9.872-1.565 M891.723,123.23l-2.001,13.551l0,0l-3.529,25.198l-0.398,2.401l-45.798,7.252l-1.124-2.16l-11.142-22.878l0,0
			l-6.094-12.263l-17.238-35.134c0,0,0,0-0.038-0.253c-6.519-28.021-8.398-66.113,28.668-118.675l0,0l0,0
			c51.494,38.536,61.476,75.344,63.942,104.004c0,0,0,0,0.039,0.255L891.723,123.23L891.723,123.23z M921.775,173.727
			l-20.376-22.193c-0.292-0.209-0.332-0.471-0.589-0.425l7.156-51.452l19.667,21.005L921.775,173.727L921.775,173.727z"/>
	</g>
	<path fill="#5D92CA" d="M854.609,180.153l15.3,31.353l4.971-34.528 M854.609,180.153l20.271-3.176 M884.768,175.428l13.626-2.225
		l-13.855,90.266c-0.656,2.445-2.696,4.324-5.233,4.721c-2.783,0.437-5.304-0.728-6.422-2.893l-40.691-81.435l12.537-2.161
		l30.181,61.731l0,0L884.768,175.428"/>
</g>
</svg>
