<?xml version="1.0" encoding="utf-8"?>
<!-- Generator: Adobe Illustrator 16.0.0, SVG Export Plug-In . SVG Version: 6.00 Build 0)  -->
<!DOCTYPE svg PUBLIC "-//W3C//DTD SVG 1.1//EN" "http://www.w3.org/Graphics/SVG/1.1/DTD/svg11.dtd">
<svg version="1.1" xmlns="http://www.w3.org/2000/svg" xmlns:xlink="http://www.w3.org/1999/xlink" x="0px" y="0px"
	 width="1619.797px" height="1079.865px" viewBox="0 0 1619.797 1079.865" enable-background="new 0 0 1619.797 1079.865"
	 xml:space="preserve">
<g id="Layer_1" display="none">
</g>
<g id="Layer_2">
	<g>
		<path fill="#5D92CA" d="M858.766,136.462c-6.638,0.582-11.531,6.409-10.946,13.045c0.581,6.636,6.408,11.526,13.043,10.946
			c6.511-0.568,11.527-6.408,10.947-13.043C871.23,140.773,865.399,135.881,858.766,136.462 M860.294,153.943
			c-3.063,0.27-5.828-1.931-6.095-4.994c-0.271-3.063,2.071-5.709,5.135-5.977c3.061-0.271,5.699,1.942,5.968,5.006
			C865.696,151.029,863.357,153.676,860.294,153.943"/>
		<path fill="#5D92CA" d="M881.823,198.423l0.705-3.422l10.645,13.046c0.732,0.827,1.806,1.229,2.955,1.109
			c0.125-0.016,0.251-0.026,0.507-0.055c1.261-0.262,2.312-1.273,2.46-2.318l5.638-34.599c-0.208-0.751-0.417-1.502-0.853-1.972l0,0
			l-13.693-16.334c-0.388-15.932-4.917-36.965-33.852-59.813c-0.705-0.57-1.622-0.731-2.514-0.637l0,0
			c-0.89,0.093-1.744,0.569-2.328,1.146c-23.552,28.365-23.606,49.879-20.674,65.544l-10.001,18.827
			c-0.314,0.676-0.374,1.324-0.165,2.076l12.707,32.67c0.374,1.119,1.602,1.764,2.89,1.756c0.126-0.012,0.254-0.024,0.508-0.053
			c1.149-0.121,2.112-0.737,2.656-1.697l7.701-14.977l1.399,3.2 M843.661,191.615l-6.97,13.353l-9.711-24.996l6.784-12.694
			l10.111,23.924C843.89,191.33,843.774,191.471,843.661,191.615L843.661,191.615z M854.849,201.258l4.969-0.521 M870.01,199.665
			l4.97-0.522 M879.84,173.124l-1.354,6.714l0,0l-2.422,12.49l-0.261,1.188l-23.058,2.423l-0.504-1.108l-4.964-11.715l0,0
			l-2.722-6.281l-7.688-17.994c0,0,0,0-0.013-0.128c-2.522-14.161-2.463-33.231,17.419-58.506l0,0l0,0
			c24.704,20.589,28.724,39.229,29.206,53.604c0,0,0,0,0.013,0.128L879.84,173.124L879.84,173.124z M893.525,199.124l-9.593-11.614
			c-0.141-0.112-0.153-0.244-0.283-0.229l4.919-25.503l9.27,11.003L893.525,199.124L893.525,199.124z"/>
	</g>
	<path fill="#5D92CA" d="M859.805,200.516l6.825,16.053l3.38-17.111 M859.805,200.516l10.205-1.059 M874.986,198.939l6.862-0.757
		l-9.264,44.712c-0.391,1.204-1.458,2.089-2.736,2.221c-1.401,0.146-2.629-0.5-3.131-1.611l-18.203-41.719l6.316-0.754
		l13.466,31.608l0,0L874.986,198.939"/>
</g>
</svg>
