<?xml version="1.0" encoding="utf-8"?>
<!-- Generator: Adobe Illustrator 16.0.0, SVG Export Plug-In . SVG Version: 6.00 Build 0)  -->
<!DOCTYPE svg PUBLIC "-//W3C//DTD SVG 1.1//EN" "http://www.w3.org/Graphics/SVG/1.1/DTD/svg11.dtd">
<svg version="1.1" xmlns="http://www.w3.org/2000/svg" xmlns:xlink="http://www.w3.org/1999/xlink" x="0px" y="0px"
	 width="1619.797px" height="1079.865px" viewBox="0 0 1619.797 1079.865" enable-background="new 0 0 1619.797 1079.865"
	 xml:space="preserve">
<g id="Layer_1" display="none">
</g>
<g id="Layer_2">
	<g>
		<path fill="#5D92CA" d="M836.022,540.192c-6.664-11.54-21.361-15.481-32.897-8.819c-11.539,6.665-15.477,21.36-8.813,32.898
			c6.532,11.319,21.358,15.476,32.895,8.817C838.744,566.428,842.684,551.728,836.022,540.192 M805.628,557.739
			c-3.075-5.325-1.423-12.195,3.901-15.269c5.324-3.078,12.102-1.07,15.176,4.254c3.074,5.323,1.295,11.973-4.031,15.049
			C815.478,565.067,808.703,563.066,805.628,557.739"/>
		<path fill="#5D92CA" d="M742.088,633.69l6.826-1.498l-15.18,30.064c-0.914,2.01-0.777,4.297,0.377,6.297
			c0.128,0.218,0.255,0.438,0.513,0.882c1.503,2.091,4.206,3.191,6.239,2.61l67.797-17.842c1.205-0.991,2.408-1.981,2.909-3.162l0,0
			l18.706-38.307c28.791-13.669,63.541-39.054,81.748-110.506c0.469-1.751,0.016-3.559-0.881-5.114l0,0
			c-0.897-1.549-2.459-2.722-3.987-3.32c-70.983-19.958-110.343-2.557-136.573,15.545l-42.533-2.958
			c-1.49-0.024-2.729,0.395-3.931,1.387l-49.353,49.791c-1.742,1.594-1.92,4.362-0.86,6.709c0.128,0.221,0.255,0.443,0.513,0.887
			c1.153,1.998,3.064,3.258,5.26,3.472l33.629,1.885l-4.711,5.163 M723.48,558.426l-30.068-1.871l37.773-38.079l28.708,2.066
			l-35.487,37.943C724.185,558.612,723.833,558.521,723.48,558.426L723.48,558.426z M714.967,586.711l4.993,8.655 M730.208,613.115
			l4.996,8.655 M786.697,609.491l-13.368,2.987l0,0l-24.792,5.735l-2.382,0.486l-23.185-40.157l1.611-1.82l17.364-18.601l0,0
			l9.268-10.086l26.626-28.683c0,0,0,0,0.222-0.129c23.824-16.124,58.711-31.53,121.064-15.762l0,0l0,0
			c-17.52,61.885-48.307,84.393-74.18,96.965c0,0,0,0-0.222,0.129L786.697,609.491L786.697,609.491z M750.322,655.641l13.418-26.977
			c0.092-0.349,0.316-0.479,0.188-0.701l50.603-11.76l-12.565,25.891L750.322,655.641L750.322,655.641z"/>
	</g>
</g>
</svg>
