<?xml version="1.0" encoding="utf-8"?>
<!-- Generator: Adobe Illustrator 16.0.0, SVG Export Plug-In . SVG Version: 6.00 Build 0)  -->
<!DOCTYPE svg PUBLIC "-//W3C//DTD SVG 1.1//EN" "http://www.w3.org/Graphics/SVG/1.1/DTD/svg11.dtd">
<svg version="1.1" xmlns="http://www.w3.org/2000/svg" xmlns:xlink="http://www.w3.org/1999/xlink" x="0px" y="0px"
	 width="1619.797px" height="1079.865px" viewBox="0 0 1619.797 1079.865" enable-background="new 0 0 1619.797 1079.865"
	 xml:space="preserve">
<g id="Layer_1" display="none">
</g>
<g id="Layer_2">
	<g>
		<path fill="#5D92CA" d="M833.958,537.936c-7.258-11.175-22.143-14.343-33.314-7.084c-11.175,7.259-14.337,22.14-7.079,33.313
			c7.117,10.962,22.14,14.338,33.311,7.084C838.048,563.993,841.214,549.106,833.958,537.936 M804.523,557.049
			c-3.351-5.155-2.061-12.104,3.096-15.451c5.157-3.353,12.03-1.703,15.378,3.455c3.35,5.154,1.919,11.888-3.237,15.238
			C814.742,563.853,807.873,562.207,804.523,557.049"/>
		<path fill="#5D92CA" d="M745.045,636.222l6.738-1.853l-13.585,30.816c-0.808,2.055-0.552,4.333,0.706,6.269
			c0.138,0.21,0.277,0.425,0.557,0.855c1.611,2.009,4.368,2.966,6.368,2.279l66.771-21.365c1.151-1.054,2.302-2.104,2.74-3.31l0,0
			l16.676-39.234c28.036-15.158,61.409-42.326,75.852-114.633c0.377-1.773-0.17-3.556-1.147-5.061l0,0
			c-0.977-1.5-2.598-2.59-4.155-3.108c-71.931-16.214-110.324,3.224-135.573,22.673l-42.63-0.728
			c-1.489,0.054-2.703,0.538-3.852,1.591l-46.68,52.306c-1.656,1.684-1.688,4.457-0.508,6.746c0.14,0.213,0.278,0.429,0.559,0.858
			c1.258,1.937,3.23,3.093,5.434,3.19l33.683,0.125l-4.434,5.401 M722.523,562.035l-30.125-0.296l35.729-40.004l28.776,0.562
			l-33.453,39.747C723.236,562.184,722.881,562.11,722.523,562.035L722.523,562.035z M715.503,590.726l5.438,8.382 M732.104,616.297
			l5.443,8.382 M788.326,609.72l-13.193,3.683l0,0l-24.457,7.024l-2.354,0.611l-25.254-38.887l1.513-1.904l16.368-19.482l0,0
			l8.727-10.558l25.088-30.038c0,0,0,0,0.215-0.14c22.947-17.348,56.98-34.559,120.073-22.076l0,0l0,0
			c-14.257,62.716-43.823,86.806-69.003,100.714c0,0,0,0-0.215,0.141L788.326,609.72L788.326,609.72z M754.417,657.711
			l11.988-27.642c0.074-0.353,0.292-0.494,0.151-0.71l49.917-14.391l-11.193,26.512L754.417,657.711L754.417,657.711z"/>
	</g>
</g>
</svg>
