<?xml version="1.0" encoding="utf-8"?>
<!-- Generator: Adobe Illustrator 16.0.0, SVG Export Plug-In . SVG Version: 6.00 Build 0)  -->
<!DOCTYPE svg PUBLIC "-//W3C//DTD SVG 1.1//EN" "http://www.w3.org/Graphics/SVG/1.1/DTD/svg11.dtd">
<svg version="1.1" xmlns="http://www.w3.org/2000/svg" xmlns:xlink="http://www.w3.org/1999/xlink" x="0px" y="0px"
	 width="1619.797px" height="1079.865px" viewBox="0 0 1619.797 1079.865" enable-background="new 0 0 1619.797 1079.865"
	 xml:space="preserve">
<g id="Layer_1" display="none">
</g>
<g id="Layer_2">
	<g>
		<path fill="#5D92CA" d="M852.252,404.925c-12.602-4.336-26.281,2.331-30.613,14.929c-4.335,12.597,2.333,26.272,14.928,30.609
			c12.358,4.257,26.274-2.333,30.612-14.927C871.519,422.941,864.846,409.259,852.252,404.925 M840.825,438.107
			c-5.816-2-9.078-8.268-7.075-14.081c1.998-5.816,8.43-8.748,14.244-6.744c5.813,1.997,8.832,8.184,6.831,13.999
			C853.063,437.178,846.639,440.111,840.825,438.107"/>
		<path fill="#5D92CA" d="M843.977,536.889l4.071-5.679l8.837,32.496c0.665,2.107,2.3,3.715,4.495,4.43
			c0.24,0.074,0.479,0.155,0.971,0.312c2.517,0.548,5.261-0.444,6.381-2.234l38.446-58.625c0.232-1.543,0.461-3.084,0.045-4.297l0,0
			l-11.731-40.985c12.252-29.423,21.085-71.539-13.193-136.821c-0.824-1.616-2.369-2.656-4.076-3.21l0,0
			c-1.701-0.552-3.648-0.378-5.185,0.201c-66.104,32.666-83.706,71.932-91.091,102.937l-33.588,26.263
			c-1.124,0.979-1.761,2.118-1.991,3.661l-3.359,70.025c-0.228,2.352,1.491,4.527,3.852,5.563c0.24,0.079,0.485,0.16,0.972,0.315
			c2.197,0.714,4.458,0.371,6.232-0.94l26.253-21.099l-0.046,6.986 M779.789,493.408l-23.597,18.727l2.59-53.571l22.719-17.674
			l-0.984,51.94C780.438,493.075,780.113,493.239,779.789,493.408L779.789,493.408z M792.387,520.124l9.503,3.092 M821.381,529.548
			l9.508,3.088 M860.935,489.056l-7.936,11.166l0,0l-14.584,20.848l-1.446,1.958l-44.098-14.33l-0.021-2.434l0.459-25.441l0,0
			l0.137-13.696l0.592-39.131c0,0,0,0,0.08-0.243c6.913-27.925,22.532-62.718,79.42-92.723l0,0l0,0
			c28.388,57.714,20.571,95.04,9.756,121.697c0,0,0,0-0.079,0.245L860.935,489.056L860.935,489.056z M864.786,547.69l-8.08-29.025
			c-0.166-0.319-0.082-0.569-0.33-0.646l29.734-42.597l7.987,27.647L864.786,547.69L864.786,547.69z"/>
	</g>
	<path fill="#5D92CA" d="M807.004,524.396l-0.409,17.438l10.14-14.192 M807.004,524.396l9.73,3.246 M821.482,529.225l6.563,2.143
		l-26.889,36.905c-0.852,0.935-2.191,1.3-3.408,0.894c-1.336-0.445-2.188-1.541-2.188-2.758l0.633-45.514l6.065,1.919l-0.775,34.349
		l0,0L821.482,529.225"/>
</g>
</svg>
