<?xml version="1.0" encoding="utf-8"?>
<!-- Generator: Adobe Illustrator 16.0.0, SVG Export Plug-In . SVG Version: 6.00 Build 0)  -->
<!DOCTYPE svg PUBLIC "-//W3C//DTD SVG 1.1//EN" "http://www.w3.org/Graphics/SVG/1.1/DTD/svg11.dtd">
<svg version="1.1" xmlns="http://www.w3.org/2000/svg" xmlns:xlink="http://www.w3.org/1999/xlink" x="0px" y="0px"
	 width="1619.797px" height="1079.865px" viewBox="0 0 1619.797 1079.865" enable-background="new 0 0 1619.797 1079.865"
	 xml:space="preserve">
<g id="Layer_1" display="none">
</g>
<g id="Layer_2">
	<g>
		<path fill="#5D92CA" d="M835.034,479.642c-11.657-6.458-26.287-2.268-32.741,9.387c-6.458,11.653-2.266,26.278,9.386,32.736
			c11.432,6.339,26.279,2.265,32.739-9.384C850.88,500.729,846.684,486.097,835.034,479.642 M818.019,510.335
			c-5.381-2.979-7.504-9.719-4.522-15.096c2.978-5.381,9.821-7.152,15.199-4.168c5.377,2.976,7.277,9.593,4.297,14.973
			C830.232,511.545,823.396,513.318,818.019,510.335"/>
		<path fill="#5D92CA" d="M803.968,608.164l4.996-4.886l3.06,33.537c0.289,2.19,1.62,4.058,3.658,5.142
			c0.224,0.115,0.445,0.237,0.901,0.476c2.383,0.978,5.258,0.477,6.672-1.092l48.043-51.058c0.497-1.479,0.99-2.956,0.791-4.224l0,0
			l-4.437-42.4c17.175-26.848,33.188-66.79,10.767-137.034c-0.531-1.734-1.872-3.027-3.457-3.869l0,0
			c-1.58-0.839-3.528-1.006-5.142-0.703c-70.772,20.691-94.926,56.304-107.583,85.555l-37.637,20.032
			c-1.278,0.769-2.103,1.779-2.598,3.259l-15.468,68.378c-0.632,2.277,0.683,4.718,2.827,6.147c0.223,0.119,0.451,0.242,0.902,0.479
			c2.04,1.084,4.326,1.14,6.301,0.156l29.517-16.219l-1.258,6.871 M748.306,554.197l-26.49,14.345l11.854-52.308l25.442-13.461
			l-9.989,50.98C749.003,553.981,748.655,554.086,748.306,554.197L748.306,554.197z M756.074,582.695l8.822,4.695 M782.991,597.01
			l8.827,4.692 M828.976,564.001l-9.755,9.618l0,0l-17.982,17.999l-1.764,1.677l-40.94-21.769l0.402-2.4l4.87-24.975l0,0
			l2.513-13.464l7.378-38.434c0,0,0,0,0.121-0.225c11.657-26.3,33.082-57.853,94.315-77.524l0,0l0,0
			c17.935,61.767,3.756,97.168-11.524,121.542c0,0,0,0-0.12,0.228L828.976,564.001L828.976,564.001z M822.586,622.414l-2.917-29.987
			c-0.107-0.342,0.018-0.574-0.213-0.693l36.681-36.787l3.064,28.615L822.586,622.414L822.586,622.414z"/>
	</g>
	<path fill="#5D92CA" d="M771.423,587.854l-2.702,13.689l9.929-9.801 M771.423,587.854l7.227,3.888 M782.176,593.637l4.879,2.585
		l-26.234,25.421c-0.798,0.619-1.903,0.726-2.808,0.237c-0.993-0.533-1.514-1.512-1.348-2.474l6.714-35.789l4.518,2.342
		l-5.302,26.97l0,0L782.176,593.637"/>
</g>
</svg>
