<?xml version="1.0" encoding="utf-8"?>
<!-- Generator: Adobe Illustrator 16.0.0, SVG Export Plug-In . SVG Version: 6.00 Build 0)  -->
<!DOCTYPE svg PUBLIC "-//W3C//DTD SVG 1.1//EN" "http://www.w3.org/Graphics/SVG/1.1/DTD/svg11.dtd">
<svg version="1.1" xmlns="http://www.w3.org/2000/svg" xmlns:xlink="http://www.w3.org/1999/xlink" x="0px" y="0px"
	 width="1619.797px" height="1079.865px" viewBox="0 0 1619.797 1079.865" enable-background="new 0 0 1619.797 1079.865"
	 xml:space="preserve">
<g id="Layer_1" display="none">
</g>
<g id="Layer_2">
	<g>
		<path fill="#5D92CA" d="M822.4,524.961c-10.059-8.74-25.24-7.684-33.977,2.375c-8.74,10.055-7.68,25.232,2.375,33.972
			c9.863,8.577,25.233,7.68,33.975-2.372C833.515,548.882,832.454,533.697,822.4,524.961 M799.375,551.446
			c-4.643-4.033-5.318-11.066-1.285-15.706c4.031-4.645,11.093-4.953,15.733-0.917c4.642,4.028,5.125,10.896,1.09,15.539
			C811.071,555.17,804.015,555.482,799.375,551.446"/>
		<path fill="#5D92CA" d="M765.292,644.216l5.902-3.74l-3.98,33.44c-0.174,2.203,0.74,4.306,2.508,5.791
			c0.195,0.159,0.388,0.324,0.783,0.653c2.129,1.451,5.044,1.559,6.753,0.318l57.61-39.954c0.794-1.343,1.583-2.686,1.652-3.966l0,0
			l4.476-42.396c22.381-22.691,46.349-58.431,39.022-131.801c-0.159-1.807-1.202-3.35-2.577-4.504l0,0
			c-1.371-1.148-3.242-1.717-4.882-1.756c-73.528,5.524-104.56,35.337-123.022,61.318l-40.979,11.768
			c-1.41,0.487-2.427,1.304-3.217,2.648l-29.348,63.668c-1.091,2.095-0.313,4.755,1.487,6.601c0.194,0.163,0.391,0.33,0.783,0.656
			c1.77,1.485,3.995,2.014,6.131,1.463l32.246-9.728l-2.66,6.46 M722.065,579.855l-28.894,8.524l22.47-48.701l27.685-7.876
			l-20.37,47.789C722.792,579.79,722.43,579.82,722.065,579.855L722.065,579.855z M723.739,609.346l7.652,6.426 M747.092,628.945
			l7.658,6.425 M798.936,606.218l-11.543,7.38l0,0l-21.331,13.867l-2.075,1.274l-35.519-29.806l0.892-2.264l9.957-23.417l0,0
			l5.257-12.648l15.208-36.06c0,0,0,0,0.165-0.195c16.872-23.302,44.389-49.71,108.373-56.22l0,0l0,0
			c4.701,64.146-16.528,95.825-36.542,116.49c0,0,0,0-0.165,0.197L798.936,606.218L798.936,606.218z M780.539,662.026l3.381-29.939
			c-0.033-0.357,0.138-0.558-0.063-0.722l43.529-28.356l-2.953,28.626L780.539,662.026L780.539,662.026z"/>
	</g>
	<path fill="#5D92CA" d="M744.121,617.997l-4.165,2.606l1.929-4.403l-3.785-3.042l-5.338,12.481
		c-0.371,0.902-0.075,1.973,0.778,2.708c0.778,0.672,1.878,0.809,2.793,0.377l11.979-7.359L744.121,617.997z"/>
</g>
</svg>
