<?xml version="1.0" encoding="utf-8"?>
<!-- Generator: Adobe Illustrator 16.0.0, SVG Export Plug-In . SVG Version: 6.00 Build 0)  -->
<!DOCTYPE svg PUBLIC "-//W3C//DTD SVG 1.1//EN" "http://www.w3.org/Graphics/SVG/1.1/DTD/svg11.dtd">
<svg version="1.1" xmlns="http://www.w3.org/2000/svg" xmlns:xlink="http://www.w3.org/1999/xlink" x="0px" y="0px"
	 width="1619.797px" height="1079.865px" viewBox="0 0 1619.797 1079.865" enable-background="new 0 0 1619.797 1079.865"
	 xml:space="preserve">
<g id="Layer_1" display="none">
</g>
<g id="Layer_2">
	<g>
		<path fill="#5D92CA" d="M831.053,534.898c-8.021-10.642-23.09-12.763-33.729-4.742c-10.64,8.019-12.758,23.085-4.739,33.726
			c7.865,10.439,23.087,12.758,33.726,4.743C836.95,560.607,839.07,545.535,831.053,534.898 M803.023,556.018
			c-3.703-4.909-2.899-11.929,2.01-15.628c4.91-3.706,11.882-2.54,15.58,2.374c3.703,4.906,2.746,11.723-2.165,15.425
			C813.691,562.091,806.724,560.931,803.023,556.018"/>
		<path fill="#5D92CA" d="M749.212,639.148l6.592-2.318l-11.401,31.689c-0.663,2.106-0.248,4.36,1.142,6.205
			c0.152,0.2,0.306,0.403,0.616,0.813c1.746,1.893,4.563,2.654,6.509,1.831l65.118-25.971c1.075-1.132,2.149-2.261,2.504-3.494l0,0
			l13.897-40.303c26.911-17.075,58.307-46.506,67.671-119.644c0.252-1.796-0.418-3.536-1.497-4.968l0,0
			c-1.079-1.429-2.773-2.403-4.362-2.81c-72.887-11.157-109.83,10.909-133.661,32.072l-42.577,2.248
			c-1.482,0.16-2.659,0.726-3.732,1.858l-42.917,55.434c-1.534,1.795-1.372,4.564-0.035,6.766c0.154,0.202,0.307,0.409,0.616,0.817
			c1.391,1.845,3.438,2.86,5.644,2.805l33.608-2.226l-4.046,5.697 M721.57,566.713l-30.072,1.805l32.852-42.396l28.745-1.449
			l-30.599,41.983C722.292,566.811,721.933,566.761,721.57,566.713L721.57,566.713z M716.566,595.823l6.012,7.982 M734.911,620.173
			l6.017,7.982 M790.539,609.69l-12.905,4.595l0,0l-23.905,8.712l-2.308,0.774l-27.904-37.032l1.378-2.006l14.968-20.575l0,0
			l7.968-11.142l22.933-31.715c0,0,0,0,0.204-0.154c21.682-18.907,54.432-38.45,118.241-30.398l0,0l0,0
			c-9.848,63.56-37.661,89.652-61.811,105.282c0,0,0,0-0.203,0.156L790.539,609.69L790.539,609.69z M760.06,659.93l10.031-28.41
			c0.048-0.355,0.257-0.513,0.101-0.718l48.792-17.837l-9.317,27.227L760.06,659.93L760.06,659.93z"/>
	</g>
</g>
</svg>
