<?xml version="1.0" encoding="utf-8"?>
<!-- Generator: Adobe Illustrator 16.0.0, SVG Export Plug-In . SVG Version: 6.00 Build 0)  -->
<!DOCTYPE svg PUBLIC "-//W3C//DTD SVG 1.1//EN" "http://www.w3.org/Graphics/SVG/1.1/DTD/svg11.dtd">
<svg version="1.1" xmlns="http://www.w3.org/2000/svg" xmlns:xlink="http://www.w3.org/1999/xlink" x="0px" y="0px"
	 width="1619.797px" height="1079.865px" viewBox="0 0 1619.797 1079.865" enable-background="new 0 0 1619.797 1079.865"
	 xml:space="preserve">
<g id="Layer_1" display="none">
</g>
<g id="Layer_2">
	<g>
		<path fill="#5D92CA" d="M838.314,467.708c-11.874-6.048-26.349-1.349-32.392,10.523c-6.047,11.872-1.348,26.341,10.522,32.389
			c11.646,5.936,26.343,1.347,32.392-10.521C854.888,488.229,850.184,473.752,838.314,467.708 M822.382,498.976
			c-5.481-2.79-7.839-9.45-5.047-14.929c2.788-5.481,9.566-7.49,15.044-4.696c5.479,2.786,7.608,9.333,4.817,14.814
			C834.631,499.759,827.86,501.77,822.382,498.976"/>
		<path fill="#5D92CA" d="M811.754,597.236l4.822-5.058l4.229,33.41c0.364,2.179,1.76,3.999,3.835,5.012
			c0.228,0.107,0.453,0.221,0.917,0.444c2.416,0.893,5.271,0.292,6.631-1.325l46.23-52.704c0.445-1.496,0.887-2.989,0.644-4.249l0,0
			l-5.913-42.219c16.228-27.431,30.836-67.908,5.977-137.326c-0.591-1.715-1.976-2.96-3.589-3.747l0,0
			c-1.608-0.783-3.562-0.882-5.163-0.523c-70.007,23.148-92.903,59.582-104.531,89.258l-36.915,21.333
			c-1.25,0.813-2.039,1.852-2.482,3.348l-13.072,68.876c-0.552,2.297,0.848,4.69,3.04,6.045c0.227,0.111,0.459,0.226,0.919,0.447
			c2.076,1.013,4.363,0.988,6.303-0.064l28.933-17.24l-1.017,6.912 M754.242,545.245l-25.974,15.261l10.021-52.69l24.958-14.34
			l-8.204,51.298C754.932,545.004,754.588,545.122,754.242,545.245L754.242,545.245z M763,573.454l8.98,4.384 M790.4,586.821
			l8.985,4.381 M835.205,552.228l-9.413,9.953l0,0l-17.344,18.615l-1.704,1.738l-41.675-20.328l0.318-2.413l3.995-25.13l0,0
			l2.041-13.544l6.033-38.668c0,0,0,0,0.113-0.229c10.732-26.691,31.042-58.972,91.552-80.768l0,0l0,0
			c20.079,61.103,7.144,96.978-7.275,121.87c0,0,0,0-0.112,0.231L835.205,552.228L835.205,552.228z M830.857,610.828l-3.962-29.867
			c-0.119-0.339-0.002-0.574-0.237-0.686l35.376-38.044l4.061,28.49L830.857,610.828L830.857,610.828z"/>
	</g>
	<path fill="#5D92CA" d="M781.281,572.787l-2.372,13.75l9.69-10.036 M781.281,572.787l7.318,3.714 M792.171,578.31l4.94,2.468
		l-25.617,26.042c-0.784,0.639-1.886,0.771-2.802,0.305c-1.006-0.508-1.55-1.477-1.406-2.44l5.853-35.94l4.573,2.232l-4.653,27.089
		l0,0L792.171,578.31"/>
</g>
</svg>
