<?xml version="1.0" encoding="utf-8"?>
<!-- Generator: Adobe Illustrator 16.0.0, SVG Export Plug-In . SVG Version: 6.00 Build 0)  -->
<!DOCTYPE svg PUBLIC "-//W3C//DTD SVG 1.1//EN" "http://www.w3.org/Graphics/SVG/1.1/DTD/svg11.dtd">
<svg version="1.1" xmlns="http://www.w3.org/2000/svg" xmlns:xlink="http://www.w3.org/1999/xlink" x="0px" y="0px"
	 width="1619.797px" height="1079.865px" viewBox="0 0 1619.797 1079.865" enable-background="new 0 0 1619.797 1079.865"
	 xml:space="preserve">
<g id="Layer_1" display="none">
</g>
<g id="Layer_2">
	<g>
		<path fill="#5D92CA" d="M807.175,526.328c-5.524-3.725-12.994-2.275-16.716,3.249c-3.726,5.522-2.274,12.99,3.248,16.715
			c5.418,3.655,12.991,2.273,16.716-3.248C814.149,537.522,812.696,530.051,807.175,526.328 M797.362,540.875
			c-2.55-1.719-3.313-5.168-1.595-7.717c1.718-2.55,5.204-3.134,7.752-1.413c2.549,1.717,3.207,5.095,1.487,7.645
			C803.394,542.01,799.911,542.595,797.362,540.875"/>
		<path fill="#5D92CA" d="M786.101,588.991l2.701-2.215l0.063,16.837c0.049,1.104,0.63,2.091,1.598,2.721
			c0.107,0.066,0.212,0.137,0.429,0.276c1.145,0.59,2.598,0.466,3.371-0.254l26.155-23.338c0.312-0.715,0.621-1.43,0.578-2.069l0,0
			l-0.363-21.313c9.726-12.625,19.441-31.822,11.336-67.787c-0.189-0.887-0.801-1.59-1.554-2.078l0,0
			c-0.751-0.486-1.714-0.654-2.53-0.574c-36.153,7.223-49.736,23.908-57.315,37.927l-19.62,8.338
			c-0.67,0.327-1.125,0.794-1.436,1.51l-10.685,33.385c-0.414,1.106,0.135,2.379,1.14,3.186c0.106,0.068,0.215,0.14,0.43,0.277
			c0.969,0.629,2.105,0.757,3.131,0.353l15.41-6.792l-0.926,3.368 M760.727,559.685l-13.819,5.991l8.184-25.538l13.26-5.596
			l-7.197,24.957C761.084,559.607,760.905,559.645,760.727,559.685L760.727,559.685z M763.354,574.218l4.189,2.723 M776.138,582.521
			l4.192,2.722 M800.481,568.083l-5.278,4.366l0,0l-9.741,8.182l-0.952,0.758l-19.442-12.627l0.304-1.178l3.515-12.228l0,0
			l1.838-6.597l5.351-18.822c0,0,0,0,0.069-0.106c6.953-12.592,19-27.375,50.357-34.505l0,0l0,0
			c6.241,31.548-2.364,48.563-11.037,60.038c0,0,0,0-0.07,0.107L800.481,568.083L800.481,568.083z M794.753,596.9l-0.146-15.064
			c-0.039-0.175,0.034-0.285-0.076-0.354l19.875-16.725l0.279,14.387L794.753,596.9L794.753,596.9z"/>
	</g>
	<path fill="#5D92CA" d="M770.397,577.805l-1.897,6.714l5.343-4.485 M770.397,577.805l3.445,2.229 M775.523,581.12l2.328,1.484
		l-14.099,11.612c-0.423,0.276-0.978,0.285-1.409,0.006c-0.474-0.306-0.693-0.815-0.572-1.287l4.788-17.566l2.157,1.349
		l-3.729,13.228l0,0L775.523,581.12"/>
</g>
</svg>
