<?xml version="1.0" encoding="utf-8"?>
<!-- Generator: Adobe Illustrator 16.0.0, SVG Export Plug-In . SVG Version: 6.00 Build 0)  -->
<!DOCTYPE svg PUBLIC "-//W3C//DTD SVG 1.1//EN" "http://www.w3.org/Graphics/SVG/1.1/DTD/svg11.dtd">
<svg version="1.1" xmlns="http://www.w3.org/2000/svg" xmlns:xlink="http://www.w3.org/1999/xlink" x="0px" y="0px"
	 width="1619.797px" height="1079.865px" viewBox="0 0 1619.797 1079.865" enable-background="new 0 0 1619.797 1079.865"
	 xml:space="preserve">
<g id="Layer_1" display="none">
</g>
<g id="Layer_2">
	<g>
		<path fill="#5D92CA" d="M812.48,512.127c-5.712-3.431-13.095-1.593-16.523,4.119c-3.431,5.71-1.591,13.092,4.119,16.522
			c5.602,3.367,13.092,1.591,16.523-4.118C820.03,522.941,818.189,515.556,812.48,512.127 M803.443,527.167
			c-2.637-1.583-3.58-4.987-1.997-7.622c1.582-2.637,5.032-3.402,7.667-1.817c2.636,1.581,3.47,4.92,1.886,7.557
			C809.524,527.985,806.078,528.752,803.443,527.167"/>
		<path fill="#5D92CA" d="M794.714,575.807l2.582-2.354l0.944,16.812c0.106,1.1,0.739,2.056,1.738,2.634
			c0.11,0.062,0.219,0.126,0.442,0.253c1.174,0.53,2.619,0.33,3.353-0.429l24.898-24.675c0.274-0.73,0.546-1.46,0.469-2.097l0,0
			l-1.477-21.264c9.051-13.117,17.749-32.795,7.771-68.288c-0.235-0.876-0.882-1.545-1.66-1.994l0,0
			c-0.775-0.447-1.745-0.564-2.557-0.441c-35.726,9.104-48.417,26.479-55.252,40.875l-19.157,9.353
			c-0.651,0.362-1.082,0.853-1.354,1.583l-8.923,33.898c-0.355,1.126,0.259,2.369,1.306,3.121c0.109,0.063,0.221,0.128,0.442,0.255
			c1,0.578,2.142,0.645,3.146,0.188l15.033-7.589l-0.748,3.412 M767.842,547.869l-13.487,6.706l6.836-25.931l12.949-6.283
			l-5.881,25.301C768.194,547.773,768.019,547.82,767.842,547.869L767.842,547.869z M771.226,562.245l4.326,2.5 M784.427,569.868
			l4.329,2.499 M807.981,554.175l-5.043,4.636l0,0l-9.3,8.68l-0.91,0.808l-20.078-11.593l0.243-1.192l2.869-12.395l0,0l1.491-6.684
			l4.357-19.077c0,0,0,0,0.064-0.11c6.284-12.939,17.541-28.332,48.482-37.092l0,0l0,0c7.884,31.177,0.181,48.62-7.88,60.533
			c0,0,0,0-0.064,0.112L807.981,554.175L807.981,554.175z M803.769,583.252l-0.935-15.035c-0.048-0.173,0.019-0.287-0.094-0.35
			l18.971-17.742l1.032,14.352L803.769,583.252L803.769,583.252z"/>
	</g>
	<path fill="#5D92CA" d="M778.782,564.867l-1.621,6.785l5.155-4.7 M778.782,564.867l3.534,2.085 M784.041,567.968l2.387,1.388
		l-13.609,12.182c-0.411,0.293-0.966,0.325-1.408,0.063c-0.485-0.286-0.727-0.787-0.624-1.263l4.062-17.748l2.211,1.259
		l-3.182,13.37l0,0L784.041,567.968"/>
</g>
</svg>
