<?xml version="1.0" encoding="utf-8"?>
<!-- Generator: Adobe Illustrator 16.0.0, SVG Export Plug-In . SVG Version: 6.00 Build 0)  -->
<!DOCTYPE svg PUBLIC "-//W3C//DTD SVG 1.1//EN" "http://www.w3.org/Graphics/SVG/1.1/DTD/svg11.dtd">
<svg version="1.1" xmlns="http://www.w3.org/2000/svg" xmlns:xlink="http://www.w3.org/1999/xlink" x="0px" y="0px"
	 width="1619.797px" height="1079.865px" viewBox="0 0 1619.797 1079.865" enable-background="new 0 0 1619.797 1079.865"
	 xml:space="preserve">
<g id="Layer_1" display="none">
</g>
<g id="Layer_2">
	<g>
		<path fill="#5D92CA" d="M823.654,518.048c-10.503-8.203-25.607-6.352-33.806,4.149c-8.202,10.5-6.35,25.601,4.149,33.802
			c10.299,8.049,25.601,6.349,33.804-4.147C836.006,541.355,834.15,526.246,823.654,518.048 M802.047,545.702
			c-4.848-3.784-5.891-10.772-2.105-15.617c3.783-4.85,10.818-5.527,15.663-1.739c4.846,3.78,5.688,10.613,1.901,15.46
			C813.921,548.808,806.892,549.489,802.047,545.702"/>
		<path fill="#5D92CA" d="M772.865,640.128l5.698-4.044l-2.224,33.603c-0.058,2.209,0.965,4.262,2.808,5.651
			c0.203,0.149,0.403,0.303,0.816,0.611c2.201,1.338,5.119,1.294,6.761-0.035L842.163,633c0.722-1.383,1.44-2.766,1.441-4.048l0,0
			l2.252-42.572c21.163-23.832,43.227-60.776,32.07-133.663c-0.253-1.796-1.375-3.282-2.809-4.362l0,0
			c-1.429-1.076-3.327-1.545-4.968-1.499c-73.138,9.365-102.566,40.761-119.643,67.672L710.2,528.427
			c-1.382,0.56-2.355,1.429-3.075,2.812l-25.974,65.117c-0.98,2.149-0.063,4.766,1.831,6.514c0.202,0.153,0.407,0.31,0.816,0.614
			c1.845,1.391,4.094,1.803,6.199,1.14l31.691-11.402l-2.317,6.59 M726.331,578.119l-28.408,10.024l19.891-49.81l27.235-9.315
			l-17.841,48.79C727.053,578.015,726.692,578.064,726.331,578.119L726.331,578.119z M729.544,607.48l7.979,6.017 M753.891,625.83
			l7.984,6.016 M804.474,600.422l-11.141,7.974l0,0l-20.577,14.964l-2.004,1.381l-37.03-27.906l0.772-2.308l8.717-23.905l0,0
			l4.588-12.906l13.3-36.807c0,0,0,0,0.155-0.203c15.628-24.153,41.726-51.965,105.282-61.815l0,0l0,0
			c8.051,63.812-11.491,96.559-30.396,118.243c0,0,0,0-0.154,0.205L804.474,600.422L804.474,600.422z M789.024,657.116l1.81-30.075
			c-0.053-0.355,0.107-0.563-0.102-0.718l41.985-30.595l-1.45,28.742L789.024,657.116L789.024,657.116z"/>
	</g>
	<g>
		<polygon fill="#5D92CA" points="748.77,614.086 747.986,616.334 749.9,614.914 		"/>
		<path fill="#5D92CA" d="M753.122,617.273l-12.795,9.475l5.223-15.019l-4.038-2.957l-7.965,23.559
			c-0.299,0.927,0.079,1.971,0.987,2.638c0.828,0.61,1.936,0.66,2.814,0.158l20.141-14.656L753.122,617.273z"/>
	</g>
</g>
</svg>
