<?xml version="1.0" encoding="utf-8"?>
<!-- Generator: Adobe Illustrator 16.0.0, SVG Export Plug-In . SVG Version: 6.00 Build 0)  -->
<!DOCTYPE svg PUBLIC "-//W3C//DTD SVG 1.1//EN" "http://www.w3.org/Graphics/SVG/1.1/DTD/svg11.dtd">
<svg version="1.1" xmlns="http://www.w3.org/2000/svg" xmlns:xlink="http://www.w3.org/1999/xlink" x="0px" y="0px"
	 width="1619.797px" height="1079.865px" viewBox="0 0 1619.797 1079.865" enable-background="new 0 0 1619.797 1079.865"
	 xml:space="preserve">
<g id="Layer_1" display="none">
</g>
<g id="Layer_2">
	<g>
		<path fill="#5D92CA" d="M828.014,531.842c-8.744-10.056-23.924-11.123-33.977-2.378c-10.055,8.741-11.116,23.919-2.375,33.973
			c8.574,9.865,23.919,11.116,33.974,2.379C835.69,557.076,836.754,541.894,828.014,531.842 M801.526,554.865
			c-4.036-4.639-3.724-11.699,0.915-15.731c4.639-4.039,11.675-3.361,15.708,1.281c4.034,4.636,3.557,11.503-1.085,15.54
			C812.592,560.179,805.561,559.507,801.526,554.865"/>
		<path fill="#5D92CA" d="M753.645,641.546l6.414-2.772l-9.163,32.406c-0.514,2.148,0.057,4.368,1.571,6.11
			c0.167,0.188,0.333,0.382,0.672,0.769c1.875,1.766,4.737,2.33,6.621,1.371l63.149-30.449c0.993-1.203,1.985-2.405,2.252-3.66l0,0
			l11.054-41.174c25.653-18.91,54.918-50.459,59.159-124.073c0.126-1.81-0.664-3.497-1.841-4.851l0,0
			c-1.175-1.35-2.934-2.205-4.546-2.499c-73.488-6.046-108.802,18.545-131.099,41.318l-42.316,5.213
			c-1.468,0.261-2.603,0.908-3.593,2.112l-38.947,58.293c-1.406,1.899-1.051,4.649,0.437,6.752c0.167,0.19,0.334,0.387,0.671,0.771
			c1.517,1.743,3.63,2.615,5.826,2.403l33.371-4.564l-3.638,5.965 M721.018,571.216l-29.873,3.898l29.813-44.586l28.576-3.45
			l-27.596,44.015C721.744,571.264,721.381,571.237,721.018,571.216L721.018,571.216z M718.057,600.604l6.553,7.544
			 M738.056,623.615l6.559,7.543 M792.816,609.278l-12.554,5.484l0,0l-23.239,10.359l-2.249,0.933l-30.418-34.995l1.234-2.097
			l13.497-21.571l0,0l7.171-11.67l20.662-33.236c0,0,0,0,0.194-0.166c20.311-20.376,51.618-42.155,115.833-38.575l0,0l0,0
			c-5.391,64.091-31.315,92.061-54.316,109.338c0,0,0,0-0.192,0.169L792.816,609.278L792.816,609.278z M765.916,661.521
			l8.025-29.041c0.023-0.358,0.222-0.529,0.05-0.724l47.429-21.197l-7.395,27.812L765.916,661.521L765.916,661.521z"/>
	</g>
</g>
</svg>
