<?xml version="1.0" encoding="utf-8"?>
<!-- Generator: Adobe Illustrator 16.0.0, SVG Export Plug-In . SVG Version: 6.00 Build 0)  -->
<!DOCTYPE svg PUBLIC "-//W3C//DTD SVG 1.1//EN" "http://www.w3.org/Graphics/SVG/1.1/DTD/svg11.dtd">
<svg version="1.1" xmlns="http://www.w3.org/2000/svg" xmlns:xlink="http://www.w3.org/1999/xlink" x="0px" y="0px"
	 width="1619.797px" height="1079.865px" viewBox="0 0 1619.797 1079.865" enable-background="new 0 0 1619.797 1079.865"
	 xml:space="preserve">
<g id="Layer_1" display="none">
</g>
<g id="Layer_2">
	<g>
		<path fill="#5D92CA" d="M825.14,474.813c-6.039-2.814-13.189-0.214-16.002,5.824c-2.815,6.037-0.214,13.186,5.822,16.001
			c5.924,2.763,13.188,0.213,16.003-5.823C833.779,484.779,831.176,477.627,825.14,474.813 M817.724,490.716
			c-2.788-1.298-4.082-4.586-2.782-7.372c1.298-2.788,4.649-3.909,7.436-2.609c2.786,1.296,3.964,4.531,2.665,7.318
			C823.858,490.894,820.511,492.017,817.724,490.716"/>
		<path fill="#5D92CA" d="M814.128,540.001l2.321-2.611l2.696,16.621c0.22,1.083,0.949,1.967,2.003,2.437
			c0.116,0.05,0.23,0.103,0.467,0.206c1.223,0.404,2.639,0.054,3.289-0.777l22.183-27.143c0.196-0.755,0.391-1.509,0.247-2.134l0,0
			l-3.691-20.994c7.631-13.991,14.224-34.471,0.591-68.725c-0.326-0.847-1.039-1.445-1.859-1.81l0,0
			c-0.817-0.363-1.795-0.379-2.589-0.171c-34.579,12.789-45.384,31.394-50.677,46.426l-18.074,11.304
			c-0.61,0.428-0.986,0.961-1.182,1.716l-5.33,34.646c-0.236,1.157,0.505,2.329,1.625,2.967c0.115,0.052,0.232,0.105,0.467,0.208
			c1.055,0.47,2.197,0.417,3.148-0.142l14.156-9.12l-0.388,3.471 M784.482,515.025l-12.713,8.079l4.089-26.503l12.221-7.602
			l-3.205,25.776C784.822,514.894,784.652,514.958,784.482,515.025L784.482,515.025z M789.351,528.968l4.564,2.034 M803.275,535.17
			l4.566,2.033 M825.061,517.102l-4.53,5.138l0,0l-8.342,9.604l-0.82,0.898l-21.18-9.43l0.116-1.211l1.559-12.627l0,0l0.784-6.804
			l2.34-19.427c0,0,0,0,0.052-0.116c4.897-13.525,14.482-30.01,44.339-41.957l0,0l0,0c11.1,30.183,5.262,48.334-1.509,61.025
			c0,0,0,0-0.052,0.118L825.061,517.102L825.061,517.102z M823.911,546.46l-2.501-14.855c-0.065-0.167-0.011-0.287-0.13-0.338
			l17.012-19.628l2.527,14.166L823.911,546.46L823.911,546.46z"/>
	</g>
	<path fill="#5D92CA" d="M797.137,531.266l-0.898,6.918l4.632-5.216 M797.137,531.266l3.733,1.702 M802.691,533.797l2.52,1.13
		l-12.254,13.545c-0.378,0.335-0.925,0.425-1.393,0.211c-0.513-0.233-0.806-0.706-0.753-1.19l2.173-18.077l2.331,1.02l-1.759,13.63
		l0,0L802.691,533.797"/>
</g>
</svg>
