<?xml version="1.0" encoding="utf-8"?>
<!-- Generator: Adobe Illustrator 16.0.0, SVG Export Plug-In . SVG Version: 6.00 Build 0)  -->
<!DOCTYPE svg PUBLIC "-//W3C//DTD SVG 1.1//EN" "http://www.w3.org/Graphics/SVG/1.1/DTD/svg11.dtd">
<svg version="1.1" xmlns="http://www.w3.org/2000/svg" xmlns:xlink="http://www.w3.org/1999/xlink" x="0px" y="0px"
	 width="1619.797px" height="1079.865px" viewBox="0 0 1619.797 1079.865" enable-background="new 0 0 1619.797 1079.865"
	 xml:space="preserve">
<g id="Layer_1" display="none">
</g>
<g id="Layer_2">
	<g>
		<path fill="#5D92CA" d="M825.678,529.546c-9.259-9.585-24.474-9.855-34.054-0.597c-9.584,9.256-9.85,24.468-0.594,34.051
			c9.079,9.403,24.468,9.85,34.051,0.598C834.665,554.344,834.932,539.125,825.678,529.546 M800.431,553.923
			c-4.273-4.422-4.332-11.487,0.09-15.758c4.421-4.275,11.483-3.967,15.754,0.458c4.271,4.418,4.154,11.302-0.27,15.575
			C811.76,558.651,804.703,558.348,800.431,553.923"/>
		<path fill="#5D92CA" d="M757.152,642.991l6.26-3.104l-7.454,32.841c-0.401,2.172,0.285,4.359,1.888,6.019
			c0.177,0.18,0.353,0.365,0.711,0.733c1.965,1.666,4.854,2.078,6.683,1.022l61.47-33.712c0.929-1.253,1.856-2.505,2.058-3.773l0,0
			l8.883-41.696c24.63-20.227,52.203-53.265,52.585-126.999c0.032-1.814-0.846-3.458-2.092-4.748l0,0
			c-1.244-1.287-3.045-2.048-4.671-2.256c-73.704-2.192-107.683,24.212-128.757,48.122l-41.985,7.42
			c-1.453,0.337-2.551,1.043-3.478,2.297l-35.842,60.251c-1.305,1.97-0.806,4.698,0.79,6.72c0.176,0.182,0.354,0.369,0.71,0.736
			c1.606,1.662,3.761,2.419,5.943,2.095l33.086-6.305l-3.32,6.147 M720.889,574.465l-29.628,5.458l27.439-46.085l28.355-4.94
			l-25.254,45.398C721.617,574.475,721.253,574.469,720.889,574.465L720.889,574.465z M719.47,603.969l6.939,7.19 M740.646,625.9
			l6.944,7.189 M794.581,608.717l-12.25,6.133l0,0l-22.665,11.562l-2.197,1.049l-32.208-33.355l1.123-2.159l12.35-22.248l0,0
			l6.55-12.029l18.895-34.272c0,0,0,0,0.184-0.176c19.216-21.411,49.342-44.798,113.656-44.584l0,0l0,0
			c-2.029,64.285-26.454,93.573-48.52,112.032c0,0,0,0-0.184,0.178L794.581,608.717L794.581,608.717z M770.452,662.296l6.494-29.421
			c0.004-0.358,0.193-0.54,0.012-0.725l46.253-23.65l-5.929,28.161L770.452,662.296L770.452,662.296z"/>
	</g>
</g>
</svg>
