<?xml version="1.0" encoding="utf-8"?>
<!-- Generator: Adobe Illustrator 16.0.0, SVG Export Plug-In . SVG Version: 6.00 Build 0)  -->
<!DOCTYPE svg PUBLIC "-//W3C//DTD SVG 1.1//EN" "http://www.w3.org/Graphics/SVG/1.1/DTD/svg11.dtd">
<svg version="1.1" xmlns="http://www.w3.org/2000/svg" xmlns:xlink="http://www.w3.org/1999/xlink" x="0px" y="0px"
	 width="1619.797px" height="1079.866px" viewBox="0 0 1619.797 1079.866" enable-background="new 0 0 1619.797 1079.866"
	 xml:space="preserve">
<g id="Layer_1" display="none">
</g>
<g id="Layer_2">
	<g>
		<path fill="#5D92CA" d="M863.524,307.715c-13.163-2.083-25.478,6.859-27.556,20.018c-2.082,13.159,6.858,25.468,20.016,27.553
			c12.911,2.046,25.47-6.86,27.556-20.016C885.627,322.112,876.679,309.797,863.524,307.715 M858.032,342.378
			c-6.075-0.96-10.375-6.566-9.413-12.64c0.959-6.075,6.784-10.079,12.857-9.115c6.07,0.957,10.119,6.527,9.158,12.6
			C869.924,339.338,864.106,343.343,858.032,342.378"/>
		<path fill="#5D92CA" d="M878.29,439.111l3.022-6.3l14.346,30.468c1.021,1.959,2.909,3.26,5.196,3.582
			c0.249,0.031,0.499,0.069,1.009,0.138c2.575,0.104,5.104-1.351,5.897-3.309l27.682-64.41c-0.04-1.559-0.082-3.116-0.702-4.239l0,0
			l-18.669-38.324c6.955-31.104,8.341-74.113-36.753-132.452c-1.091-1.448-2.794-2.204-4.57-2.454l0,0
			c-1.773-0.249-3.66,0.261-5.072,1.098c-59.427,43.649-69.943,85.374-71.831,117.19l-28.518,31.697
			c-0.937,1.159-1.366,2.39-1.326,3.949l8.853,69.545c0.184,2.355,2.254,4.199,4.759,4.81c0.25,0.036,0.505,0.073,1.012,0.142
			c2.288,0.321,4.455-0.408,5.975-2.009l22.189-25.337l1.168,6.888 M807.525,407.436l-19.985,22.54l-6.751-53.206l19.306-21.352
			l8.048,51.32C808.108,406.996,807.816,407.213,807.525,407.436L807.525,407.436z M824.572,431.559l9.896,1.395 M854.763,435.806
			l9.898,1.389 M886.683,389.059l-5.875,12.373l0,0l-10.743,23.064l-1.083,2.181l-45.917-6.455l-0.442-2.394l-3.966-25.135l0,0
			l-2.244-13.511l-6.212-38.639c0,0,0,0,0.038-0.253c1.958-28.701,11.298-65.678,62.111-105.106l0,0l0,0
			c37.979,51.908,36.762,90.024,30.74,118.153c0,0,0,0-0.036,0.255L886.683,389.059L886.683,389.059z M900.658,446.134
			l-12.997-27.181c-0.219-0.285-0.18-0.546-0.438-0.578l21.887-47.114l12.666,25.839L900.658,446.134L900.658,446.134z"/>
	</g>
	<path fill="#5D92CA" d="M834.508,432.115l4.841,34.55l15.417-31.293 M834.508,432.115l20.258,3.257 M864.646,436.959l13.648,2.103
		l-41.12,81.542c-1.379,2.122-3.903,3.275-6.438,2.868c-2.782-0.446-4.818-2.333-5.21-4.737l-13.483-90.032l12.589,1.825
		l9.588,68.042l0,0L864.646,436.959"/>
</g>
</svg>
