<?xml version="1.0" encoding="utf-8"?>
<!-- Generator: Adobe Illustrator 16.0.0, SVG Export Plug-In . SVG Version: 6.00 Build 0)  -->
<!DOCTYPE svg PUBLIC "-//W3C//DTD SVG 1.1//EN" "http://www.w3.org/Graphics/SVG/1.1/DTD/svg11.dtd">
<svg version="1.1" xmlns="http://www.w3.org/2000/svg" xmlns:xlink="http://www.w3.org/1999/xlink" x="0px" y="0px"
	 width="1619.797px" height="1079.866px" viewBox="0 0 1619.797 1079.866" enable-background="new 0 0 1619.797 1079.866"
	 xml:space="preserve">
<g id="Layer_1" display="none">
</g>
<g id="Layer_2">
	<g>
		<path fill="#5D92CA" d="M861.395,332.029c-13.083-2.541-25.701,5.965-28.238,19.044c-2.54,13.077,5.966,25.691,19.042,28.233
			c12.832,2.496,25.693-5.967,28.237-19.042C882.981,347.187,874.469,334.568,861.395,332.029 M854.697,366.479
			c-6.038-1.172-10.14-6.925-8.966-12.961c1.17-6.037,7.131-9.836,13.167-8.66c6.034,1.168,9.885,6.876,8.713,12.913
			C866.688,363.854,860.733,367.654,854.697,366.479"/>
		<path fill="#5D92CA" d="M871.566,463.859l3.241-6.19l13.273,30.949c0.951,1.994,2.794,3.36,5.068,3.762
			c0.249,0.04,0.497,0.088,1.004,0.174c2.569,0.192,5.147-1.172,6.009-3.101l29.913-63.404c0.014-1.561,0.027-3.118-0.554-4.262l0,0
			l-17.321-38.954c8.037-30.843,10.923-73.775-32.107-133.654c-1.04-1.484-2.715-2.3-4.482-2.611l0,0
			c-1.763-0.311-3.667,0.133-5.107,0.92c-60.914,41.549-72.88,82.881-75.878,114.611l-29.605,30.683
			c-0.978,1.127-1.45,2.342-1.464,3.902l6.42,69.812c0.102,2.359,2.107,4.275,4.588,4.972c0.249,0.046,0.503,0.092,1.006,0.178
			c2.275,0.4,4.466-0.253,6.041-1.799l23.061-24.548l0.927,6.924 M801.95,429.734l-20.76,21.829l-4.89-53.41l20.038-20.664
			l6.252,51.57C802.547,429.314,802.249,429.522,801.95,429.734L801.95,429.734z M818.145,454.438l9.841,1.738 M848.168,459.735
			l9.844,1.733 M881.701,414.131l-6.304,12.161l0,0l-11.541,22.675l-1.159,2.141l-45.663-8.053l-0.359-2.408l-3.086-25.257l0,0
			l-1.771-13.582l-4.859-38.833c0,0,0,0,0.046-0.252c2.958-28.615,13.584-65.243,65.742-102.874l0,0l0,0
			c36.144,53.202,33.598,91.252,26.598,119.155c0,0,0,0-0.045,0.253L881.701,414.131L881.701,414.131z M893.676,471.659
			l-12.041-27.617c-0.208-0.293-0.16-0.552-0.417-0.594l23.518-46.321l11.756,26.266L893.676,471.659L893.676,471.659z"/>
	</g>
	<path fill="#5D92CA" d="M828.111,455.591l4.019,34.655l16.156-30.918 M828.111,455.591l20.175,3.737 M858.126,461.151l13.593,2.426
		l-43.045,80.542c-1.43,2.089-3.979,3.182-6.503,2.715c-2.771-0.513-4.762-2.447-5.097-4.86l-11.34-90.327l12.542,2.124l7.97,68.251
		l0,0L858.126,461.151"/>
</g>
</svg>
