<?xml version="1.0" encoding="utf-8"?>
<!-- Generator: Adobe Illustrator 16.0.0, SVG Export Plug-In . SVG Version: 6.00 Build 0)  -->
<!DOCTYPE svg PUBLIC "-//W3C//DTD SVG 1.1//EN" "http://www.w3.org/Graphics/SVG/1.1/DTD/svg11.dtd">
<svg version="1.1" xmlns="http://www.w3.org/2000/svg" xmlns:xlink="http://www.w3.org/1999/xlink" x="0px" y="0px"
	 width="1619.797px" height="1079.865px" viewBox="0 0 1619.797 1079.865" enable-background="new 0 0 1619.797 1079.865"
	 xml:space="preserve">
<g id="Layer_1" display="none">
</g>
<g id="Layer_2">
	<g>
		<path fill="#5D92CA" d="M837.335,541.684c-6.257-11.766-20.808-16.216-32.57-9.962c-11.763,6.257-16.211,20.807-9.955,32.571
			c6.134,11.539,20.807,16.212,32.567,9.959C839.14,567.997,843.59,553.444,837.335,541.684 M806.347,558.159
			c-2.887-5.429-0.996-12.238,4.432-15.124c5.43-2.889,12.133-0.646,15.019,4.783c2.887,5.426,0.876,12.009-4.554,14.897
			C815.936,565.827,809.234,563.589,806.347,558.159"/>
		<path fill="#5D92CA" d="M740.194,631.847l6.876-1.258l-16.221,29.516c-0.984,1.975-0.927,4.266,0.157,6.303
			c0.12,0.225,0.239,0.45,0.481,0.901c1.429,2.142,4.093,3.335,6.146,2.827l68.377-15.465c1.238-0.949,2.477-1.897,3.019-3.058l0,0
			l20.03-37.632c29.251-12.657,64.865-36.813,85.556-107.586c0.529-1.734,0.14-3.556-0.702-5.142l0,0
			c-0.843-1.581-2.362-2.807-3.869-3.457c-70.243-22.422-110.187-6.406-137.033,10.769l-42.403-4.44
			c-1.489-0.076-2.741,0.299-3.977,1.248l-51.06,48.04c-1.798,1.534-2.071,4.293-1.095,6.676c0.12,0.225,0.239,0.451,0.481,0.905
			c1.083,2.036,2.949,3.364,5.136,3.652l33.542,3.058l-4.888,4.995 M724.226,555.978l-29.984-2.919l39.079-36.737l28.618,3.066
			l-36.79,36.681C724.923,556.189,724.575,556.084,724.226,555.978L724.226,555.978z M714.729,583.949l4.688,8.824 M729.04,610.868
			l4.691,8.825 M785.621,609.219l-13.464,2.518l0,0l-24.978,4.866l-2.396,0.403l-21.77-40.942l1.675-1.762l18.002-17.984l0,0
			l9.614-9.757l27.611-27.737c0,0,0,0,0.226-0.12c24.372-15.283,59.776-29.462,121.541-11.527l0,0l0,0
			c-19.669,61.235-51.223,82.655-77.52,94.316c0,0,0,0-0.226,0.122L785.621,609.219L785.621,609.219z M747.658,654.071
			l14.351-26.492c0.104-0.346,0.334-0.467,0.212-0.694l50.982-9.986l-13.461,25.437L747.658,654.071L747.658,654.071z"/>
	</g>
</g>
</svg>
