<?xml version="1.0" encoding="utf-8"?>
<!-- Generator: Adobe Illustrator 16.0.0, SVG Export Plug-In . SVG Version: 6.00 Build 0)  -->
<!DOCTYPE svg PUBLIC "-//W3C//DTD SVG 1.1//EN" "http://www.w3.org/Graphics/SVG/1.1/DTD/svg11.dtd">
<svg version="1.1" xmlns="http://www.w3.org/2000/svg" xmlns:xlink="http://www.w3.org/1999/xlink" x="0px" y="0px"
	 width="1619.797px" height="1079.865px" viewBox="0 0 1619.797 1079.865" enable-background="new 0 0 1619.797 1079.865"
	 xml:space="preserve">
<g id="Layer_1" display="none">
</g>
<g id="Layer_2">
	<g>
		<path fill="#5D92CA" d="M863.204,274.791c-6.647-0.463-12.391,4.527-12.853,11.172c-0.463,6.646,4.526,12.387,11.17,12.853
			c6.521,0.456,12.388-4.526,12.853-11.171C874.841,280.999,869.847,275.255,863.204,274.791 M861.979,292.297
			c-3.067-0.214-5.454-2.818-5.239-5.886c0.213-3.067,2.94-5.315,6.007-5.101c3.065,0.212,5.325,2.811,5.11,5.877
			C867.771,290.264,865.046,292.512,861.979,292.297"/>
		<path fill="#5D92CA" d="M876.285,339.596l1.231-3.27l8.473,14.551c0.593,0.932,1.591,1.497,2.744,1.558
			c0.125,0.005,0.252,0.014,0.509,0.025c1.287-0.062,2.483-0.896,2.793-1.905l10.981-33.29c-0.088-0.774-0.177-1.548-0.534-2.081
			l0,0l-10.97-18.274c2.109-15.796,0.925-37.279-24.078-64.372c-0.606-0.674-1.487-0.977-2.383-1.023l0,0
			c-0.894-0.047-1.812,0.289-2.479,0.768c-27.698,24.332-31.118,45.572-30.672,61.503l-12.823,17.031
			c-0.416,0.618-0.577,1.25-0.489,2.024l7.44,34.255c0.194,1.165,1.306,1.993,2.58,2.188c0.126,0.007,0.255,0.015,0.51,0.027
			c1.153,0.061,2.201-0.397,2.889-1.261l9.948-13.588l0.882,3.38 M839.657,326.902L830.685,339l-5.681-26.207l8.686-11.477
			l6.245,25.211C839.928,326.656,839.792,326.777,839.657,326.902L839.657,326.902z M849.199,338.176l4.989,0.263 M864.422,338.976
			l4.991,0.261 M878.284,314.299l-2.388,6.42l0,0l-4.346,11.957l-0.444,1.133l-23.152-1.215l-0.325-1.173l-3.07-12.348l0,0
			l-1.707-6.631l-4.777-18.976c0,0,0,0,0.007-0.127c-0.275-14.382,2.765-33.207,26.357-55.061l0,0l0,0
			c21.179,24.2,22.234,43.239,20.461,57.513c0,0,0,0-0.007,0.129L878.284,314.299L878.284,314.299z M887.732,342.119l-7.658-12.973
			c-0.122-0.133-0.113-0.264-0.244-0.269l8.849-24.42l7.435,12.317L887.732,342.119L887.732,342.119z"/>
	</g>
	<path fill="#5D92CA" d="M854.152,338.373l4.225,16.924l6.02-16.371 M854.152,338.373l10.244,0.553 M869.439,339.117l6.896,0.328
		l-16.156,42.708c-0.574,1.127-1.768,1.833-3.05,1.764c-1.406-0.075-2.519-0.905-2.84-2.081l-11.44-44.057l6.355,0.245l8.348,33.329
		l0,0L869.439,339.117"/>
</g>
</svg>
