<?xml version="1.0" encoding="utf-8"?>
<!-- Generator: Adobe Illustrator 16.0.0, SVG Export Plug-In . SVG Version: 6.00 Build 0)  -->
<!DOCTYPE svg PUBLIC "-//W3C//DTD SVG 1.1//EN" "http://www.w3.org/Graphics/SVG/1.1/DTD/svg11.dtd">
<svg version="1.1" xmlns="http://www.w3.org/2000/svg" xmlns:xlink="http://www.w3.org/1999/xlink" x="0px" y="0px"
	 width="1619.797px" height="1079.865px" viewBox="0 0 1619.797 1079.865" enable-background="new 0 0 1619.797 1079.865"
	 xml:space="preserve">
<g id="Layer_1" display="none">
</g>
<g id="Layer_2">
	<g>
		<path fill="#5D92CA" d="M801.354,549.618c-4.874-4.543-12.478-4.28-17.019,0.594c-4.543,4.872-4.278,12.475,0.594,17.017
			c4.779,4.458,12.475,4.278,17.018-0.592C806.491,561.766,806.227,554.159,801.354,549.618 M789.387,562.451
			c-2.249-2.096-2.464-5.623-0.367-7.871c2.096-2.25,5.629-2.281,7.878-0.184c2.249,2.094,2.37,5.535,0.272,7.784
			C795.167,564.516,791.635,564.549,789.387,562.451"/>
		<path fill="#5D92CA" d="M770.107,608.056l3.045-1.713l-2.863,16.593c-0.144,1.095,0.257,2.169,1.101,2.957
			c0.093,0.085,0.185,0.173,0.374,0.348c1.024,0.78,2.479,0.91,3.364,0.335l29.81-18.442c0.432-0.65,0.862-1.299,0.93-1.938l0,0
			l3.344-21.052c11.769-10.744,24.672-27.962,22.934-64.789c-0.032-0.906-0.513-1.704-1.169-2.316l0,0
			c-0.654-0.61-1.573-0.943-2.392-1.004c-36.858,0.834-53.133,14.908-63.031,27.397l-20.77,4.804
			c-0.717,0.207-1.246,0.587-1.676,1.238l-16.32,31.022c-0.6,1.018-0.279,2.367,0.57,3.335c0.093,0.086,0.187,0.175,0.374,0.348
			c0.845,0.788,1.942,1.11,3.022,0.891l16.355-4.014l-1.496,3.156 M750.207,574.789l-14.65,3.5l12.495-23.728l14.028-3.209
			l-11.422,23.329C750.571,574.775,750.39,574.781,750.207,574.789L750.207,574.789z M750.271,589.558l3.653,3.409 M761.418,599.955
			l3.656,3.408 M787.899,589.963l-5.956,3.383l0,0l-11.014,6.366l-1.07,0.582l-16.955-15.813l0.505-1.107l5.584-11.432l0,0
			l2.956-6.177l8.538-17.608c0,0,0,0,0.087-0.092c9.034-11.194,23.464-23.66,55.583-25.236l0,0l0,0
			c0.669,32.151-10.76,47.415-21.294,57.208c0,0,0,0-0.088,0.094L787.899,589.963L787.899,589.963z M777.253,617.348l2.474-14.86
			c-0.008-0.179,0.082-0.275-0.014-0.363l22.476-13.02l-2.223,14.217L777.253,617.348L777.253,617.348z"/>
	</g>
	<polygon fill="#5D92CA" points="757.421,595.609 755.927,598.632 758.862,596.972 	"/>
</g>
</svg>
