<?xml version="1.0" encoding="utf-8"?>
<!-- Generator: Adobe Illustrator 16.0.0, SVG Export Plug-In . SVG Version: 6.00 Build 0)  -->
<!DOCTYPE svg PUBLIC "-//W3C//DTD SVG 1.1//EN" "http://www.w3.org/Graphics/SVG/1.1/DTD/svg11.dtd">
<svg version="1.1" xmlns="http://www.w3.org/2000/svg" xmlns:xlink="http://www.w3.org/1999/xlink" x="0px" y="0px"
	 width="1619.797px" height="1079.865px" viewBox="0 0 1619.797 1079.865" enable-background="new 0 0 1619.797 1079.865"
	 xml:space="preserve">
<g id="Layer_1" display="none">
</g>
<g id="Layer_2">
	<g>
		<path fill="#5D92CA" d="M805.631,530.428c-5.459-3.821-12.953-2.502-16.771,2.956c-3.82,5.457-2.5,12.949,2.956,16.769
			c5.354,3.75,12.95,2.5,16.771-2.955C812.407,541.742,811.086,534.246,805.631,530.428 M795.565,544.801
			c-2.52-1.763-3.224-5.225-1.46-7.743c1.762-2.52,5.258-3.042,7.775-1.278c2.519,1.76,3.118,5.151,1.354,7.67
			C801.576,546.041,798.084,546.565,795.565,544.801"/>
		<path fill="#5D92CA" d="M783.466,592.713l2.739-2.168l-0.231,16.836c0.029,1.104,0.593,2.103,1.55,2.748
			c0.105,0.069,0.209,0.141,0.424,0.284c1.135,0.61,2.59,0.512,3.375-0.194l26.559-22.878c0.324-0.709,0.646-1.418,0.613-2.059l0,0
			l0.01-21.316c9.944-12.453,19.994-31.477,12.517-67.579c-0.173-0.89-0.772-1.603-1.517-2.105l0,0
			c-0.742-0.5-1.701-0.684-2.52-0.618c-36.273,6.59-50.146,23.036-57.969,36.92l-19.763,7.994c-0.676,0.316-1.139,0.775-1.462,1.485
			l-11.266,33.193c-0.434,1.099,0.094,2.381,1.085,3.205c0.104,0.071,0.212,0.144,0.423,0.285c0.958,0.646,2.092,0.793,3.126,0.407
			l15.525-6.522l-0.984,3.351 M758.607,562.968l-13.922,5.749l8.628-25.391l13.354-5.364l-7.631,24.828
			C758.965,562.897,758.787,562.932,758.607,562.968L758.607,562.968z M760.98,577.545l4.142,2.796 M773.617,586.07l4.145,2.794
			 M798.209,572.06l-5.354,4.273l0,0l-9.883,8.01l-0.965,0.742l-19.22-12.965l0.325-1.173l3.727-12.165l0,0l1.953-6.564
			l5.678-18.726c0,0,0,0,0.072-0.105c7.172-12.469,19.475-27.039,50.951-33.62l0,0l0,0c5.689,31.651-3.211,48.514-12.083,59.836
			c0,0,0,0-0.072,0.106L798.209,572.06L798.209,572.06z M791.979,600.772l0.117-15.064c-0.036-0.176,0.039-0.284-0.07-0.355
			l20.163-16.375l0.028,14.389L791.979,600.772L791.979,600.772z"/>
	</g>
	<path fill="#5D92CA" d="M770.099,578.118l-2.056,6.667l5.447-4.357 M770.099,578.118l3.392,2.31 M775.146,581.554l2.292,1.54
		l-14.369,11.275c-0.43,0.266-0.984,0.262-1.409-0.028c-0.466-0.317-0.674-0.832-0.541-1.301l5.201-17.448l2.125,1.4l-4.04,13.135
		l0,0L775.146,581.554"/>
</g>
</svg>
